<svg width="823" height="609" viewBox="0 0 823 609" fill="none" xmlns="http://www.w3.org/2000/svg">
<path d="M685.745 84.3573L798.083 406.598C801.809 417.289 796.164 428.977 785.473 432.704L691.411 465.495C680.721 469.222 669.033 463.577 665.306 452.886L552.968 130.645C540.186 93.9798 559.548 53.8947 596.213 41.1127C632.878 28.3307 672.963 47.692 685.745 84.3573Z" fill="#5C8E3C" stroke="black" stroke-width="27"/>
<path d="M296.419 150.408L497.551 97.2051C519.631 91.3646 541.807 106.289 544.71 128.944L557.144 226.001C560.06 248.758 542.193 268.844 519.251 268.601L311.019 266.39C292.155 266.189 276.326 252.11 273.929 233.397L268.593 191.754C266.183 172.943 278.085 155.258 296.419 150.408Z" fill="#B1B1B1" stroke="black" stroke-width="27"/>
<path d="M81.4931 150.613L216.943 113.891C270.791 99.2922 325.127 135.619 332.217 190.959C339.341 246.561 295.483 295.546 239.434 294.588L99.1151 292.191C63.3366 291.579 33.4286 264.802 28.881 229.308C24.3084 193.62 46.7661 160.028 81.4931 150.613Z" fill="#B1B1B1" stroke="black" stroke-width="27"/>
<path d="M184.038 105.338L320.707 75.2969C347.099 69.4958 372.528 88.3634 374.626 115.304L387.27 277.629C389.515 306.458 364.1 329.738 335.579 324.978L188.356 300.408C167.224 296.882 151.605 278.799 151.189 257.379L149.099 149.663C148.688 128.448 163.313 109.893 184.038 105.338Z" fill="#767676" stroke="black" stroke-width="15"/>
<path d="M412.449 82.0665L537.448 49.2867C563.551 42.4412 589.691 60.219 592.917 87.0118L612.779 251.983C616.376 281.861 589.897 306.62 560.327 301.027L417.507 274.011C396.812 270.096 381.695 252.208 381.286 231.149L379.246 125.974C378.847 105.427 392.57 87.2796 412.449 82.0665Z" fill="#767676" stroke="black" stroke-width="15"/>
<path d="M592.142 296.159C653.542 288.293 693.577 226.096 685.133 160.189C676.689 94.2812 622.268 44.1863 560.868 52.0527C499.468 59.9191 459.434 122.115 467.877 188.023C476.321 253.93 530.742 304.025 592.142 296.159Z" fill="#AEAEAE" stroke="black" stroke-width="24"/>
<ellipse cx="560.673" cy="175.271" rx="82.5567" ry="108.788" transform="rotate(-7.3008 560.673 175.271)" fill="white"/>
<circle cx="581.298" cy="174.813" r="63.9339" transform="rotate(-7.3008 581.298 174.813)" fill="black"/>
<circle cx="578.683" cy="154.441" r="7.88551" transform="rotate(-7.3008 578.683 154.441)" fill="#FEFEFE"/>
<circle cx="554.088" cy="155.606" r="5.91536" transform="rotate(-7.3008 554.088 155.606)" fill="#FEFEFE"/>
<circle cx="563.083" cy="179.303" r="7.88696" transform="rotate(-7.3008 563.083 179.303)" fill="#FEFEFE"/>
<path d="M364.611 320.705C426.201 312.815 466.479 250.64 458.029 184.68C449.578 118.721 394.927 68.7084 333.337 76.5991C271.747 84.4899 231.468 146.664 239.918 212.624C248.369 278.584 303.021 328.596 364.611 320.705Z" fill="#AEAEAE" stroke="black" stroke-width="24"/>
<ellipse cx="334.651" cy="204.228" rx="86.0144" ry="108.788" transform="rotate(-7.3008 334.651 204.228)" fill="white"/>
<circle cx="362.005" cy="201.216" r="60.3941" transform="rotate(-7.3008 362.005 201.216)" fill="black"/>
<circle cx="374.649" cy="187.08" r="14.4358" transform="rotate(-7.3008 374.649 187.08)" fill="#FEFEFE"/>
<circle cx="336.3" cy="183.073" r="5.58785" transform="rotate(-7.3008 336.3 183.073)" fill="#FEFEFE"/>
<path d="M342.453 205.408C346.551 213.081 353.495 214.814 353.495 214.814" stroke="#FEFEFE" stroke-width="7.5782" stroke-linecap="round"/>
<path d="M263.471 237.477L217.402 572.51C215.86 583.726 205.517 591.568 194.301 590.026L88.0033 575.41C76.787 573.867 68.9446 563.524 70.4869 552.308L116.555 217.275C122.134 176.706 159.544 148.34 200.114 153.919C240.683 159.497 269.049 196.908 263.471 237.477Z" fill="#5C8E3C" stroke="black" stroke-width="27"/>
<ellipse opacity="0.4" cx="328.749" cy="148.987" rx="39.958" ry="29.0626" fill="#D9D9D9"/>
<ellipse opacity="0.4" cx="544.856" cy="119.813" rx="39.958" ry="29.0626" fill="#D9D9D9"/>
<ellipse opacity="0.4" cx="547.464" cy="217.994" rx="47.2373" ry="58.8962" fill="#D9D9D9"/>
</svg>
