<svg width="1274" height="598" viewBox="0 0 1274 598" fill="none" xmlns="http://www.w3.org/2000/svg">
<path d="M67.5914 376.741C68.4865 362.916 68.0813 349.691 66.826 337.376L66.792 337.043C61.6414 286.513 55.6394 227.631 94.8951 195.46C152.494 148.254 222.484 156.658 282.093 153.241C360.593 148.741 547.093 127.741 602.593 118.741C658.093 109.741 745.093 51.741 775.093 28.741C805.093 5.74096 893.093 12.741 927.593 28.741C962.093 44.741 969.093 63.241 1001.09 74.741C1033.09 86.241 1153.09 95.741 1227.09 199.241C1272.54 262.8 1262.75 400.346 1244.59 503.283C1236.13 551.241 1192.91 583.777 1144.21 583.117L100.157 568.958C59.5844 568.408 8.42031 538.88 17.0914 499.241C24.0914 467.241 63.0914 446.241 67.5914 376.741Z" fill="#3C59A7"/>
<path d="M151.136 212.345L183.552 188.236C195.924 179.034 190.193 159.407 174.813 158.308C171.985 158.106 169.152 158.631 166.583 159.832L134.903 174.65C117.462 182.808 101.723 194.205 88.6543 208.346C67.2587 231.497 43 258.211 43 260C43 263 55.5 285.5 58.5 289C61.5 292.5 70.5 356 70.5 361.5C70.5 367 58.5 428.5 55.5 433.5C53.7954 436.341 41.0598 459.865 29.583 481.141C21.55 496.033 20.1087 513.599 25.5793 529.61C32.906 551.054 51.546 566.647 73.9468 570.071L178.195 586.008C185.156 587.072 190.488 579.941 187.499 573.565C187.168 572.858 186.744 572.198 186.239 571.603L180.999 565.432C170.347 552.887 164.5 536.966 164.5 520.509V512.325C164.5 504.474 165.419 496.623 168 489.209C172.04 477.601 178.647 462.157 187 451.5C201.5 433 189 404 187 379.5C185 355 164.499 334 149.999 305.5C140.822 287.463 138.759 256.762 138.958 235.481C139.044 226.274 143.748 217.84 151.136 212.345Z" fill="#304A9F"/>
<path d="M67.592 376.741C69.5862 345.943 65.1266 318.121 59.1931 296.708C52.4933 272.53 50.9789 245.129 66.277 225.243C128.008 144.999 212.189 157.248 282.094 153.241C360.594 148.741 547.094 127.741 602.594 118.741C658.094 109.741 745.094 51.741 775.094 28.741C805.094 5.74096 893.094 12.741 927.594 28.741C962.094 44.741 969.094 63.241 1001.09 74.741C1033.09 86.241 1153.09 95.741 1227.09 199.241C1276.51 268.358 1260.61 424.971 1239.66 529.424C1233.14 561.945 1203.97 584.241 1170.8 584.241H81.0845C44.4624 584.241 12.2623 556.941 14.4279 520.383C14.8794 512.761 15.7193 505.516 17.092 499.241C24.092 467.241 63.092 446.241 67.592 376.741Z" stroke="black" stroke-width="27"/>
<path d="M314.5 343C322.722 315.735 371.024 351.648 397.158 355.425C400.801 355.951 404.836 360.827 403.407 364.22L391.5 392.501L377.203 434.945C376.352 437.473 373.312 438.475 371.124 436.949L301.969 388.723C300.507 387.703 299.896 385.839 300.471 384.151L314.5 343Z" fill="#304A9F"/>
<path d="M737 269C709.968 283.954 654.784 288.088 610.539 288.24C605.663 288.256 604.519 296.567 609.251 297.743L718.93 324.986C720.224 325.307 721.593 324.963 722.58 324.067L841.996 215.823C845.618 212.54 841.221 206.712 837.063 209.282C803.796 229.84 762.674 254.797 737 269Z" fill="#304A9F"/>
<path d="M909.531 553.377L838.698 528.285C684.528 594.743 496.235 517.806 376.383 442.927C401.752 335.961 448.974 290.055 469.413 280.473C525.313 270.416 700.259 319.375 780.744 345.112C795.136 337.174 831.408 318.203 861.362 305.827C891.316 293.451 891.22 347.503 887.428 376.075C932.409 359.314 970.146 369.361 975.396 396.517C979.597 418.242 934.612 448.409 911.594 460.776C929.921 470.438 936.589 504.18 938.247 533.095C939.121 548.346 923.931 558.478 909.531 553.377Z" fill="#5C8E3C"/>
<path d="M243 326.5C255.19 354.308 214.535 415.461 189.615 446.564C187.873 448.738 184.533 448.456 183.142 446.041C161.74 408.885 123.765 342.441 123 339C122.257 335.656 111.392 279.431 104.907 245.801C104.303 242.669 107.404 240.136 110.333 241.4C153.446 260.003 230.872 298.833 243 326.5Z" fill="#304A9F"/>
<path d="M301.333 389.456C321.151 405.664 346.87 424.283 376.88 443.032M469.91 280.579C525.81 270.521 700.755 319.48 781.241 345.217C795.633 337.279 831.905 318.309 861.859 305.933C891.812 293.557 891.717 347.608 887.925 376.181C932.906 359.419 970.642 369.467 975.893 396.622C980.094 418.347 935.108 448.514 912.091 460.882C927.675 469.097 934.829 494.727 937.64 519.994C940.064 541.779 918.197 556.376 897.536 549.057L839.195 528.391C685.025 594.848 496.732 517.911 376.88 443.032M469.91 280.579C449.47 290.16 402.249 336.066 376.88 443.032M469.91 280.579L437.003 246.5" stroke="black" stroke-width="17" stroke-linecap="round" stroke-linejoin="round"/>
</svg>
