<svg width="1365" height="734" viewBox="0 0 1365 734" fill="none" xmlns="http://www.w3.org/2000/svg">
<path d="M1150.98 378C1159.48 371.5 1215.98 298 1205.48 228.5C1202.15 206.408 1188.28 174.9 1170.48 141.769C1144.84 94.0189 1111.04 42.8964 1088.87 11.7278C1086.85 8.8959 1083.27 7.71925 1079.96 8.77813C1028.91 25.1077 914.021 59.2303 819.985 78.5C697.985 103.5 625.985 91.5 452.985 93.5C327.766 94.9476 242.767 47.1153 207.469 16.1427C202.955 12.1823 195.528 13.6733 193.339 19.2648C175.076 65.9172 117.122 202.261 50.4853 308.5C-16.0013 414.5 -13 507.5 130.485 521.5L536.173 536.238C614.113 539.07 692.117 532.773 768.594 517.478L827.914 505.614C942.4 482.717 1058.24 448.922 1150.98 378Z" fill="#3C59A7"/>
<ellipse cx="1268.17" cy="367.326" rx="83.3776" ry="132.869" transform="rotate(5.98379 1268.17 367.326)" fill="#2C2C2C"/>
<path d="M1339.66 374.819C1336.02 409.5 1323.95 439.43 1307.96 459.818C1291.87 480.35 1273.08 489.874 1255.52 488.034C1237.97 486.193 1221.56 472.98 1210.07 449.557C1198.66 426.298 1193.05 394.514 1196.69 359.833C1200.32 325.151 1212.4 295.221 1228.38 274.834C1244.48 254.301 1263.27 244.778 1280.83 246.618C1298.38 248.458 1314.79 261.671 1326.28 285.095C1337.69 308.353 1343.29 340.137 1339.66 374.819Z" stroke="black" stroke-opacity="0.25" stroke-width="23"/>
<path d="M1200.23 313.272L1058.18 302.578L804.452 260.02C799.211 259.141 794.585 263.519 795.178 268.8L805.318 359.183C808.447 387.068 911.414 445.433 962.664 462.54C999.179 474.729 1113.91 476.033 1184.27 474.951C1191.93 474.833 1201.2 460.159 1200.32 452.548C1196.56 420 1202.42 360.32 1207.59 322.389C1208.22 317.793 1204.86 313.62 1200.23 313.272Z" fill="#3C59A7"/>
<path d="M1014.5 458.501C1050.79 470.642 1135.23 471.482 1199.01 470.323C1206.66 470.184 1214.26 456.307 1212.01 448.986C1202.56 418.181 1197.47 362.686 1209.08 334.963C1211.31 329.612 1209.29 322.388 1203.8 320.519L1192 316.5" stroke="black" stroke-width="27" stroke-linecap="round"/>
<path fill-rule="evenodd" clip-rule="evenodd" d="M203.33 30.3247C185.593 73.0533 142.112 166.923 62.3781 314.903C16.02 400.941 22.4006 448.2 41.1681 473.383C60.8145 499.745 98.8217 508.953 130.085 508.006L130.534 507.993L130.984 508.009L536.672 522.747C613.56 525.54 690.511 519.329 765.955 504.24L825.276 492.376C939.266 469.578 1052.58 436.26 1142.79 367.276C1142.74 367.317 1142.76 367.294 1142.86 367.192C1143.17 366.89 1144.16 365.9 1145.89 363.849C1147.95 361.409 1150.59 358.034 1153.57 353.843C1159.54 345.461 1166.69 334.096 1173.28 320.859C1186.63 294.039 1196.79 261.282 1192.15 230.517L1192.14 230.471C1192.05 230.165 1191.9 229.691 1191.67 229.02C1191.1 227.311 1190.2 224.869 1188.99 221.776C1186.6 215.621 1183.14 207.305 1179.02 197.944C1170.74 179.149 1159.97 156.671 1149.84 139.302C1148.73 137.397 1147.54 135.355 1146.29 133.197C1135.54 114.679 1119.82 87.6126 1103.72 65.1851C1094.67 52.591 1086.04 42.2197 1078.59 35.7401C1074.85 32.4882 1072.03 30.7669 1070.16 30.0265C1069.67 29.8329 1069.33 29.7383 1069.12 29.693L1069.1 29.7028L1068.55 29.8766C1013.55 47.1941 912.204 73.385 822.704 91.7251C734.646 109.77 671.386 108.86 580.498 107.552C543.728 107.023 502.435 106.429 453.15 106.999C329.592 108.427 243.37 63.203 203.33 30.3247ZM1068.86 29.6542C1068.86 29.6528 1068.88 29.6523 1068.92 29.6571C1068.88 29.6579 1068.86 29.6555 1068.86 29.6542ZM180.757 14.2014C186.754 -0.65202 205.425 -3.61859 216.381 5.99513C249.289 34.8707 331.096 81.4082 452.838 80.0008C504.131 79.4078 546.336 80.0167 583.407 80.5515C672.736 81.8402 732.254 82.6989 817.284 65.2747C905.827 47.1307 1005.94 21.2508 1059.99 4.26297C1067.17 1.53662 1074.27 2.62125 1080.08 4.91652C1085.93 7.22885 1091.4 11.0974 1096.31 15.3689C1106.16 23.9363 1116.25 36.3462 1125.65 49.4396C1142.57 73.013 1158.98 101.268 1169.65 119.664C1170.91 121.818 1172.08 123.837 1173.16 125.698C1184.03 144.328 1195.26 167.851 1203.73 187.056C1207.97 196.695 1211.58 205.379 1214.15 211.974C1215.43 215.256 1216.49 218.126 1217.26 220.386C1217.63 221.503 1217.98 222.611 1218.26 223.619L1218.28 223.691C1218.4 224.126 1218.74 225.371 1218.9 226.893C1224.6 265.491 1211.8 304.063 1197.45 332.891C1190.17 347.529 1182.26 360.101 1175.57 369.5C1172.22 374.2 1169.13 378.177 1166.52 381.272C1164.16 384.065 1161.53 386.937 1159.19 388.724C1063.92 461.583 945.552 495.856 830.571 518.852L771.251 530.716C693.741 546.218 614.684 552.599 535.692 549.729L130.443 535.007C95.7326 535.961 46.8517 526.193 19.5189 489.517C-8.81359 451.5 -9.43292 391.259 38.6089 302.096C122.082 147.176 165.325 52.4257 180.757 14.2014L180.757 14.2014Z" fill="black"/>
<path d="M550.067 498.905L391.996 469L113.192 389.411C108.082 387.952 102.996 391.771 102.996 397.086V500.5C102.996 532 210.496 610 265.496 635.5C305.163 653.891 435.588 669.871 513.89 677.358C521.515 678.088 531.955 664.655 531.76 656.997C530.832 620.577 545.543 551.485 556.364 508.772C557.503 504.276 554.624 499.767 550.067 498.905Z" fill="#3C59A7"/>
<path d="M100.996 520C127.996 541 223.334 610.794 281 629.5C460.853 687.843 479.962 674.859 530.789 674.96C538.45 674.975 547.205 661.846 545.412 654.398C536.259 616.394 533.825 541.596 551.007 510.179C553.785 505.098 552.587 497.772 547.266 495.488C529.659 487.929 493.946 473.776 458.996 467C409.996 457.5 349.496 457.5 349.496 457.5" stroke="black" stroke-width="27" stroke-linecap="round"/>
<ellipse cx="618.28" cy="567.587" rx="93.5" ry="149" transform="rotate(12.3852 618.28 567.587)" fill="#2C2C2C"/>
<path d="M698.372 585.174C689.937 623.585 672.625 655.678 652.055 676.614C631.355 697.683 608.759 706.272 588.789 701.887C568.818 697.501 551.9 680.235 541.932 652.432C532.026 624.803 529.754 588.41 538.188 549.999C546.623 511.588 563.935 479.496 584.505 458.559C605.205 437.491 627.801 428.901 647.772 433.287C667.742 437.672 684.661 454.939 694.628 482.741C704.534 510.37 706.807 546.763 698.372 585.174Z" stroke="black" stroke-opacity="0.25" stroke-width="23"/>
<path d="M281.006 401.164C290.638 388.772 284.898 369.234 275.934 350.298C268.86 335.355 255.095 324.812 239.281 319.992L221.505 314.574C197.039 307.117 165.209 318.696 156.24 342.649C152.442 352.793 151.428 356.417 156.24 394.28C158.709 413.71 167.94 422.762 179.16 426.587C190.537 430.465 204.471 432.245 213.994 424.911C219.09 420.987 224.068 415.184 228.425 408.916C240.525 391.508 244.887 392.963 262.847 404.229C268.834 407.985 275.308 408.495 281.006 401.164Z" fill="#5C8E3C"/>
<path d="M183.466 315.326C186.476 323.309 235.958 336.271 266.61 343.214C271.025 344.214 275.346 341.304 276.146 336.848L284.74 288.923C285.458 284.921 283.06 281.017 279.165 279.848L209.463 258.935C205.735 257.817 201.741 259.532 200.074 263.049C191.951 280.189 180.55 307.59 183.466 315.326Z" fill="#3C59A7"/>
<path d="M279 342L308 218" stroke="black" stroke-width="17" stroke-linecap="round"/>
<path d="M219.457 198L186.928 306.041C185.812 309.748 187.493 313.722 190.994 315.374C210.271 324.474 246.879 339.045 277 342" stroke="black" stroke-width="17" stroke-linecap="round"/>
<path d="M187.407 312C186.031 316.788 162.633 310.29 155.721 343.201C153.508 353.74 150.905 356.883 155.721 394.506C158.202 413.888 167.504 422.877 178.793 426.652C190.118 430.439 203.927 432.24 213.436 425.017C219.556 420.367 225.512 413.019 230.432 405.397C240.334 390.056 242.794 385.398 255.455 398.554V398.554C266.728 410.266 282.236 392.614 282.88 376.371C283.418 362.796 282.355 347.007 275.479 337.652" stroke="black" stroke-width="15" stroke-linecap="round"/>
</svg>
