<svg id="root" width="1373" height="1072" viewBox="0 0 1373 1072" fill="none" xmlns="http://www.w3.org/2000/svg">
<rect x="69.6172" y="19" width="386.041" height="347.507" rx="81" fill="#474A44" stroke="black" stroke-width="38"/>
<rect x="110.828" y="69.1948" width="303.619" height="128.739" rx="64.3693" fill="#696A65"/>
<rect x="251.5" y="656.798" width="386.041" height="317.337" rx="81" fill="#474A44" stroke="black" stroke-width="38"/>
<rect x="292.711" y="701.578" width="303.619" height="118.663" rx="59.3317" fill="#696A65"/>
<rect x="991.078" y="375.427" width="323.982" height="105.62" rx="52.81" transform="rotate(20.661 991.078 375.427)" fill="#474A44" stroke="black" stroke-width="38"/>
<rect x="1006.47" y="404.793" width="236.97" height="25.1602" rx="12.5801" transform="rotate(20.661 1006.47 404.793)" fill="#696A65"/>
<path d="M1006.72 388.984C1006.13 378.91 1003.69 368.386 1000.12 357.961C982.982 307.9 922.436 295.756 872.429 313.057C791.798 340.954 675.001 374.029 553.699 388.984C389.552 409.221 205.564 348.527 119.667 309.534C109.955 305.126 98.4967 306.728 90.6349 313.935L83.423 320.546C75.2399 328.047 75.8848 341.138 84.7655 347.799C94.2211 354.891 94.2211 369.074 84.7655 376.166L77.4942 381.62C71.3134 386.255 67.6758 393.531 67.6758 401.257V733.558C67.6758 793.741 112.603 844.523 172.417 851.19C228.266 857.414 283.08 863.006 298.687 863.006C331.688 863.006 349.69 881.006 448.694 914.008C547.699 947.01 550.699 998.012 553.699 1022.01C555.983 1040.28 998.355 1016.55 1251.49 1000.42C1260.32 999.856 1275.85 995.251 1281.44 988.387C1283.27 986.141 1288.23 978.313 1287.41 975.535L1233.58 792.938C1232.76 790.151 1231.91 785.09 1231.53 782.209C1225.74 737.877 1165.01 640.73 1121.59 630.074C1105.84 626.209 1086.1 623.1 1061.4 621.016C1059.2 620.831 1058.7 617.562 1060.75 616.755C1134.21 587.874 1128.29 533.47 1093.72 472.988C1064.92 422.585 1023.72 395.984 1006.72 388.984Z" fill="#B92223" stroke="black" stroke-width="22" stroke-linecap="round"/>
<path d="M424.043 615.074C382.735 624.154 340.535 629.05 262.637 594.158" stroke="black" stroke-width="22" stroke-linecap="round"/>
<path d="M119.02 987.027V771.013C119.02 749.644 138.5 733.572 159.48 737.632L277.489 760.473C293.479 763.568 305.028 777.567 305.028 793.853V1037.82C305.028 1056.59 289.806 1071.82 271.028 1071.82H233.823C227.421 1071.82 221.149 1070.01 215.729 1066.6L134.926 1015.81C125.027 1009.59 119.02 998.719 119.02 987.027Z" fill="black"/>
<rect x="71.5897" y="580.984" width="394.289" height="133.515" rx="66.7575" transform="rotate(20.661 71.5897 580.984)" fill="#474A44" stroke="black" stroke-width="38"/>
<rect x="109.637" y="637.798" width="282.996" height="30.047" rx="15.0235" transform="rotate(20.661 109.637 637.798)" fill="#696A65"/>
<path d="M972.079 393.347C932.08 425.541 888.144 454.391 776.23 467.108" stroke="black" stroke-width="22" stroke-linecap="round"/>
<path d="M1046.68 393.347C1015.57 434.194 885.992 534.531 590.948 534.531" stroke="black" stroke-width="22" stroke-linecap="round"/>
<path d="M1340.67 702.891C1322.05 684.665 1246.71 703.706 1194.54 721.018C1178.6 726.311 1161.16 722.036 1150.61 709.568C1135.77 692.028 1108.55 691.488 1091.89 708.404L1057.66 743.165C1022.02 779.355 1039.8 839.149 1088.83 847.95L1186.95 865.568C1198.39 867.621 1210.33 866.503 1221.24 861.97C1331.06 816.342 1396.06 757.123 1340.67 702.891Z" fill="#B92223"/>
<path d="M1123.3 673.272L1148.94 703.574C1160.71 717.481 1180.14 722.245 1197.95 716.414C1249.96 699.384 1322.77 681.417 1341.03 699.291C1368.66 726.347 1396.44 788.456 1276.63 834.89L1154.41 900.89" stroke="black" stroke-width="15.4837" stroke-linecap="round"/>
<path d="M657.468 897.789C673.073 898.675 707.917 907.043 722.449 933.418C736.98 959.793 741.729 998.178 742.287 1014.07" stroke="black" stroke-width="15.4837" stroke-linecap="round"/>
<path d="M801.176 1028.62C842.362 1017.26 923.557 988.433 918.851 964.036C912.968 933.539 897.277 903.043 867.859 917.394" stroke="black" stroke-width="15.4837" stroke-linecap="round"/>
</svg>
