<svg width="947" height="618" viewBox="0 0 947 618" fill="none" xmlns="http://www.w3.org/2000/svg">
<path d="M523.133 603.607C759.185 596.664 853.133 502.361 855.447 513.932V428.92C855.447 399.796 864.274 369.776 892.07 361.084C894.68 360.267 897.229 359.504 899.656 358.747C921.191 352.031 916.555 324.571 916.555 302.012C916.555 260.232 932.993 213.131 923.248 172.502C915.116 138.599 895.619 103.186 872.584 96.7879C830.928 85.2167 786.957 59.76 740.672 29.6748C694.387 -0.410339 629.589 20.4179 613.389 29.6748C597.189 38.9318 541.647 80.5882 497.677 82.9024C453.706 85.2167 421.307 38.9318 303.28 45.8745C217.692 50.9091 96.4818 241.405 32.0369 362.609C19.8693 385.493 14 411.126 14 437.044C14 480.092 31.7592 521.178 71.675 537.299C163.885 574.538 341.453 608.951 523.133 603.607Z" fill="#5C8E3C"/>
<path d="M796.274 144.025C662.277 174.806 698.092 231.327 593.525 284.941C636.725 292.655 740.249 306.695 808.75 301.141C864.177 296.647 906.17 247.406 928.354 209.567C937.405 194.128 938.918 175.155 924.277 164.862C899.722 147.599 850.439 131.582 796.274 144.025Z" fill="white"/>
<mask id="mask0_14_243" style="mask-type:alpha" maskUnits="userSpaceOnUse" x="591" y="125" width="351" height="179">
<path d="M593.216 284.548L592.34 285.237L593.437 285.433C636.643 293.149 740.221 307.199 808.791 301.639C843.213 298.848 872.441 278.89 894.972 255.142C917.505 231.392 933.388 203.8 941.122 185.624L941.274 185.269L940.968 185.033C923.928 171.866 870.472 141.906 792.644 127.081C773.05 123.349 754.35 128.562 736.456 139.137C718.569 149.708 701.457 165.654 685.011 183.443C673.067 196.362 661.455 210.274 650.148 223.823C645.887 228.928 641.67 233.981 637.494 238.911C622.222 256.937 607.505 273.303 593.216 284.548Z" fill="white" stroke="#48733B"/>
</mask>
<g mask="url(#mask0_14_243)">
<circle cx="797.336" cy="245.922" r="84.9142" fill="#000F00"/>
</g>
<path d="M514.465 195.77C411.241 195.77 402.484 267.681 311.201 308.016C354.401 315.73 459.069 350.268 527.571 344.714C554.951 342.494 579.053 329.355 599.108 312.065C645.278 272.26 622.269 205.179 561.694 198.333C547.387 196.716 531.638 195.77 514.465 195.77Z" fill="white"/>
<mask id="mask1_14_243" style="mask-type:alpha" maskUnits="userSpaceOnUse" x="298" y="168" width="363" height="179">
<path d="M301.156 307.57L299.831 308.246L301.295 308.508C312.078 310.433 327.317 314.034 345.201 318.272L346.033 318.469C363.713 322.658 383.916 327.445 404.886 331.83C447.47 340.734 493.281 347.996 527.611 345.212C562.033 342.421 591.261 322.463 613.792 298.715C636.325 274.965 652.208 247.373 659.942 229.198L660.094 228.842L659.788 228.606C642.748 215.439 589.292 185.479 511.464 170.655C491.88 166.924 472.917 171.629 454.517 181.25C436.122 190.869 418.261 205.416 400.86 221.419C392.158 229.422 383.565 237.795 375.075 246.103C374.376 246.788 373.677 247.471 372.979 248.155C365.202 255.768 357.512 263.296 349.897 270.412C333.292 285.926 317.077 299.444 301.156 307.57Z" fill="white" stroke="#48733B"/>
</mask>
<g mask="url(#mask1_14_243)">
<circle cx="516.854" cy="283.337" r="83.0567" fill="#000F00"/>
</g>
<circle cx="544.073" cy="257.645" r="26.6899" fill="#FEFEFE"/>
<circle cx="474.685" cy="241.287" r="10.3312" fill="#FEFEFE"/>
<circle cx="491.503" cy="294.863" r="10.3312" transform="rotate(-4 491.503 294.863)" fill="#FEFEFE"/>
<circle cx="526.787" cy="322.278" r="14.5352" transform="rotate(-4 526.787 322.278)" fill="#FEFEFE"/>
<circle cx="823.701" cy="220.806" r="16.9546" transform="rotate(-4 823.701 220.806)" fill="#FEFEFE"/>
<circle cx="769.089" cy="203.347" r="10.3312" transform="rotate(-4 769.089 203.347)" fill="#FEFEFE"/>
<circle cx="767.48" cy="248.161" r="10.3312" transform="rotate(-4 767.48 248.161)" fill="#FEFEFE"/>
<path d="M285.799 219.87C345.443 141.822 420.035 133.38 502.05 141.822C524.238 144.106 573.022 150.182 605.086 158.722C619.367 162.526 644.702 156.518 653.458 144.612C691.64 92.6902 722.48 90.2588 763.376 84.4165C801.195 79.0137 889.442 120.436 928.839 141.822C881.182 114.039 773.73 58.0703 725.177 56.4518C664.485 54.4288 612.221 82.7517 582.718 100.959C553.216 119.167 520.847 100.959 478.363 100.959C435.878 100.959 294.975 52.5088 255.17 133.38" stroke="#48733B" stroke-width="13" stroke-linecap="round"/>
<path d="M587.171 524.281L528.527 492.969C537.549 481.559 558.46 457.04 569.923 450.247C581.386 443.454 610.965 431.141 624.321 425.834C640.508 423.003 676.013 416.759 688.538 414.424C704.194 411.505 738.425 408.851 761.245 405.932C784.066 403.013 815.644 395.849 833.953 395.849H871.103V425.834C871.103 432.999 863.939 458.738 858.366 467.23C853.908 474.023 840.233 487.22 833.953 492.969C817.324 499.603 782.368 513.455 775.575 515.79C767.083 518.709 734.179 531.446 719.85 531.446C705.52 531.446 659.879 533.038 645.55 531.446C634.086 530.172 601.854 526.139 587.171 524.281Z" fill="#D2A5BA"/>
<path d="M646.212 525.483C635.081 524.246 604.171 520.382 589.021 518.468L537.76 491.097C541.964 486.004 547.266 479.831 552.711 473.955C560.558 465.486 568.105 458.298 572.982 455.409C583.803 448.996 612.242 437.106 625.965 431.638C642.405 428.762 677.227 422.636 689.637 420.322C697.18 418.916 709.391 417.546 722.827 416.146C725.528 415.864 728.273 415.582 731.03 415.298C741.847 414.186 752.841 413.056 762.007 411.884C770.346 410.817 779.882 409.185 789.376 407.559C793.037 406.933 796.692 406.307 800.27 405.715C813.366 403.549 825.366 401.849 833.953 401.849H865.103V425.834C865.103 426.939 864.782 429.353 864.029 432.878C863.308 436.255 862.279 440.257 861.072 444.329C858.58 452.735 855.599 460.511 853.35 463.938C851.483 466.783 847.345 471.397 842.554 476.295C838.271 480.674 833.789 484.955 830.704 487.805C813.615 494.619 780.106 507.888 773.624 510.116C772.288 510.575 770.483 511.227 768.318 512.008C763.125 513.882 755.866 516.502 748.071 518.999C736.837 522.597 725.921 525.446 719.85 525.446C715.84 525.446 709.345 525.57 701.815 525.715C695.828 525.829 689.187 525.956 682.62 526.044C667.487 526.245 652.923 526.228 646.212 525.483Z" stroke="black" stroke-opacity="0.05" stroke-width="12"/>
<path d="M662.797 492.969C654.306 492.969 614.237 484.478 598.581 484.478C575.269 484.478 550.521 497.842 530.744 485.502L509.196 472.057C504.059 468.851 499.341 465.017 495.153 460.644L477.154 441.848C473.509 438.042 471.475 432.976 471.475 427.706C471.475 416.414 480.629 407.259 491.922 407.259H494.295L696.029 433.54C707.112 434.984 716.286 442.857 719.395 453.593C724.129 469.937 713.368 486.72 696.509 489.034C681.197 491.136 666.663 492.969 662.797 492.969Z" fill="#D41C58"/>
<path d="M662.797 486.969C661.226 486.969 657.625 486.529 652.291 485.712C648.707 485.163 644.609 484.488 640.238 483.769C638.318 483.453 636.345 483.128 634.34 482.802C621.494 480.71 607.006 478.478 598.581 478.478C592.216 478.478 585.884 479.388 579.868 480.468C577.408 480.909 575.075 481.363 572.799 481.806C569.284 482.489 565.906 483.146 562.416 483.689C551.16 485.438 541.892 485.385 533.92 480.412L512.372 466.966C507.658 464.025 503.33 460.507 499.487 456.494L481.487 437.698C478.912 435.009 477.475 431.43 477.475 427.706C477.475 419.727 483.943 413.259 491.922 413.259H493.906L695.254 439.49C703.971 440.626 711.187 446.818 713.632 455.262C717.361 468.137 708.879 481.28 695.693 483.09C688.051 484.139 680.629 485.117 674.648 485.832C668.486 486.569 664.292 486.969 662.797 486.969Z" stroke="black" stroke-opacity="0.05" stroke-width="12" stroke-linecap="round"/>
<path d="M311.466 309.077V309.077C289.573 309.077 243.473 303.193 258.783 287.544C259.485 286.826 260.408 286.129 261.578 285.46C278.296 275.907 288.91 295.013 311.466 265.293C334.021 235.573 384.704 144.556 495.093 157.558C583.404 167.96 622.818 167.376 631.486 165.784" stroke="#48733B" stroke-width="13" stroke-linecap="round"/>
<path d="M931.869 216.998V216.998C914.943 255.388 893.147 297.172 853.661 311.356C853.269 311.497 852.891 311.622 852.528 311.73C840.427 315.339 811.574 326.325 798.66 331.367" stroke="#48733B" stroke-width="13" stroke-linecap="round"/>
<path d="M178.256 158.885L225.224 92.5459L178.256 137.922C154.374 170.207 105.655 236.051 101.833 241.146C97.057 247.514 45.5777 330.04 39.2092 334.817C32.8406 339.593 14.2656 395.849 14.2656 405.136V447.328L39.2092 522.424L187.809 566.208C187.809 558.513 124.919 502.788 121.735 476.252C118.551 449.716 109.487 357.666 114.305 334.817C130.757 256.802 165.254 177.106 178.256 158.885Z" fill="#48733B"/>
<path d="M848.282 493.235V493.235C857.313 499.151 856.286 514.794 846.773 519.9C801.439 544.235 695.667 598.533 523.133 603.607C341.453 608.951 163.885 574.538 71.6751 537.299C31.7592 521.178 14 480.092 14 437.044V437.044C14 411.126 19.8692 385.493 32.0369 362.609C96.4818 241.405 217.692 50.9091 303.28 45.8745C421.307 38.9318 453.706 85.2167 497.677 82.9024C541.647 80.5882 597.189 38.9318 613.389 29.6748C629.589 20.4179 694.387 -0.410339 740.672 29.6748C786.957 59.76 830.928 85.2167 872.585 96.7879C885.87 100.478 899.428 111.06 910.833 124.437C949.885 170.243 926.128 242.031 917.806 301.647V301.647" stroke="black" stroke-width="27" stroke-linecap="round"/>
<path d="M452.37 393.461C466.249 393.461 542.977 422.915 633.343 422.915C779.92 422.915 871.899 393.461 919.133 319.957M451.043 403.809L485.288 447.991C528.299 503.482 594.559 535.957 664.767 535.957C693.273 535.957 721.524 530.59 748.044 520.136L827.278 488.903C832.936 486.672 838.238 483.628 843.017 479.866C872.387 456.745 875.027 413.185 848.665 386.686L847.221 385.234" stroke="#B0643E" stroke-width="28" stroke-linecap="round"/>
</svg>
