<svg width="980" height="627" viewBox="0 0 980 627" fill="none" xmlns="http://www.w3.org/2000/svg">
<path d="M525.051 619.244C764.774 612.193 860.182 516.424 862.532 528.175V431.167C862.532 408.578 874.707 381.146 896.165 374.088C928.746 363.372 930.204 329.361 940.147 296.536L944.556 281.981C954.59 248.86 972.395 212.406 956.63 181.598C939.818 148.74 905.543 111.656 879.936 104.543C837.633 92.792 792.977 66.9394 745.973 36.3864C698.968 5.83334 633.162 26.9854 616.71 36.3864C600.258 45.7873 543.853 88.0915 499.198 90.4417C454.544 92.792 421.641 45.7873 301.779 52.838C214.859 57.9509 91.7645 251.409 26.3174 374.498C13.9605 397.738 8 423.77 8 450.091C8 493.808 26.0354 535.533 66.572 551.904C160.216 589.723 340.545 624.671 525.051 619.244Z" fill="#5C8E3C"/>
<path d="M785 206C739.796 211.183 706.5 242 612 282.5C655.871 290.335 753.933 298.141 823.5 292.5C876.388 288.212 899.336 273.579 914.184 250.63C923.906 235.604 923.72 215.856 906.684 210.371C882.07 202.446 836.926 200.047 785 206Z" fill="white"/>
<mask id="mask0_32_235" style="mask-type:alpha" maskUnits="userSpaceOnUse" x="618" y="171" width="317" height="125">
<path d="M620.691 288.762L619.815 289.451L620.912 289.647C664.855 297.494 744.476 295.293 814.04 289.653C848.872 286.829 874.787 279.232 893.97 267.699C913.162 256.16 925.588 240.697 933.46 222.196L933.611 221.841L933.306 221.605C932.434 220.932 931.447 220.154 930.346 219.288C909.725 203.053 849.495 155.635 771.861 178.02C733.152 189.182 709.892 205.435 689.03 224.628C681.752 231.324 674.759 238.384 667.51 245.703C664.383 248.86 661.209 252.065 657.943 255.311C647.098 266.086 635.225 277.323 620.691 288.762Z" fill="white" stroke="#48733B"/>
</mask>
<g mask="url(#mask0_32_235)">
<circle cx="795.5" cy="246.5" r="36.5" fill="#000F00"/>
</g>
<path d="M487 213C453.5 208.5 380.702 218.538 288 259.499C331.871 267.333 443 325.121 481.5 321.999C520 318.878 609 289.499 609 285.5C609 270 520.5 217.499 487 213Z" fill="white"/>
<mask id="mask1_32_235" style="mask-type:alpha" maskUnits="userSpaceOnUse" x="289" y="208" width="304" height="135">
<path d="M289.916 249.507L289.912 250.492C300.777 252.432 314.277 259.402 329.558 268.743C338.105 273.968 347.169 279.908 356.615 286.099C364.061 290.978 371.743 296.013 379.597 300.975C397.389 312.218 416.006 323.053 434.536 330.724C453.063 338.395 471.539 342.917 489.04 341.498C523.897 338.672 545.595 329.351 560.544 316.066C575.482 302.792 583.626 285.607 591.46 267.196L591.611 266.84L591.306 266.604C574.012 253.241 535.143 227.565 456.094 212.508C436.315 208.741 421.483 208.23 408.989 209.83C396.493 211.43 386.363 215.14 375.995 219.778C372.482 221.349 368.94 223.028 365.269 224.768C347.288 233.288 326.182 243.29 289.916 249.507Z" fill="white" stroke="#48733B"/>
</mask>
<g mask="url(#mask1_32_235)">
<circle cx="458.5" cy="261.5" r="33.5" fill="#000F00"/>
</g>
<circle cx="498.862" cy="299.231" r="10.4919" transform="rotate(-4 498.862 299.231)" fill="#FEFEFE"/>
<circle cx="455.752" cy="258.755" r="8.86969" transform="rotate(-4 455.752 258.755)" fill="#FEFEFE"/>
<circle cx="791.902" cy="243.902" r="11.5652" transform="rotate(-4 791.902 243.902)" fill="#FEFEFE"/>
<path d="M283 163.001C343.572 83.7382 426.281 135.237 509.571 143.81C533.581 146.282 582.036 187.545 610.647 216.559C621.024 227.082 642.142 225.822 649.92 213.255C691.808 145.567 732.779 91.5382 774.96 85.5122C813.368 80.0253 902.988 122.091 942.997 143.81C894.599 115.596 785.476 58.7562 736.167 57.1126C674.532 55.0581 631.461 116.746 601.5 135.236C571.539 153.727 484.645 80 441.5 80C398.355 80 342 42.5 250 99" stroke="#48733B" stroke-width="13" stroke-linecap="round"/>
<path d="M317.498 281.5V281.5C294.442 284.123 267.288 279.186 264.692 256.127C264.004 250.021 265.354 244.654 269.998 242C286.975 232.299 315.399 235.016 345.498 212C388 179.5 472.546 169.121 532.5 195C602 225 598.002 237.001 602 264" stroke="#48733B" stroke-width="13" stroke-linecap="round"/>
<path d="M289.5 254.575C332.002 222.075 408.781 198.798 473.5 207.5C533 215.5 591 251.5 608 282" stroke="#48733B" stroke-width="13" stroke-linecap="round"/>
<path d="M925.5 228.5V228.5C921.928 261.169 902.864 285.866 870.112 288.573C861.308 289.3 852.723 290.346 845.5 292.5C833.212 296.165 676.5 300 635.5 292.5" stroke="#48733B" stroke-width="13" stroke-linecap="round"/>
<path d="M180.74 161.137L228.439 93.7666L180.74 139.848C156.487 172.635 107.009 239.503 103.129 244.677C98.2781 251.145 45.9983 334.954 39.5307 339.805C33.0631 344.656 14.1992 401.786 14.1992 411.218V454.066L39.5307 530.33L190.441 574.795C190.441 566.98 126.574 510.388 123.34 483.44C120.106 456.491 110.901 363.009 115.795 339.805C132.503 260.577 167.535 179.642 180.74 161.137Z" fill="#48733B"/>
<path d="M870.5 432V432C879.44 481.382 855.766 537.137 809.805 557.287C753.98 581.761 665.002 608.834 530.976 612.776C346.471 618.203 166.142 583.255 72.4978 545.437C31.9612 529.066 13.9258 487.341 13.9258 443.623V443.623C13.9258 417.302 19.8863 391.27 32.2432 368.03C97.6902 244.942 220.785 51.4831 307.705 46.3702C427.567 39.3195 460.47 86.3242 505.124 83.9739C549.779 81.6237 606.184 39.3195 622.636 29.9186C639.087 20.5177 704.894 -0.634437 751.899 29.9186C798.903 60.4716 843.558 86.3242 885.862 98.0753C918.099 107.03 978.515 185.039 963.409 234.494C953.864 265.745 924 291.823 924 324.5V324.5" stroke="black" stroke-width="27" stroke-linecap="round"/>
<path d="M334.5 279V279C354.693 282.564 374.155 289.454 392.093 299.389L395 301L432.5 320L434.408 320.673C455.49 328.114 478.058 330.348 500.19 327.187V327.187C510.365 325.733 520.347 323.153 529.952 319.494L557.5 309C567.471 305.317 594.844 294 597 294" stroke="#48733B" stroke-width="13" stroke-linecap="round"/>
<path d="M628.5 272.5C641 253 696 195.999 711.5 186C762 153.421 862.5 175.001 916 186" stroke="#48733B" stroke-width="13" stroke-linecap="round"/>
<path d="M617.5 283.5C620.734 279.188 710.5 229.156 726 219.156C776.5 186.577 867.5 194.657 921 205.657" stroke="#48733B" stroke-width="13" stroke-linecap="round"/>
<path d="M894 341C787.015 356.9 606.77 372.422 597.5 373.5C585.912 374.847 478.659 391.802 473 398C467.341 404.198 419.088 397.744 407.5 412.566C413.159 406.188 482.77 428.217 514.5 412.566C525.52 407.131 536.145 402.495 546.308 398.536C620.189 369.749 702.294 378.176 781.043 387.43L871 398" stroke="#B0643E" stroke-width="67" stroke-linecap="round" stroke-linejoin="round"/>
<path d="M895 374.501C876.945 372.345 826 363.946 807.558 363.946L590 374.501C570.601 377.764 534.51 390.819 504.76 402.869C480.65 412.636 455.013 418.501 429 418.501V418.501" stroke="#82491D" stroke-width="10" stroke-linecap="round"/>
</svg>
