<svg width="937" height="641" viewBox="0 0 937 641" fill="none" xmlns="http://www.w3.org/2000/svg">
<path d="M519.089 613.369C639.355 609.832 726.059 580.19 781.493 554.586C808.345 542.184 884.582 469.008 899.34 443.375C911.027 423.507 904.268 390.473 894.018 362.467C884.96 337.717 881.718 310.59 890.052 285.587C896.1 267.443 908.684 250.269 909.63 231.168C911.507 193.301 887.395 132.004 856.842 123.517C816.58 112.333 774.081 87.7284 729.346 58.6503C684.61 29.5723 621.981 49.7033 606.323 58.6503C590.666 67.5974 536.983 107.859 494.485 110.096C451.986 112.333 420.671 67.5974 306.596 74.3077C223.873 79.1738 106.721 263.293 44.4331 380.439C32.6728 402.557 27 427.332 27 452.382C27 493.989 44.1647 533.7 82.7443 549.281C171.867 585.273 343.491 618.534 519.089 613.369Z" fill="#5C8E3C"/>
<path d="M409.145 466.774C422.323 466.774 569.9 406.531 655.705 406.531C794.884 406.531 867.346 415.494 888.762 445.146" stroke="#B0643E" stroke-width="67" stroke-linecap="round"/>
<path d="M414.738 465.975C427.917 465.975 530.576 411.609 656.987 411.609C783.398 411.609 879.348 417.43 900.764 447.083" stroke="#82491D" stroke-width="10" stroke-linecap="round"/>
<path d="M779.483 153.27C704.328 138.955 619.927 248.706 587.121 305.371C628.874 312.827 728.933 326.396 795.141 321.028C861.35 315.66 907.725 244.232 922.637 209.19C906.234 196.514 854.639 167.586 779.483 153.27Z" fill="white"/>
<mask id="mask0_11_1183" style="mask-type:alpha" maskUnits="userSpaceOnUse" x="585" y="150" width="339" height="174">
<path d="M586.688 305.12L586.331 305.737L587.033 305.863C628.792 313.32 728.905 326.9 795.182 321.526C828.457 318.828 856.71 299.535 878.488 276.581C900.269 253.624 915.621 226.954 923.097 209.385L923.248 209.03L922.943 208.794C906.471 196.066 854.802 167.108 779.577 152.779C741.74 145.572 701.686 169.596 667.077 202.34C632.438 235.112 603.108 276.758 586.688 305.12Z" fill="white" stroke="#48733B"/>
</mask>
<g mask="url(#mask0_11_1183)">
<circle cx="770.715" cy="245.417" r="94.7231" fill="#000F00"/>
</g>
<path d="M507.722 195.385C432.566 181.07 348.165 290.821 315.359 347.486C357.113 354.942 457.171 368.511 523.379 363.143C589.588 357.775 635.964 286.347 650.875 251.305C634.472 238.629 582.877 209.701 507.722 195.385Z" fill="white"/>
<mask id="mask1_11_1183" style="mask-type:alpha" maskUnits="userSpaceOnUse" x="313" y="193" width="340" height="173">
<path d="M314.927 347.235L314.569 347.852L315.271 347.978C357.031 355.435 457.143 369.015 523.42 363.641C556.696 360.943 584.949 341.65 606.726 318.696C628.507 295.739 643.86 269.069 651.335 251.5L651.487 251.145L651.181 250.909C634.709 238.181 583.04 209.223 507.815 194.894C469.978 187.687 429.924 211.711 395.316 244.455C360.677 277.227 331.347 318.873 314.927 347.235Z" fill="white" stroke="#48733B"/>
</mask>
<g mask="url(#mask1_11_1183)">
<circle cx="493.934" cy="288.999" r="94.7231" fill="#000F00"/>
</g>
<circle cx="522.402" cy="272.834" r="25.7964" fill="#FEFEFE"/>
<circle cx="455.337" cy="257.023" r="9.98535" fill="#FEFEFE"/>
<path d="M461.172 298.008C466.693 312.539 478.607 317.189 478.607 317.189" stroke="#FEFEFE" stroke-width="13" stroke-linecap="round"/>
<circle cx="803.83" cy="229.931" r="25.7964" transform="rotate(-4 803.83 229.931)" fill="#FEFEFE"/>
<circle cx="751.15" cy="207.755" r="9.98535" transform="rotate(-4 751.15 207.755)" fill="#FEFEFE"/>
<path d="M744.777 259.781C751.299 273.891 755.099 281.197 755.099 281.197" stroke="#FEFEFE" stroke-width="13" stroke-linecap="round"/>
<path d="M289.702 242.479C347.349 167.043 419.444 158.884 498.713 167.043C519.908 169.225 566.213 174.987 597.208 183.089C611.507 186.827 636.915 180.698 645.724 168.83C682.319 119.527 712.004 117.172 751.29 111.559C787.844 106.337 873.137 146.373 911.214 167.043C865.153 140.191 761.298 86.0952 714.37 84.5309C655.71 82.5756 605.195 109.95 576.681 127.548C548.166 145.146 516.881 127.548 475.819 127.548C434.757 127.548 298.571 80.7198 260.098 158.884" stroke="#48733B" stroke-width="13" stroke-linecap="round"/>
<path d="M77.6889 561.798L82.7443 549.281L77.689 561.798C168.843 598.611 342.376 632.073 519.486 626.864C641.872 623.264 730.362 593.073 787.153 566.842C795.522 562.977 806.449 555.121 817.64 546.086C829.142 536.8 841.927 525.437 854.25 513.73C866.577 502.018 878.575 489.836 888.488 478.878C898.152 468.195 906.531 457.922 911.008 450.165C918.961 436.606 919.965 419.969 918.33 404.549C916.662 388.819 912.037 372.421 906.696 357.827C898.302 334.892 895.795 311.05 902.86 289.856C904.758 284.16 907.241 278.895 910.086 272.861C911.349 270.183 912.683 267.354 914.069 264.269C918.234 254.997 922.51 244.017 923.114 231.836C924.183 210.253 917.958 183.303 907.684 160.732C902.498 149.339 896.036 138.51 888.445 129.751C880.953 121.106 871.592 113.603 860.455 110.509C822.376 99.9316 781.395 76.3813 736.703 47.3314C710.724 30.4448 680.326 28.2749 655.475 30.9696C630.725 33.6534 609.311 41.3947 599.625 46.9291C596.482 48.7256 591.961 51.6535 586.848 54.9653C584.944 56.1986 582.957 57.4851 580.929 58.7863C573.126 63.793 563.9 69.5554 553.927 75.0809C533.51 86.3932 511.758 95.6683 493.775 96.6147C485.688 97.0404 477.686 95.2867 467.733 91.7738C462.724 90.0058 457.471 87.8875 451.503 85.4721L451.094 85.3066C445.316 82.9679 438.962 80.3961 432.037 77.8523C403.175 67.2498 364.969 57.3507 305.803 60.831C280.716 62.3067 255.091 77.0272 230.82 97.3744C206.198 118.017 181.181 145.979 157.174 177.007C109.122 239.112 63.8567 315.152 32.5133 374.101L44.4331 380.439L32.5133 374.101C19.6313 398.328 13.5 425.308 13.5 452.382C13.5 497.084 32.09 543.383 77.6889 561.798Z" stroke="black" stroke-width="27"/>
<path d="M246.362 144.607L308.775 18.4533C312.256 11.4166 322.449 11.8992 325.249 19.2334L369.951 136.287C379.337 160.865 374.696 188.597 357.819 208.78L353.208 214.294C332.891 238.59 297.896 244.451 270.772 228.099C242.161 210.851 231.548 174.551 246.362 144.607Z" fill="#30A7A1" stroke="black" stroke-width="19"/>
<circle opacity="0.8" cx="326.916" cy="133.109" r="18.0252" fill="#D9D9D9"/>
<circle opacity="0.8" cx="344.94" cy="163.614" r="8.31933" fill="#D9D9D9"/>
</svg>
