<svg width="981" height="723" viewBox="0 0 981 723" fill="none" xmlns="http://www.w3.org/2000/svg">
<path d="M519.089 695.403C639.355 691.866 726.059 662.224 781.493 636.62C808.345 624.218 884.582 551.042 899.34 525.409C911.027 505.541 904.268 472.507 894.018 444.501C884.96 419.751 881.718 392.624 890.052 367.621C896.1 349.477 908.684 332.303 909.63 313.202C911.507 275.335 887.395 214.037 856.842 205.551C816.58 194.367 774.081 169.762 729.346 140.684C684.61 111.606 621.981 131.737 606.323 140.684C590.666 149.631 536.983 189.893 494.485 192.13C451.986 194.367 420.671 149.631 306.596 156.342C223.873 161.208 106.721 345.327 44.4331 462.473C32.6728 484.591 27 509.366 27 534.416C27 576.023 44.1647 615.734 82.7443 631.314C171.867 667.307 343.491 700.568 519.089 695.403Z" fill="#5C8E3C"/>
<path d="M450.512 498.62C463.69 498.62 573.899 537.235 659.705 537.235C798.884 537.235 862.978 489.217 884.393 459.565" stroke="#B0643E" stroke-width="67" stroke-linecap="round"/>
<path d="M450.621 498.423C463.8 498.423 555.99 537.975 682.4 537.975C808.811 537.975 862.978 489.217 884.393 459.565" stroke="#82491D" stroke-width="10" stroke-linecap="round"/>
<path d="M779.483 235.304C704.328 220.989 619.927 330.74 587.121 387.404C628.874 394.86 728.933 408.43 795.141 403.062C861.35 397.694 907.725 326.266 922.637 291.223C906.234 278.548 854.639 249.619 779.483 235.304Z" fill="white"/>
<mask id="mask0_11_780" style="mask-type:alpha" maskUnits="userSpaceOnUse" x="585" y="233" width="339" height="173">
<path d="M586.688 387.154L586.331 387.771L587.033 387.897C628.792 395.354 728.905 408.934 795.182 403.56C828.457 400.862 856.71 381.569 878.488 358.615C900.269 335.657 915.621 308.987 923.097 291.419L923.248 291.064L922.943 290.828C906.471 278.1 854.802 249.141 779.577 234.813C741.74 227.606 701.686 251.63 667.077 284.374C632.438 317.146 603.108 358.792 586.688 387.154Z" fill="white" stroke="#48733B"/>
</mask>
<g mask="url(#mask0_11_780)">
<circle cx="770.715" cy="327.45" r="94.7231" fill="#000F00"/>
</g>
<path d="M507.722 277.419C432.566 263.104 348.165 372.855 315.359 429.52C357.113 436.976 457.171 450.545 523.379 445.177C589.588 439.809 635.964 368.381 650.875 333.339C634.472 320.664 582.877 291.735 507.722 277.419Z" fill="white"/>
<mask id="mask1_11_780" style="mask-type:alpha" maskUnits="userSpaceOnUse" x="313" y="275" width="340" height="173">
<path d="M314.927 429.269L314.569 429.886L315.271 430.012C357.031 437.469 457.143 451.049 523.42 445.675C556.696 442.977 584.949 423.684 606.726 400.73C628.507 377.773 643.86 351.103 651.335 333.534L651.487 333.179L651.181 332.943C634.709 320.215 583.04 291.257 507.815 276.928C469.978 269.721 429.924 293.745 395.316 326.489C360.677 359.262 331.347 400.907 314.927 429.269Z" fill="white" stroke="#48733B"/>
</mask>
<g mask="url(#mask1_11_780)">
<circle cx="493.934" cy="371.033" r="94.7231" fill="#000F00"/>
</g>
<path d="M440.582 363.986C439.995 380.715 452.553 394.517 467.501 404.636C487.479 418.16 513.733 410.63 528.556 391.597C536.457 381.452 543.532 371.228 546.53 363.986C554.587 344.526 533.401 329.733 519.376 323.765C509.525 319.573 494.428 337.089 485.741 349.743C483.934 352.375 480.33 353.101 477.576 351.487C463.258 343.093 441.53 336.988 440.582 363.986Z" fill="#DC4143"/>
<path d="M463.293 381.096C466.505 389.55 473.436 392.255 473.436 392.255" stroke="#FEFEFE" stroke-width="8" stroke-linecap="round"/>
<circle cx="504.42" cy="351.288" r="4.16187" fill="#FEFEFE"/>
<circle cx="519" cy="341.4" r="7.35156" fill="#FEFEFE"/>
<path d="M90.4221 108.829C89.8351 125.558 102.393 139.36 117.341 149.479C137.319 163.002 163.573 155.473 178.396 136.44C186.297 126.295 193.372 116.071 196.37 108.829C204.427 89.369 183.241 74.5759 169.216 68.6078C159.365 64.4159 144.268 81.9316 135.58 94.586C133.774 97.2176 130.17 97.944 127.416 96.3297C113.098 87.9362 91.3694 81.8312 90.4221 108.829Z" fill="#DC4143"/>
<path d="M762.957 49.4035C756.949 61.0361 769.203 80.263 776.805 90.4236C779.912 94.5767 785.443 95.8199 790.162 93.6674C799.955 89.2004 815.945 81.5337 821.072 76.8841C830.539 68.2998 822.755 54.6901 816.61 47.7787C812.639 43.3124 801.466 47.7735 793.437 52.1663C790.637 53.6984 787.075 52.8011 785.135 50.2658C779.277 42.6072 769.914 35.9353 762.957 49.4035Z" fill="#DC4143"/>
<path d="M851.489 19.2289C844.36 33.0303 858.961 51.7493 867.568 59.8122C867.848 60.0746 868.243 60.1451 868.599 60.0014C877.238 56.5141 894.992 48.5638 901.344 42.8038C909.466 35.4395 902.788 23.7641 897.516 17.8351C894.229 14.1384 885.192 17.5707 878.374 21.2013C875.556 22.7016 871.999 21.7978 869.998 19.3102C864.952 13.0336 857.256 8.06301 851.489 19.2289Z" fill="#DC4143"/>
<path d="M720.59 319.986C720.003 336.715 732.561 350.517 747.509 360.636C767.487 374.16 793.741 366.63 808.564 347.597C816.465 337.452 823.54 327.228 826.538 319.986C834.595 300.526 813.409 285.733 799.384 279.765C789.533 275.573 774.436 293.089 765.748 305.743C763.942 308.375 760.338 309.101 757.584 307.487C743.266 299.093 721.537 292.988 720.59 319.986Z" fill="#DC4143"/>
<path d="M744.734 341.546C747.947 350 754.878 352.705 754.878 352.705" stroke="#FEFEFE" stroke-width="8" stroke-linecap="round"/>
<circle cx="778.603" cy="308.07" r="4.16187" fill="#FEFEFE"/>
<circle cx="794.157" cy="292.406" r="6.25049" fill="#FEFEFE"/>
<path d="M289.702 324.512C347.349 249.077 419.444 240.917 498.713 249.077C519.908 251.258 566.213 257.021 597.208 265.123C611.507 268.861 636.915 262.732 645.724 250.864C682.319 201.561 712.004 199.206 751.29 193.593C787.844 188.371 873.137 228.406 911.214 249.077C865.153 222.224 761.298 168.129 714.37 166.565C655.71 164.609 605.195 191.984 576.681 209.582C548.166 227.18 516.881 209.582 475.819 209.582C434.757 209.582 298.571 162.754 260.098 240.917" stroke="#48733B" stroke-width="13" stroke-linecap="round"/>
<path d="M77.6889 643.832L82.7443 631.314L77.689 643.832C168.843 680.645 342.376 714.107 519.486 708.897C641.872 705.298 730.362 675.107 787.153 648.876C795.522 645.011 806.449 637.154 817.64 628.12C829.142 618.834 841.927 607.471 854.25 595.763C866.577 584.052 878.575 571.87 888.488 560.912C898.152 550.229 906.531 539.955 911.008 532.199C918.961 518.64 919.965 502.003 918.33 486.583C916.662 470.852 912.037 454.455 906.696 439.861C898.302 416.926 895.795 393.084 902.86 371.89C904.758 366.194 907.241 360.929 910.086 354.895C911.349 352.217 912.683 349.388 914.069 346.302C918.234 337.031 922.51 326.051 923.114 313.87C924.183 292.287 917.958 265.337 907.684 242.766C902.498 231.373 896.036 220.543 888.445 211.785C880.953 203.14 871.592 195.637 860.455 192.543C822.376 181.965 781.395 158.415 736.703 129.365C710.724 112.479 680.326 110.309 655.475 113.003C630.725 115.687 609.311 123.429 599.625 128.963C596.482 130.759 591.961 133.687 586.848 136.999C584.944 138.232 582.957 139.519 580.929 140.82C573.126 145.827 563.9 151.589 553.927 157.115C533.51 168.427 511.758 177.702 493.775 178.649C485.688 179.074 477.686 177.321 467.733 173.808C462.724 172.04 457.471 169.921 451.503 167.506L451.094 167.34C445.316 165.002 438.962 162.43 432.037 159.886C403.175 149.284 364.969 139.385 305.803 142.865C280.716 144.341 255.091 159.061 230.82 179.408C206.198 200.05 181.181 228.012 157.174 259.041C109.122 321.146 63.8567 397.186 32.5133 456.135L44.4331 462.473L32.5133 456.135C19.6313 480.362 13.5 507.342 13.5 534.416C13.5 579.118 32.09 625.417 77.6889 643.832Z" stroke="black" stroke-width="27"/>
<ellipse cx="909.735" cy="377.085" rx="70.8364" ry="57.9272" fill="#F9ADC2"/>
<ellipse cx="295.919" cy="469.855" rx="125.48" ry="82.9782" transform="rotate(6.55164 295.919 469.855)" fill="#F9ADC2"/>
</svg>
