<svg width="304" height="332" viewBox="0 0 304 332" fill="none" xmlns="http://www.w3.org/2000/svg">
<mask id="path-1-outside-1_11_845" maskUnits="userSpaceOnUse" x="0.371094" y="0.499023" width="303" height="331" fill="black">
<rect fill="white" x="0.371094" y="0.499023" width="303" height="331"/>
<path fill-rule="evenodd" clip-rule="evenodd" d="M291.335 267.246V57.5523V51.4178C291.335 51.0218 291.014 50.7008 290.618 50.7008C290.316 50.7008 290.049 50.5147 289.94 50.2326C281.692 28.8315 237.878 12.499 185.065 12.499C132.252 12.499 88.4376 28.8315 80.19 50.2326C80.0812 50.5147 79.8139 50.7008 79.5115 50.7008C79.1155 50.7008 78.7945 51.0218 78.7945 51.4178V57.5523V66.8046C78.7945 85.1864 63.8867 99.6383 47.5359 108.037C26.4673 118.859 12.3711 138.584 12.3711 161.122C12.3711 183.661 26.4673 203.386 47.5359 214.208C63.8867 222.607 78.7945 237.059 78.7945 255.44V267.246V271.35C78.7945 271.457 78.8816 271.544 78.989 271.544C79.084 271.544 79.165 271.612 79.1813 271.706C83.8121 298.284 129.449 319.151 185.065 319.151C240.68 319.151 286.318 298.284 290.948 271.706C290.965 271.612 291.046 271.544 291.141 271.544C291.248 271.544 291.335 271.457 291.335 271.35V267.246ZM78.7945 161.122C78.7945 183.173 54.2619 196.203 47.339 175.267C45.8522 170.77 45.0566 166.026 45.0566 161.122C45.0566 156.219 45.8522 151.474 47.339 146.978C54.2619 126.042 78.7945 139.071 78.7945 161.122V161.122Z"/>
</mask>
<path fill-rule="evenodd" clip-rule="evenodd" d="M291.335 267.246V57.5523V51.4178C291.335 51.0218 291.014 50.7008 290.618 50.7008C290.316 50.7008 290.049 50.5147 289.94 50.2326C281.692 28.8315 237.878 12.499 185.065 12.499C132.252 12.499 88.4376 28.8315 80.19 50.2326C80.0812 50.5147 79.8139 50.7008 79.5115 50.7008C79.1155 50.7008 78.7945 51.0218 78.7945 51.4178V57.5523V66.8046C78.7945 85.1864 63.8867 99.6383 47.5359 108.037C26.4673 118.859 12.3711 138.584 12.3711 161.122C12.3711 183.661 26.4673 203.386 47.5359 214.208C63.8867 222.607 78.7945 237.059 78.7945 255.44V267.246V271.35C78.7945 271.457 78.8816 271.544 78.989 271.544C79.084 271.544 79.165 271.612 79.1813 271.706C83.8121 298.284 129.449 319.151 185.065 319.151C240.68 319.151 286.318 298.284 290.948 271.706C290.965 271.612 291.046 271.544 291.141 271.544C291.248 271.544 291.335 271.457 291.335 271.35V267.246ZM78.7945 161.122C78.7945 183.173 54.2619 196.203 47.339 175.267C45.8522 170.77 45.0566 166.026 45.0566 161.122C45.0566 156.219 45.8522 151.474 47.339 146.978C54.2619 126.042 78.7945 139.071 78.7945 161.122V161.122Z" fill="#1F92C6"/>
<path d="M289.94 50.2326L301.137 45.9174L301.137 45.9173L289.94 50.2326ZM80.19 50.2326L68.9927 45.9173L68.9927 45.9174L80.19 50.2326ZM79.1813 271.706L67.3593 273.765L67.3594 273.766L79.1813 271.706ZM290.948 271.706L279.127 269.644L279.127 269.646L290.948 271.706ZM47.339 175.267L35.9458 179.034L47.339 175.267ZM279.335 57.5523V267.246H303.335V57.5523H279.335ZM279.335 51.4178V57.5523H303.335V51.4178H279.335ZM290.618 62.7008C284.387 62.7008 279.335 57.6493 279.335 51.4178H303.335C303.335 44.3943 297.642 38.7008 290.618 38.7008V62.7008ZM278.743 54.5478C280.61 59.3931 285.282 62.7008 290.618 62.7008V38.7008C295.35 38.7008 299.487 41.6364 301.137 45.9174L278.743 54.5478ZM185.065 24.499C210.34 24.499 233.072 28.4213 250.113 34.618C268.001 41.1221 276.593 48.969 278.743 54.5478L301.137 45.9173C295.039 30.0951 277.6 19.0752 258.315 12.0628C238.184 4.74301 212.602 0.499023 185.065 0.499023V24.499ZM91.3872 54.5478C93.5372 48.969 102.129 41.1222 120.016 34.618C137.058 28.4213 159.789 24.499 185.065 24.499V0.499023C157.528 0.499023 131.945 4.74301 111.815 12.0628C92.5298 19.0752 75.0903 30.0951 68.9927 45.9173L91.3872 54.5478ZM79.5115 62.7008C84.8479 62.7008 89.52 59.3931 91.3873 54.5477L68.9927 45.9174C70.6425 41.6363 74.7799 38.7008 79.5115 38.7008V62.7008ZM90.7945 51.4178C90.7945 57.6493 85.7429 62.7008 79.5115 62.7008V38.7008C72.4881 38.7008 66.7945 44.3943 66.7945 51.4178H90.7945ZM90.7945 57.5523V51.4178H66.7945V57.5523H90.7945ZM90.7945 66.8046V57.5523H66.7945V66.8046H90.7945ZM24.3711 161.122C24.3711 143.924 35.1436 127.893 53.0188 118.711L42.053 97.3629C17.7911 109.825 0.371094 133.244 0.371094 161.122H24.3711ZM53.0188 203.534C35.1436 194.352 24.3711 178.321 24.3711 161.122H0.371094C0.371094 189.001 17.7911 212.42 42.053 224.882L53.0188 203.534ZM90.7945 267.246V255.44H66.7945V267.246H90.7945ZM90.7945 271.35V267.246H66.7945V271.35H90.7945ZM78.989 259.544C85.5093 259.544 90.7945 264.83 90.7945 271.35H66.7945C66.7945 278.084 72.2539 283.544 78.989 283.544V259.544ZM91.0033 269.647C89.9893 263.826 84.9362 259.544 78.989 259.544V283.544C73.2319 283.544 68.3407 279.399 67.3593 273.765L91.0033 269.647ZM185.065 307.151C158.627 307.151 135.05 302.172 117.936 294.456C100.124 286.426 92.2716 276.926 91.0032 269.646L67.3594 273.766C70.7218 293.064 88.0032 307.287 108.072 316.335C128.838 325.697 155.887 331.151 185.065 331.151V307.151ZM279.127 269.646C277.858 276.926 270.006 286.426 252.194 294.456C235.08 302.172 211.503 307.151 185.065 307.151V331.151C214.242 331.151 241.292 325.697 262.058 316.335C282.127 307.287 299.408 293.064 302.77 273.766L279.127 269.646ZM291.141 259.544C285.192 259.544 280.142 263.826 279.127 269.644L302.77 273.768C301.788 279.398 296.899 283.544 291.141 283.544V259.544ZM279.335 271.35C279.335 264.83 284.621 259.544 291.141 259.544V283.544C297.876 283.544 303.335 278.084 303.335 271.35H279.335ZM279.335 267.246V271.35H303.335V267.246H279.335ZM33.0566 161.122C33.0566 167.336 34.0665 173.351 35.9458 179.034L58.7323 171.5C57.6378 168.19 57.0566 164.716 57.0566 161.122H33.0566ZM35.9457 143.21C34.0665 148.894 33.0566 154.909 33.0566 161.122H57.0566C57.0566 157.529 57.6378 154.055 58.7323 150.745L35.9457 143.21ZM58.7323 150.745C59.6811 147.876 60.55 148.012 59.8305 148.314C59.2186 148.572 59.2721 148.167 60.4231 148.725C63.0012 149.977 66.7945 154.367 66.7945 161.122H90.7945C90.7945 145.827 82.3215 132.677 70.9026 127.134C65.055 124.296 57.6774 123.181 50.5185 126.195C43.2522 129.254 38.4584 135.612 35.9457 143.21L58.7323 150.745ZM35.9458 179.034C38.4584 186.633 43.2522 192.991 50.5185 196.05C57.6774 199.064 65.055 197.949 70.9026 195.111C82.3215 189.568 90.7945 176.418 90.7945 161.122H66.7945C66.7945 167.878 63.0012 172.268 60.4231 173.519C59.2721 174.078 59.2186 173.673 59.8305 173.93C60.55 174.233 59.6811 174.369 58.7323 171.5L35.9458 179.034ZM42.053 224.882C57.0797 232.601 66.7945 243.93 66.7945 255.44H90.7945C90.7945 230.187 70.6937 212.613 53.0188 203.534L42.053 224.882ZM66.7945 66.8046C66.7945 78.3146 57.0797 89.6443 42.053 97.3629L53.0188 118.711C70.6937 109.632 90.7945 92.0582 90.7945 66.8046H66.7945Z" fill="black" mask="url(#path-1-outside-1_11_845)"/>
<ellipse cx="185.065" cy="50.7008" rx="82.1841" ry="17.2851" fill="#5B4437"/>
<path d="M271.735 49.8711C261.564 56.6516 232.532 69.8428 197.766 68.3634C154.309 66.5142 112.702 70.2126 100.682 49.8711" stroke="black" stroke-width="10" stroke-linecap="round"/>
<path d="M139.735 176.797C139.148 193.527 151.706 207.329 166.654 217.447C186.631 230.971 212.886 223.442 227.709 204.408C235.61 194.263 242.684 184.04 245.683 176.797C253.74 157.338 232.553 142.544 218.528 136.576C208.677 132.384 193.581 149.9 184.893 162.555C183.086 165.186 179.482 165.912 176.729 164.298C162.41 155.905 140.682 149.8 139.735 176.797Z" fill="#DC4143"/>
</svg>
