<svg width="964" height="262" viewBox="0 0 964 262" fill="none" xmlns="http://www.w3.org/2000/svg">
<path d="M931.367 110.654C924.358 91.694 901.132 73.4219 882.22 61.6328C871.262 54.8023 858.328 52.2456 845.423 52.6963C740.262 49.808 525.288 43.866 506.677 43.2038C490.02 42.6111 328.22 25.8345 224.462 14.8967C202.015 12.5304 179.389 13.4713 157.218 17.6998L127.718 23.3258C80.7827 32.2769 36.0652 59.6259 20.3374 104.744C12.1381 128.266 4.17879 205.63 45.9011 218.388C87.6234 231.145 188.122 244.037 214.878 243.103C241.635 242.169 565.787 248.617 576.435 248.245C587.083 247.873 789.311 246.279 821.337 239.693C853.363 233.108 883.487 226.862 908.358 218.886C933.228 210.91 934.609 203.481 946.109 172.737C957.61 141.993 943.14 142.498 931.367 110.654Z" fill="#3C59A7" stroke="black" stroke-width="27"/>
<path d="M142.5 91.5C139.942 69.9374 181.155 41.1677 207.485 26.3185C209.275 25.3088 208.555 22.5 206.5 22.5C185.167 25.3333 136.4 32.3 112 37.5C81.4996 44 61 49 53.5 52.5C46 56 32 91.5 32 105C32 113.385 26.7763 137.581 22.4121 156.017C20.2398 165.194 20.3644 174.775 22.9551 183.843C28.5022 203.258 44.5043 217.898 64.3348 221.701L205.365 248.748C211.031 249.835 216.851 247.864 220.692 243.558C226.478 237.071 226.196 227.195 220.049 221.049L214.5 215.5C204.667 205.667 183.1 182.8 175.5 170C166 154 146 121 142.5 91.5Z" fill="#304A9F"/>
<path d="M931.367 110.654C924.358 91.694 901.132 73.4219 882.22 61.6328C871.262 54.8023 858.328 52.2456 845.423 52.6963C740.262 49.808 525.288 43.866 506.677 43.2038C490.02 42.6111 328.22 25.8345 224.462 14.8967C202.015 12.5304 179.389 13.4713 157.218 17.6998L127.718 23.3258C80.7827 32.2769 36.0652 59.6259 20.3374 104.744C12.1381 128.266 4.17879 205.63 45.9011 218.388C87.6234 231.145 188.122 244.037 214.878 243.103C241.635 242.169 565.787 248.617 576.435 248.245C587.083 247.873 789.311 246.279 821.337 239.693C853.363 233.108 883.487 226.862 908.358 218.886C933.228 210.91 934.609 203.481 946.109 172.737C957.61 141.993 943.14 142.498 931.367 110.654Z" stroke="black" stroke-width="27"/>
</svg>
