<svg width="937" height="625" viewBox="0 0 937 625" fill="none" xmlns="http://www.w3.org/2000/svg">
<path d="M519.089 596.869C639.355 593.332 726.059 563.69 781.493 538.086C808.345 525.684 884.582 452.508 899.34 426.875C911.027 407.007 904.268 373.973 894.018 345.967C884.96 321.217 881.718 294.09 890.052 269.087C896.1 250.943 908.684 233.769 909.63 214.667C911.507 176.801 887.395 115.503 856.842 107.016C816.58 95.8326 774.081 71.2281 729.346 42.1501C684.61 13.0721 621.981 33.203 606.323 42.1501C590.666 51.0972 536.983 91.359 494.485 93.5958C451.986 95.8326 420.671 51.0972 306.596 57.8075C223.873 62.6735 106.721 246.792 44.4331 363.939C32.6728 386.057 27 410.832 27 435.882C27 477.489 44.1647 517.2 82.7443 532.78C171.867 568.773 343.491 602.034 519.089 596.869Z" fill="#5C8E3C"/>
<path d="M412 448C425.179 448 486.158 456.688 588.5 400.5C639.5 372.5 732.5 384 887.5 426.5" stroke="#B0643E" stroke-width="67" stroke-linecap="round"/>
<path d="M260.098 235C325 225.5 347.5 158.5 460.902 177C480.947 180.27 518.889 181.713 546.027 186.223C560.606 188.646 586.769 181.8 597.889 172.064C645.418 130.452 714.177 156.16 753.5 150.543C790.054 145.321 873.137 129.872 911.214 150.543C865.153 123.691 724.428 99.5643 677.5 98C618.84 96.0447 584.515 106.902 556 124.5C527.485 142.098 513.562 133 472.5 133C431.438 133 272.973 89.3363 234.5 167.5" stroke="#48733B" stroke-width="13" stroke-linecap="round"/>
<path d="M415 446.5C437.167 446.333 484.6 444.4 497 438C512.5 430 603.5 388.5 616 386.5C628.5 384.5 705 372 726 381C742.8 388.2 852.333 414 905 426" stroke="#82491D" stroke-width="10" stroke-linecap="round"/>
<path d="M77.6889 545.298L82.7443 532.78L77.689 545.298C168.843 582.111 342.376 615.572 519.486 610.363C641.872 606.764 730.362 576.573 787.153 550.342C795.522 546.477 806.449 538.62 817.64 529.586C829.142 520.3 841.927 508.937 854.25 497.229C866.577 485.518 878.575 473.336 888.488 462.378C898.152 451.695 906.531 441.421 911.008 433.665C918.961 420.106 919.965 403.468 918.33 388.049C916.662 372.318 912.037 355.921 906.696 341.327C898.302 318.392 895.795 294.55 902.86 273.356C904.758 267.66 907.241 262.394 910.086 256.361C911.349 253.683 912.683 250.854 914.069 247.768C918.234 238.496 922.51 227.517 923.114 215.336C924.183 193.753 917.958 166.803 907.684 144.232C902.498 132.839 896.036 122.009 888.445 113.251C880.953 104.606 871.592 97.1025 860.455 94.009C822.376 83.4314 781.395 59.8811 736.703 30.8311C710.724 13.9446 680.326 11.7747 655.475 14.4694C630.725 17.1531 609.311 24.8944 599.625 30.4288C596.482 32.2254 591.961 35.1533 586.848 38.465C584.944 39.6983 582.957 40.9849 580.929 42.2861C573.126 47.2928 563.9 53.0552 553.927 58.5807C533.51 69.8929 511.758 79.168 493.775 80.1145C485.688 80.5401 477.686 78.7865 467.733 75.2735C462.724 73.5056 457.471 71.3873 451.503 68.9719L451.094 68.8064C445.316 66.4677 438.962 63.8959 432.037 61.352C403.175 50.7496 364.969 40.8505 305.803 44.3308C280.716 45.8065 255.091 60.5269 230.82 80.8742C206.198 101.516 181.181 129.478 157.174 160.507C109.122 222.612 63.8567 298.652 32.5133 357.601L44.4331 363.939L32.5133 357.601C19.6313 381.828 13.5 408.808 13.5 435.882C13.5 480.584 32.09 526.883 77.6889 545.298Z" stroke="black" stroke-width="27"/>
<path d="M874 239.164C853.456 228.803 779.795 208.868 733.5 215.5C675.631 223.789 661.5 235.5 614.5 244" stroke="black" stroke-width="10" stroke-linecap="round"/>
<path d="M546 257C537.5 245.333 515.5 246.036 505.5 248.5C471 256.998 442 247.5 423 261.5C407.8 272.7 327.5 282.833 305.5 286.5" stroke="black" stroke-width="10" stroke-linecap="round"/>
<path d="M611 204.5C618.333 194.833 663.497 197.185 685.5 191C778 165 845.833 189 855 186.5" stroke="black" stroke-width="5" stroke-linecap="round"/>
<path d="M551 225C542 215.167 521.9 201.2 483.5 206C435.5 212 373 201 363.5 217.5C354 234 289 257 268.5 257.5" stroke="black" stroke-width="5" stroke-linecap="round"/>
<path d="M615 287.5C622 297 640.5 299.5 685.5 299.5C702.5 299.5 779.5 290 790.5 284C801.5 278 819.5 290.5 846.5 281" stroke="black" stroke-width="5" stroke-linecap="round"/>
<path d="M558 300.5C558 313.5 547 324.5 535 329C514.962 336.514 476 338.5 455.5 339C439.1 339.4 387.667 351.833 365 348.5" stroke="black" stroke-width="5" stroke-linecap="round"/>
<path d="M326 275.435C329.134 277.225 367.486 268.679 399.94 260.893C407.266 259.136 411.736 268.783 404.348 270.261C396.957 271.739 397.696 270.261 385.87 268.783C374.043 267.304 374.783 270.261 374.783 275.435V286.522C374.783 290.957 379.957 295.391 385.87 308.696C391.783 322 394.739 322.739 394.739 334.565C394.739 346.391 397.696 351.565 397.696 364.13C397.696 376.696 397.696 373 402.13 381.13C406.565 389.261 407.304 390 408.783 397.391C410.261 404.783 407.304 409.957 397.696 409.957C388.087 409.957 391.043 406.261 385.87 397.391C380.696 388.522 385.87 384.087 385.87 368.565C385.87 353.043 385.13 356 385.87 339C386.609 322 384.391 327.913 379.957 315.348C375.522 302.783 374.783 300.565 369.609 290.957C364.435 281.348 351.87 304.261 351.87 308.696V325.696C351.87 334.565 357.043 339.739 357.043 348.609C357.043 357.478 360 365.609 360.739 384.087C361.478 402.565 360.739 398.87 357.043 413.652C353.348 428.435 349.652 437.304 351.87 452.087C354.087 466.87 353.348 470.565 357.043 486.087C360.739 501.609 360 491.261 365.913 497.174C371.826 503.087 371.087 501.609 374.783 507.522C378.478 513.435 373.304 516.391 365.913 514.913C358.522 513.435 353.348 503.087 349.652 486.087C345.957 469.087 349.652 469.826 346.696 449.87C343.739 429.913 346.696 427.696 349.652 409.957C352.609 392.217 349.652 395.174 349.652 381.13C349.652 367.087 350.391 364.87 349.652 356C348.913 347.13 347.435 333.087 346.696 325.696C345.957 318.304 340.043 305.739 337.826 300.565C336.972 298.573 329.689 292.389 320.743 285.329C315.405 281.118 320.097 272.062 326 275.435Z" fill="#9FEDFF"/>
<path d="M877.657 261.527L884.461 248.51C886.33 244.934 885.661 240.558 882.807 237.704C881.076 235.973 878.333 235.025 877.173 237.181C876.551 238.335 876.103 240.039 876.103 242.5C876.103 250 873.603 247.5 873.603 254C873.603 260.5 871.604 264.5 868.603 272.5C865.602 280.5 864.604 281.5 859.604 293.5C854.604 305.5 856.104 311 856.604 321.5C857.104 332 858.104 333 862.104 344.5C866.104 356 868.603 361 868.603 371.5V395.5C868.603 405 868.603 406 871.604 411.5C874.605 417 873.603 417.5 871.604 423C869.605 428.5 868.603 426 868.603 430C868.603 431.159 868.267 432.907 868.008 434.805C866.777 443.86 874.031 440.33 880.103 433.5C886.474 426.332 887.165 415.984 886.083 406.454C885.334 399.86 884.551 393.897 884.103 393C883.103 391 880.103 377 880.103 369C880.103 361 876.103 351 873.603 348C871.603 345.6 869.436 332 868.603 325.5V309.246C868.603 298.791 869.927 288.378 872.545 278.256L875.263 267.748C875.821 265.59 876.624 263.502 877.657 261.527Z" fill="#9FEDFF"/>
<path d="M535.5 298L462.5 301.5L399 298" stroke="black" stroke-width="5" stroke-linecap="round"/>
</svg>
