<svg width="937" height="625" viewBox="0 0 937 625" fill="none" xmlns="http://www.w3.org/2000/svg">
<path d="M519.089 596.869C639.355 593.332 726.059 563.69 781.493 538.086C808.345 525.684 884.582 452.508 899.34 426.875C911.027 407.007 904.268 373.973 894.018 345.967C884.96 321.217 881.718 294.09 890.052 269.087C896.1 250.943 908.684 233.769 909.63 214.667C911.507 176.801 887.395 115.503 856.842 107.016C816.58 95.8326 774.081 71.2281 729.346 42.1501C684.61 13.0721 621.981 33.203 606.323 42.1501C590.666 51.0972 536.983 91.359 494.485 93.5958C451.986 95.8326 420.671 51.0972 306.596 57.8075C223.873 62.6735 106.721 246.792 44.4331 363.939C32.6728 386.057 27 410.832 27 435.882C27 477.489 44.1647 517.2 82.7443 532.78C171.867 568.773 343.491 602.034 519.089 596.869Z" fill="#5C8E3C"/>
<path d="M354 355.667C366.479 355.667 587.118 389 668.366 389C800.153 389 826.597 362.846 871 339" stroke="#B0643E" stroke-width="67" stroke-linecap="round"/>
<path d="M353 349C366.179 349 561.589 399.5 688 399.5C814.411 399.5 877.584 341.152 899 311.5" stroke="#82491D" stroke-width="10" stroke-linecap="round"/>
<path d="M773.5 142.5C697.206 148.202 669.806 170.836 637 227.5C678.753 234.956 700 256.5 787 256.5C854.5 256.5 907.725 227.732 922.637 192.689C906.234 180.014 844.017 137.23 773.5 142.5Z" fill="white"/>
<mask id="mask0_32_139" style="mask-type:alpha" maskUnits="userSpaceOnUse" x="631" y="142" width="291" height="117">
<path d="M633.067 231.25L632.71 231.868L633.412 231.993C643.824 233.852 654.447 236.708 665.574 239.867C667.845 240.511 670.137 241.169 672.453 241.833C681.475 244.421 690.851 247.11 700.709 249.545C725.496 255.667 753.365 260.189 786.54 257.499C819.68 254.812 849.386 248.314 872.687 238.087C895.982 227.862 912.934 213.882 920.46 196.197L920.611 195.841L920.306 195.605C918.664 194.336 916.782 192.788 914.645 191.03C895.457 175.245 855.657 142.501 783.5 142.501C731.833 142.501 665.968 174.422 633.067 231.25Z" fill="white" stroke="#48733B"/>
</mask>
<g mask="url(#mask0_32_139)">
<circle cx="788.5" cy="212.501" r="57.5" fill="#000F00"/>
</g>
<path d="M510.5 144C435.344 129.685 373.306 164.835 340.5 221.5C340.5 221.5 351.5 258.5 504.5 271C578.317 277.031 642.588 256.543 657.5 221.5C598.5 180.5 585.656 158.315 510.5 144Z" fill="white"/>
<mask id="mask1_32_139" style="mask-type:alpha" maskUnits="userSpaceOnUse" x="338" y="135" width="320" height="138">
<path d="M339.067 226.749L338.801 227.209L339.276 227.447C391.34 253.479 433.662 265.051 499.963 269.999C500.559 270.043 501.169 270.089 501.794 270.136C518.731 271.409 546.189 273.473 574.761 269.245C604.386 264.86 635.274 253.702 656.884 227.82L657.217 227.422L656.806 227.104C653.927 224.88 649.901 221.142 644.788 216.395C642.656 214.416 640.335 212.262 637.83 209.969C629.334 202.191 618.754 192.855 606.334 183.466C581.497 164.691 549.276 145.686 511.594 138.509C436.164 124.141 371.942 169.965 339.067 226.749Z" fill="white" stroke="#48733B"/>
</mask>
<g mask="url(#mask1_32_139)">
<circle cx="496.5" cy="213.5" r="63.5" fill="#000F00"/>
</g>
<circle cx="528" cy="197" r="16" fill="#FEFEFE"/>
<circle cx="490.985" cy="207.985" r="9.98535" fill="#FEFEFE"/>
<path d="M522 230C518.516 238.333 511 241 511 241" stroke="#FEFEFE" stroke-width="13" stroke-linecap="round"/>
<circle cx="819.53" cy="206.533" r="16.2301" transform="rotate(-4 819.53 206.533)" fill="#FEFEFE"/>
<circle cx="784.658" cy="198.657" r="9.98535" transform="rotate(-4 784.658 198.657)" fill="#FEFEFE"/>
<path d="M795.848 227.077C794.049 223.185 793 221.169 793 221.169" stroke="#FEFEFE" stroke-width="13" stroke-linecap="round"/>
<path d="M289.702 225.979C347.349 150.543 422.731 110.841 502 119C522.59 121.12 562.7 126.048 590.677 133.386C604.972 137.135 630.231 131.198 640.194 120.282C677.86 79.013 712.285 100.632 751.29 95.0594C787.844 89.8374 873.137 129.873 911.214 150.543C865.153 123.691 761.298 69.5952 714.37 68.0309C655.71 66.0756 605.195 93.4503 576.681 111.048C548.166 128.646 516.881 111.048 475.819 111.048C434.757 111.048 298.571 64.2198 260.098 142.384" stroke="#48733B" stroke-width="13" stroke-linecap="round"/>
<path d="M335 465.5C358.167 483.167 485.3 551.9 530.5 559.5C575.7 567.1 651 579 749.5 571" stroke="#48733B" stroke-width="13" stroke-linecap="round"/>
<path d="M77.6889 545.298L82.7443 532.78L77.689 545.298C168.843 582.111 342.376 615.572 519.486 610.363C641.872 606.764 730.362 576.573 787.153 550.342C795.522 546.477 806.449 538.62 817.64 529.586C829.142 520.3 841.927 508.937 854.25 497.229C866.577 485.518 878.575 473.336 888.488 462.378C898.152 451.695 906.531 441.421 911.008 433.665C918.961 420.106 919.965 403.468 918.33 388.049C916.662 372.318 912.037 355.921 906.696 341.327C898.302 318.392 895.795 294.55 902.86 273.356C904.758 267.66 907.241 262.394 910.086 256.361C911.349 253.683 912.683 250.854 914.069 247.768C918.234 238.496 922.51 227.517 923.114 215.336C924.183 193.753 917.958 166.803 907.684 144.232C902.498 132.839 896.036 122.009 888.445 113.251C880.953 104.606 871.592 97.1025 860.455 94.009C822.376 83.4314 781.395 59.8811 736.703 30.8311C710.724 13.9446 680.326 11.7747 655.475 14.4694C630.725 17.1531 609.311 24.8944 599.625 30.4288C596.482 32.2254 591.961 35.1533 586.848 38.465C584.944 39.6983 582.957 40.9849 580.929 42.2861C573.126 47.2928 563.9 53.0552 553.927 58.5807C533.51 69.8929 511.758 79.168 493.775 80.1145C485.688 80.5401 477.686 78.7865 467.733 75.2735C462.724 73.5056 457.471 71.3873 451.503 68.9719L451.094 68.8064C445.316 66.4677 438.962 63.8959 432.037 61.352C403.175 50.7496 364.969 40.8505 305.803 44.3308C280.716 45.8065 255.091 60.5269 230.82 80.8742C206.198 101.516 181.181 129.478 157.174 160.507C109.122 222.612 63.8567 298.652 32.5133 357.601L44.4331 363.939L32.5133 357.601C19.6313 381.828 13.5 408.808 13.5 435.882C13.5 480.584 32.09 526.883 77.6889 545.298Z" stroke="black" stroke-width="27"/>
</svg>
