<svg width="1080" height="724" viewBox="0 0 1080 724" fill="none" xmlns="http://www.w3.org/2000/svg">
<path d="M519.089 695.627C747.239 688.917 809.763 651.816 812 663L950.798 529.703C967.52 513.644 981.405 491.329 964.676 475.277C950.341 461.521 927.09 447.282 907.878 434.126C886.132 419.235 881.718 392.848 890.052 367.845C896.1 349.701 908.374 332.713 910.853 313.749C916.088 273.694 897.453 205.858 866.5 197.26C826.238 186.076 671.887 103.807 651.5 54.5001C630 2.50023 562.157 31.5534 546.5 40.5005C530.843 49.4476 535.499 171.022 493 173.259C450.501 175.496 485.265 17.5004 319 40.5004C274.101 46.7114 243.957 125.63 192 234.5C148.387 325.888 83.2984 406.8 46.2612 463.764C32.6064 484.766 27 509.59 27 534.64C27 576.247 44.1647 615.958 82.7443 631.538C171.867 667.531 343.491 700.792 519.089 695.627Z" fill="#5C8E3C"/>
<path d="M921.5 461.5C889.763 505.023 768.277 589.76 562.018 589.76C461.587 589.76 338.597 554.406 281.706 539.543C273.414 537.376 270.806 544.369 278.155 548.779V548.779C333.214 581.824 391.736 610.627 455.64 616.919C575.556 628.725 760.934 611.628 945.5 493" stroke="#B0643E" stroke-width="67" stroke-linecap="round"/>
<path d="M252 521.903C272.963 521.903 419.609 590 620.69 590C821.772 590 907.934 506.053 942 455" stroke="#82491D" stroke-width="10" stroke-linecap="round"/>
<path d="M519.486 709.122C631.826 705.818 716.247 687.585 773.661 667.041C807.495 654.935 838.206 633.805 866.444 610.8C882.727 597.534 899.145 582.792 914.887 568.656C925.791 558.865 936.37 549.365 946.356 540.849C956.861 531.89 967.515 520.002 972.743 506.728C975.422 499.927 976.872 492.251 975.615 484.271C974.331 476.123 970.38 468.683 963.94 462.358C953.056 451.668 938.034 440.77 924.614 431.034C921.344 428.662 918.169 426.359 915.172 424.144C900.066 412.982 895.762 393.406 902.86 372.115C904.758 366.419 907.241 361.153 910.086 355.119C911.349 352.442 912.683 349.612 914.069 346.527C918.234 337.255 922.51 326.276 923.114 314.094C924.183 292.512 917.958 265.562 907.684 242.991C902.498 231.598 896.036 220.768 888.445 212.01C880.953 203.365 871.592 195.861 860.455 192.768C852.959 190.686 840.342 183.437 823.611 171.527C807.395 159.984 788.851 145.208 769.914 129.664C760.901 122.265 751.747 114.644 742.719 107.128C714.464 83.6065 687.444 61.1128 669.857 49.6817C646.443 34.4626 621.042 23.5143 599.1 20.0149C578.352 16.7058 553.843 19.4587 543.743 41.3431C542.089 44.9261 540.816 50.1387 539.752 54.9263C538.658 59.8469 537.47 65.8822 536.18 72.4301L535.931 73.696C533.123 87.9484 529.733 104.975 525.306 121.482C520.835 138.152 515.543 153.359 509.263 164.267C502.629 175.79 497.184 178.694 493.775 178.873C493.197 178.904 492.291 178.938 490.339 176.969C488.022 174.634 485.348 170.492 482.232 163.884C479.176 157.406 476.193 149.675 472.78 140.754L472.439 139.861C469.181 131.346 465.587 121.947 461.432 112.544C452.883 93.1952 441.392 72.4325 423.563 56.9913C405.265 41.1439 381.154 31.6449 349.207 33.5242C333.27 34.4617 317.287 39.1274 301.254 49.163C263.549 72.7643 241.998 109.759 225.448 148.056C218.831 163.37 212.842 179.325 206.984 194.931C205.523 198.824 204.07 202.695 202.617 206.528C195.261 225.943 187.84 244.625 179.045 261.886C145.966 326.803 105.162 374.893 71.1115 415.024C58.5903 429.781 46.9824 443.461 37.0076 456.507C19.3931 479.544 13.5 507.792 13.5 534.641C13.5 579.343 32.09 625.642 77.689 644.057C168.843 680.87 342.376 714.332 519.486 709.122Z" stroke="black" stroke-width="27"/>
<path d="M984.854 326.179L712.434 402.317C591.532 436.107 474.239 338.371 485.663 213.357C495.805 102.374 603.683 27.4453 711.222 56.6901L984.17 130.916C1032.94 144.179 1064.47 191.37 1058.05 241.503C1052.88 281.871 1024.05 315.224 984.854 326.179Z" fill="white"/>
<path d="M982.289 317L709.868 393.138C595.395 425.132 484.337 332.592 495.154 214.224C504.757 109.142 606.899 38.1967 708.722 65.8866L981.669 140.113C1025.85 152.128 1054.41 194.878 1048.6 240.293C1043.91 276.862 1017.8 307.076 982.289 317Z" stroke="black" stroke-opacity="0.02" stroke-width="19.0612"/>
<mask id="mask0_16_301" style="mask-type:alpha" maskUnits="userSpaceOnUse" x="484" y="50" width="575" height="360">
<path d="M984.854 326.179L712.434 402.317C591.532 436.107 474.239 338.371 485.663 213.357C495.805 102.374 603.683 27.4453 711.222 56.6901L984.17 130.916C1032.94 144.179 1064.47 191.37 1058.05 241.503C1052.88 281.871 1024.05 315.224 984.854 326.179Z" fill="white"/>
<path d="M982.289 317L709.868 393.138C595.395 425.132 484.337 332.592 495.154 214.224C504.757 109.142 606.899 38.1967 708.722 65.8866L981.669 140.113C1025.85 152.128 1054.41 194.878 1048.6 240.293C1043.91 276.862 1017.8 307.076 982.289 317Z" stroke="black" stroke-opacity="0.02" stroke-width="19.0612"/>
</mask>
<g mask="url(#mask0_16_301)">
<ellipse cx="1066.68" cy="220.288" rx="41.8368" ry="87.9272" transform="rotate(7.29582 1066.68 220.288)" fill="black"/>
<path d="M1098.72 224.391C1095.78 247.388 1088.71 267.175 1080.11 280.561C1071.07 294.611 1062.42 298.78 1056.72 298.05C1051.02 297.32 1043.7 291.106 1038.49 275.233C1033.54 260.11 1031.69 239.183 1034.63 216.185C1037.58 193.188 1044.64 173.401 1053.24 160.015C1062.28 145.965 1070.93 141.796 1076.63 142.526C1082.33 143.256 1089.65 149.47 1094.86 165.343C1099.82 180.466 1101.66 201.393 1098.72 224.391Z" stroke="black" stroke-opacity="0.02" stroke-width="19.0612"/>
</g>
<path d="M875.918 383.265L492.793 492.269C352.297 532.241 213.981 422.681 220.728 276.765C226.829 144.83 349.913 49.9321 479.061 77.5921L868.559 161.012C925.055 173.112 963.705 225.382 958.718 282.945C954.613 330.328 921.664 370.25 875.918 383.265Z" fill="white"/>
<path d="M873.31 374.098L490.185 483.102C355.952 521.293 223.802 416.616 230.249 277.205C236.077 151.151 353.675 60.4844 477.065 86.9113L866.563 170.331C918.36 181.425 953.795 229.347 949.223 282.122C945.46 325.564 915.251 362.165 873.31 374.098Z" stroke="black" stroke-opacity="0.02" stroke-width="19.0612"/>
<mask id="mask1_16_301" style="mask-type:alpha" maskUnits="userSpaceOnUse" x="220" y="72" width="740" height="429">
<path d="M875.918 383.265L492.793 492.269C352.297 532.241 213.981 422.681 220.728 276.765C226.829 144.83 349.913 49.9321 479.061 77.5921L868.559 161.012C925.055 173.112 963.705 225.382 958.718 282.945C954.613 330.328 921.664 370.25 875.918 383.265Z" fill="white"/>
<path d="M873.31 374.098L490.185 483.102C355.952 521.293 223.802 416.616 230.249 277.205C236.077 151.151 353.675 60.4844 477.065 86.9113L866.563 170.331C918.36 181.425 953.795 229.347 949.223 282.122C945.46 325.564 915.251 362.165 873.31 374.098Z" stroke="black" stroke-opacity="0.02" stroke-width="19.0612"/>
</mask>
<g mask="url(#mask1_16_301)">
<ellipse cx="965.545" cy="259.193" rx="53.8918" ry="101.977" transform="rotate(4.9514 965.545 259.193)" fill="black"/>
<path d="M1009.74 263.022C1007.42 289.848 999.587 313.163 989.276 329.159C978.701 345.564 967.133 352.124 957.566 351.295C947.999 350.466 937.732 342.015 930.136 324.035C922.729 306.504 919.026 282.19 921.35 255.365C923.674 228.539 931.503 205.224 941.814 189.228C952.39 172.823 963.957 166.263 973.524 167.092C983.092 167.921 993.359 176.372 1000.95 194.352C1008.36 211.883 1012.06 236.197 1009.74 263.022Z" stroke="black" stroke-opacity="0.02" stroke-width="19.0612"/>
</g>
<path d="M259.5 477C245 474.5 213.8 475 205 497" stroke="#48733B" stroke-width="13" stroke-linecap="round"/>
<path d="M174 473.5L188 455" stroke="#48733B" stroke-width="13" stroke-linecap="round"/>
</svg>
