<svg width="981" height="625" viewBox="0 0 981 625" fill="none" xmlns="http://www.w3.org/2000/svg">
<path d="M519.089 596.869C639.355 593.332 726.059 563.69 781.493 538.086C808.345 525.684 884.582 452.508 899.34 426.875C911.027 407.007 904.268 373.973 894.018 345.967C884.96 321.217 881.718 294.09 890.052 269.087C896.1 250.943 908.684 233.769 909.63 214.667C911.507 176.801 887.395 115.503 856.842 107.016C816.58 95.8326 774.081 71.2281 729.346 42.1501C684.61 13.0721 621.981 33.203 606.323 42.1501C590.666 51.0972 536.983 91.359 494.485 93.5958C451.986 95.8326 420.671 51.0972 306.596 57.8075C223.873 62.6735 106.721 246.792 44.4331 363.939C32.6728 386.057 27 410.832 27 435.882C27 477.489 44.1647 517.2 82.7443 532.78C171.867 568.773 343.491 602.034 519.089 596.869Z" fill="#5C8E3C"/>
<path d="M450.512 400.085C463.69 400.085 573.899 438.7 659.705 438.7C798.884 438.7 862.978 390.683 884.393 361.031" stroke="#B0643E" stroke-width="67" stroke-linecap="round"/>
<path d="M450.621 399.889C463.8 399.889 555.99 439.44 682.4 439.44C808.811 439.44 862.978 390.683 884.393 361.031" stroke="#82491D" stroke-width="10" stroke-linecap="round"/>
<path d="M779.483 136.77C704.328 122.455 619.927 232.206 587.121 288.87C628.874 296.326 728.933 309.896 795.141 304.528C861.35 299.16 907.725 227.732 922.637 192.689C906.234 180.014 854.639 151.085 779.483 136.77Z" fill="white"/>
<mask id="mask0_11_1152" style="mask-type:alpha" maskUnits="userSpaceOnUse" x="585" y="134" width="339" height="173">
<path d="M586.688 288.62L586.331 289.237L587.033 289.363C628.792 296.82 728.905 310.4 795.182 305.026C828.457 302.328 856.71 283.035 878.488 260.081C900.269 237.123 915.621 210.453 923.097 192.885L923.248 192.53L922.943 192.294C906.471 179.566 854.802 150.607 779.577 136.279C741.74 129.072 701.686 153.096 667.077 185.839C632.438 218.612 603.108 260.258 586.688 288.62Z" fill="white" stroke="#48733B"/>
</mask>
<g mask="url(#mask0_11_1152)">
<circle cx="770.715" cy="228.916" r="94.7231" fill="#000F00"/>
</g>
<path d="M507.722 178.885C432.566 164.57 348.165 274.321 315.359 330.985C357.113 338.441 457.171 352.011 523.379 346.643C589.588 341.275 635.964 269.847 650.875 234.804C634.472 222.129 582.877 193.2 507.722 178.885Z" fill="white"/>
<mask id="mask1_11_1152" style="mask-type:alpha" maskUnits="userSpaceOnUse" x="313" y="176" width="340" height="173">
<path d="M314.927 330.735L314.569 331.352L315.271 331.478C357.031 338.935 457.143 352.515 523.42 347.141C556.696 344.443 584.949 325.15 606.726 302.196C628.507 279.238 643.86 252.568 651.335 235L651.487 234.645L651.181 234.409C634.709 221.681 583.04 192.722 507.815 178.394C469.978 171.187 429.924 195.211 395.316 227.954C360.677 260.727 331.347 302.373 314.927 330.735Z" fill="white" stroke="#48733B"/>
</mask>
<g mask="url(#mask1_11_1152)">
<circle cx="493.934" cy="272.499" r="94.7231" fill="#000F00"/>
</g>
<circle cx="522.402" cy="256.334" r="25.7964" fill="#FEFEFE"/>
<circle cx="455.337" cy="240.523" r="9.98535" fill="#FEFEFE"/>
<path d="M461.172 281.508C466.693 296.039 478.607 300.689 478.607 300.689" stroke="#FEFEFE" stroke-width="13" stroke-linecap="round"/>
<circle cx="803.83" cy="213.431" r="25.7964" transform="rotate(-4 803.83 213.431)" fill="#FEFEFE"/>
<circle cx="751.15" cy="191.255" r="9.98535" transform="rotate(-4 751.15 191.255)" fill="#FEFEFE"/>
<path d="M744.777 243.28C751.299 257.391 755.099 264.697 755.099 264.697" stroke="#FEFEFE" stroke-width="13" stroke-linecap="round"/>
<path d="M289.702 225.978C347.349 150.543 419.444 142.383 498.713 150.543C519.908 152.724 566.213 158.487 597.208 166.589C611.507 170.327 636.915 164.198 645.724 152.33C682.319 103.027 712.004 100.672 751.29 95.0591C787.844 89.8371 873.137 129.872 911.214 150.543C865.153 123.69 761.298 69.5949 714.37 68.0306C655.71 66.0753 605.195 93.45 576.681 111.048C548.166 128.646 516.881 111.048 475.819 111.048C434.757 111.048 298.571 64.2195 260.098 142.383" stroke="#48733B" stroke-width="13" stroke-linecap="round"/>
<path d="M77.6889 545.298L82.7443 532.78L77.689 545.298C168.843 582.111 342.376 615.572 519.486 610.363C641.872 606.764 730.362 576.573 787.153 550.342C795.522 546.477 806.449 538.62 817.64 529.586C829.142 520.3 841.927 508.937 854.25 497.229C866.577 485.518 878.575 473.336 888.488 462.378C898.152 451.695 906.531 441.421 911.008 433.665C918.961 420.106 919.965 403.468 918.33 388.049C916.662 372.318 912.037 355.921 906.696 341.327C898.302 318.392 895.795 294.55 902.86 273.356C904.758 267.66 907.241 262.394 910.086 256.361C911.349 253.683 912.683 250.854 914.069 247.768C918.234 238.496 922.51 227.517 923.114 215.336C924.183 193.753 917.958 166.803 907.684 144.232C902.498 132.839 896.036 122.009 888.445 113.251C880.953 104.606 871.592 97.1025 860.455 94.009C822.376 83.4314 781.395 59.8811 736.703 30.8311C710.724 13.9446 680.326 11.7747 655.475 14.4694C630.725 17.1531 609.311 24.8944 599.625 30.4288C596.482 32.2254 591.961 35.1533 586.848 38.465C584.944 39.6983 582.957 40.9849 580.929 42.2861C573.126 47.2928 563.9 53.0552 553.927 58.5807C533.51 69.8929 511.758 79.168 493.775 80.1145C485.688 80.5401 477.686 78.7865 467.733 75.2735C462.724 73.5056 457.471 71.3873 451.503 68.9719L451.094 68.8064C445.316 66.4677 438.962 63.8959 432.037 61.352C403.175 50.7496 364.969 40.8505 305.803 44.3308C280.716 45.8065 255.091 60.5269 230.82 80.8742C206.198 101.516 181.181 129.478 157.174 160.507C109.122 222.612 63.8567 298.652 32.5133 357.601L44.4331 363.939L32.5133 357.601C19.6313 381.828 13.5 408.808 13.5 435.882C13.5 480.584 32.09 526.883 77.6889 545.298Z" stroke="black" stroke-width="27"/>
<ellipse cx="909.735" cy="278.551" rx="70.8364" ry="57.9272" fill="#F9ADC2"/>
<ellipse cx="295.919" cy="371.321" rx="125.48" ry="82.9782" transform="rotate(6.55164 295.919 371.321)" fill="#F9ADC2"/>
</svg>
