<svg width="1908" height="843" viewBox="0 0 1908 843" fill="none" xmlns="http://www.w3.org/2000/svg">
<path d="M357.145 407.44C361.058 404.831 367.537 404.784 372.106 404.29C389.25 402.436 407.329 404.305 424.373 405.766C442.096 407.285 495.412 409.211 477.624 409.211" stroke="black" stroke-width="30" stroke-linecap="round"/>
<path d="M420.925 402.124C411.115 376.507 404.979 346.253 404.979 318.851C404.979 300.83 403.596 282.981 402.42 265.009C400.267 232.102 405.818 199.614 408.129 166.873C410.585 132.08 420.925 96.7185 420.925 61.9458" stroke="black" stroke-width="30" stroke-linecap="round"/>
<path d="M355.371 56.6309C374.424 56.6309 392.979 60.1744 412.067 60.1744" stroke="black" stroke-width="30" stroke-linecap="round"/>
<path d="M420.927 115.099C439.961 99.3755 456.871 81.3746 480.576 72.5768C499.14 65.6871 520.247 56.8871 540.226 56.631C585.164 56.0548 604.199 101.08 606.568 140.888C607.654 159.129 608.505 178.838 606.174 196.994C601.285 235.082 562.961 264.035 534.713 285.779C525.85 292.601 514.319 302.798 502.428 298.083C496.404 295.694 490.792 292.192 485.104 289.125C475.239 283.807 466.617 278.203 457.74 271.408C443.391 260.425 433.322 250.118 424.864 233.807C422.484 229.217 418.483 221.955 413.84 219.633" stroke="black" stroke-width="30" stroke-linecap="round"/>
<path d="M663.66 145.219C693.938 137.433 727.33 141.675 758.449 141.675C771.738 141.675 785.026 141.675 798.314 141.675C801.59 141.675 810.003 142.729 812.094 139.116C817.038 130.577 814.168 115.925 815.146 106.536C817.58 83.1665 794.501 62.542 773.706 55.056C746.938 45.4193 711.285 51.7454 695.847 77.9905C688.581 90.3438 685.377 110.245 683.15 124.352C680.385 141.859 678.639 160.604 680 178.292C682.049 204.927 697.017 240.934 719.372 256.643C740.54 271.518 764.636 279.873 790.44 279.873C817.198 279.873 835.286 269.264 849.695 246.209" stroke="black" stroke-width="30" stroke-linecap="round"/>
<path d="M883.355 138.132C941.166 133.314 997.737 145.219 1055.41 145.219C1061.64 145.219 1068.24 145.891 1074.41 145.12C1079.69 144.46 1063.51 116.95 1062.3 114.213C1047.5 80.6119 1023.31 60.1743 985.921 60.1743C970.269 60.1743 956.321 60.6878 942.611 69.0331C919.079 83.3567 916.335 120.602 911.704 144.431C906.674 170.307 898.83 200.055 905.995 226.326C912.458 250.026 926.183 261.992 948.714 270.128C970.459 277.981 995.156 278.846 1017.62 272.786C1031.59 269.014 1038.35 255.965 1051.67 251.525" stroke="black" stroke-width="30" stroke-linecap="round"/>
<path d="M1087.11 382.635C1130.83 382.635 1261.94 386.178 1218.22 386.178" stroke="black" stroke-width="30" stroke-linecap="round"/>
<path d="M1150.89 370.232C1150.89 325.709 1150.89 281.185 1150.89 236.661C1150.89 204.463 1148.56 171.207 1151.29 139.116C1153.2 116.517 1154.44 94.4778 1154.44 71.789C1154.44 65.9337 1150.65 66.2422 1145.28 64.5051C1123.38 57.4202 1100.48 52.2241 1078.25 46" stroke="black" stroke-width="30" stroke-linecap="round"/>
<path d="M1157.98 92.0659C1156.02 92.0659 1163.1 87.5979 1164.28 86.7506C1172.19 81.059 1178.83 77.5852 1188 74.2498C1203.5 68.6159 1219.28 67.2612 1235.94 67.2612C1255.06 67.2612 1270.15 67.6234 1286.43 78.9745C1303.57 90.9161 1313.4 114.981 1313.9 135.179C1314.41 156.409 1315.36 178.301 1309.57 198.864C1304.99 215.096 1298.31 229.386 1287.32 242.469C1271.51 261.289 1254.61 280.002 1229.25 283.022C1206.76 285.699 1190.26 281.769 1171.47 269.242C1167.66 266.702 1154.44 255.936 1154.44 251.524" stroke="black" stroke-width="30" stroke-linecap="round"/>
<path d="M1436.15 74.3485C1402.53 95.6417 1390.12 145.208 1388.41 182.918C1387.49 203.207 1388.18 221.397 1395.4 240.5C1398.21 247.942 1402.32 253.911 1406.81 260.383C1419.03 277.973 1431.26 283.56 1452.88 290.799C1474.73 298.116 1496.55 304.862 1518.63 295.819C1529.33 291.438 1538.15 284.409 1546.98 277.117C1559.28 266.962 1565.47 252.954 1570.7 238.236C1581.11 208.971 1583.66 173.231 1577.89 142.66C1573.51 119.44 1562.94 96.4377 1546.39 79.27C1540.43 73.0924 1539.25 72.7088 1531.82 69.8206C1523.4 66.5444 1515.72 67.3873 1507.41 65.0959C1493.74 61.3251 1476.42 63.589 1462.53 65.0959C1455.67 65.8396 1433.72 70.3452 1430.83 76.1202" stroke="black" stroke-width="30" stroke-linecap="round"/>
<path d="M40 472.995C56.2542 480.644 75.6386 478.31 93.1529 478.31C105.114 478.31 116.569 481.853 128.588 481.853" stroke="black" stroke-width="30" stroke-linecap="round"/>
<path d="M75.4336 485.397C90.1463 495.614 95.8273 519.2 103.191 534.416C114.629 558.05 125.784 581.624 136.264 605.68C142.997 621.136 146.166 637.825 152.505 653.321C154.801 658.934 159.478 666.459 160.38 672.318C161.561 679.996 160.845 689.081 163.628 696.237C164.614 698.773 162.291 695.828 162.25 692.89C162.082 680.986 162.996 669.845 165.793 658.242C173.088 627.993 179.517 596.376 189.023 566.799C194.951 548.358 200.867 529.416 207.43 511.186C208.783 507.428 217.664 482.247 220.718 482.247C228.715 482.247 240.929 547.921 242.964 556.267C246.731 571.728 250.314 587.244 253.988 602.727C258.234 620.623 266.764 636.083 272.69 653.321C275.778 662.303 275.83 672.022 277.513 681.275C277.895 683.377 284.089 694.567 285.88 695.055C286.356 695.185 304.031 641.125 305.763 635.603C315.233 605.4 324.94 575.836 337.457 546.818C343.214 533.474 348.985 520.104 354.486 506.658C356.473 501.801 357.968 489.414 362.459 487.169" stroke="black" stroke-width="30" stroke-linecap="round"/>
<path d="M312.852 483.626C330.738 482.135 347.578 480.082 365.611 480.082C375.86 480.082 386.22 481.854 396.124 481.854" stroke="black" stroke-width="30" stroke-linecap="round"/>
<path d="M447.502 497.799C408.511 508.433 405.754 548.467 403.208 582.844C400.478 619.703 407.138 650.229 420.926 683.933C431.637 710.115 452.241 716.494 480.575 719.663C504.705 722.362 522.525 714.434 538.551 697.221C556.986 677.42 567.894 642.124 571.624 616.015C575.64 587.902 579.23 554.724 572.903 526.541C569.129 509.73 559.326 498.635 542.587 494.65C527.5 491.058 513.676 490.712 498.096 490.712C484.225 490.712 472.275 491.358 458.723 494.945C451.244 496.925 444.518 500.068 436.871 501.343" stroke="black" stroke-width="30" stroke-linecap="round"/>
<path d="M605.191 476.538C629.166 476.538 652.298 483.625 676.062 483.625" stroke="black" stroke-width="30" stroke-linecap="round"/>
<path d="M647.711 485.397C647.711 562.775 649.483 640.11 649.483 717.498" stroke="black" stroke-width="30" stroke-linecap="round"/>
<path d="M599.875 726.356C628.378 710.069 667.139 715.726 699.094 715.726" stroke="black" stroke-width="30" stroke-linecap="round"/>
<path d="M654.801 538.55C654.801 521.453 672.381 510.35 685.905 502.327C699.534 494.242 713.979 488.638 730.002 488.94C745.456 489.232 750.981 500.101 757.465 512.662C761.601 520.677 765.094 543.317 759.532 551.739C755.104 558.444 747.2 566.898 738.959 566.898C729.035 566.898 736.594 535.797 742.011 542.881C747.401 549.929 748.118 570.796 734.53 561.09C731.367 558.831 721.213 545.208 727.443 542.093" stroke="black" stroke-width="30" stroke-linecap="round"/>
<path d="M764.648 356.059C776.929 367.046 804.091 368.461 820.361 368.461C822.784 368.461 826.153 369.08 828.432 368.067C835.28 365.023 830.58 382.438 830.204 385.588C824.354 434.575 826.66 484.621 826.66 533.825C826.66 568.014 826.66 602.202 826.66 636.391C826.66 662.705 826.66 689.019 826.66 715.332C826.66 726.89 823.324 724.585 812.88 724.585C802.504 724.585 789.237 722.367 780.594 728.129" stroke="black" stroke-width="30" stroke-linecap="round"/>
<path d="M810.715 719.27C827.562 719.27 843.579 720.53 860.324 722.813" stroke="black" stroke-width="30" stroke-linecap="round"/>
<path d="M840.834 579.3C822.543 579.3 877.362 575.809 895.168 571.623C909.576 568.235 919.505 560.137 928.635 548.787C938.33 536.733 942.872 519.859 945.368 504.886" stroke="black" stroke-width="30" stroke-linecap="round"/>
<path d="M911.707 488.94C931.937 495.818 948.903 497.799 970.175 497.799" stroke="black" stroke-width="30" stroke-linecap="round"/>
<path d="M902.848 572.213C929.06 604.08 948.476 644.726 968.304 681.078C972.698 689.134 975.49 703.868 975.49 713.068C975.49 721.238 976.047 722.813 967.419 722.813C957.66 722.813 948.361 721.041 938.677 721.041C925.808 721.041 953.154 722.26 956.886 722.813C974.524 725.426 992.878 731.977 1009.15 738.759" stroke="black" stroke-width="30" stroke-linecap="round"/>
<path d="M1154.44 483.626C1144.01 483.626 1144.25 510.48 1143.81 517.092C1142.94 529.859 1143.81 568.276 1143.81 555.48C1143.81 533.416 1136.67 512.163 1122.54 495.437C1098.08 466.466 1048.03 472.459 1035.33 509.611C1029.27 527.354 1025.29 545.833 1033.96 563.158C1042.92 581.09 1064.39 583.933 1082.58 587.274C1116.15 593.44 1129.85 633.354 1135.83 663.262C1137.97 673.963 1146.25 697.166 1136.33 705.883C1129.17 712.163 1121.02 716.548 1111.23 717.4C1092.63 719.016 1079.36 715.354 1066.44 701.355C1049.78 683.304 1034.08 664.737 1020.77 644.167C1012.87 631.963 1017.73 662.257 1018.4 666.511C1019.8 675.309 1020.54 686.092 1023.33 694.465" stroke="black" stroke-width="30" stroke-linecap="round"/>
<path d="M1152.66 715.726C1188.75 715.726 1228.7 711.028 1264.29 717.498" stroke="black" stroke-width="30" stroke-linecap="round"/>
<path d="M1214.68 717.498C1214.68 690.293 1221.76 663.89 1221.76 636.784C1221.76 611.225 1221.76 585.666 1221.76 560.106C1221.76 529.429 1221.76 498.751 1221.76 468.073C1221.76 451.11 1221.76 434.147 1221.76 417.184C1221.76 412.549 1221.59 393.179 1218.22 391.494" stroke="black" stroke-width="30" stroke-linecap="round"/>
<path d="M1223.54 558.04C1227.89 538.427 1239.3 523.058 1249.42 505.969C1262.04 484.671 1280.58 482.376 1304.64 478.507C1331.58 474.176 1352.35 488.124 1367.44 510.005C1401.55 559.463 1395.7 625.673 1397.17 683.047C1397.37 690.924 1399.97 705.508 1396.77 712.773C1394.4 718.161 1342.85 713.955 1336.73 713.955C1304.18 713.955 1401.82 712.183 1434.37 712.183" stroke="black" stroke-width="30" stroke-linecap="round"/>
<path d="M1491.07 488.94C1467.34 501.821 1455.03 541.679 1453.96 567.784C1453.39 581.762 1450.83 601.259 1454.65 614.735C1458.69 628.993 1466.49 641.336 1472.57 654.699C1474.76 659.519 1474.58 659.359 1479.46 664.345C1495.15 680.388 1513.04 694.902 1531.03 708.245C1544.12 717.948 1552.67 722.813 1568.24 722.813C1582.86 722.813 1597.61 723.248 1610.57 715.332C1645.55 693.952 1652.93 660.432 1657.22 621.822C1663.24 567.685 1632.27 512.968 1584.09 489.925C1565.67 481.114 1542.03 480.323 1521.78 480.082C1514.96 480 1496.16 480.542 1492.84 487.169" stroke="black" stroke-width="30" stroke-linecap="round"/>
<path d="M1655.84 481.854C1678.44 481.854 1706.24 495.88 1728.09 486.775C1729.22 486.306 1735.25 481.98 1736.56 483.428C1740 487.229 1736.83 501.518 1736.36 505.871C1733.47 532.698 1729.84 559.13 1727.7 586.092C1725.4 614.993 1726.85 644.242 1726.71 673.204C1726.57 703.499 1721.6 734.867 1726.71 764.942C1729.32 780.292 1733.8 794.914 1733.8 810.515C1733.8 813.845 1735.1 817.889 1731.24 818.882C1723.75 820.809 1715.52 824.986 1707.91 825.477C1700.03 825.985 1692.07 827.347 1684.19 827.347C1674.26 827.347 1703.59 822.308 1713.52 822.032C1732.13 821.515 1750.5 820.26 1769.14 820.26C1774.28 820.26 1802.35 820.936 1801.13 818.488" stroke="black" stroke-width="30" stroke-linecap="round"/>
<path d="M1724.95 666.117C1744.5 671.705 1759.35 694.811 1776.23 705.784C1788.15 713.536 1804.48 717.498 1818.45 717.498C1840.34 717.498 1851.49 697.662 1862.26 681.275C1888.24 641.736 1888.17 587.973 1891.1 542.979C1892.21 525.862 1896.74 500.267 1877.71 492.484C1860.64 485.501 1837.71 485.592 1820.13 490.614C1802.69 495.597 1786.21 501.566 1770.03 509.808C1761.97 513.913 1744.87 518.185 1740.89 526.147" stroke="black" stroke-width="30" stroke-linecap="round"/>
<path d="M344.145 377.44C348.058 374.831 354.537 374.784 359.106 374.29C376.25 372.436 394.329 374.305 411.373 375.766C429.096 377.285 482.412 379.211 464.624 379.211" stroke="#5C8E3C" stroke-width="30" stroke-linecap="round"/>
<path d="M407.925 372.124C398.115 346.507 391.979 316.253 391.979 288.851C391.979 270.83 390.596 252.981 389.42 235.009C387.267 202.102 392.818 169.614 395.129 136.873C397.585 102.08 407.925 66.7185 407.925 31.9458" stroke="#5C8E3C" stroke-width="30" stroke-linecap="round"/>
<path d="M342.371 26.6309C361.424 26.6309 379.979 30.1744 399.067 30.1744" stroke="#5C8E3C" stroke-width="30" stroke-linecap="round"/>
<path d="M407.927 85.0991C426.961 69.3755 443.871 51.3746 467.576 42.5768C486.14 35.6871 507.247 26.8871 527.226 26.631C572.164 26.0548 591.199 71.0805 593.568 110.888C594.654 129.129 595.505 148.838 593.174 166.994C588.285 205.082 549.961 234.035 521.713 255.779C512.85 262.601 501.319 272.798 489.428 268.083C483.404 265.694 477.792 262.192 472.104 259.125C462.239 253.807 453.617 248.203 444.74 241.408C430.391 230.425 420.322 220.118 411.864 203.807C409.484 199.217 405.483 191.955 400.84 189.633" stroke="#5C8E3C" stroke-width="30" stroke-linecap="round"/>
<path d="M650.66 115.219C680.938 107.433 714.33 111.675 745.449 111.675C758.738 111.675 772.026 111.675 785.314 111.675C788.59 111.675 797.003 112.729 799.094 109.116C804.038 100.577 801.168 85.9254 802.146 76.5355C804.58 53.1665 781.501 32.542 760.706 25.056C733.938 15.4193 698.285 21.7454 682.847 47.9905C675.581 60.3438 672.377 80.2449 670.15 94.3516C667.385 111.859 665.639 130.604 667 148.292C669.049 174.927 684.017 210.934 706.372 226.643C727.54 241.518 751.636 249.873 777.44 249.873C804.198 249.873 822.286 239.264 836.695 216.209" stroke="#5C8E3C" stroke-width="30" stroke-linecap="round"/>
<path d="M870.355 108.132C928.166 103.314 984.737 115.219 1042.41 115.219C1048.64 115.219 1055.24 115.891 1061.41 115.12C1066.69 114.46 1050.51 86.9496 1049.3 84.2131C1034.5 50.6119 1010.31 30.1743 972.921 30.1743C957.269 30.1743 943.321 30.6878 929.611 39.0331C906.079 53.3567 903.335 90.6025 898.704 114.431C893.674 140.307 885.83 170.055 892.995 196.326C899.458 220.026 913.183 231.992 935.714 240.128C957.459 247.981 982.156 248.846 1004.62 242.786C1018.59 239.014 1025.35 225.965 1038.67 221.525" stroke="#5C8E3C" stroke-width="30" stroke-linecap="round"/>
<path d="M1074.11 352.635C1117.83 352.635 1248.94 356.178 1205.22 356.178" stroke="#5C8E3C" stroke-width="30" stroke-linecap="round"/>
<path d="M1137.89 340.232C1137.89 295.709 1137.89 251.185 1137.89 206.661C1137.89 174.463 1135.56 141.207 1138.29 109.116C1140.2 86.517 1141.44 64.4778 1141.44 41.789C1141.44 35.9337 1137.65 36.2422 1132.28 34.5051C1110.38 27.4202 1087.48 22.2241 1065.25 16" stroke="#5C8E3C" stroke-width="30" stroke-linecap="round"/>
<path d="M1144.98 62.0659C1143.02 62.0659 1150.1 57.5979 1151.28 56.7506C1159.19 51.059 1165.83 47.5852 1175 44.2498C1190.5 38.6159 1206.28 37.2612 1222.94 37.2612C1242.06 37.2612 1257.15 37.6234 1273.43 48.9745C1290.57 60.9161 1300.4 84.9815 1300.9 105.179C1301.41 126.409 1302.36 148.301 1296.57 168.864C1291.99 185.096 1285.31 199.386 1274.32 212.469C1258.51 231.289 1241.61 250.002 1216.25 253.022C1193.76 255.699 1177.26 251.769 1158.47 239.242C1154.66 236.702 1141.44 225.936 1141.44 221.524" stroke="#5C8E3C" stroke-width="30" stroke-linecap="round"/>
<path d="M1423.15 44.3485C1389.53 65.6417 1377.12 115.208 1375.41 152.918C1374.49 173.207 1375.18 191.397 1382.4 210.5C1385.21 217.942 1389.32 223.911 1393.81 230.383C1406.03 247.973 1418.26 253.56 1439.88 260.799C1461.73 268.116 1483.55 274.862 1505.63 265.819C1516.33 261.438 1525.15 254.409 1533.98 247.117C1546.28 236.962 1552.47 222.954 1557.7 208.236C1568.11 178.971 1570.66 143.231 1564.89 112.66C1560.51 89.4402 1549.94 66.4377 1533.39 49.27C1527.43 43.0924 1526.25 42.7088 1518.82 39.8206C1510.4 36.5444 1502.72 37.3873 1494.41 35.0959C1480.74 31.3251 1463.42 33.589 1449.53 35.0959C1442.67 35.8396 1420.72 40.3452 1417.83 46.1202" stroke="#5C8E3C" stroke-width="30" stroke-linecap="round"/>
<path d="M27 442.995C43.2542 450.644 62.6386 448.31 80.1529 448.31C92.1138 448.31 103.569 451.853 115.588 451.853" stroke="#5C8E3C" stroke-width="30" stroke-linecap="round"/>
<path d="M62.4336 455.397C77.1463 465.614 82.8273 489.2 90.1912 504.416C101.629 528.05 112.784 551.624 123.264 575.68C129.997 591.136 133.166 607.825 139.505 623.321C141.801 628.934 146.478 636.459 147.38 642.318C148.561 649.996 147.845 659.081 150.628 666.237C151.614 668.773 149.291 665.828 149.25 662.89C149.082 650.986 149.996 639.845 152.793 628.242C160.088 597.993 166.517 566.376 176.023 536.799C181.951 518.358 187.867 499.416 194.43 481.186C195.783 477.428 204.664 452.247 207.718 452.247C215.715 452.247 227.929 517.921 229.964 526.267C233.731 541.728 237.314 557.244 240.988 572.727C245.234 590.623 253.764 606.083 259.69 623.321C262.778 632.303 262.83 642.022 264.513 651.275C264.895 653.377 271.089 664.567 272.88 665.055C273.356 665.185 291.031 611.125 292.763 605.603C302.233 575.4 311.94 545.836 324.457 516.818C330.214 503.474 335.985 490.104 341.486 476.658C343.473 471.801 344.968 459.414 349.459 457.169" stroke="#5C8E3C" stroke-width="30" stroke-linecap="round"/>
<path d="M299.852 453.626C317.738 452.135 334.578 450.082 352.611 450.082C362.86 450.082 373.22 451.854 383.124 451.854" stroke="#5C8E3C" stroke-width="30" stroke-linecap="round"/>
<path d="M434.502 467.799C395.511 478.433 392.754 518.467 390.208 552.844C387.478 589.703 394.138 620.229 407.926 653.933C418.637 680.115 439.241 686.494 467.575 689.663C491.705 692.362 509.525 684.434 525.551 667.221C543.986 647.42 554.894 612.124 558.624 586.015C562.64 557.902 566.23 524.724 559.903 496.541C556.129 479.73 546.326 468.635 529.587 464.65C514.5 461.058 500.676 460.712 485.096 460.712C471.225 460.712 459.275 461.358 445.723 464.945C438.244 466.925 431.518 470.068 423.871 471.343" stroke="#5C8E3C" stroke-width="30" stroke-linecap="round"/>
<path d="M592.191 446.538C616.166 446.538 639.298 453.625 663.062 453.625" stroke="#5C8E3C" stroke-width="30" stroke-linecap="round"/>
<path d="M634.711 455.397C634.711 532.775 636.483 610.11 636.483 687.498" stroke="#5C8E3C" stroke-width="30" stroke-linecap="round"/>
<path d="M586.875 696.356C615.378 680.069 654.139 685.726 686.094 685.726" stroke="#5C8E3C" stroke-width="30" stroke-linecap="round"/>
<path d="M641.801 508.55C641.801 491.453 659.381 480.35 672.905 472.327C686.534 464.242 700.979 458.638 717.002 458.94C732.456 459.232 737.981 470.101 744.465 482.662C748.601 490.677 752.094 513.317 746.532 521.739C742.104 528.444 734.2 536.898 725.959 536.898C716.035 536.898 723.594 505.797 729.011 512.881C734.401 519.929 735.118 540.796 721.53 531.09C718.367 528.831 708.213 515.208 714.443 512.093" stroke="#5C8E3C" stroke-width="30" stroke-linecap="round"/>
<path d="M751.648 326.059C763.929 337.046 791.091 338.461 807.361 338.461C809.784 338.461 813.153 339.08 815.432 338.067C822.28 335.023 817.58 352.438 817.204 355.588C811.354 404.575 813.66 454.621 813.66 503.825C813.66 538.014 813.66 572.202 813.66 606.391C813.66 632.705 813.66 659.019 813.66 685.332C813.66 696.89 810.324 694.585 799.88 694.585C789.504 694.585 776.237 692.367 767.594 698.129" stroke="#5C8E3C" stroke-width="30" stroke-linecap="round"/>
<path d="M797.715 689.27C814.562 689.27 830.579 690.53 847.324 692.813" stroke="#5C8E3C" stroke-width="30" stroke-linecap="round"/>
<path d="M827.834 549.3C809.543 549.3 864.362 545.809 882.168 541.623C896.576 538.235 906.505 530.137 915.635 518.787C925.33 506.733 929.872 489.859 932.368 474.886" stroke="#5C8E3C" stroke-width="30" stroke-linecap="round"/>
<path d="M898.707 458.94C918.937 465.818 935.903 467.799 957.175 467.799" stroke="#5C8E3C" stroke-width="30" stroke-linecap="round"/>
<path d="M889.848 542.213C916.06 574.08 935.476 614.726 955.304 651.078C959.698 659.134 962.49 673.868 962.49 683.068C962.49 691.238 963.047 692.813 954.419 692.813C944.66 692.813 935.361 691.041 925.677 691.041C912.808 691.041 940.154 692.26 943.886 692.813C961.524 695.426 979.878 701.977 996.153 708.759" stroke="#5C8E3C" stroke-width="30" stroke-linecap="round"/>
<path d="M1141.44 453.626C1131.01 453.626 1131.25 480.48 1130.81 487.092C1129.94 499.859 1130.81 538.276 1130.81 525.48C1130.81 503.416 1123.67 482.163 1109.54 465.437C1085.08 436.466 1035.03 442.459 1022.33 479.611C1016.27 497.354 1012.29 515.833 1020.96 533.158C1029.92 551.09 1051.39 553.933 1069.58 557.274C1103.15 563.44 1116.85 603.354 1122.83 633.262C1124.97 643.963 1133.25 667.166 1123.33 675.883C1116.17 682.163 1108.02 686.548 1098.23 687.4C1079.63 689.016 1066.36 685.354 1053.44 671.355C1036.78 653.304 1021.08 634.737 1007.77 614.167C999.87 601.963 1004.73 632.257 1005.4 636.511C1006.8 645.309 1007.54 656.092 1010.33 664.465" stroke="#5C8E3C" stroke-width="30" stroke-linecap="round"/>
<path d="M1139.66 685.726C1175.75 685.726 1215.7 681.028 1251.29 687.498" stroke="#5C8E3C" stroke-width="30" stroke-linecap="round"/>
<path d="M1201.68 687.498C1201.68 660.293 1208.76 633.89 1208.76 606.784C1208.76 581.225 1208.76 555.666 1208.76 530.106C1208.76 499.429 1208.76 468.751 1208.76 438.073C1208.76 421.11 1208.76 404.147 1208.76 387.184C1208.76 382.549 1208.59 363.179 1205.22 361.494" stroke="#5C8E3C" stroke-width="30" stroke-linecap="round"/>
<path d="M1210.54 528.04C1214.89 508.427 1226.3 493.058 1236.42 475.969C1249.04 454.671 1267.58 452.376 1291.64 448.507C1318.58 444.176 1339.35 458.124 1354.44 480.005C1388.55 529.463 1382.7 595.673 1384.17 653.047C1384.37 660.924 1386.97 675.508 1383.77 682.773C1381.4 688.161 1329.85 683.955 1323.73 683.955C1291.18 683.955 1388.82 682.183 1421.37 682.183" stroke="#5C8E3C" stroke-width="30" stroke-linecap="round"/>
<path d="M1478.07 458.94C1454.34 471.821 1442.03 511.679 1440.96 537.784C1440.39 551.762 1437.83 571.259 1441.65 584.735C1445.69 598.993 1453.49 611.336 1459.57 624.699C1461.76 629.519 1461.58 629.359 1466.46 634.345C1482.15 650.388 1500.04 664.902 1518.03 678.245C1531.12 687.948 1539.67 692.813 1555.24 692.813C1569.86 692.813 1584.61 693.248 1597.57 685.332C1632.55 663.952 1639.93 630.432 1644.22 591.822C1650.24 537.685 1619.27 482.968 1571.09 459.925C1552.67 451.114 1529.03 450.323 1508.78 450.082C1501.96 450 1483.16 450.542 1479.84 457.169" stroke="#5C8E3C" stroke-width="30" stroke-linecap="round"/>
<path d="M1642.84 451.854C1665.44 451.854 1693.24 465.88 1715.09 456.775C1716.22 456.306 1722.25 451.98 1723.56 453.428C1727 457.229 1723.83 471.518 1723.36 475.871C1720.47 502.698 1716.84 529.13 1714.7 556.092C1712.4 584.993 1713.85 614.242 1713.71 643.204C1713.57 673.499 1708.6 704.867 1713.71 734.942C1716.32 750.292 1720.8 764.914 1720.8 780.515C1720.8 783.845 1722.1 787.889 1718.24 788.882C1710.75 790.809 1702.52 794.986 1694.91 795.477C1687.03 795.985 1679.07 797.347 1671.19 797.347C1661.26 797.347 1690.59 792.308 1700.52 792.032C1719.13 791.515 1737.5 790.26 1756.14 790.26C1761.28 790.26 1789.35 790.936 1788.13 788.488" stroke="#5C8E3C" stroke-width="30" stroke-linecap="round"/>
<path d="M1711.95 636.117C1731.5 641.705 1746.35 664.811 1763.23 675.784C1775.15 683.536 1791.48 687.498 1805.45 687.498C1827.34 687.498 1838.49 667.662 1849.26 651.275C1875.24 611.736 1875.17 557.973 1878.1 512.979C1879.21 495.862 1883.74 470.267 1864.71 462.484C1847.64 455.501 1824.71 455.592 1807.13 460.614C1789.69 465.597 1773.21 471.566 1757.03 479.808C1748.97 483.913 1731.87 488.185 1727.89 496.147" stroke="#5C8E3C" stroke-width="30" stroke-linecap="round"/>
<path d="M332.145 376.44C336.058 373.831 342.537 373.784 347.106 373.29C364.25 371.436 382.329 373.305 399.373 374.766C417.096 376.285 470.412 378.211 452.624 378.211" stroke="#7DB05D" stroke-width="30" stroke-linecap="round"/>
<path d="M395.925 371.124C386.115 345.507 379.979 315.253 379.979 287.851C379.979 269.83 378.596 251.981 377.42 234.009C375.267 201.102 380.818 168.614 383.129 135.873C385.585 101.08 395.925 65.7185 395.925 30.9458" stroke="#7DB05D" stroke-width="30" stroke-linecap="round"/>
<path d="M330.371 25.6309C349.424 25.6309 367.979 29.1744 387.067 29.1744" stroke="#7DB05D" stroke-width="30" stroke-linecap="round"/>
<path d="M395.927 84.0991C414.961 68.3755 431.871 50.3746 455.576 41.5768C474.14 34.6871 495.247 25.8871 515.226 25.631C560.164 25.0548 579.199 70.0805 581.568 109.888C582.654 128.129 583.505 147.838 581.174 165.994C576.285 204.082 537.961 233.035 509.713 254.779C500.85 261.601 489.319 271.798 477.428 267.083C471.404 264.694 465.792 261.192 460.104 258.125C450.239 252.807 441.617 247.203 432.74 240.408C418.391 229.425 408.322 219.118 399.864 202.807C397.484 198.217 393.483 190.955 388.84 188.633" stroke="#7DB05D" stroke-width="30" stroke-linecap="round"/>
<path d="M638.66 114.219C668.938 106.433 702.33 110.675 733.449 110.675C746.738 110.675 760.026 110.675 773.314 110.675C776.59 110.675 785.003 111.729 787.094 108.116C792.038 99.5767 789.168 84.9254 790.146 75.5355C792.58 52.1665 769.501 31.542 748.706 24.056C721.938 14.4193 686.285 20.7454 670.847 46.9905C663.581 59.3438 660.377 79.2449 658.15 93.3516C655.385 110.859 653.639 129.604 655 147.292C657.049 173.927 672.017 209.934 694.372 225.643C715.54 240.518 739.636 248.873 765.44 248.873C792.198 248.873 810.286 238.264 824.695 215.209" stroke="#7DB05D" stroke-width="30" stroke-linecap="round"/>
<path d="M858.355 107.132C916.166 102.314 972.737 114.219 1030.41 114.219C1036.64 114.219 1043.24 114.891 1049.41 114.12C1054.69 113.46 1038.51 85.9496 1037.3 83.2131C1022.5 49.6119 998.313 29.1743 960.921 29.1743C945.269 29.1743 931.321 29.6878 917.611 38.0331C894.079 52.3567 891.335 89.6025 886.704 113.431C881.674 139.307 873.83 169.055 880.995 195.326C887.458 219.026 901.183 230.992 923.714 239.128C945.459 246.981 970.156 247.846 992.616 241.786C1006.59 238.014 1013.35 224.965 1026.67 220.525" stroke="#7DB05D" stroke-width="30" stroke-linecap="round"/>
<path d="M1062.11 351.635C1105.83 351.635 1236.94 355.178 1193.22 355.178" stroke="#7DB05D" stroke-width="30" stroke-linecap="round"/>
<path d="M1125.89 339.232C1125.89 294.709 1125.89 250.185 1125.89 205.661C1125.89 173.463 1123.56 140.207 1126.29 108.116C1128.2 85.517 1129.44 63.4778 1129.44 40.789C1129.44 34.9337 1125.65 35.2422 1120.28 33.5051C1098.38 26.4202 1075.48 21.2241 1053.25 15" stroke="#7DB05D" stroke-width="30" stroke-linecap="round"/>
<path d="M1132.98 61.0659C1131.02 61.0659 1138.1 56.5979 1139.28 55.7506C1147.19 50.059 1153.83 46.5852 1163 43.2498C1178.5 37.6159 1194.28 36.2612 1210.94 36.2612C1230.06 36.2612 1245.15 36.6234 1261.43 47.9745C1278.57 59.9161 1288.4 83.9815 1288.9 104.179C1289.41 125.409 1290.36 147.301 1284.57 167.864C1279.99 184.096 1273.31 198.386 1262.32 211.469C1246.51 230.289 1229.61 249.002 1204.25 252.022C1181.76 254.699 1165.26 250.769 1146.47 238.242C1142.66 235.702 1129.44 224.936 1129.44 220.524" stroke="#7DB05D" stroke-width="30" stroke-linecap="round"/>
<path d="M1411.15 43.3485C1377.53 64.6417 1365.12 114.208 1363.41 151.918C1362.49 172.207 1363.18 190.397 1370.4 209.5C1373.21 216.942 1377.32 222.911 1381.81 229.383C1394.03 246.973 1406.26 252.56 1427.88 259.799C1449.73 267.116 1471.55 273.862 1493.63 264.819C1504.33 260.438 1513.15 253.409 1521.98 246.117C1534.28 235.962 1540.47 221.954 1545.7 207.236C1556.11 177.971 1558.66 142.231 1552.89 111.66C1548.51 88.4402 1537.94 65.4377 1521.39 48.27C1515.43 42.0924 1514.25 41.7088 1506.82 38.8206C1498.4 35.5444 1490.72 36.3873 1482.41 34.0959C1468.74 30.3251 1451.42 32.589 1437.53 34.0959C1430.67 34.8396 1408.72 39.3452 1405.83 45.1202" stroke="#7DB05D" stroke-width="30" stroke-linecap="round"/>
<path d="M15 441.995C31.2542 449.644 50.6386 447.31 68.1529 447.31C80.1138 447.31 91.5688 450.853 103.588 450.853" stroke="#7DB05D" stroke-width="30" stroke-linecap="round"/>
<path d="M50.4336 454.397C65.1463 464.614 70.8273 488.2 78.1912 503.416C89.6291 527.05 100.784 550.624 111.264 574.68C117.997 590.136 121.166 606.825 127.505 622.321C129.801 627.934 134.478 635.459 135.38 641.318C136.561 648.996 135.845 658.081 138.628 665.237C139.614 667.773 137.291 664.828 137.25 661.89C137.082 649.986 137.996 638.845 140.793 627.242C148.088 596.993 154.517 565.376 164.023 535.799C169.951 517.358 175.867 498.416 182.43 480.186C183.783 476.428 192.664 451.247 195.718 451.247C203.715 451.247 215.929 516.921 217.964 525.267C221.731 540.728 225.314 556.244 228.988 571.727C233.234 589.623 241.764 605.083 247.69 622.321C250.778 631.303 250.83 641.022 252.513 650.275C252.895 652.377 259.089 663.567 260.88 664.055C261.356 664.185 279.031 610.125 280.763 604.603C290.233 574.4 299.94 544.836 312.457 515.818C318.214 502.474 323.985 489.104 329.486 475.658C331.473 470.801 332.968 458.414 337.459 456.169" stroke="#7DB05D" stroke-width="30" stroke-linecap="round"/>
<path d="M287.852 452.626C305.738 451.135 322.578 449.082 340.611 449.082C350.86 449.082 361.22 450.854 371.124 450.854" stroke="#7DB05D" stroke-width="30" stroke-linecap="round"/>
<path d="M422.502 466.799C383.511 477.433 380.754 517.467 378.208 551.844C375.478 588.703 382.138 619.229 395.926 652.933C406.637 679.115 427.241 685.494 455.575 688.663C479.705 691.362 497.525 683.434 513.551 666.221C531.986 646.42 542.894 611.124 546.624 585.015C550.64 556.902 554.23 523.724 547.903 495.541C544.129 478.73 534.326 467.635 517.587 463.65C502.5 460.058 488.676 459.712 473.096 459.712C459.225 459.712 447.275 460.358 433.723 463.945C426.244 465.925 419.518 469.068 411.871 470.343" stroke="#7DB05D" stroke-width="30" stroke-linecap="round"/>
<path d="M580.191 445.538C604.166 445.538 627.298 452.625 651.062 452.625" stroke="#7DB05D" stroke-width="30" stroke-linecap="round"/>
<path d="M622.711 454.397C622.711 531.775 624.483 609.11 624.483 686.498" stroke="#7DB05D" stroke-width="30" stroke-linecap="round"/>
<path d="M574.875 695.356C603.378 679.069 642.139 684.726 674.094 684.726" stroke="#7DB05D" stroke-width="30" stroke-linecap="round"/>
<path d="M629.801 507.55C629.801 490.453 647.381 479.35 660.905 471.327C674.534 463.242 688.979 457.638 705.002 457.94C720.456 458.232 725.981 469.101 732.465 481.662C736.601 489.677 740.094 512.317 734.532 520.739C730.104 527.444 722.2 535.898 713.959 535.898C704.035 535.898 711.594 504.797 717.011 511.881C722.401 518.929 723.118 539.796 709.53 530.09C706.367 527.831 696.213 514.208 702.443 511.093" stroke="#7DB05D" stroke-width="30" stroke-linecap="round"/>
<path d="M739.648 325.059C751.929 336.046 779.091 337.461 795.361 337.461C797.784 337.461 801.153 338.08 803.432 337.067C810.28 334.023 805.58 351.438 805.204 354.588C799.354 403.575 801.66 453.621 801.66 502.825C801.66 537.014 801.66 571.202 801.66 605.391C801.66 631.705 801.66 658.019 801.66 684.332C801.66 695.89 798.324 693.585 787.88 693.585C777.504 693.585 764.237 691.367 755.594 697.129" stroke="#7DB05D" stroke-width="30" stroke-linecap="round"/>
<path d="M785.715 688.27C802.562 688.27 818.579 689.53 835.324 691.813" stroke="#7DB05D" stroke-width="30" stroke-linecap="round"/>
<path d="M815.834 548.3C797.543 548.3 852.362 544.809 870.168 540.623C884.576 537.235 894.505 529.137 903.635 517.787C913.33 505.733 917.872 488.859 920.368 473.886" stroke="#7DB05D" stroke-width="30" stroke-linecap="round"/>
<path d="M886.707 457.94C906.937 464.818 923.903 466.799 945.175 466.799" stroke="#7DB05D" stroke-width="30" stroke-linecap="round"/>
<path d="M877.848 541.213C904.06 573.08 923.476 613.726 943.304 650.078C947.698 658.134 950.49 672.868 950.49 682.068C950.49 690.238 951.047 691.813 942.419 691.813C932.66 691.813 923.361 690.041 913.677 690.041C900.808 690.041 928.154 691.26 931.886 691.813C949.524 694.426 967.878 700.977 984.153 707.759" stroke="#7DB05D" stroke-width="30" stroke-linecap="round"/>
<path d="M1129.44 452.626C1119.01 452.626 1119.25 479.48 1118.81 486.092C1117.94 498.859 1118.81 537.276 1118.81 524.48C1118.81 502.416 1111.67 481.163 1097.54 464.437C1073.08 435.466 1023.03 441.459 1010.33 478.611C1004.27 496.354 1000.29 514.833 1008.96 532.158C1017.92 550.09 1039.39 552.933 1057.58 556.274C1091.15 562.44 1104.85 602.354 1110.83 632.262C1112.97 642.963 1121.25 666.166 1111.33 674.883C1104.17 681.163 1096.02 685.548 1086.23 686.4C1067.63 688.016 1054.36 684.354 1041.44 670.355C1024.78 652.304 1009.08 633.737 995.767 613.167C987.87 600.963 992.729 631.257 993.405 635.511C994.801 644.309 995.535 655.092 998.326 663.465" stroke="#7DB05D" stroke-width="30" stroke-linecap="round"/>
<path d="M1127.66 684.726C1163.75 684.726 1203.7 680.028 1239.29 686.498" stroke="#7DB05D" stroke-width="30" stroke-linecap="round"/>
<path d="M1189.68 686.498C1189.68 659.293 1196.76 632.89 1196.76 605.784C1196.76 580.225 1196.76 554.666 1196.76 529.106C1196.76 498.429 1196.76 467.751 1196.76 437.073C1196.76 420.11 1196.76 403.147 1196.76 386.184C1196.76 381.549 1196.59 362.179 1193.22 360.494" stroke="#7DB05D" stroke-width="30" stroke-linecap="round"/>
<path d="M1198.54 527.04C1202.89 507.427 1214.3 492.058 1224.42 474.969C1237.04 453.671 1255.58 451.376 1279.64 447.507C1306.58 443.176 1327.35 457.124 1342.44 479.005C1376.55 528.463 1370.7 594.673 1372.17 652.047C1372.37 659.924 1374.97 674.508 1371.77 681.773C1369.4 687.161 1317.85 682.955 1311.73 682.955C1279.18 682.955 1376.82 681.183 1409.37 681.183" stroke="#7DB05D" stroke-width="30" stroke-linecap="round"/>
<path d="M1466.07 457.94C1442.34 470.821 1430.03 510.679 1428.96 536.784C1428.39 550.762 1425.83 570.259 1429.65 583.735C1433.69 597.993 1441.49 610.336 1447.57 623.699C1449.76 628.519 1449.58 628.359 1454.46 633.345C1470.15 649.388 1488.04 663.902 1506.03 677.245C1519.12 686.948 1527.67 691.813 1543.24 691.813C1557.86 691.813 1572.61 692.248 1585.57 684.332C1620.55 662.952 1627.93 629.432 1632.22 590.822C1638.24 536.685 1607.27 481.968 1559.09 458.925C1540.67 450.114 1517.03 449.323 1496.78 449.082C1489.96 449 1471.16 449.542 1467.84 456.169" stroke="#7DB05D" stroke-width="30" stroke-linecap="round"/>
<path d="M1630.84 450.854C1653.44 450.854 1681.24 464.88 1703.09 455.775C1704.22 455.306 1710.25 450.98 1711.56 452.428C1715 456.229 1711.83 470.518 1711.36 474.871C1708.47 501.698 1704.84 528.13 1702.7 555.092C1700.4 583.993 1701.85 613.242 1701.71 642.204C1701.57 672.499 1696.6 703.867 1701.71 733.942C1704.32 749.292 1708.8 763.914 1708.8 779.515C1708.8 782.845 1710.1 786.889 1706.24 787.882C1698.75 789.809 1690.52 793.986 1682.91 794.477C1675.03 794.985 1667.07 796.347 1659.19 796.347C1649.26 796.347 1678.59 791.308 1688.52 791.032C1707.13 790.515 1725.5 789.26 1744.14 789.26C1749.28 789.26 1777.35 789.936 1776.13 787.488" stroke="#7DB05D" stroke-width="30" stroke-linecap="round"/>
<path d="M1699.95 635.117C1719.5 640.705 1734.35 663.811 1751.23 674.784C1763.15 682.536 1779.48 686.498 1793.45 686.498C1815.34 686.498 1826.49 666.662 1837.26 650.275C1863.24 610.736 1863.17 556.973 1866.1 511.979C1867.21 494.862 1871.74 469.267 1852.71 461.484C1835.64 454.501 1812.71 454.592 1795.13 459.614C1777.69 464.597 1761.21 470.566 1745.03 478.808C1736.97 482.913 1719.87 487.185 1715.89 495.147" stroke="#7DB05D" stroke-width="30" stroke-linecap="round"/>
</svg>
