<svg width="349" height="1177" viewBox="0 0 349 1177" fill="none" xmlns="http://www.w3.org/2000/svg">
<path d="M166.741 915.744C167.904 915.769 169.087 915.781 170.289 915.781H170.635L170.979 915.741C174.489 915.335 179.932 914.441 185.006 913.039C187.538 912.339 190.143 911.469 192.427 910.393C194.542 909.396 197.143 907.879 198.853 905.529C198.945 905.401 199.09 905.215 199.276 904.976C200.238 903.736 202.288 901.095 203.759 898.071C205.604 894.274 207.048 888.995 205.193 883.078C197.405 858.24 172.628 844.839 146.189 839.288C119.497 833.684 89.021 835.546 66.3918 843.089C60.7562 844.968 53.7748 849.835 47.0411 854.98C28.0194 869.514 10.4468 889.737 7.14501 915.136C3.44212 943.62 11.9821 966.075 26.2618 983.07C40.3985 999.894 59.9686 1011.17 78.3103 1018.1C87.902 1021.72 96.0491 1017.61 102.26 1013.35C104.397 1011.89 106.617 1010.17 108.693 1008.57C109.588 1007.88 110.457 1007.21 111.281 1006.59C114.189 1004.4 116.863 1002.56 119.536 1001.27C120.586 1000.76 121.868 1000.42 123.931 999.908L124.081 999.871C125.883 999.423 128.384 998.801 130.718 997.628C131.703 997.133 132.688 996.621 133.51 996.159C133.918 995.93 134.34 995.683 134.726 995.434C135.001 995.256 135.653 994.832 136.243 994.243C140.505 989.98 141.878 984.437 141.937 979.425C141.995 974.427 140.775 969.404 139.215 965.243L133.597 967.35L139.215 965.243C138.873 964.331 138.509 963.425 138.141 962.642L138.135 962.629C137.901 962.13 137.314 960.879 136.352 959.869C136.331 959.845 136.282 959.788 136.196 959.684C136.03 959.485 135.799 959.2 135.503 958.83C135.401 958.703 135.293 958.567 135.179 958.423C135.407 958.464 135.59 958.488 135.711 958.503L135.732 958.506C136.539 958.612 137.402 958.651 138.22 958.658C139.877 958.67 141.823 958.548 143.718 958.319C145.595 958.093 147.633 957.737 149.417 957.216C150.301 956.957 151.289 956.611 152.222 956.133C152.958 955.756 154.261 955.001 155.276 953.636C155.351 953.57 155.545 953.401 155.916 953.12C156.602 952.601 157.48 952.003 158.499 951.317C158.588 951.257 158.679 951.196 158.771 951.134C159.655 950.539 160.648 949.87 161.474 949.262C161.934 948.924 162.445 948.531 162.915 948.114C163.267 947.801 164.083 947.06 164.693 946.006C168.008 940.28 169.213 935.729 169.415 931.404C169.509 929.367 169.374 927.505 169.248 925.931C169.237 925.785 169.225 925.642 169.214 925.501C169.098 924.049 169 922.83 169 921.5C169 918.932 167.764 916.984 166.804 915.82C166.783 915.794 166.762 915.769 166.741 915.744ZM131.582 953.015C131.583 953.015 131.583 953.017 131.583 953.021C131.583 953.016 131.582 953.014 131.582 953.015ZM129.027 955.87C129.022 955.87 129.02 955.87 129.02 955.87C129.019 955.87 129.022 955.87 129.027 955.87Z" fill="#5C8E3C" stroke="black" stroke-width="12" stroke-linecap="round"/>
<path d="M185.5 906.5C174.5 908.5 143.5 915 131 906.5C144.5 909 170 918.3 164 935.5C160.833 945.167 147.5 960.6 119.5 945C131.167 958.5 148.9 986.8 126.5 992" stroke="#48733B" stroke-width="13" stroke-linecap="round"/>
<path d="M64 887L56.5 945.5" stroke="#48733B" stroke-width="13" stroke-linecap="round"/>
<path d="M44 1165C55 1017.5 77 721.6 77 718V678L144 685.5C138.793 735.44 120.659 798.62 113.595 865.5C111.781 882.67 106.812 899.918 105 917L103.213 943.807C102.824 952.303 102.437 960.719 101.5 969.5L103.42 987.055C104.507 991.021 105.494 995.137 105 1001.5C98.2187 1088.77 92.3964 1169.49 91.5 1172C89.5 1177.6 59 1169.67 44 1165Z" fill="#B0643E"/>
<path d="M101.5 969.5C103.396 951.736 103.041 935.465 105 917M101.5 969.5L105 917M101.5 969.5C99.9168 984.334 106.095 987.402 105 1001.5M101.5 969.5L105 1001.5M105 917C106.812 899.918 111.781 882.67 113.595 865.5C120.659 798.62 138.793 735.44 144 685.5L77 678V718C77 721.6 55 1017.5 44 1165C59 1169.67 89.5 1177.6 91.5 1172C92.3964 1169.49 98.2187 1088.77 105 1001.5" stroke="black" stroke-opacity="0.05" stroke-width="5" stroke-linecap="round"/>
<path d="M131 705L88 1166" stroke="#874E31" stroke-width="13" stroke-linecap="round"/>
<g style="mix-blend-mode:screen">
<g filter="url(#filter0_i_32_259)">
<path d="M88.8074 613.538L71.8405 593.177C70.1275 591.122 69.1893 588.531 69.1893 585.855C69.1893 584.299 68.8708 582.76 68.2605 581.328C63.4391 570.019 55.6901 550.996 57.1893 550.996C59.1893 550.996 69.1893 544.496 69.1893 529.996C69.1893 515.496 76.1893 507.996 87.1893 485.496C98.1893 462.996 101.689 465.496 153.689 452.496C205.689 439.496 160.189 465.496 166.189 485.496C172.189 505.496 177.189 497.996 202.689 507.996C228.189 517.996 199.189 538.996 192.689 550.996C186.189 562.996 182.689 562.496 166.189 583.496C149.689 604.496 152.689 598.996 139.189 616.496L138.76 617.052C125.624 634.081 122.572 638.039 111.689 641.996C99.5403 646.414 97.0833 623.469 88.8074 613.538Z" fill="#FFCF00"/>
</g>
<path d="M88.8074 613.538L71.8405 593.177C70.1275 591.122 69.1893 588.531 69.1893 585.855C69.1893 584.299 68.8708 582.76 68.2605 581.328C63.4391 570.019 55.6901 550.996 57.1893 550.996C59.1893 550.996 69.1893 544.496 69.1893 529.996C69.1893 515.496 76.1893 507.996 87.1893 485.496C98.1893 462.996 101.689 465.496 153.689 452.496C205.689 439.496 160.189 465.496 166.189 485.496C172.189 505.496 177.189 497.996 202.689 507.996C228.189 517.996 199.189 538.996 192.689 550.996C186.189 562.996 182.689 562.496 166.189 583.496C149.689 604.496 152.689 598.996 139.189 616.496L138.76 617.052C125.624 634.081 122.572 638.039 111.689 641.996C99.5403 646.414 97.0833 623.469 88.8074 613.538Z" stroke="#FF5700" stroke-width="17" stroke-linecap="round"/>
</g>
<g style="mix-blend-mode:screen">
<g filter="url(#filter1_i_32_259)">
<path d="M131.462 468.723C94.9617 480.723 85.9616 492.223 50.4616 504.223C28.9774 511.485 30.0003 479.267 24.0376 457.386C23.8335 456.637 23.641 455.915 23.4617 455.223C19.9617 441.723 21.4617 435.224 42.4617 407.724C63.4617 380.224 68.9617 392.223 102.462 392.223C135.962 392.223 149.962 392.223 171.462 371.224C192.962 350.224 193.462 357.723 223.462 348.723C253.462 339.723 255.462 367.723 255.462 392.223C255.462 416.723 252.462 413.223 255.462 444.223C258.462 475.223 267.962 475.223 265.462 492.223C262.962 509.223 241.462 504.223 238.962 492.223C236.462 480.223 235.462 477.723 223.462 455.223C211.462 432.723 209.962 455.223 193.462 455.223C176.962 455.223 167.962 456.723 131.462 468.723Z" fill="#FFCF00"/>
</g>
<path d="M131.462 468.723C94.9617 480.723 85.9616 492.223 50.4616 504.223C28.9774 511.485 30.0003 479.267 24.0376 457.386C23.8335 456.637 23.641 455.915 23.4617 455.223C19.9617 441.723 21.4617 435.224 42.4617 407.724C63.4617 380.224 68.9617 392.223 102.462 392.223C135.962 392.223 149.962 392.223 171.462 371.224C192.962 350.224 193.462 357.723 223.462 348.723C253.462 339.723 255.462 367.723 255.462 392.223C255.462 416.723 252.462 413.223 255.462 444.223C258.462 475.223 267.962 475.223 265.462 492.223C262.962 509.223 241.462 504.223 238.962 492.223C236.462 480.223 235.462 477.723 223.462 455.223C211.462 432.723 209.962 455.223 193.462 455.223C176.962 455.223 167.962 456.723 131.462 468.723Z" stroke="#FF5700" stroke-width="17" stroke-linecap="round"/>
</g>
<g style="mix-blend-mode:screen">
<g filter="url(#filter2_i_32_259)">
<path d="M203.327 382.656C237.686 380.508 252.119 370.049 258.091 358.722C267.325 341.207 271.069 317.43 290.828 316.155C306.295 315.157 309.813 306.194 330.692 253.001L330.828 252.655C351.828 199.155 330.828 241.655 324.328 262.655C317.828 283.655 298.828 297.155 283.328 280.656C267.828 264.156 276.828 258.155 262.327 252.655C247.827 247.155 229.828 253.655 223.328 252.655C216.828 251.655 229.828 235.156 262.327 200.656C285.443 176.117 282.87 172.157 277.446 173.454C276.005 173.799 274.592 174.286 273.133 174.545C259.048 177.044 246.473 164.849 247.447 150.578C247.591 148.48 247.719 146.333 247.828 144.156C248.828 124.156 247.828 132.656 239.828 117.156C231.828 101.656 226.828 118.656 203.327 132.656C179.827 146.656 178.828 154.156 166.828 200.656C154.828 247.156 145.828 208.156 131.328 186.156C121.019 170.514 93.4342 167.732 96.8281 186.156C100.328 205.155 85.8274 235.156 74.8281 235.156C63.8288 235.156 64.8281 220.656 37.8281 174.156C10.8281 127.656 14.8265 169.656 12.3265 186.156C9.82655 202.656 22.3274 206.156 27.8265 220.656C33.3257 235.156 22.3274 257.156 22.3274 280.656C22.3274 304.156 18.8274 320.656 22.3274 355.156C25.8274 389.656 53.3274 382.656 85.8274 388.156C118.327 393.656 131.327 387.156 203.327 382.656Z" fill="#FFCF00"/>
</g>
<path d="M203.327 382.656C237.686 380.508 252.119 370.049 258.091 358.722C267.325 341.207 271.069 317.43 290.828 316.155C306.295 315.157 309.813 306.194 330.692 253.001L330.828 252.655C351.828 199.155 330.828 241.655 324.328 262.655C317.828 283.655 298.828 297.155 283.328 280.656C267.828 264.156 276.828 258.155 262.327 252.655C247.827 247.155 229.828 253.655 223.328 252.655C216.828 251.655 229.828 235.156 262.327 200.656C285.443 176.117 282.87 172.157 277.446 173.454C276.005 173.799 274.592 174.286 273.133 174.545C259.048 177.044 246.473 164.849 247.447 150.578C247.591 148.48 247.719 146.333 247.828 144.156C248.828 124.156 247.828 132.656 239.828 117.156C231.828 101.656 226.828 118.656 203.327 132.656C179.827 146.656 178.828 154.156 166.828 200.656C154.828 247.156 145.828 208.156 131.328 186.156C121.019 170.514 93.4342 167.732 96.8281 186.156C100.328 205.155 85.8274 235.156 74.8281 235.156C63.8288 235.156 64.8281 220.656 37.8281 174.156C10.8281 127.656 14.8265 169.656 12.3265 186.156C9.82655 202.656 22.3274 206.156 27.8265 220.656C33.3257 235.156 22.3274 257.156 22.3274 280.656C22.3274 304.156 18.8274 320.656 22.3274 355.156C25.8274 389.656 53.3274 382.656 85.8274 388.156C118.327 393.656 131.327 387.156 203.327 382.656Z" stroke="#FF5700" stroke-width="17" stroke-linecap="round"/>
</g>
<g style="mix-blend-mode:screen">
<path d="M259.862 282.897C259.866 282.91 259.871 282.925 259.875 282.941C260.149 284.816 260.471 286.703 260.84 288.351C261.067 289.362 261.334 290.385 261.652 291.304C261.916 292.067 262.412 293.366 263.328 294.465C264.715 296.129 266.588 296.72 267.506 296.961C268.629 297.255 269.819 297.387 270.888 297.449C273.053 297.574 275.549 297.453 277.822 297.257C280.415 297.033 283.187 296.148 285.437 294.335C287.807 292.426 289.5 289.526 289.5 285.921C289.5 280.719 288.588 277.464 287.607 274.639C287.474 274.255 287.346 273.895 287.224 273.551C286.505 271.527 285.983 270.056 285.732 267.651C285.647 266.829 285.783 265.608 286.227 263.845C286.439 263.002 286.693 262.136 286.973 261.208C287.019 261.055 287.066 260.899 287.114 260.741C287.346 259.977 287.596 259.152 287.809 258.374C288.067 257.434 288.328 256.365 288.472 255.292C288.611 254.264 288.699 252.857 288.339 251.379C287.94 249.743 286.98 248.026 285.176 246.844C283.519 245.76 281.713 245.5 280.262 245.5C278.686 245.5 277.089 245.696 275.543 246.052C267.254 247.959 263.038 254.768 261.089 261.314C259.319 267.261 259.055 273.984 259.507 279.706C259.504 279.783 259.502 279.848 259.501 279.896C259.5 279.954 259.5 280.003 259.5 280.042C259.501 280.119 259.503 280.183 259.504 280.226C259.506 280.272 259.508 280.312 259.51 280.345C259.513 280.408 259.517 280.466 259.521 280.51C259.524 280.557 259.528 280.603 259.531 280.645C259.545 280.805 259.563 280.989 259.581 281.157C259.599 281.33 259.62 281.513 259.639 281.677C259.649 281.759 259.66 281.843 259.67 281.924C259.675 281.964 259.681 282.008 259.688 282.052C259.694 282.095 259.702 282.15 259.711 282.211C259.716 282.241 259.723 282.28 259.731 282.325C259.738 282.367 259.75 282.43 259.766 282.506C259.774 282.545 259.785 282.596 259.799 282.656C259.813 282.713 259.834 282.796 259.862 282.897Z" fill="#FFCF00"/>
<path d="M259.862 282.897C259.866 282.91 259.871 282.925 259.875 282.941C260.149 284.816 260.471 286.703 260.84 288.351C261.067 289.362 261.334 290.385 261.652 291.304C261.916 292.067 262.412 293.366 263.328 294.465C264.715 296.129 266.588 296.72 267.506 296.961C268.629 297.255 269.819 297.387 270.888 297.449C273.053 297.574 275.549 297.453 277.822 297.257C280.415 297.033 283.187 296.148 285.437 294.335C287.807 292.426 289.5 289.526 289.5 285.921C289.5 280.719 288.588 277.464 287.607 274.639C287.474 274.255 287.346 273.895 287.224 273.551C286.505 271.527 285.983 270.056 285.732 267.651C285.647 266.829 285.783 265.608 286.227 263.845C286.439 263.002 286.693 262.136 286.973 261.208C287.019 261.055 287.066 260.899 287.114 260.741C287.346 259.977 287.596 259.152 287.809 258.374C288.067 257.434 288.328 256.365 288.472 255.292C288.611 254.264 288.699 252.857 288.339 251.379C287.94 249.743 286.98 248.026 285.176 246.844C283.519 245.76 281.713 245.5 280.262 245.5C278.686 245.5 277.089 245.696 275.543 246.052C267.254 247.959 263.038 254.768 261.089 261.314C259.319 267.261 259.055 273.984 259.507 279.706C259.504 279.783 259.502 279.848 259.501 279.896C259.5 279.954 259.5 280.003 259.5 280.042C259.501 280.119 259.503 280.183 259.504 280.226C259.506 280.272 259.508 280.312 259.51 280.345C259.513 280.408 259.517 280.466 259.521 280.51C259.524 280.557 259.528 280.603 259.531 280.645C259.545 280.805 259.563 280.989 259.581 281.157C259.599 281.33 259.62 281.513 259.639 281.677C259.649 281.759 259.66 281.843 259.67 281.924C259.675 281.964 259.681 282.008 259.688 282.052C259.694 282.095 259.702 282.15 259.711 282.211C259.716 282.241 259.723 282.28 259.731 282.325C259.738 282.367 259.75 282.43 259.766 282.506C259.774 282.545 259.785 282.596 259.799 282.656C259.813 282.713 259.834 282.796 259.862 282.897Z" stroke="#FF5700" stroke-width="11" stroke-linecap="round"/>
</g>
<g style="mix-blend-mode:screen">
<path d="M110.862 183.897C110.866 183.91 110.871 183.925 110.875 183.941C111.149 185.816 111.471 187.703 111.84 189.351C112.067 190.362 112.334 191.385 112.652 192.304C112.916 193.067 113.412 194.366 114.328 195.465C115.715 197.129 117.588 197.72 118.506 197.961C119.629 198.255 120.819 198.387 121.888 198.449C124.053 198.574 126.549 198.453 128.822 198.257C131.415 198.033 134.187 197.148 136.437 195.335C138.807 193.426 140.5 190.526 140.5 186.921C140.5 181.719 139.588 178.464 138.607 175.639C138.474 175.255 138.346 174.895 138.224 174.551C137.505 172.527 136.983 171.056 136.732 168.651C136.647 167.829 136.783 166.608 137.227 164.845C137.439 164.002 137.693 163.136 137.973 162.208C138.019 162.055 138.066 161.899 138.114 161.741C138.346 160.977 138.596 160.152 138.809 159.374C139.067 158.434 139.328 157.365 139.472 156.292C139.611 155.264 139.699 153.857 139.339 152.379C138.94 150.743 137.98 149.026 136.176 147.844C134.519 146.76 132.713 146.5 131.262 146.5C129.686 146.5 128.089 146.696 126.543 147.052C118.254 148.959 114.038 155.768 112.089 162.314C110.319 168.261 110.055 174.984 110.507 180.706C110.504 180.783 110.502 180.848 110.501 180.896C110.5 180.954 110.5 181.003 110.5 181.042C110.501 181.119 110.503 181.183 110.504 181.226C110.506 181.272 110.508 181.312 110.51 181.345C110.513 181.408 110.517 181.466 110.521 181.51C110.524 181.557 110.528 181.603 110.531 181.645C110.545 181.805 110.563 181.989 110.581 182.157C110.599 182.33 110.62 182.513 110.639 182.677C110.649 182.759 110.66 182.843 110.67 182.924C110.675 182.964 110.681 183.008 110.688 183.052C110.694 183.095 110.702 183.15 110.711 183.211C110.716 183.241 110.723 183.28 110.731 183.325C110.738 183.367 110.75 183.43 110.766 183.506C110.774 183.545 110.785 183.596 110.799 183.656C110.813 183.713 110.834 183.796 110.862 183.897Z" fill="#FFCF00"/>
<path d="M110.862 183.897C110.866 183.91 110.871 183.925 110.875 183.941C111.149 185.816 111.471 187.703 111.84 189.351C112.067 190.362 112.334 191.385 112.652 192.304C112.916 193.067 113.412 194.366 114.328 195.465C115.715 197.129 117.588 197.72 118.506 197.961C119.629 198.255 120.819 198.387 121.888 198.449C124.053 198.574 126.549 198.453 128.822 198.257C131.415 198.033 134.187 197.148 136.437 195.335C138.807 193.426 140.5 190.526 140.5 186.921C140.5 181.719 139.588 178.464 138.607 175.639C138.474 175.255 138.346 174.895 138.224 174.551C137.505 172.527 136.983 171.056 136.732 168.651C136.647 167.829 136.783 166.608 137.227 164.845C137.439 164.002 137.693 163.136 137.973 162.208C138.019 162.055 138.066 161.899 138.114 161.741C138.346 160.977 138.596 160.152 138.809 159.374C139.067 158.434 139.328 157.365 139.472 156.292C139.611 155.264 139.699 153.857 139.339 152.379C138.94 150.743 137.98 149.026 136.176 147.844C134.519 146.76 132.713 146.5 131.262 146.5C129.686 146.5 128.089 146.696 126.543 147.052C118.254 148.959 114.038 155.768 112.089 162.314C110.319 168.261 110.055 174.984 110.507 180.706C110.504 180.783 110.502 180.848 110.501 180.896C110.5 180.954 110.5 181.003 110.5 181.042C110.501 181.119 110.503 181.183 110.504 181.226C110.506 181.272 110.508 181.312 110.51 181.345C110.513 181.408 110.517 181.466 110.521 181.51C110.524 181.557 110.528 181.603 110.531 181.645C110.545 181.805 110.563 181.989 110.581 182.157C110.599 182.33 110.62 182.513 110.639 182.677C110.649 182.759 110.66 182.843 110.67 182.924C110.675 182.964 110.681 183.008 110.688 183.052C110.694 183.095 110.702 183.15 110.711 183.211C110.716 183.241 110.723 183.28 110.731 183.325C110.738 183.367 110.75 183.43 110.766 183.506C110.774 183.545 110.785 183.596 110.799 183.656C110.813 183.713 110.834 183.796 110.862 183.897Z" stroke="#FF5700" stroke-width="11" stroke-linecap="round"/>
</g>
<g style="mix-blend-mode:screen">
<path d="M284.263 141.421C284.132 142.283 283.974 143.173 283.789 143.98C283.668 144.508 283.512 145.103 283.309 145.678C283.16 146.098 282.78 147.135 281.977 148.077C280.704 149.572 279.06 150.024 278.491 150.168C277.704 150.367 276.931 150.442 276.329 150.474C275.098 150.54 273.75 150.469 272.61 150.371C270.965 150.229 269.086 149.666 267.49 148.384C265.77 147.004 264.5 144.846 264.5 142.183C264.5 139.338 265.026 137.482 265.569 135.951C265.644 135.741 265.711 135.556 265.771 135.389C266.087 134.513 266.216 134.154 266.295 133.456C266.291 133.435 266.277 133.215 266.145 132.7C266.064 132.383 265.961 132.039 265.83 131.615C265.811 131.552 265.79 131.485 265.768 131.415C265.659 131.062 265.526 130.632 265.412 130.228C265.277 129.743 265.111 129.096 265.015 128.399C264.925 127.748 264.836 126.663 265.139 125.449C265.483 124.068 266.33 122.583 267.904 121.575C269.319 120.669 270.781 120.5 271.771 120.5C272.785 120.5 273.793 120.628 274.75 120.853C280.031 122.092 282.54 126.41 283.608 129.925C284.563 133.066 284.714 136.494 284.5 139.373C284.5 139.415 284.5 139.451 284.5 139.481C284.499 139.556 284.497 139.618 284.496 139.659C284.494 139.702 284.492 139.739 284.491 139.767C284.488 139.823 284.484 139.87 284.482 139.904C284.479 139.939 284.476 139.971 284.474 139.999C284.465 140.102 284.454 140.209 284.444 140.297C284.434 140.39 284.423 140.489 284.412 140.581C284.406 140.626 284.4 140.678 284.393 140.73C284.389 140.756 284.385 140.787 284.38 140.821C284.376 140.852 284.369 140.898 284.36 140.951C284.356 140.978 284.35 141.013 284.342 141.055C284.335 141.094 284.323 141.156 284.307 141.231C284.299 141.269 284.288 141.32 284.273 141.38C284.27 141.392 284.267 141.406 284.263 141.421Z" fill="#FFCF00"/>
<path d="M284.263 141.421C284.132 142.283 283.974 143.173 283.789 143.98C283.668 144.508 283.512 145.103 283.309 145.678C283.16 146.098 282.78 147.135 281.977 148.077C280.704 149.572 279.06 150.024 278.491 150.168C277.704 150.367 276.931 150.442 276.329 150.474C275.098 150.54 273.75 150.469 272.61 150.371C270.965 150.229 269.086 149.666 267.49 148.384C265.77 147.004 264.5 144.846 264.5 142.183C264.5 139.338 265.026 137.482 265.569 135.951C265.644 135.741 265.711 135.556 265.771 135.389C266.087 134.513 266.216 134.154 266.295 133.456C266.291 133.435 266.277 133.215 266.145 132.7C266.064 132.383 265.961 132.039 265.83 131.615C265.811 131.552 265.79 131.485 265.768 131.415C265.659 131.062 265.526 130.632 265.412 130.228C265.277 129.743 265.111 129.096 265.015 128.399C264.925 127.748 264.836 126.663 265.139 125.449C265.483 124.068 266.33 122.583 267.904 121.575C269.319 120.669 270.781 120.5 271.771 120.5C272.785 120.5 273.793 120.628 274.75 120.853C280.031 122.092 282.54 126.41 283.608 129.925C284.563 133.066 284.714 136.494 284.5 139.373C284.5 139.415 284.5 139.451 284.5 139.481C284.499 139.556 284.497 139.618 284.496 139.659C284.494 139.702 284.492 139.739 284.491 139.767C284.488 139.823 284.484 139.87 284.482 139.904C284.479 139.939 284.476 139.971 284.474 139.999C284.465 140.102 284.454 140.209 284.444 140.297C284.434 140.39 284.423 140.489 284.412 140.581C284.406 140.626 284.4 140.678 284.393 140.73C284.389 140.756 284.385 140.787 284.38 140.821C284.376 140.852 284.369 140.898 284.36 140.951C284.356 140.978 284.35 141.013 284.342 141.055C284.335 141.094 284.323 141.156 284.307 141.231C284.299 141.269 284.288 141.32 284.273 141.38C284.27 141.392 284.267 141.406 284.263 141.421Z" stroke="#FF5700" stroke-width="11" stroke-linecap="round"/>
</g>
<g style="mix-blend-mode:screen">
<path d="M99.1376 42.8966C99.1337 42.9104 99.1294 42.9251 99.1248 42.9407C98.8515 44.8159 98.5292 46.703 98.1595 48.3512C97.9328 49.3622 97.6661 50.3847 97.3479 51.304C97.0839 52.067 96.5883 53.3657 95.6721 54.4649C94.2854 56.1285 92.4122 56.7197 91.4936 56.9607C90.3709 57.2553 89.1814 57.3871 88.1116 57.4489C85.9471 57.574 83.4514 57.4532 81.1778 57.2568C78.5847 57.0328 75.8134 56.1484 73.5629 54.3351C71.1934 52.4259 69.5 49.526 69.5 45.9206C69.5 40.7192 70.4117 37.4643 71.3931 34.6386C71.5263 34.2551 71.6541 33.8949 71.7763 33.5507C72.495 31.5266 73.0171 30.056 73.2676 27.6512C73.3533 26.8291 73.2167 25.6076 72.7733 23.8446C72.5613 23.0018 72.3069 22.1359 72.0268 21.2075C71.9809 21.0553 71.9337 20.8995 71.8857 20.741C71.6543 19.9773 71.4044 19.1524 71.191 18.3741C70.9332 17.4341 70.6723 16.365 70.5276 15.2918C70.3891 14.2642 70.3008 12.8565 70.6612 11.3788C71.0599 9.74338 72.0196 8.02563 73.8243 6.84413C75.4808 5.75961 77.2873 5.5 78.738 5.5C80.3138 5.5 81.911 5.69579 83.4569 6.05158C91.7457 7.95932 95.9622 14.7682 97.9108 21.3136C99.6815 27.2615 99.9445 33.9843 99.4925 39.7061C99.4965 39.783 99.4983 39.848 99.4991 39.8964C99.5002 39.9538 99.5002 40.0035 99.4999 40.0425C99.4993 40.1187 99.4974 40.1826 99.4957 40.2261C99.494 40.2719 99.492 40.3123 99.4902 40.3446C99.4867 40.4081 99.4828 40.4656 99.4794 40.5105C99.4759 40.5572 99.4722 40.6026 99.4687 40.6445C99.455 40.8048 99.4367 40.989 99.4189 41.1574C99.4007 41.3301 99.3803 41.5129 99.3607 41.6769C99.3509 41.7588 99.3404 41.8432 99.3299 41.9236C99.3246 41.9641 99.3187 42.0077 99.3124 42.0523C99.3063 42.095 99.2983 42.15 99.2885 42.2106C99.2836 42.2414 99.2771 42.2804 99.2692 42.3248C99.2618 42.3665 99.25 42.4302 99.234 42.5064C99.2258 42.5454 99.2147 42.5964 99.2006 42.6558C99.187 42.7127 99.1662 42.7964 99.1376 42.8966Z" fill="#FFCF00"/>
<path d="M99.1376 42.8966C99.1337 42.9104 99.1294 42.9251 99.1248 42.9407C98.8515 44.8159 98.5292 46.703 98.1595 48.3512C97.9328 49.3622 97.6661 50.3847 97.3479 51.304C97.0839 52.067 96.5883 53.3657 95.6721 54.4649C94.2854 56.1285 92.4122 56.7197 91.4936 56.9607C90.3709 57.2553 89.1814 57.3871 88.1116 57.4489C85.9471 57.574 83.4514 57.4532 81.1778 57.2568C78.5847 57.0328 75.8134 56.1484 73.5629 54.3351C71.1934 52.4259 69.5 49.526 69.5 45.9206C69.5 40.7192 70.4117 37.4643 71.3931 34.6386C71.5263 34.2551 71.6541 33.8949 71.7763 33.5507C72.495 31.5266 73.0171 30.056 73.2676 27.6512C73.3533 26.8291 73.2167 25.6076 72.7733 23.8446C72.5613 23.0018 72.3069 22.1359 72.0268 21.2075C71.9809 21.0553 71.9337 20.8995 71.8857 20.741C71.6543 19.9773 71.4044 19.1524 71.191 18.3741C70.9332 17.4341 70.6723 16.365 70.5276 15.2918C70.3891 14.2642 70.3008 12.8565 70.6612 11.3788C71.0599 9.74338 72.0196 8.02563 73.8243 6.84413C75.4808 5.75961 77.2873 5.5 78.738 5.5C80.3138 5.5 81.911 5.69579 83.4569 6.05158C91.7457 7.95932 95.9622 14.7682 97.9108 21.3136C99.6815 27.2615 99.9445 33.9843 99.4925 39.7061C99.4965 39.783 99.4983 39.848 99.4991 39.8964C99.5002 39.9538 99.5002 40.0035 99.4999 40.0425C99.4993 40.1187 99.4974 40.1826 99.4957 40.2261C99.494 40.2719 99.492 40.3123 99.4902 40.3446C99.4867 40.4081 99.4828 40.4656 99.4794 40.5105C99.4759 40.5572 99.4722 40.6026 99.4687 40.6445C99.455 40.8048 99.4367 40.989 99.4189 41.1574C99.4007 41.3301 99.3803 41.5129 99.3607 41.6769C99.3509 41.7588 99.3404 41.8432 99.3299 41.9236C99.3246 41.9641 99.3187 42.0077 99.3124 42.0523C99.3063 42.095 99.2983 42.15 99.2885 42.2106C99.2836 42.2414 99.2771 42.2804 99.2692 42.3248C99.2618 42.3665 99.25 42.4302 99.234 42.5064C99.2258 42.5454 99.2147 42.5964 99.2006 42.6558C99.187 42.7127 99.1662 42.7964 99.1376 42.8966Z" stroke="#FF5700" stroke-width="11" stroke-linecap="round"/>
</g>
<g style="mix-blend-mode:screen">
<path d="M203.539 43.8369C203.458 44.5553 203.39 45.307 203.361 46.0055C203.342 46.4692 203.335 47.0134 203.374 47.5609C203.402 47.9434 203.484 48.993 203.986 50.0791C204.792 51.8228 206.206 52.6681 206.683 52.9406C207.344 53.3176 208.007 53.567 208.502 53.7309C209.517 54.0666 210.636 54.303 211.562 54.4672C213.059 54.7328 214.881 54.6797 216.636 53.9032C218.531 53.0649 220.227 51.4034 220.88 48.9666C221.52 46.5779 221.507 44.8843 221.405 43.4777C221.39 43.2828 221.378 43.1145 221.366 42.9667C221.313 42.2725 221.294 42.0314 221.35 41.6232C221.376 41.5639 221.433 41.4398 221.545 41.2394C221.666 41.022 221.811 40.7834 222.003 40.4732C222.03 40.4288 222.06 40.381 222.091 40.3306C222.252 40.072 222.456 39.7435 222.638 39.4332C222.855 39.0622 223.145 38.5413 223.391 37.9525C223.62 37.4061 223.965 36.4456 223.992 35.2593C224.022 33.9108 223.629 32.2955 222.408 30.9296C221.306 29.6956 219.971 29.1695 219.071 28.9283C218.22 28.7003 217.354 28.5809 216.512 28.5509C211.503 28.3726 208.309 31.6581 206.635 34.3817C205.145 36.807 204.272 39.6194 203.812 42.0202C203.806 42.043 203.8 42.0637 203.796 42.0817C203.777 42.1524 203.763 42.2111 203.755 42.2494C203.745 42.29 203.738 42.3249 203.732 42.3515C203.721 42.4035 203.713 42.4481 203.707 42.4786C203.701 42.511 203.695 42.5405 203.691 42.5653C203.675 42.6572 203.659 42.7518 203.647 42.8267C203.635 42.906 203.622 42.9914 203.61 43.0716C203.604 43.1116 203.598 43.1575 203.592 43.2049C203.589 43.2288 203.585 43.2574 203.581 43.2886C203.578 43.3179 203.572 43.3613 203.567 43.4124C203.565 43.4385 203.561 43.4733 203.558 43.5142C203.554 43.5525 203.549 43.6136 203.545 43.6883C203.543 43.7265 203.541 43.7772 203.539 43.8369ZM216.576 39.4311C216.576 39.4356 216.554 39.4557 216.508 39.4777C216.552 39.4376 216.575 39.4266 216.576 39.4311Z" fill="#FFCF00"/>
<path d="M203.539 43.8369C203.458 44.5553 203.39 45.307 203.361 46.0055C203.342 46.4692 203.335 47.0134 203.374 47.5609C203.402 47.9434 203.484 48.993 203.986 50.0791C204.792 51.8228 206.206 52.6681 206.683 52.9406C207.344 53.3176 208.007 53.567 208.502 53.7309C209.517 54.0666 210.636 54.303 211.562 54.4672C213.059 54.7328 214.881 54.6797 216.636 53.9032C218.531 53.0649 220.227 51.4034 220.88 48.9666C221.52 46.5779 221.507 44.8843 221.405 43.4777C221.39 43.2828 221.378 43.1145 221.366 42.9667C221.313 42.2725 221.294 42.0314 221.35 41.6232C221.376 41.5639 221.433 41.4398 221.545 41.2394C221.666 41.022 221.811 40.7834 222.003 40.4732C222.03 40.4288 222.06 40.381 222.091 40.3306C222.252 40.072 222.456 39.7435 222.638 39.4332C222.855 39.0622 223.145 38.5413 223.391 37.9525C223.62 37.4061 223.965 36.4456 223.992 35.2593C224.022 33.9108 223.629 32.2955 222.408 30.9296C221.306 29.6956 219.971 29.1695 219.071 28.9283C218.22 28.7003 217.354 28.5809 216.512 28.5509C211.503 28.3726 208.309 31.6581 206.635 34.3817C205.145 36.807 204.272 39.6194 203.812 42.0202C203.806 42.043 203.8 42.0637 203.796 42.0817C203.777 42.1524 203.763 42.2111 203.755 42.2494C203.745 42.29 203.738 42.3249 203.732 42.3515C203.721 42.4035 203.713 42.4481 203.707 42.4786C203.701 42.511 203.695 42.5405 203.691 42.5653C203.675 42.6572 203.659 42.7518 203.647 42.8267C203.635 42.906 203.622 42.9914 203.61 43.0716C203.604 43.1116 203.598 43.1575 203.592 43.2049C203.589 43.2288 203.585 43.2574 203.581 43.2886C203.578 43.3179 203.572 43.3613 203.567 43.4124C203.565 43.4385 203.561 43.4733 203.558 43.5142C203.554 43.5525 203.549 43.6136 203.545 43.6883C203.543 43.7265 203.541 43.7772 203.539 43.8369ZM216.576 39.4311C216.576 39.4356 216.554 39.4557 216.508 39.4777C216.552 39.4376 216.575 39.4266 216.576 39.4311Z" stroke="#FF5700" stroke-width="11" stroke-linecap="round"/>
</g>
<g style="mix-blend-mode:screen">
<mask id="path-15-outside-1_32_259" maskUnits="userSpaceOnUse" x="138.417" y="25.852" width="33.8446" height="35.9659" fill="black">
<rect fill="white" x="138.417" y="25.852" width="33.8446" height="35.9659"/>
<path d="M155.175 40.352C154.397 40.4902 153.617 40.6971 153.496 40.9588C153.38 41.2096 153.442 42.0274 153.545 42.8347C153.861 44.8687 154.916 47.5343 156.973 47.4611C157.192 47.4533 157.406 47.4224 157.603 47.3694C158.784 47.0531 157 45.6421 156.794 44.348C156.588 43.0539 157.034 42.6196 156.618 41.0669C156.453 40.4508 155.803 40.2406 155.175 40.352Z"/>
</mask>
<path d="M155.175 40.352C154.397 40.4902 153.617 40.6971 153.496 40.9588C153.38 41.2096 153.442 42.0274 153.545 42.8347C153.861 44.8687 154.916 47.5343 156.973 47.4611C157.192 47.4533 157.406 47.4224 157.603 47.3694C158.784 47.0531 157 45.6421 156.794 44.348C156.588 43.0539 157.034 42.6196 156.618 41.0669C156.453 40.4508 155.803 40.2406 155.175 40.352Z" fill="#FFCF00"/>
<path d="M158.953 41.8477C159.498 44.8359 157.518 47.7005 154.53 48.2461C151.542 48.7916 148.677 46.8115 148.132 43.8233L158.953 41.8477ZM148.09 43.535C147.703 40.5221 149.832 37.7662 152.845 37.3794C155.858 36.9927 158.614 39.1215 159 42.1344L148.09 43.535ZM148.132 43.8233C148.13 43.8136 148.131 43.8206 148.134 43.8382C148.136 43.8472 148.14 43.8656 148.145 43.8904C148.149 43.9108 148.16 43.9601 148.175 44.024C148.182 44.0563 148.195 44.1098 148.213 44.1759C148.222 44.2098 148.235 44.2548 148.25 44.3076C148.265 44.3584 148.288 44.4328 148.319 44.5221C148.334 44.5678 148.354 44.624 148.378 44.6881C148.402 44.7511 148.434 44.8327 148.475 44.927C148.514 45.0183 148.572 45.1465 148.65 45.2961C148.684 45.3589 148.759 45.4933 148.801 45.5647C148.851 45.6482 148.968 45.8278 149.034 45.9234C149.117 46.0374 149.311 46.2829 149.424 46.413C149.57 46.5703 149.921 46.903 150.129 47.0743C150.405 47.2773 151.072 47.6701 151.465 47.8471C151.968 48.0224 153.097 48.2305 153.714 48.2438C154.366 48.1823 155.593 47.8429 156.154 47.5775C156.613 47.2975 157.367 46.6817 157.667 46.3646C157.887 46.0963 158.235 45.5847 158.37 45.3478C158.469 45.1544 158.628 44.7969 158.69 44.6343C158.737 44.5 158.814 44.2519 158.845 44.1387C158.869 44.043 158.909 43.8654 158.925 43.7836C158.962 43.5907 158.983 43.4292 158.994 43.3182C159.006 43.203 159.013 43.1049 159.017 43.0308C159.02 42.9553 159.022 42.8897 159.023 42.8372C159.025 42.7348 159.023 42.6506 159.022 42.5944C159.02 42.5357 159.018 42.486 159.016 42.449C159.012 42.377 159.007 42.3191 159.004 42.2845C159.001 42.2473 158.998 42.2165 158.996 42.195C158.991 42.153 158.987 42.1205 158.985 42.1035C158.983 42.0846 158.981 42.07 158.98 42.0611C158.978 42.0439 158.976 42.0332 158.976 42.0314C158.975 42.0276 158.976 42.0306 158.977 42.0358C158.978 42.0454 158.976 42.0315 158.971 42.0005C158.969 41.991 158.966 41.9754 158.962 41.9556C158.959 41.9375 158.952 41.9041 158.943 41.8613C158.939 41.8394 158.932 41.8087 158.924 41.7719C158.916 41.7373 158.903 41.682 158.885 41.6141C158.876 41.5792 158.864 41.534 158.849 41.4812C158.834 41.4301 158.813 41.3578 158.784 41.2719C158.758 41.192 158.712 41.0589 158.645 40.8977C158.611 40.8148 158.563 40.7047 158.5 40.5775C158.44 40.4551 158.347 40.2765 158.217 40.07C158.161 39.9827 158.032 39.7955 157.959 39.6962C157.869 39.5801 157.66 39.3318 157.539 39.2011C157.386 39.0474 157.023 38.7262 156.81 38.5627C156.538 38.376 155.895 38.0207 155.522 37.8624C155.063 37.7105 154.048 37.5235 153.498 37.5025C152.92 37.54 151.807 37.7904 151.283 37.9973C150.836 38.2262 150.072 38.7527 149.753 39.0359C149.51 39.2851 149.111 39.7742 148.95 40.0077C148.83 40.2022 148.632 40.5683 148.552 40.7379C148.49 40.8792 148.388 41.1431 148.345 41.2649C148.312 41.3681 148.256 41.5612 148.232 41.6508C148.213 41.7279 148.181 41.8731 148.167 41.9409C148.135 42.1038 148.116 42.242 148.104 42.3427C148.091 42.446 148.083 42.5352 148.078 42.6048C148.069 42.7406 148.066 42.8517 148.065 42.9229C148.064 42.9981 148.064 43.0613 148.065 43.1073C148.067 43.1971 148.071 43.2689 148.073 43.3103C148.078 43.393 148.083 43.4564 148.086 43.4818C148.088 43.5132 148.091 43.5369 148.092 43.5489C148.095 43.5725 148.096 43.5843 148.095 43.5767C148.095 43.5712 148.093 43.5581 148.09 43.535L159 42.1344C159.006 42.1756 159.011 42.216 159.016 42.2546C159.02 42.291 159.025 42.3372 159.031 42.3869C159.033 42.412 159.037 42.4468 159.041 42.4873C159.044 42.5218 159.05 42.5924 159.055 42.6806C159.057 42.7247 159.061 42.7988 159.063 42.8904C159.064 42.9374 159.065 43.0014 159.064 43.0773C159.063 43.1493 159.06 43.261 159.05 43.3973C159.045 43.4672 159.037 43.5566 159.024 43.6602C159.012 43.7611 158.993 43.8995 158.961 44.0625C158.947 44.1304 158.914 44.2756 158.895 44.3529C158.872 44.4426 158.816 44.6357 158.782 44.7389C158.74 44.8609 158.638 45.1248 158.576 45.2662C158.496 45.4357 158.298 45.8019 158.177 45.9964C158.017 46.23 157.618 46.7191 157.374 46.9683C157.056 47.2516 156.292 47.778 155.845 48.007C155.321 48.2139 154.208 48.4643 153.63 48.5018C153.08 48.4808 152.064 48.2938 151.606 48.1419C151.232 47.9836 150.589 47.6282 150.317 47.4415C150.104 47.2781 149.741 46.9568 149.588 46.803C149.467 46.6723 149.258 46.424 149.168 46.3078C149.095 46.2085 148.966 46.0212 148.91 45.9339C148.78 45.7273 148.687 45.5485 148.626 45.426C148.564 45.2986 148.516 45.1883 148.482 45.1053C148.415 44.9437 148.368 44.8101 148.342 44.7296C148.313 44.6431 148.291 44.5701 148.276 44.5183C148.261 44.4648 148.249 44.4187 148.239 44.383C148.221 44.3133 148.208 44.2558 148.199 44.2188C148.19 44.1796 148.183 44.1462 148.178 44.1212C148.168 44.0725 148.16 44.0319 148.155 44.0059C148.15 43.978 148.145 43.9534 148.142 43.934C148.129 43.8639 148.119 43.7982 148.112 43.7534C148.104 43.7043 148.096 43.6504 148.088 43.5975C148.084 43.5711 148.079 43.5379 148.075 43.5012C148.072 43.4826 148.069 43.4591 148.066 43.4322C148.063 43.4073 148.058 43.3678 148.053 43.32C148.051 43.2955 148.047 43.2621 148.044 43.2226C148.041 43.1856 148.036 43.1257 148.032 43.0519C148.03 43.014 148.028 42.9636 148.026 42.9041C148.024 42.8473 148.023 42.7624 148.024 42.6595C148.025 42.6068 148.027 42.5409 148.031 42.4651C148.035 42.3909 148.041 42.2925 148.053 42.1771C148.065 42.066 148.085 41.9043 148.122 41.7112C148.139 41.6294 148.179 41.4517 148.203 41.356C148.234 41.2427 148.311 40.9946 148.358 40.8602C148.42 40.6976 148.579 40.34 148.678 40.1466C148.812 39.9097 149.161 39.398 149.381 39.1297C149.681 38.8126 150.435 38.1968 150.894 37.9167C151.454 37.6513 152.682 37.312 153.334 37.2504C153.951 37.2637 155.08 37.4718 155.583 37.6471C155.977 37.8242 156.643 38.217 156.919 38.42C157.127 38.5913 157.478 38.9241 157.624 39.0813C157.737 39.2115 157.931 39.457 158.014 39.5711C158.081 39.6667 158.197 39.8464 158.248 39.93C158.29 40.0014 158.365 40.1358 158.398 40.1987C158.476 40.3485 158.535 40.4769 158.574 40.5684C158.615 40.6628 158.647 40.7447 158.671 40.8079C158.695 40.8722 158.715 40.9287 158.731 40.9747C158.761 41.0645 158.784 41.1396 158.8 41.1912C158.815 41.2447 158.828 41.2906 158.838 41.3255C158.856 41.3936 158.869 41.4495 158.878 41.4846C158.894 41.5542 158.906 41.6109 158.912 41.6406C158.92 41.6747 158.925 41.7044 158.93 41.7267C158.938 41.7709 158.946 41.8129 158.953 41.8477L148.132 43.8233ZM153.496 40.9588L143.511 36.3429L143.511 36.3429L153.496 40.9588ZM155.175 40.352L157.097 51.1828L157.097 51.1828L155.175 40.352ZM156.794 44.348L167.657 42.6174L167.657 42.6174L156.794 44.348ZM156.973 47.4611L157.364 58.4541L157.364 58.4541L156.973 47.4611ZM153.545 42.8347L142.675 44.5206L142.653 44.3782L142.635 44.2352L153.545 42.8347ZM143.511 36.3429C145.026 33.0662 147.624 31.5753 148.249 31.2184C149.241 30.6524 150.138 30.3299 150.634 30.1659C151.673 29.8221 152.656 29.6273 153.253 29.5212L157.097 51.1828C156.916 51.215 157.12 51.1927 157.544 51.0523C157.733 50.9901 158.363 50.777 159.15 50.3277C159.558 50.0953 160.213 49.6841 160.928 49.0409C161.621 48.4178 162.686 47.2936 163.481 45.5748L143.511 36.3429ZM167.243 38.2199C167.513 39.2289 167.69 40.2389 167.764 41.2701C167.837 42.2953 167.79 43.1225 167.756 43.6008C167.689 44.5239 167.799 43.5072 167.657 42.6174L145.931 46.0786C145.76 45.0041 145.72 44.0538 145.741 43.2265C145.751 42.8448 145.773 42.5247 145.788 42.3226C145.796 42.2268 145.803 42.1329 145.807 42.0886C145.812 42.0313 145.813 42.0151 145.813 42.008C145.814 42.0005 145.806 42.1002 145.804 42.2518C145.801 42.4122 145.804 42.6108 145.82 42.8352C145.853 43.3078 145.93 43.6812 145.992 43.9139L167.243 38.2199ZM167.657 42.6174C167.401 41.011 166.794 39.9884 166.783 39.9691C166.739 39.8897 166.72 39.8622 166.802 39.9948C166.837 40.052 167.04 40.3746 167.213 40.6702C167.386 40.966 167.741 41.5862 168.07 42.3744C168.364 43.0779 168.955 44.6418 169.001 46.697C169.055 49.0768 168.354 52.0299 166.118 54.5319C164.118 56.7699 161.776 57.6395 160.451 57.9946L154.756 36.7442C153.726 37.0203 151.587 37.7766 149.714 39.8718C147.606 42.2311 146.957 45.0119 147.007 47.1947C147.049 49.053 147.578 50.3951 147.771 50.8569C147.999 51.4034 148.214 51.7618 148.224 51.7806C148.235 51.7991 148.254 51.8294 148.102 51.5837C147.996 51.4135 147.785 51.0726 147.563 50.674C147.197 50.0163 146.29 48.332 145.931 46.0786L167.657 42.6174ZM160.451 57.9946C159.386 58.28 158.342 58.4193 157.364 58.4541L156.581 36.468C156.041 36.4873 155.426 36.5648 154.756 36.7442L160.451 57.9946ZM142.635 44.2352C142.565 43.694 142.48 42.9333 142.448 42.1411C142.432 41.756 142.419 41.1539 142.468 40.4601C142.494 40.0962 142.6 38.3132 143.511 36.3429L163.481 45.5748C163.977 44.5006 164.179 43.5924 164.263 43.1527C164.359 42.6536 164.396 42.2563 164.412 42.0283C164.444 41.5836 164.431 41.2835 164.429 41.2351C164.424 41.1163 164.422 41.1682 164.456 41.4341L142.635 44.2352ZM157.364 58.4541C150.66 58.6928 146.778 54.2095 145.235 51.6984C143.655 49.1285 142.968 46.4094 142.675 44.5206L164.415 41.1487C164.411 41.1231 164.405 41.0837 164.377 40.9978C164.355 40.9323 164.253 40.6261 163.977 40.1778C163.719 39.7582 163.084 38.8455 161.863 38.0028C160.504 37.0648 158.659 36.3941 156.581 36.468L157.364 58.4541ZM153.253 29.5212C155.236 29.1695 157.851 29.1962 160.52 30.3768C163.468 31.6809 166.203 34.3385 167.243 38.2199L145.992 43.9139C146.867 47.1792 149.195 49.4237 151.621 50.4965C153.767 51.4458 155.743 51.4231 157.097 51.1828L153.253 29.5212Z" fill="#FF5700" mask="url(#path-15-outside-1_32_259)"/>
</g>
<path d="M138.5 714C149 698.5 153 691 156.5 676.5L160.5 672.5C163.5 669.333 171.4 659.5 179 645.5C188.5 628 171 631 138.5 645.5C105.999 660 122 651.5 86.4996 645.5C50.9992 639.5 80.4996 647.5 63.9996 657C47.4996 666.5 62.9996 671.5 86.4996 696C101 706 94.9996 708.5 112.5 733.5C130 758.5 128 729.5 138.5 714Z" fill="#F3C3AB" stroke="black" stroke-opacity="0.05" stroke-width="5" stroke-linecap="round"/>
<path d="M83 715.5L55.5 1086" stroke="#DF9773" stroke-width="13" stroke-linecap="round"/>
<defs>
<filter id="filter0_i_32_259" x="48.5" y="440.5" width="173.008" height="210.555" filterUnits="userSpaceOnUse" color-interpolation-filters="sRGB">
<feFlood flood-opacity="0" result="BackgroundImageFix"/>
<feBlend mode="normal" in="SourceGraphic" in2="BackgroundImageFix" result="shape"/>
<feColorMatrix in="SourceAlpha" type="matrix" values="0 0 0 0 0 0 0 0 0 0 0 0 0 0 0 0 0 0 127 0" result="hardAlpha"/>
<feOffset dx="22" dy="-23"/>
<feComposite in2="hardAlpha" operator="arithmetic" k2="-1" k3="1"/>
<feColorMatrix type="matrix" values="0 0 0 0 0.970833 0 0 0 0 0.555083 0 0 0 0 0.222483 0 0 0 0.5 0"/>
<feBlend mode="normal" in2="shape" result="effect1_innerShadow_32_259"/>
</filter>
<filter id="filter1_i_32_259" x="13.5" y="338.5" width="260.875" height="175.264" filterUnits="userSpaceOnUse" color-interpolation-filters="sRGB">
<feFlood flood-opacity="0" result="BackgroundImageFix"/>
<feBlend mode="normal" in="SourceGraphic" in2="BackgroundImageFix" result="shape"/>
<feColorMatrix in="SourceAlpha" type="matrix" values="0 0 0 0 0 0 0 0 0 0 0 0 0 0 0 0 0 0 127 0" result="hardAlpha"/>
<feOffset dx="22" dy="-23"/>
<feComposite in2="hardAlpha" operator="arithmetic" k2="-1" k3="1"/>
<feColorMatrix type="matrix" values="0 0 0 0 0.970833 0 0 0 0 0.555083 0 0 0 0 0.222483 0 0 0 0.5 0"/>
<feBlend mode="normal" in2="shape" result="effect1_innerShadow_32_259"/>
</filter>
<filter id="filter2_i_32_259" x="3.5" y="102.499" width="344.938" height="296.263" filterUnits="userSpaceOnUse" color-interpolation-filters="sRGB">
<feFlood flood-opacity="0" result="BackgroundImageFix"/>
<feBlend mode="normal" in="SourceGraphic" in2="BackgroundImageFix" result="shape"/>
<feColorMatrix in="SourceAlpha" type="matrix" values="0 0 0 0 0 0 0 0 0 0 0 0 0 0 0 0 0 0 127 0" result="hardAlpha"/>
<feOffset dx="22" dy="-23"/>
<feComposite in2="hardAlpha" operator="arithmetic" k2="-1" k3="1"/>
<feColorMatrix type="matrix" values="0 0 0 0 0.970833 0 0 0 0 0.555083 0 0 0 0 0.222483 0 0 0 0.5 0"/>
<feBlend mode="normal" in2="shape" result="effect1_innerShadow_32_259"/>
</filter>
</defs>
</svg>
