<svg width="207" height="207" viewBox="0 0 207 207" fill="none" xmlns="http://www.w3.org/2000/svg">
<path d="M70.5045 129.346C61.413 116.845 73.908 99.73 87.5821 99.0104C104.769 98.1058 118.799 95.559 135.22 101.033M117.019 76.7644C125.773 77.5603 127.708 84.2674 132.074 90.4715C132.848 91.5716 143.401 102.412 142.073 102.943C134.873 105.823 123.434 112.123 121.063 119.234" stroke="white" stroke-width="14.1001" stroke-linecap="round"/>
<path d="M65.8052 124.646C56.7138 112.145 69.2088 95.0301 82.8829 94.3104C100.07 93.4058 114.1 90.859 130.521 96.3328M112.319 72.0645C121.074 72.8603 123.009 79.5674 127.375 85.7715C128.149 86.8716 138.702 97.7118 137.374 98.2428C130.174 101.123 118.734 107.423 116.364 114.534" stroke="#FF8A8C" stroke-width="14.1001" stroke-linecap="round"/>
</svg>
