<svg width="298" height="183" viewBox="0 0 298 183" fill="none" xmlns="http://www.w3.org/2000/svg">
<path d="M269.818 144.739C257.353 145.21 244.961 146.228 232.516 147.021C201.231 149.014 169.835 149.651 138.508 150.668C105.938 151.725 73.3856 153.718 40.8255 154.704C36.9879 154.821 33.1872 154.908 29.3564 155.15C26.4441 155.334 29.0275 152.72 29.6904 151.086C35.3172 137.215 35.6308 121.282 42.1339 107.798C47.4373 96.8013 59.8303 83.7616 73.2563 84.7206C76.7439 84.9697 78.7652 88.5456 80.6333 91.0676C83.7559 95.2831 86.9004 99.4844 90.0146 103.706C93.8115 108.853 93.6249 114.661 95.6656 120.492C95.8953 121.148 96.4732 115.254 96.5564 114.674C97.5452 107.786 100.119 101.567 103.572 95.5494C111.797 81.2136 121.361 67.9316 136.142 59.9729C138.527 58.6886 148.697 53.2177 151.452 55.853C154.84 59.0929 157.628 63.8994 160.36 67.684C164.481 73.3918 167.744 79.3098 169.213 86.2517C170.498 92.3275 170.59 98.6833 172.386 104.652C173.233 107.468 173.709 96.6854 173.75 96.3567C176.711 72.6668 188.854 50.8776 204.928 33.5272C206.561 31.7655 209.328 27.7203 212.278 28.0153C224.058 29.1933 229.89 44.3915 232.961 53.8486C236.963 66.1757 238.887 79.1178 244.152 91.0119C245.124 93.2097 245.763 95.1094 247.993 96.134C250.452 97.2636 253.495 97.0988 255.676 98.8621C257.93 100.684 261.139 104.705 261.3 107.659L261.305 107.758C261.374 109.002 261.444 110.269 260.27 111.027C254.896 114.498 246.987 115.247 240.811 115.954C226.96 117.54 212.852 116.177 198.943 116.177C198.392 116.177 191.656 116.651 191.817 115.648C192.43 111.814 195.13 107.757 196.772 104.318C198.232 101.261 199.68 98.1942 201.147 95.1371M201.147 95.1371C205.04 87.028 209.075 78.986 213.864 71.3585C215.486 68.7757 211.5 76.9837 210.19 79.7377C207.618 85.143 204.656 90.3349 201.147 95.1371ZM201.147 95.1371C198.86 98.2681 196.339 101.233 193.543 103.984C181.141 116.183 164.655 122.093 147.555 122.97C144.823 123.11 136.366 124.493 134.026 122.051C132.187 120.132 133.661 112.453 133.859 110.331C134.416 104.341 135.669 98.4837 137.422 92.7378C137.94 91.0405 138.638 89.8629 137.255 92.0141C133.079 98.5104 127.336 104.349 121.443 109.273C109.096 119.592 94.7809 128.736 79.3528 133.604C69.4882 136.716 59.523 136.721 49.3438 136.721M141.041 90.6222C150.861 88.2216 161.032 88.1168 171.105 88.1168" stroke="white" stroke-width="54.4214" stroke-linecap="round"/>
</svg>
