<svg width="276" height="51" viewBox="0 0 276 51" fill="none" xmlns="http://www.w3.org/2000/svg">
<g filter="url(#filter0_d_28_278)">
<rect width="275" height="50" rx="12" fill="#FF8A8C"/>
<rect x="0.5" y="0.5" width="274" height="49" rx="11.5" stroke="black"/>
<path d="M28.0625 13.9463C28.115 16.3884 28.6224 18.7829 28.8157 21.2106C28.9963 23.477 28.8668 25.7933 28.8668 28.0664C28.8668 29.4265 28.8327 30.7784 28.6945 32.1327C28.6289 32.7753 28.8126 33.3224 28.0625 33.1349M24.7305 30.0325C26.1488 30.0325 26.7984 31.2713 27.7179 32.1645C28.4294 32.8557 29.1364 31.8696 29.7606 31.4368C31.0009 30.577 32.1755 29.541 33.463 28.7686M17.8357 31.2958C17.5767 31.236 16.9262 30.653 17.1463 30.8873C17.4738 31.2359 17.7258 31.8917 17.8101 32.3555L17.8138 32.3753C17.9506 33.1282 18.0894 33.8917 18.3847 34.6024C18.5502 35.0009 18.7549 35.3121 18.7549 35.7514C18.7549 36.0678 18.7731 36.1447 19.1124 36.2621C20.4916 36.7396 21.8884 36.9174 23.3382 37.0409C26.0453 37.2716 28.6911 37.3856 31.4069 37.3856C34.2605 37.3856 36.879 36.7906 39.667 36.326C40.9793 36.1072 41.2467 35.8988 41.5054 34.4109C41.771 32.884 42.0498 31.4162 42.4247 29.917" stroke="black" stroke-linecap="round"/>
<path d="M28.3379 12.6152C28.3904 15.0573 28.8978 17.4519 29.0911 19.8796C29.2716 22.146 29.1422 24.4622 29.1422 26.7354C29.1422 28.0954 29.108 29.4474 28.9699 30.8016C28.9043 31.4443 29.0879 31.9913 28.3379 31.8038M25.0059 28.7014C26.4242 28.7014 27.0738 29.9402 27.9933 30.8335C28.7048 31.5246 29.4118 30.5385 30.036 30.1058C31.2763 29.2459 32.4509 28.21 33.7384 27.4375M18.1111 29.9648C17.8521 29.905 17.2016 29.3219 17.4217 29.5562C17.7492 29.9048 18.0012 30.5606 18.0855 31.0244L18.0891 31.0442C18.226 31.7972 18.3648 32.5607 18.66 33.2714C18.8256 33.6699 19.0303 33.981 19.0303 34.4204C19.0303 34.7368 19.0485 34.8136 19.3878 34.9311C20.767 35.4085 22.1638 35.5863 23.6136 35.7098C26.3207 35.9405 28.9665 36.0546 31.6822 36.0546C34.5359 36.0546 37.1544 35.4596 39.9424 34.9949C41.2547 34.7762 41.5221 34.5677 41.7808 33.0799C42.0464 31.5529 42.3252 30.0852 42.7 28.5859" stroke="white" stroke-linecap="round"/>
<path d="M63.8942 17.7507C65.1156 17.627 66.3716 17.7025 67.5988 17.7025C68.2815 17.7025 68.9641 17.7025 69.6468 17.7025C71.747 17.7025 73.8664 17.6845 75.9463 17.992C77.8503 18.2734 79.6226 18.7301 81.1306 20.0025C81.5068 20.3198 81.7202 20.7833 81.9643 21.2007C82.2078 21.617 82.4345 22.0371 82.6264 22.4794C82.7857 22.8462 83.0911 23.1697 83.2135 23.5462C83.4844 24.3798 83.5491 25.2831 83.5754 26.1518C83.6174 27.5376 83.2388 28.9282 82.3477 30.0093C81.6421 30.8652 80.9161 31.8797 79.9646 32.4835C79.0298 33.0767 77.9056 33.3655 76.847 33.6469C75.5548 33.9904 74.1936 33.8327 72.8743 33.8694C69.7939 33.9549 66.7781 34.6387 63.7012 34.6387" stroke="black" stroke-linecap="round"/>
<path d="M68.0434 17.7988C68.0434 20.3455 68.4383 22.9048 68.2739 25.452C68.2337 26.0761 68.12 26.6909 68.0809 27.3151C68.0535 27.7544 68.0233 28.2016 67.9362 28.6339C67.8132 29.2441 67.7539 29.8598 67.7539 30.4836C67.7539 31.1645 67.7539 31.8453 67.7539 32.5262C67.7539 32.9784 67.8504 33.41 67.8504 33.8665" stroke="black" stroke-linecap="round"/>
<path d="M98.2486 30.6824C98.2486 30.0562 98.1399 29.4475 98.1092 28.8247C98.0769 28.1723 98.0723 27.5207 98.0073 26.8705C97.9304 26.1015 97.6273 25.1882 97.2138 24.5384C96.7227 23.7666 96.0445 22.9403 95.2811 22.4314C94.7609 22.0846 94.0754 21.8015 93.4422 21.8578C93.0225 21.8951 92.6225 22.0503 92.2171 22.1526C91.7603 22.2679 91.3325 22.4344 90.9036 22.6244C90.1975 22.9373 89.4155 23.3767 89.0486 24.0988C88.3186 25.5357 88.6173 27.1143 88.4911 28.6451C88.4267 29.4252 88.316 30.4173 88.609 31.1649C88.8594 31.8038 89.3308 32.3949 89.7536 32.9234C90.2909 33.595 91.1294 33.8424 91.9008 34.135C92.5105 34.3663 93.197 34.6873 93.8577 34.6873C94.1452 34.6873 94.5355 34.7264 94.7959 34.5827C95.1095 34.4097 95.5313 34.1369 95.7636 33.8616C96.3481 33.1689 96.8952 32.3726 97.6695 31.8994C98.2001 31.5752 98.2003 30.803 98.2003 30.2481" stroke="black" stroke-linecap="round"/>
<path d="M101.869 22.2383C100.979 22.2383 103.643 22.372 104.528 22.4581C105.25 22.5283 105.969 22.5278 106.694 22.5278" stroke="black" stroke-linecap="round"/>
<path d="M104.039 22.4795C104.039 23.2027 104.165 23.858 104.353 24.5543C104.597 25.4585 104.72 26.3842 105.004 27.2778C105.217 27.9464 105.341 28.6425 105.583 29.3017C105.732 29.7068 105.941 30.0797 106.103 30.4785C106.434 31.2952 106.592 32.1803 106.789 33.0358C106.904 33.5342 106.917 33.0828 106.988 32.8187C107.23 31.9171 107.582 31.0761 107.915 30.2078C108.266 29.2946 108.598 28.3756 108.961 27.4681C109.128 27.0499 109.23 26.6081 109.395 26.1895C109.515 25.884 109.671 25.5967 109.76 25.2781C109.844 24.9756 110.007 24.7067 110.124 24.4149C110.171 24.298 110.607 23.2298 110.66 23.273C110.786 23.3756 110.836 23.6011 110.88 23.7448C111.005 24.1498 111.125 24.5588 111.229 24.9698C111.457 25.8747 111.602 26.7625 111.735 27.6853C111.848 28.4643 112.033 29.3396 112.435 30.0308C112.576 30.2744 112.721 30.5093 112.832 30.768C112.961 31.0706 113.036 31.3991 113.183 31.6928C113.307 31.9409 113.367 32.207 113.459 32.4675C113.54 32.6994 113.552 32.9945 113.668 33.2101C113.81 33.4731 113.888 32.9444 113.92 32.8535C114.104 32.3355 114.301 31.8319 114.472 31.3095C114.653 30.7581 114.662 30.1817 114.802 29.6234C114.892 29.2607 114.996 28.9059 115.062 28.5377C115.133 28.1416 115.237 27.7267 115.381 27.3502C115.547 26.9128 115.595 26.4414 115.764 26.0072C115.991 25.4227 116.158 24.8171 116.416 24.2433C116.512 24.0282 116.61 23.8163 116.702 23.6C116.818 23.3285 117.067 23.0798 117.067 22.769" stroke="black" stroke-linecap="round"/>
<path d="M117.02 22.7688C116.677 22.7688 116.328 22.7913 115.988 22.7661C115.741 22.7478 115.518 22.624 115.264 22.624C115.086 22.624 115.091 22.624 115.304 22.624C115.773 22.624 116.256 22.5755 116.709 22.7205C116.963 22.8019 117.231 22.9566 117.502 22.9618C117.774 22.9669 118.039 23.01 118.312 23.01C118.419 23.01 118.54 22.9864 118.612 23.0583" stroke="black" stroke-linecap="round"/>
<path d="M121.217 22.3828C122.013 22.4876 122.716 22.7991 123.544 22.6938C123.865 22.6529 124.181 22.5705 124.503 22.5383C124.522 22.5364 124.495 22.5748 124.487 22.5919C124.434 22.7145 124.39 22.8407 124.356 22.9699C124.265 23.3099 124.195 23.6755 124.163 24.026C124.068 25.0724 123.988 26.1208 123.897 27.1677C123.793 28.3742 123.822 29.6158 123.822 30.8268C123.822 31.631 123.822 32.4352 123.822 33.2394" stroke="black" stroke-linecap="round"/>
<path d="M121.121 34.0602C122.573 34.0602 124.069 33.5064 125.512 33.8672" stroke="black" stroke-linecap="round"/>
<path d="M124.161 26.4842C124.032 25.9022 124.79 25.3527 125.177 24.9885C125.668 24.5263 126.18 24.1289 126.743 23.758C127.373 23.3427 127.973 23.081 128.734 23.0209C129.464 22.9633 130.02 23.0242 130.664 23.3854C131.338 23.7635 131.585 24.7215 131.712 25.4281C132.001 27.025 131.921 28.6753 132.31 30.2532C132.521 31.1074 132.601 31.986 132.728 32.8534C132.766 33.1116 132.745 33.37 132.809 33.6255C132.834 33.7248 132.87 33.7702 132.75 33.7702" stroke="black" stroke-linecap="round"/>
<path d="M129.42 33.7704C131.03 33.7084 132.65 33.3994 134.197 33.9151" stroke="black" stroke-linecap="round"/>
<path d="M135.547 15.8213C135.769 15.8324 135.963 15.9268 136.15 16.0411C136.537 16.2768 136.932 16.512 137.372 16.6335C137.689 16.7209 137.875 16.6792 138.144 16.4995C138.242 16.4341 138.32 16.2757 138.442 16.2582C138.64 16.23 138.641 16.4548 138.656 16.6094C138.796 18.026 138.683 19.5012 138.683 20.9225C138.683 22.4693 138.683 24.016 138.683 25.5627C138.683 26.4404 138.807 27.3086 138.865 28.1844C138.933 29.1977 138.965 30.2252 138.973 31.2403C138.979 32.0033 138.973 32.7665 138.973 33.5295C138.973 33.8864 138.989 33.8191 138.683 33.8191" stroke="black" stroke-linecap="round"/>
<path d="M136.996 33.9151C137.433 33.9151 137.884 33.8812 138.315 33.9634C138.731 34.0426 139.158 34.0006 139.575 34.084C139.939 34.1568 140.293 34.2046 140.663 34.2046" stroke="black" stroke-linecap="round"/>
<path d="M149.636 22.0453C148.769 22.0453 147.959 22.1295 147.197 22.5841C146.355 23.0865 145.639 23.6795 145.304 24.6295C145.146 25.0809 145.099 25.6085 145.034 26.0824C144.947 26.7091 144.927 27.3745 144.91 28.007C144.893 28.6771 144.932 29.3879 145.036 30.0497C145.126 30.6177 145.296 31.1689 145.497 31.7063C145.632 32.0636 145.765 32.4669 145.999 32.7759C146.527 33.475 147.502 33.9483 148.275 34.3012C149.106 34.6813 150.089 34.7377 150.998 34.6282C152.097 34.4958 153.005 33.5631 153.539 32.6553C154.161 31.5978 154.375 30.2993 154.507 29.0954C154.658 27.725 154.563 26.3401 154.22 25.0128C154.083 24.4796 153.757 24.0202 153.448 23.5786C153.15 23.1524 152.752 22.9508 152.376 22.6136C152.155 22.4154 151.79 22.3255 151.518 22.2142C151.305 22.1271 151.077 22.169 150.869 22.0721C150.659 21.9738 150.377 21.98 150.151 21.9488C149.664 21.8816 149.199 21.9488 148.72 21.9488" stroke="black" stroke-linecap="round"/>
<path d="M160.832 25.182C160.59 25.2729 161.076 25.5419 161.119 25.5546C161.495 25.6649 161.992 25.5743 161.883 25.0855C161.795 24.6888 161.209 24.4685 160.94 24.8281C160.745 25.0877 160.652 25.6162 161.084 25.6162C161.334 25.6162 161.556 25.5663 161.626 25.2972C161.681 25.0835 161.564 24.8292 161.363 24.7289C161.229 24.6618 161.074 24.7091 160.988 24.8281C160.937 24.8982 160.881 25.2376 160.929 25.1391C161.232 24.5152 161.329 23.5342 161.942 23.1286C162.505 22.7563 163.284 22.4316 163.969 22.4316C164.535 22.4316 164.873 22.472 165.282 22.8766C165.989 23.5747 166.43 24.2629 166.43 25.2785C166.43 26.7942 165.255 27.7365 164.047 28.4095C163.442 28.7462 162.78 29.0903 162.232 29.5139C161.796 29.8501 161.253 30.0337 160.891 30.4682C160.577 30.8457 160.543 31.121 160.543 31.5967C160.543 32.0758 160.97 32.4802 161.221 32.8566C161.476 33.2393 161.756 33.5121 162.194 33.6367C162.942 33.8493 163.615 33.9406 164.374 33.626C165.106 33.322 165.752 32.8223 166.285 32.2374C166.884 31.5801 167.1 30.889 167.105 29.9964C167.11 29.1615 167.143 28.3134 167.102 27.4793C167.084 27.1084 167.019 26.7447 167.009 26.3668C167.001 26.0785 166.898 25.7378 166.794 25.4715C166.731 25.308 166.609 25.1855 166.572 25.0185C166.561 24.9695 166.455 24.9774 166.44 25.0211C166.363 25.2542 166.425 25.6319 166.44 25.8682C166.48 26.4722 166.559 27.0716 166.572 27.6776C166.583 28.186 166.569 28.6827 166.647 29.1868C166.752 29.8647 166.815 30.5877 167.116 31.2134C167.3 31.5965 167.341 32.0503 167.491 32.4572C167.67 32.9413 167.697 33.8554 168.239 34.1058C168.833 34.3799 169.519 34.1554 170 33.7707" stroke="black" stroke-linecap="round"/>
<path d="M182.304 24.748C182.229 24.2619 181.838 23.7287 181.561 23.3433C181.363 23.0675 181.065 22.8014 180.76 22.649C179.987 22.2626 179.194 22.2564 178.347 22.3247C177.29 22.4099 176.193 22.6372 175.358 23.3272C174.048 24.4108 174.074 26.3158 174.074 27.8629C174.074 28.78 174.147 29.7576 174.366 30.6534C174.495 31.1795 174.77 31.6517 175.021 32.1278C175.569 33.169 176.772 34.1155 177.999 33.9318C178.487 33.8588 178.989 33.689 179.465 33.5512C179.721 33.4772 179.94 33.3586 180.178 33.2456C180.364 33.1574 180.571 33.1322 180.757 33.0445C181.219 32.8274 181.353 32.3395 181.508 31.8865C181.725 31.2515 181.687 30.6059 181.8 29.9591C181.921 29.2667 181.903 28.5491 181.918 27.8468C181.924 27.5412 182.041 27.2492 182.06 26.9461C182.082 26.583 182.13 26.2152 182.183 25.8551C182.238 25.4827 182.202 25.0966 182.207 24.7212C182.213 24.3213 182.256 23.9232 182.256 23.5202C182.256 22.3291 182.063 21.1429 182.063 19.9523C182.063 19.3122 182.049 18.6703 182.063 18.0303C182.072 17.6014 182.304 17.1876 182.304 16.7624C182.304 16.5047 181.864 16.4366 181.666 16.4112C181.325 16.3675 180.982 16.3034 180.658 16.186C180.284 16.0507 179.935 15.9943 179.553 15.918" stroke="black" stroke-linecap="round"/>
<path d="M182.014 26.6289C181.708 26.6649 181.821 27.7215 181.821 27.8995C181.821 28.7225 181.821 29.5454 181.821 30.3684C181.821 31.2563 181.966 32.1204 181.966 33.0088C181.966 33.2333 181.957 33.4599 181.966 33.6843C181.974 33.8874 183.589 33.5771 183.941 33.5771C184.22 33.5771 184.502 33.5447 184.764 33.6468C184.943 33.7164 185.149 33.8666 185.343 33.8666" stroke="black" stroke-linecap="round"/>
<path d="M195.863 28.5596C195.863 29.4775 195.637 30.3815 195.619 31.3045C195.604 32.0256 195.477 32.7284 195.477 33.4517C195.477 33.9283 195.525 35.357 195.525 34.8805" stroke="black" stroke-linecap="round"/>
<path d="M195.861 32.0331C195.969 32.3821 196.344 32.7515 196.561 33.041C196.882 33.4685 197.409 33.7307 197.856 34.006C198.401 34.3419 198.908 34.5296 199.51 34.7137C200.2 34.925 200.913 35.1625 201.641 35.1694C202.463 35.1772 203.271 35.2304 204.061 34.9764C204.635 34.7919 205.137 34.5204 205.64 34.1937C206.741 33.479 206.814 32.1009 206.814 30.9099C206.814 29.6777 206.593 28.5959 205.967 27.5189C205.263 26.3067 203.533 25.9471 202.322 25.5299C200.683 24.9654 198.941 24.2986 197.623 23.1521C196.308 22.0089 196.498 19.9337 197.931 18.9596C198.607 18.4995 199.443 18.3517 200.228 18.1608C200.613 18.0671 200.981 18.0402 201.378 18.0402C201.979 18.0402 202.429 18.2067 202.992 18.4369C203.764 18.7532 204.511 19.1537 205.244 19.536C205.592 19.7176 205.934 19.9206 206.214 20.2008C206.443 20.4303 206.608 20.7864 206.855 20.9916C206.953 21.0734 206.863 20.736 206.863 20.6082C206.863 20.3509 206.863 20.0935 206.863 19.8362C206.863 19.4415 206.894 19.0318 206.836 18.6406C206.784 18.2913 206.766 17.9584 206.766 17.6059C206.766 17.4732 206.792 17.3775 206.67 17.3164" stroke="black" stroke-linecap="round"/>
<path d="M209.758 17.9438C209.937 17.9276 210.102 17.8521 210.283 17.8473C210.663 17.8373 211.019 17.818 211.396 17.7535C212.196 17.6162 213.018 17.8473 213.827 17.8473C214.789 17.8473 215.793 18.0878 216.754 17.8956" stroke="black" stroke-linecap="round"/>
<path d="M212.51 17.9443C212.788 18 212.98 18.2835 213.142 18.4939C213.453 18.896 213.685 19.3358 213.931 19.7779C214.392 20.6084 214.804 21.4556 215.223 22.3084C215.575 23.0264 215.941 23.737 216.252 24.4744C216.507 25.0796 216.886 25.6671 217.083 26.2918C217.399 27.2949 217.713 28.2924 218.069 29.2834C218.369 30.1155 218.552 31.0404 219.04 31.7871C219.131 31.9267 219.268 32.0466 219.313 32.2107C219.361 32.3828 219.401 32.5594 219.469 32.7253C219.535 32.8881 219.551 33.2619 219.747 33.24C219.832 33.2306 219.907 33.0688 219.946 33.0122C220.128 32.7451 220.312 32.4807 220.498 32.216C220.852 31.7117 221.152 31.1616 221.522 30.672C222.131 29.8662 222.684 29.0054 223.216 28.1468C224.006 26.8715 224.488 25.4414 225.103 24.083C225.497 23.2148 225.87 22.3474 226.288 21.4881C226.59 20.8678 226.634 20.2031 226.84 19.5581C226.955 19.2017 226.98 18.8124 227.178 18.4858C227.304 18.2788 227.27 18.1987 226.996 18.1749C226.438 18.1263 225.883 18.0891 225.323 18.0891C224.71 18.0891 224.097 18.0891 223.484 18.0891C223.418 18.0891 223.029 18.0446 223.275 18.0408C224.046 18.0292 224.846 17.9856 225.613 18.0623C226.057 18.1067 226.493 18.2018 226.937 18.2446C227.221 18.2719 227.475 18.4215 227.757 18.4268C228.162 18.4345 228.557 18.4751 228.963 18.4751" stroke="black" stroke-linecap="round"/>
<path d="M248.263 17.7988C248.223 18.7631 248.174 19.731 248.239 20.6966C248.267 21.1155 248.227 21.5516 248.311 21.9645C248.344 22.1243 248.408 22.2659 248.408 22.431" stroke="black" stroke-linecap="round"/>
<path d="M244.355 27.4015C244.406 27.2995 244.746 27.3526 244.833 27.3533C245.312 27.3571 245.782 27.4078 246.248 27.5195C246.707 27.6293 247.166 27.7293 247.637 27.7768C248.421 27.8562 249.213 27.8358 250.001 27.8358" stroke="black" stroke-linecap="round"/>
<path d="M247.877 27.5459C247.648 27.7745 247.78 28.5924 247.78 28.8969C247.78 29.55 247.791 30.1953 247.853 30.8458C247.898 31.3287 247.859 31.8451 247.928 32.3228C247.963 32.5722 247.937 32.867 248.021 33.1055C248.206 33.6277 248.268 34.2564 248.356 34.8051C248.44 35.3215 248.299 34.941 248.214 34.6871" stroke="black" stroke-linecap="round"/>
<path d="M248.07 20.0668C247.593 19.4254 246.979 19.1315 246.255 18.8096C245.892 18.6484 245.518 18.4441 245.142 18.319C244.76 18.1915 244.352 18.1579 243.971 18.0376C243.38 17.8509 242.781 17.6426 242.153 17.6086C241.231 17.5588 240.277 17.3232 239.363 17.5792C238.826 17.7296 238.286 18.0146 237.803 18.2922C237.028 18.7371 236.244 19.1626 235.46 19.595C234.258 20.2579 233.363 21.3926 233.144 22.7581C233.024 23.5037 233.033 24.304 233.018 25.0581C232.998 26.0503 233.118 26.9926 233.256 27.9693C233.471 29.4825 233.853 31.3219 234.975 32.4433C236.18 33.6488 238.182 33.8184 239.773 33.8184C241.329 33.8184 242.836 33.8171 244.354 33.4324C245.079 33.2489 245.824 32.9327 246.392 32.446C246.855 32.049 247.206 31.5935 247.635 31.1646" stroke="black" stroke-linecap="round"/>
<path d="M62.8942 16.7507C64.1156 16.627 65.3716 16.7025 66.5988 16.7025C67.2815 16.7025 67.9641 16.7025 68.6468 16.7025C70.747 16.7025 72.8664 16.6845 74.9463 16.992C76.8503 17.2734 78.6226 17.7301 80.1306 19.0025C80.5068 19.3198 80.7202 19.7833 80.9643 20.2007C81.2078 20.617 81.4345 21.0371 81.6264 21.4794C81.7857 21.8462 82.0911 22.1697 82.2135 22.5462C82.4844 23.3798 82.5491 24.2831 82.5754 25.1518C82.6174 26.5376 82.2388 27.9282 81.3477 29.0093C80.6421 29.8652 79.9161 30.8797 78.9646 31.4835C78.0298 32.0767 76.9056 32.3655 75.847 32.6469C74.5548 32.9904 73.1936 32.8327 71.8743 32.8694C68.7939 32.9549 65.7781 33.6387 62.7012 33.6387" stroke="white" stroke-linecap="round"/>
<path d="M67.0434 16.7988C67.0434 19.3455 67.4383 21.9048 67.2739 24.452C67.2337 25.0761 67.12 25.6909 67.0809 26.3151C67.0535 26.7544 67.0233 27.2016 66.9362 27.6339C66.8132 28.2441 66.7539 28.8598 66.7539 29.4836C66.7539 30.1645 66.7539 30.8453 66.7539 31.5262C66.7539 31.9784 66.8504 32.41 66.8504 32.8665" stroke="white" stroke-linecap="round"/>
<path d="M97.2486 29.6824C97.2486 29.0562 97.1399 28.4475 97.1092 27.8247C97.0769 27.1723 97.0723 26.5207 97.0073 25.8705C96.9304 25.1015 96.6273 24.1882 96.2138 23.5384C95.7227 22.7666 95.0445 21.9403 94.2811 21.4314C93.7609 21.0846 93.0754 20.8015 92.4422 20.8578C92.0225 20.8951 91.6225 21.0503 91.2171 21.1526C90.7603 21.2679 90.3325 21.4344 89.9036 21.6244C89.1975 21.9373 88.4155 22.3767 88.0486 23.0988C87.3186 24.5357 87.6173 26.1143 87.4911 27.6451C87.4267 28.4252 87.316 29.4173 87.609 30.1649C87.8594 30.8038 88.3308 31.3949 88.7536 31.9234C89.2909 32.595 90.1294 32.8424 90.9008 33.135C91.5105 33.3663 92.197 33.6873 92.8577 33.6873C93.1452 33.6873 93.5355 33.7264 93.7959 33.5827C94.1095 33.4097 94.5313 33.1369 94.7636 32.8616C95.3481 32.1689 95.8952 31.3726 96.6695 30.8994C97.2001 30.5752 97.2003 29.803 97.2003 29.2481" stroke="white" stroke-linecap="round"/>
<path d="M100.869 21.2383C99.9793 21.2383 102.643 21.372 103.528 21.4581C104.25 21.5283 104.969 21.5278 105.694 21.5278" stroke="white" stroke-linecap="round"/>
<path d="M103.039 21.4795C103.039 22.2027 103.165 22.858 103.353 23.5543C103.597 24.4585 103.72 25.3842 104.004 26.2778C104.217 26.9464 104.341 27.6425 104.583 28.3017C104.732 28.7068 104.941 29.0797 105.103 29.4785C105.434 30.2952 105.592 31.1803 105.789 32.0358C105.904 32.5342 105.917 32.0828 105.988 31.8187C106.23 30.9171 106.582 30.0761 106.915 29.2078C107.266 28.2946 107.598 27.3756 107.961 26.4681C108.128 26.0499 108.23 25.6081 108.395 25.1895C108.515 24.884 108.671 24.5967 108.76 24.2781C108.844 23.9756 109.007 23.7067 109.124 23.4149C109.171 23.298 109.607 22.2298 109.66 22.273C109.786 22.3756 109.836 22.6011 109.88 22.7448C110.005 23.1498 110.125 23.5588 110.229 23.9698C110.457 24.8747 110.602 25.7625 110.735 26.6853C110.848 27.4643 111.033 28.3396 111.435 29.0308C111.576 29.2744 111.721 29.5093 111.832 29.768C111.961 30.0706 112.036 30.3991 112.183 30.6928C112.307 30.9409 112.367 31.207 112.459 31.4675C112.54 31.6994 112.552 31.9945 112.668 32.2101C112.81 32.4731 112.888 31.9444 112.92 31.8535C113.104 31.3355 113.301 30.8319 113.472 30.3095C113.653 29.7581 113.662 29.1817 113.802 28.6234C113.892 28.2607 113.996 27.9059 114.062 27.5377C114.133 27.1416 114.237 26.7267 114.381 26.3502C114.547 25.9128 114.595 25.4414 114.764 25.0072C114.991 24.4227 115.158 23.8171 115.416 23.2433C115.512 23.0282 115.61 22.8163 115.702 22.6C115.818 22.3285 116.067 22.0798 116.067 21.769" stroke="white" stroke-linecap="round"/>
<path d="M116.02 21.7688C115.677 21.7688 115.328 21.7913 114.988 21.7661C114.741 21.7478 114.518 21.624 114.264 21.624C114.086 21.624 114.091 21.624 114.304 21.624C114.773 21.624 115.256 21.5755 115.709 21.7205C115.963 21.8019 116.231 21.9566 116.502 21.9618C116.774 21.9669 117.039 22.01 117.312 22.01C117.419 22.01 117.54 21.9864 117.612 22.0583" stroke="white" stroke-linecap="round"/>
<path d="M120.217 21.3828C121.013 21.4876 121.716 21.7991 122.544 21.6938C122.865 21.6529 123.181 21.5705 123.503 21.5383C123.522 21.5364 123.495 21.5748 123.487 21.5919C123.434 21.7145 123.39 21.8407 123.356 21.9699C123.265 22.3099 123.195 22.6755 123.163 23.026C123.068 24.0724 122.988 25.1208 122.897 26.1677C122.793 27.3742 122.822 28.6158 122.822 29.8268C122.822 30.631 122.822 31.4352 122.822 32.2394" stroke="white" stroke-linecap="round"/>
<path d="M120.121 33.0602C121.573 33.0602 123.069 32.5064 124.512 32.8672" stroke="white" stroke-linecap="round"/>
<path d="M123.161 25.4842C123.032 24.9022 123.79 24.3527 124.177 23.9885C124.668 23.5263 125.18 23.1289 125.743 22.758C126.373 22.3427 126.973 22.081 127.734 22.0209C128.464 21.9633 129.02 22.0242 129.664 22.3854C130.338 22.7635 130.585 23.7215 130.712 24.4281C131.001 26.025 130.921 27.6753 131.31 29.2532C131.521 30.1074 131.601 30.986 131.728 31.8534C131.766 32.1116 131.745 32.37 131.809 32.6255C131.834 32.7248 131.87 32.7702 131.75 32.7702" stroke="white" stroke-linecap="round"/>
<path d="M128.42 32.7704C130.03 32.7084 131.65 32.3994 133.197 32.9151" stroke="white" stroke-linecap="round"/>
<path d="M134.547 14.8213C134.769 14.8324 134.963 14.9268 135.15 15.0411C135.537 15.2768 135.932 15.512 136.372 15.6335C136.689 15.7209 136.875 15.6792 137.144 15.4995C137.242 15.4341 137.32 15.2757 137.442 15.2582C137.64 15.23 137.641 15.4548 137.656 15.6094C137.796 17.026 137.683 18.5012 137.683 19.9225C137.683 21.4693 137.683 23.016 137.683 24.5627C137.683 25.4404 137.807 26.3086 137.865 27.1844C137.933 28.1977 137.965 29.2252 137.973 30.2403C137.979 31.0033 137.973 31.7665 137.973 32.5295C137.973 32.8864 137.989 32.8191 137.683 32.8191" stroke="white" stroke-linecap="round"/>
<path d="M135.996 32.9151C136.433 32.9151 136.884 32.8812 137.315 32.9634C137.731 33.0426 138.158 33.0006 138.575 33.084C138.939 33.1568 139.293 33.2046 139.663 33.2046" stroke="white" stroke-linecap="round"/>
<path d="M148.636 21.0453C147.769 21.0453 146.959 21.1295 146.197 21.5841C145.355 22.0865 144.639 22.6795 144.304 23.6295C144.146 24.0809 144.099 24.6085 144.034 25.0824C143.947 25.7091 143.927 26.3745 143.91 27.007C143.893 27.6771 143.932 28.3879 144.036 29.0497C144.126 29.6177 144.296 30.1689 144.497 30.7063C144.632 31.0636 144.765 31.4669 144.999 31.7759C145.527 32.475 146.502 32.9483 147.275 33.3012C148.106 33.6813 149.089 33.7377 149.998 33.6282C151.097 33.4958 152.005 32.5631 152.539 31.6553C153.161 30.5978 153.375 29.2993 153.507 28.0954C153.658 26.725 153.563 25.3401 153.22 24.0128C153.083 23.4796 152.757 23.0202 152.448 22.5786C152.15 22.1524 151.752 21.9508 151.376 21.6136C151.155 21.4154 150.79 21.3255 150.518 21.2142C150.305 21.1271 150.077 21.169 149.869 21.0721C149.659 20.9738 149.377 20.98 149.151 20.9488C148.664 20.8816 148.199 20.9488 147.72 20.9488" stroke="white" stroke-linecap="round"/>
<path d="M159.832 24.182C159.59 24.2729 160.076 24.5419 160.119 24.5546C160.495 24.6649 160.992 24.5743 160.883 24.0855C160.795 23.6888 160.209 23.4685 159.94 23.8281C159.745 24.0877 159.652 24.6162 160.084 24.6162C160.334 24.6162 160.556 24.5663 160.626 24.2972C160.681 24.0835 160.564 23.8292 160.363 23.7289C160.229 23.6618 160.074 23.7091 159.988 23.8281C159.937 23.8982 159.881 24.2376 159.929 24.1391C160.232 23.5152 160.329 22.5342 160.942 22.1286C161.505 21.7563 162.284 21.4316 162.969 21.4316C163.535 21.4316 163.873 21.472 164.282 21.8766C164.989 22.5747 165.43 23.2629 165.43 24.2785C165.43 25.7942 164.255 26.7365 163.047 27.4095C162.442 27.7462 161.78 28.0903 161.232 28.5139C160.796 28.8501 160.253 29.0337 159.891 29.4682C159.577 29.8457 159.543 30.121 159.543 30.5967C159.543 31.0758 159.97 31.4802 160.221 31.8566C160.476 32.2393 160.756 32.5121 161.194 32.6367C161.942 32.8493 162.615 32.9406 163.374 32.626C164.106 32.322 164.752 31.8223 165.285 31.2374C165.884 30.5801 166.1 29.889 166.105 28.9964C166.11 28.1615 166.143 27.3134 166.102 26.4793C166.084 26.1084 166.019 25.7447 166.009 25.3668C166.001 25.0785 165.898 24.7378 165.794 24.4715C165.731 24.308 165.609 24.1855 165.572 24.0185C165.561 23.9695 165.455 23.9774 165.44 24.0211C165.363 24.2542 165.425 24.6319 165.44 24.8682C165.48 25.4722 165.559 26.0716 165.572 26.6776C165.583 27.186 165.569 27.6827 165.647 28.1868C165.752 28.8647 165.815 29.5877 166.116 30.2134C166.3 30.5965 166.341 31.0503 166.491 31.4572C166.67 31.9413 166.697 32.8554 167.239 33.1058C167.833 33.3799 168.519 33.1554 169 32.7707" stroke="white" stroke-linecap="round"/>
<path d="M181.304 23.748C181.229 23.2619 180.838 22.7287 180.561 22.3433C180.363 22.0675 180.065 21.8014 179.76 21.649C178.987 21.2626 178.194 21.2564 177.347 21.3247C176.29 21.4099 175.193 21.6372 174.358 22.3272C173.048 23.4108 173.074 25.3158 173.074 26.8629C173.074 27.78 173.147 28.7576 173.366 29.6534C173.495 30.1795 173.77 30.6517 174.021 31.1278C174.569 32.169 175.772 33.1155 176.999 32.9318C177.487 32.8588 177.989 32.689 178.465 32.5512C178.721 32.4772 178.94 32.3586 179.178 32.2456C179.364 32.1574 179.571 32.1322 179.757 32.0445C180.219 31.8274 180.353 31.3395 180.508 30.8865C180.725 30.2515 180.687 29.6059 180.8 28.9591C180.921 28.2667 180.903 27.5491 180.918 26.8468C180.924 26.5412 181.041 26.2492 181.06 25.9461C181.082 25.583 181.13 25.2152 181.183 24.8551C181.238 24.4827 181.202 24.0966 181.207 23.7212C181.213 23.3213 181.256 22.9232 181.256 22.5202C181.256 21.3291 181.063 20.1429 181.063 18.9523C181.063 18.3122 181.049 17.6703 181.063 17.0303C181.072 16.6014 181.304 16.1876 181.304 15.7624C181.304 15.5047 180.864 15.4366 180.666 15.4112C180.325 15.3675 179.982 15.3034 179.658 15.186C179.284 15.0507 178.935 14.9943 178.553 14.918" stroke="white" stroke-linecap="round"/>
<path d="M181.014 25.6289C180.708 25.6649 180.821 26.7215 180.821 26.8995C180.821 27.7225 180.821 28.5454 180.821 29.3684C180.821 30.2563 180.966 31.1204 180.966 32.0088C180.966 32.2333 180.957 32.4599 180.966 32.6843C180.974 32.8874 182.589 32.5771 182.941 32.5771C183.22 32.5771 183.502 32.5447 183.764 32.6468C183.943 32.7164 184.149 32.8666 184.343 32.8666" stroke="white" stroke-linecap="round"/>
<path d="M194.863 27.5596C194.863 28.4775 194.637 29.3815 194.619 30.3045C194.604 31.0256 194.477 31.7284 194.477 32.4517C194.477 32.9283 194.525 34.357 194.525 33.8805" stroke="white" stroke-linecap="round"/>
<path d="M194.861 31.0331C194.969 31.3821 195.344 31.7515 195.561 32.041C195.882 32.4685 196.409 32.7307 196.856 33.006C197.401 33.3419 197.908 33.5296 198.51 33.7137C199.2 33.925 199.913 34.1625 200.641 34.1694C201.463 34.1772 202.271 34.2304 203.061 33.9764C203.635 33.7919 204.137 33.5204 204.64 33.1937C205.741 32.479 205.814 31.1009 205.814 29.9099C205.814 28.6777 205.593 27.5959 204.967 26.5189C204.263 25.3067 202.533 24.9471 201.322 24.5299C199.683 23.9654 197.941 23.2986 196.623 22.1521C195.308 21.0089 195.498 18.9337 196.931 17.9596C197.607 17.4995 198.443 17.3517 199.228 17.1608C199.613 17.0671 199.981 17.0402 200.378 17.0402C200.979 17.0402 201.429 17.2067 201.992 17.4369C202.764 17.7532 203.511 18.1537 204.244 18.536C204.592 18.7176 204.934 18.9206 205.214 19.2008C205.443 19.4303 205.608 19.7864 205.855 19.9916C205.953 20.0734 205.863 19.736 205.863 19.6082C205.863 19.3509 205.863 19.0935 205.863 18.8362C205.863 18.4415 205.894 18.0318 205.836 17.6406C205.784 17.2913 205.766 16.9584 205.766 16.6059C205.766 16.4732 205.792 16.3775 205.67 16.3164" stroke="white" stroke-linecap="round"/>
<path d="M208.758 16.9438C208.937 16.9276 209.102 16.8521 209.283 16.8473C209.663 16.8373 210.019 16.818 210.396 16.7535C211.196 16.6162 212.018 16.8473 212.827 16.8473C213.789 16.8473 214.793 17.0878 215.754 16.8956" stroke="white" stroke-linecap="round"/>
<path d="M211.51 16.9443C211.788 17 211.98 17.2835 212.142 17.4939C212.453 17.896 212.685 18.3358 212.931 18.7779C213.392 19.6084 213.804 20.4556 214.223 21.3084C214.575 22.0264 214.941 22.737 215.252 23.4744C215.507 24.0796 215.886 24.6671 216.083 25.2918C216.399 26.2949 216.713 27.2924 217.069 28.2834C217.369 29.1155 217.552 30.0404 218.04 30.7871C218.131 30.9267 218.268 31.0466 218.313 31.2107C218.361 31.3828 218.401 31.5594 218.469 31.7253C218.535 31.8881 218.551 32.2619 218.747 32.24C218.832 32.2306 218.907 32.0688 218.946 32.0122C219.128 31.7451 219.312 31.4807 219.498 31.216C219.852 30.7117 220.152 30.1616 220.522 29.672C221.131 28.8662 221.684 28.0054 222.216 27.1468C223.006 25.8715 223.488 24.4414 224.103 23.083C224.497 22.2148 224.87 21.3474 225.288 20.4881C225.59 19.8678 225.634 19.2031 225.84 18.5581C225.955 18.2017 225.98 17.8124 226.178 17.4858C226.304 17.2788 226.27 17.1987 225.996 17.1749C225.438 17.1263 224.883 17.0891 224.323 17.0891C223.71 17.0891 223.097 17.0891 222.484 17.0891C222.418 17.0891 222.029 17.0446 222.275 17.0408C223.046 17.0292 223.846 16.9856 224.613 17.0623C225.057 17.1067 225.493 17.2018 225.937 17.2446C226.221 17.2719 226.475 17.4215 226.757 17.4268C227.162 17.4345 227.557 17.4751 227.963 17.4751" stroke="white" stroke-linecap="round"/>
<path d="M247.263 16.7988C247.223 17.7631 247.174 18.731 247.239 19.6966C247.267 20.1155 247.227 20.5516 247.311 20.9645C247.344 21.1243 247.408 21.2659 247.408 21.431" stroke="white" stroke-linecap="round"/>
<path d="M243.355 26.4015C243.406 26.2995 243.746 26.3526 243.833 26.3533C244.312 26.3571 244.782 26.4078 245.248 26.5195C245.707 26.6293 246.166 26.7293 246.637 26.7768C247.421 26.8562 248.213 26.8358 249.001 26.8358" stroke="white" stroke-linecap="round"/>
<path d="M246.877 26.5459C246.648 26.7745 246.78 27.5924 246.78 27.8969C246.78 28.55 246.791 29.1953 246.853 29.8458C246.898 30.3287 246.859 30.8451 246.928 31.3228C246.963 31.5722 246.937 31.867 247.021 32.1055C247.206 32.6277 247.268 33.2564 247.356 33.8051C247.44 34.3215 247.299 33.941 247.214 33.6871" stroke="white" stroke-linecap="round"/>
<path d="M247.07 19.0668C246.593 18.4254 245.979 18.1315 245.255 17.8096C244.892 17.6484 244.518 17.4441 244.142 17.319C243.76 17.1915 243.352 17.1579 242.971 17.0376C242.38 16.8509 241.781 16.6426 241.153 16.6086C240.231 16.5588 239.277 16.3232 238.363 16.5792C237.826 16.7296 237.286 17.0146 236.803 17.2922C236.028 17.7371 235.244 18.1626 234.46 18.595C233.258 19.2579 232.363 20.3926 232.144 21.7581C232.024 22.5037 232.033 23.304 232.018 24.0581C231.998 25.0503 232.118 25.9926 232.256 26.9693C232.471 28.4825 232.853 30.3219 233.975 31.4433C235.18 32.6488 237.182 32.8184 238.773 32.8184C240.329 32.8184 241.836 32.8171 243.354 32.4324C244.079 32.2489 244.824 31.9327 245.392 31.446C245.855 31.049 246.206 30.5935 246.635 30.1646" stroke="white" stroke-linecap="round"/>
</g>
<defs>
<filter id="filter0_d_28_278" x="0" y="0" width="276" height="51" filterUnits="userSpaceOnUse" color-interpolation-filters="sRGB">
<feFlood flood-opacity="0" result="BackgroundImageFix"/>
<feColorMatrix in="SourceAlpha" type="matrix" values="0 0 0 0 0 0 0 0 0 0 0 0 0 0 0 0 0 0 127 0" result="hardAlpha"/>
<feOffset dx="1" dy="1"/>
<feComposite in2="hardAlpha" operator="out"/>
<feColorMatrix type="matrix" values="0 0 0 0 1 0 0 0 0 1 0 0 0 0 1 0 0 0 1 0"/>
<feBlend mode="normal" in2="BackgroundImageFix" result="effect1_dropShadow_28_278"/>
<feBlend mode="normal" in="SourceGraphic" in2="effect1_dropShadow_28_278" result="shape"/>
</filter>
</defs>
</svg>
