<svg width="207" height="207" viewBox="0 0 207 207" fill="none" xmlns="http://www.w3.org/2000/svg">
<path d="M58.8301 117.519C61.1746 110.15 65.5439 103.449 70.6301 97.675C75.8655 91.7321 83.1414 84.274 90.7015 81.322C100.188 77.6179 111.539 77.1353 121.586 77.2242C129.349 77.2929 136.949 82.0846 141.847 87.9998C147.105 94.3481 147.932 103.574 153.078 110.006M60.1953 118.885C63.3208 119.058 65.7513 121.858 68.4288 123.248C76.0385 127.199 84.7971 130.558 92.9773 133.075C103.881 136.43 116.036 134.661 126.404 130.419C135.129 126.85 143.184 120.583 149.663 114.104M103.904 82.688C103.708 82.6934 103.514 82.7014 103.322 82.712M103.322 82.712C97.0048 83.0603 92.9659 86.194 91.3074 92.5909C89.153 100.901 92.8337 108.992 96.0881 116.381C101.06 127.667 112.083 124.447 118.778 115.318C123.513 108.861 124.375 94.8212 119.46 88.1516C117.025 84.847 113.187 82.3789 108.988 82.0429C106.149 81.8158 104.643 81.9385 103.322 82.712ZM103.322 82.712C102.237 83.3474 101.277 84.4221 99.8064 86.1028" stroke="white" stroke-width="14" stroke-linecap="round"/>
<path d="M53.7207 112.274C56.0652 104.906 60.4345 98.2038 65.5207 92.4303C70.7562 86.4873 78.0321 79.0292 85.5921 76.0772C95.0782 72.3731 106.429 71.8906 116.477 71.9795C124.239 72.0482 131.84 76.8399 136.738 82.755C141.995 89.1034 142.823 98.3288 147.969 104.761M55.0859 113.64C58.2114 113.814 60.6419 116.613 63.3194 118.003C70.9292 121.955 79.6878 125.313 87.8679 127.83C98.7713 131.185 110.927 129.416 121.295 125.174C130.019 121.605 138.075 115.338 144.553 108.859M98.7948 77.4432C98.5986 77.4487 98.4044 77.4567 98.2124 77.4673M98.2124 77.4673C91.8954 77.8155 87.8565 80.9493 86.198 87.3461C84.0436 95.656 87.7243 103.747 90.9787 111.136C95.9502 122.422 106.974 119.202 113.668 110.073C118.404 103.616 119.266 89.5765 114.351 82.9069C111.916 79.6022 108.078 77.1341 103.879 76.7982C101.04 76.571 99.5332 76.6937 98.2124 77.4673ZM98.2124 77.4673C97.1274 78.1027 96.1677 79.1773 94.6971 80.858" stroke="#938FFF" stroke-width="14" stroke-linecap="round"/>
</svg>
