<svg width="207" height="207" viewBox="0 0 207 207" fill="none" xmlns="http://www.w3.org/2000/svg">
<path d="M61.7168 109.566C64.5483 103.525 70.3315 99.1683 75.0724 94.6924C80.7838 89.3003 86.2987 84.4708 92.7535 80.0467C99.3125 75.5512 107.127 72.6859 115.139 72.6859C126.265 72.6859 134.272 78.6838 141.168 87.4075C144.171 91.2071 147.586 94.6724 149.135 99.3213M63.7656 108.2C68.9681 114.558 72.7166 119.782 80.0049 124.059C86.9518 128.137 95.2993 127.323 103.074 127.323C115.048 127.323 126.296 122.286 135.78 115.105C141.079 111.093 142.934 105.892 146.404 100.687M108.157 76.7837C93.0425 79.3028 87.3312 96.3065 88.8828 109.566C89.7494 116.972 93.711 121.072 100.948 121.707C106.364 122.182 112.094 115.677 114.304 111.311C116.766 106.448 116.993 99.2219 115.67 94.0094C114.804 90.598 113.206 84.8407 109.523 83.6133M143.21 49.8975C140.861 50.2889 138.824 53.199 137.519 54.7541C127.026 67.2505 118.51 81.1708 110.2 95.1624C102.786 107.647 94.1342 119.251 86.9039 131.777C83.1915 138.208 79.2543 144.467 75.5972 150.937C73.5016 154.645 71.4904 158.635 68.7676 161.903" stroke="white" stroke-width="14" stroke-linecap="round"/>
<path d="M57.666 104.566C60.4975 98.5251 66.2807 94.1683 71.0216 89.6924C76.733 84.3003 82.2479 79.4708 88.7027 75.0467C95.2617 70.5512 103.077 67.6859 111.089 67.6859C122.215 67.6859 130.221 73.6838 137.117 82.4075C140.12 86.2071 143.535 89.6724 145.085 94.3213M59.7148 103.2C64.9173 109.558 68.6658 114.782 75.9541 119.059C82.901 123.137 91.2485 122.323 99.0229 122.323C110.998 122.323 122.245 117.286 131.729 110.105C137.028 106.093 138.883 100.892 142.353 95.6871M104.107 71.7837C88.9917 74.3028 83.2804 91.3065 84.832 104.566C85.6986 111.972 89.6602 116.072 96.8976 116.707C102.313 117.182 108.044 110.677 110.253 106.311C112.715 101.448 112.942 94.2219 111.619 89.0094C110.754 85.598 109.155 79.8407 105.473 78.6133M139.159 44.8975C136.81 45.2889 134.774 48.199 133.468 49.7541C122.975 62.2505 114.459 76.1708 106.15 90.1624C98.7357 102.647 90.0834 114.251 82.8531 126.777C79.1407 133.208 75.2035 139.467 71.5464 145.937C69.4508 149.645 67.4396 153.635 64.7168 156.903" stroke="#4741FF" stroke-width="14" stroke-linecap="round"/>
</svg>
