<svg width="207" height="207" viewBox="0 0 207 207" fill="none" xmlns="http://www.w3.org/2000/svg">
<path d="M71.6055 106.488C72.2794 100.76 96.1227 103.886 100.138 104.287C110.538 105.327 121.235 105.122 131.706 105.122M124.193 86.682C129.165 86.9582 132.489 93.2619 134.741 97.0782C135.392 98.1809 140.755 105.079 139.75 106.336C137.328 109.363 133.88 112.007 131.175 114.835C129.706 116.371 128.928 118.911 127.229 120.147C126.117 120.955 125.305 121.593 124.876 122.879" stroke="#DDDDDD" stroke-width="14" stroke-linecap="round"/>
<path d="M66.9258 103.727C67.5997 97.9987 91.4431 101.125 95.4583 101.526C105.858 102.566 116.555 102.361 127.026 102.361M119.514 83.9211C124.485 84.1973 127.809 90.501 130.061 94.3173C130.712 95.42 136.076 102.318 135.07 103.575C132.649 106.602 129.2 109.246 126.495 112.074C125.026 113.61 124.248 116.15 122.549 117.386C121.437 118.194 120.625 118.832 120.197 120.118" stroke="#FF494C" stroke-width="14" stroke-linecap="round"/>
</svg>
