<svg width="627" height="183" viewBox="0 0 627 183" fill="none" xmlns="http://www.w3.org/2000/svg">
<path d="M599 144.593C569.566 145.064 540.305 146.081 510.918 146.872C437.047 148.863 362.912 149.499 288.94 150.515C212.034 151.571 135.168 153.561 58.2846 154.546C49.2229 154.662 40.2484 154.749 31.2028 154.991C24.3261 155.175 30.4262 152.564 31.9916 150.932C45.278 137.078 46.0186 121.166 61.374 107.698C73.8968 96.7152 103.16 83.6918 134.863 84.6496C143.098 84.8984 147.871 88.4699 152.282 90.9887C159.655 95.1989 167.08 99.395 174.434 103.611C183.399 108.752 182.959 114.553 187.778 120.376C188.32 121.032 189.684 115.145 189.881 114.565C192.216 107.686 198.293 101.475 206.446 95.465C225.868 81.1471 248.452 67.8816 283.353 59.9329C288.985 58.6502 313 53.1862 319.505 55.8181C327.504 59.054 334.088 63.8545 340.54 67.6343C350.271 73.335 357.975 79.2456 361.443 86.1788C364.478 92.2471 364.695 98.5949 368.936 104.556C370.937 107.369 372.06 96.5995 372.157 96.2712C379.15 72.6109 407.821 50.8489 445.778 33.5202C449.632 31.7607 456.166 27.7207 463.131 28.0153C490.947 29.1918 504.72 44.371 511.97 53.8163C521.421 66.128 525.963 79.0539 538.395 90.9331C540.692 93.1282 542.2 95.0254 547.466 96.0488C553.271 97.177 560.458 97.0123 565.608 98.7735C570.93 100.593 578.505 104.609 578.886 107.559L578.899 107.658C579.061 108.901 579.226 110.166 576.454 110.923C563.765 114.389 545.091 115.138 530.507 115.844C497.801 117.428 464.487 116.067 431.645 116.067C430.342 116.067 414.439 116.54 414.818 115.539C416.266 111.71 422.64 107.657 426.518 104.223C429.966 101.169 433.384 98.1064 436.849 95.0532M436.849 95.0532C446.041 86.9542 455.569 78.9222 466.878 71.3043C470.707 68.7247 461.295 76.9225 458.201 79.6729C452.127 85.0715 445.134 90.2569 436.849 95.0532ZM436.849 95.0532C431.447 98.1802 425.496 101.142 418.893 103.889C389.609 116.073 350.681 121.975 310.303 122.851C303.852 122.991 283.883 124.372 278.357 121.933C274.015 120.017 277.496 112.348 277.963 110.228C279.278 104.246 282.237 98.3955 286.376 92.6569C287.599 90.9616 289.247 89.7855 285.982 91.934C276.121 98.4222 262.56 104.253 248.646 109.172C219.491 119.478 185.688 128.61 149.258 133.471C125.965 136.58 102.435 136.585 78.3987 136.585M294.921 90.5439C318.11 88.1463 342.126 88.0416 365.912 88.0416" stroke="white" stroke-width="54.4214" stroke-linecap="round"/>
</svg>
