<svg width="14123" height="496" viewBox="0 0 14123 496" fill="none" xmlns="http://www.w3.org/2000/svg">
<path d="M378.023 186.042C381.2 145.533 347.914 112.351 326.262 81.9352C319.666 72.6692 311.252 63.2745 302.039 56.5423C291.473 48.8205 280.677 40.8226 269.43 34.0748C255.948 25.9852 240.464 18.6341 225.431 14.1037C212.866 10.3169 200.754 8.16055 187.752 6.69255C175.365 5.29403 162.343 6.14049 150.072 8.09677C136.899 10.1968 123.701 12.5514 111.534 18.2773C85.0949 30.7192 62.3934 49.6027 44.8726 72.9638C34.7997 86.3942 25.7658 98.874 19.2846 114.505C14.9862 124.872 9.97592 135.708 7.69981 146.763C5.98666 155.084 5.88633 163.954 6.06155 172.39C6.36976 187.228 6.9918 202.357 9.45508 217.013C11.619 229.888 15.1895 241.799 19.5576 254.03C22.3098 261.736 24.9868 268.958 26.6567 277.004C28.4577 285.681 31.9483 295.202 36.2132 303.021C37.9838 306.267 39.9265 310.355 42.8052 312.773C46.3249 315.729 48.0943 319.996 50.9965 323.5C58.7748 332.89 69.688 341.323 79.4709 348.463C102.459 365.243 131.027 377.235 158.809 383.023C172.362 385.846 184.212 382.717 197.581 381.775C207.073 381.105 218.771 379.075 227.616 375.3C235.363 371.993 243.692 369.57 251.644 366.64C261.261 363.097 270.212 358.829 279.182 353.846C289.819 347.937 299.895 341.143 309.528 333.719C315.369 329.218 320.245 323.619 325.755 318.741C331.015 314.084 336.13 309.55 340.655 304.153C348.753 294.494 354.757 284.901 358.364 272.714C361.415 262.405 364.005 251.955 367.101 241.665C370.815 229.321 373.67 216.318 376.463 203.751C377.972 196.961 378.725 190.866 378.725 183.936" stroke="black" stroke-width="12" stroke-linecap="round"/>
<path d="M249.537 107.406C245.414 106.589 236.529 103.329 232.999 107.211C230.752 109.683 231.262 114.773 231.283 117.782C231.311 121.951 231.352 126.414 235.105 129.055C240.257 132.68 250.473 134.55 256.285 131.785C260.878 129.601 264.886 122.643 263.111 117.548C261.467 112.826 255.276 111.366 251.098 110.293C246.084 109.005 238.913 107.023 234.559 111.073C230.823 114.549 229.535 121.62 230.19 126.441C231.494 136.029 243.194 136.074 249.381 131.2C253.942 127.608 263.31 109.893 250.318 114.311C244.331 116.346 242.404 125.925 243.257 131.473C243.565 133.473 246.966 129.61 248.289 128.08C251.343 124.55 255.491 119.463 256.949 114.896C257.671 112.632 251.606 113.176 250.786 113.296C245.413 114.086 241.089 117.953 238.226 122.385C238.133 122.528 235.072 128.398 236.782 128.197C242.076 127.574 246.919 116.711 248.835 112.789C250.889 108.587 251.188 106.545 248.757 111.931C245.666 118.783 243.156 126.034 243.452 133.657C243.614 137.829 244.57 144.866 248.835 147.115C254.318 150.004 260.215 139.064 262.097 135.803C265.379 130.118 269.353 120.431 266.232 113.725C263.145 107.094 260.38 99.5888 255.856 93.7933C248.149 83.9184 239.065 75.65 226.407 72.6521C218.479 70.7745 210.735 69.8966 202.574 70.6238C190.769 71.6757 177.442 72.6425 166.299 77.0598C158.952 79.9718 151.394 82.9346 146.015 88.9176C138.583 97.1845 134.548 108.306 130.881 118.64C125.366 134.184 126.372 150.775 127.058 167.047C127.774 184.014 129.41 200.479 131.271 217.325C132.25 226.184 135.199 233.751 137.746 242.211C140.173 250.272 140.948 259.127 144.611 266.746C152.06 282.24 162.742 297.989 178.39 306.103C185.195 309.632 194.343 312.59 202.106 312.968C209.977 313.352 218.138 308.694 224.886 305.05C235.121 299.523 245.167 293.506 254.452 286.444C261.5 281.084 266.73 272.419 270.601 264.679" stroke="black" stroke-width="12" stroke-linecap="round"/>
<path d="M672.907 181.127C668.14 180.26 661.776 181.362 658.046 184.598C655.18 187.085 653.124 193.179 654.964 196.807C656.379 199.595 660.859 200.645 663.585 200.981C670.341 201.814 677.201 200.329 679.343 192.985C681.626 185.157 674.192 183.242 667.992 182.999C661.016 182.726 656.864 185.055 655.51 191.971C654.687 196.178 653.818 202.043 655.822 206.052C658.019 210.445 664.17 207.094 666.822 205.155C670.465 202.49 673.469 198.529 673.999 193.921C674.865 186.391 663.502 187.184 658.865 188.382C644.682 192.047 652.832 210.402 664.209 211.318C670.258 211.804 675.354 208.521 678.602 203.594C679.846 201.707 683.243 196.112 679.304 195.169C667.89 192.436 661.498 208.744 670.645 215.491C681.977 223.851 692.892 206.837 691.006 196.651C689.396 187.958 669.186 200.339 666.12 202.697C661.054 206.594 661.699 194.636 661.673 192.361C661.57 183.328 659.577 171.108 663.156 162.56C670.521 144.965 692.426 137.572 709.105 132.72C716.218 130.651 725.142 128.469 732.586 128.469C742.82 128.469 750.846 133.588 758.915 139.351C778.525 153.358 778.576 177.301 773.855 198.914C766.981 230.38 750.035 255.701 732.04 281.762C718.08 301.98 702.768 321.285 689.29 341.832C684.396 349.291 678.659 356.017 673.648 363.324C671.199 366.895 668.74 370.534 665.73 373.661C661.112 378.456 672.393 376.489 675.208 376.703C689.524 377.792 704.084 376.749 718.31 378.731C731.062 380.508 743.839 380.526 756.692 380.526C766.423 380.526 777.404 381.946 787.039 380.37C789.107 380.031 793.231 377.221 794.684 375.884C799.183 371.744 799.171 364.976 800.691 359.462C803.383 349.695 804.455 339.923 806.659 330.091C807.531 326.198 809.03 322.683 809.818 318.74" stroke="black" stroke-width="12" stroke-linecap="round"/>
<path d="M1023.96 131.98C1011.17 133.879 997.996 139.154 988.544 148.441C977.373 159.416 972.233 173.164 968.651 188.305C959.974 224.986 956.532 264.092 962.176 301.501C964.815 318.997 968.255 336.1 976.53 351.896C979.607 357.771 983.396 363.615 987.257 369.02C991.857 375.461 998.863 378.614 1005.71 382.087C1012.69 385.631 1018.81 389.498 1026.93 389.498C1035.73 389.498 1044.5 387.05 1052.98 384.896C1060.66 382.946 1067.93 377.704 1074.28 373.194C1082.78 367.158 1087.79 359.754 1092.07 350.336C1101.83 328.82 1106.52 303.844 1108.21 280.359C1109.52 262.32 1110.31 242.918 1108.21 224.893C1105.48 201.383 1097.74 180.328 1082.24 162.327C1072.57 151.103 1058.92 142.125 1044.87 137.441C1038.62 135.359 1031.98 132.683 1025.37 132.683" stroke="black" stroke-width="12" stroke-linecap="round"/>
<path d="M1263.38 191.66C1260.21 190.263 1256.34 189.715 1252.93 189.32C1247.93 188.741 1247.05 191.697 1246.65 196.185C1246.49 197.973 1245.83 202.126 1247.62 203.44C1251.4 206.212 1260.21 204.522 1264.01 202.816C1269.72 200.243 1273.6 193.478 1273.13 187.213C1272.65 180.703 1265.31 178.972 1259.99 178.905C1249.19 178.77 1246.82 193.12 1249.57 201.373C1253.99 214.612 1268.01 201.727 1269.93 193.688C1270.47 191.446 1271.3 186.926 1268.76 185.497C1265.5 183.659 1261.54 185.854 1259.64 188.618C1257.31 191.993 1254.03 203.857 1260.46 204.571C1265.6 205.143 1270.83 202.527 1274.46 198.993C1275.94 197.553 1278.89 193.114 1275.08 192.479C1265.35 190.856 1261.39 202.451 1260.73 209.993C1260.69 210.443 1260.32 215.52 1260.81 214.908C1264.11 210.783 1266.97 206.488 1269.7 201.958C1272.71 196.952 1278.82 188.507 1269.58 188.189C1266.12 188.069 1262.63 188.112 1259.17 188.15C1256.83 188.175 1253.57 189.223 1251.33 188.696C1250.19 188.428 1250.77 184.259 1250.78 183.703C1250.98 177.357 1252.97 171.991 1256.05 166.462C1262.01 155.747 1269.74 145.75 1278.52 137.208C1288.44 127.548 1301.86 124.888 1314.83 130.733C1324.03 134.878 1332.99 141.561 1341.39 147.115C1347 150.821 1350.33 153.495 1352.24 160.104C1354.87 169.235 1356.83 177.834 1356.76 187.447C1356.65 202.328 1349.82 218.205 1344.83 231.992C1338.78 248.697 1329 263.826 1320.33 279.268C1312.75 292.763 1304.41 305.664 1296.03 318.664C1286.55 333.365 1276.91 348.012 1267.28 362.584C1265.88 364.714 1255.89 376.273 1257.57 378.967C1258.08 379.776 1264.3 379.126 1264.86 379.123C1274.24 379.068 1283.61 378.384 1292.99 378.577C1311.58 378.96 1329.74 383.404 1348.26 384.584C1357.35 385.163 1366.79 385.068 1375.88 384.584C1381.5 384.284 1387.54 383.788 1393 382.205C1396.7 381.129 1399.59 381.493 1399.59 377.485C1399.59 365.974 1400.02 355.085 1402.09 343.706C1403.92 333.6 1405.21 323.407 1405.21 313.125" stroke="black" stroke-width="12" stroke-linecap="round"/>
<path d="M1531.59 360.166C1537.65 344.301 1547.38 331.149 1556.47 316.948C1561.35 309.335 1565.77 301.534 1571.76 294.714C1580.25 285.049 1588.92 275.878 1596.61 265.499C1612.46 244.116 1625.01 221.424 1637.6 198.135C1641.65 190.657 1645.42 182.954 1649.07 175.278C1649.75 173.845 1652.99 166.271 1653.01 166.579C1654.51 188.248 1653.05 210.526 1653.05 232.227C1653.05 247.48 1653.13 262.718 1652.04 277.942C1651.12 290.771 1649.76 303.53 1649.58 316.402C1649.33 334.177 1650.54 352.246 1649.38 369.996C1648.88 377.737 1648.34 385.423 1647.12 393.087C1646.34 398.022 1645.33 403.38 1645.33 408.378C1645.33 417.267 1644.63 426.087 1644.63 434.98C1644.63 437.892 1644.63 440.805 1644.63 443.717C1644.63 448.691 1643.4 446.179 1641.82 443.015" stroke="black" stroke-width="12" stroke-linecap="round"/>
<path d="M1534.4 359.462C1531.77 358.062 1538.03 358.398 1538.37 358.37C1550.58 357.4 1562.76 356.42 1575 355.991C1603.02 355.008 1631.03 355.346 1659.06 355.25C1671.85 355.206 1684.84 354.432 1697.6 353.495C1700.16 353.306 1702.5 352.441 1705.01 352.441" stroke="black" stroke-width="12" stroke-linecap="round"/>
<path d="M1961.98 43.5149C1961.33 42.643 1982.64 41.4256 1984.64 41.4866C1993.98 41.7717 2002.31 44.6227 2011.36 46.5574C2022.3 48.8944 2033.47 49.6308 2044.63 49.7949C2060.2 50.0238 2075.56 51.2374 2091.09 51.7842C2104.74 52.2647 2118.13 52.0279 2131.73 53.3444C2140.37 54.18 2148.44 55.1778 2156.35 58.9613C2164.05 62.6451 2172.57 66.1097 2179.59 70.9751C2186.65 75.8593 2193.19 83.4952 2198.75 90.0101C2204.24 96.4623 2209.99 103.47 2212.63 111.619C2215.43 120.258 2215.28 130.352 2214.54 139.314C2212.74 161.294 2201.44 182.562 2183.42 195.326C2154.14 216.055 2118.5 223.77 2083.13 223.957C2066.45 224.045 2048.24 227.177 2031.92 222.514C2028.59 221.562 2025.08 221.067 2021.81 219.9C2018.52 218.725 2019.67 208.392 2019.55 205.702" stroke="black" stroke-width="12" stroke-linecap="round"/>
<path d="M2020.25 52.6406C2019.1 53.6517 2019.47 56.9292 2019.4 58.1795C2018.93 66.1077 2018.5 74.0324 2018.3 81.9732C2017.88 98.6609 2017.63 115.583 2018.54 132.252C2019.34 146.864 2020.52 161.366 2022.67 175.822C2024.43 187.596 2023.76 200.224 2023.76 212.097C2023.76 223.601 2024.38 235.307 2023.41 246.774C2022.75 254.585 2023.53 262.463 2022.63 270.255C2021.42 280.801 2019.88 291.314 2018.85 301.889C2017.59 314.782 2015.28 327.485 2014.09 340.349C2013.42 347.528 2012.53 354.665 2012.53 361.88C2012.53 367.385 2012.21 368.365 2009.02 364.377" stroke="black" stroke-width="12" stroke-linecap="round"/>
<path d="M1954.96 372.802C1970.85 372.802 1986.74 372.802 2002.62 372.802C2018.08 372.802 2034.14 371.417 2049.51 373.114C2061.87 374.478 2074.27 375.493 2086.72 375.61C2092.7 375.667 2098.64 375.575 2104.59 376.312C2107.54 376.679 2110.24 377.211 2112.93 376.312" stroke="black" stroke-width="12" stroke-linecap="round"/>
<path d="M2305.31 230.275C2309.59 227.8 2313.48 226.414 2318.38 225.361C2333.24 222.164 2348.59 220.96 2363.74 220.29C2386.02 219.304 2408.38 219.744 2430.68 219.744C2445.91 219.744 2461.15 219.744 2476.39 219.744C2479.34 219.744 2489.41 221.863 2489.93 216.74C2491.43 201.731 2481.63 188.501 2475.53 175.667C2469.87 163.763 2463.16 152.133 2453.26 143.175C2448.16 138.562 2441.42 137.074 2434.97 135.335C2422.64 132.013 2410.58 130.877 2397.83 131.434C2383.03 132.08 2368.66 134.568 2356.02 142.707C2344.94 149.841 2335.85 159.023 2330 170.869C2322.66 185.72 2316.94 202.729 2314.2 219.12C2309.62 246.649 2321.85 271.644 2332.38 296.351C2342.91 321.044 2356.79 346.413 2381.53 358.917C2386.84 361.604 2391.89 364.582 2397.99 365.002C2404.14 365.426 2410.18 366.949 2416.32 367.147C2426.11 367.463 2436.3 367.721 2446.04 366.484C2451.94 365.736 2457.89 366.02 2463.64 364.378C2472.55 361.83 2480.47 358.976 2488.76 354.548C2495.5 350.945 2500.93 347.634 2505.57 341.598C2507.86 338.623 2508.64 334.47 2511.03 332.081" stroke="black" stroke-width="12" stroke-linecap="round"/>
<path d="M2590.37 228.169C2602.17 228.169 2613.94 227.014 2625.71 226.219C2639.48 225.288 2652.46 225.701 2666.12 227.311C2681.45 229.12 2697.26 228.169 2712.69 228.169C2722.41 228.169 2732.08 228.279 2741.79 228.716C2746.67 228.935 2752.25 229.495 2757 228.013C2760.99 226.769 2760.17 225.509 2760.43 221.538C2761.1 211.301 2759.04 202.472 2755.75 192.752C2748.81 172.195 2737.99 156.372 2721.35 142.746C2711.85 134.968 2699.44 129.236 2686.95 133.151C2654.27 143.39 2627.18 169.543 2610.88 199.071C2607.02 206.083 2602.18 212.397 2599.81 220.134C2597.74 226.894 2595.05 233.327 2593.88 240.339C2591.36 255.45 2593.13 269.045 2598.4 283.48C2604.46 300.043 2609.66 316.949 2619.54 331.77C2622.96 336.888 2627.45 341.773 2631.95 345.968C2637.53 351.167 2646.33 354.511 2653.17 357.904C2666.07 364.305 2680.51 366.968 2694.75 368.045C2707.96 369.045 2720.31 368.9 2732.9 364.535C2738.72 362.515 2744.47 360.738 2749.9 357.748C2755.99 354.394 2760.38 349.176 2765.74 344.876C2770.12 341.362 2777.83 334.122 2777.83 327.869" stroke="black" stroke-width="12" stroke-linecap="round"/>
<path d="M2829.79 136.191C2834.15 134.793 2835.14 134.537 2839.07 136.776C2846.78 141.168 2856.34 145.621 2865.28 146.567C2872.41 147.321 2881.04 143.51 2887.48 140.911C2890.09 139.856 2893.76 137.047 2896.56 136.971C2899.94 136.88 2893.87 213.679 2893.6 217.87C2891.51 250.05 2894.31 282.352 2891.73 314.527C2888.98 348.74 2886.66 383.626 2886.66 417.971C2886.66 436.531 2885.45 455.609 2888.06 473.906" stroke="black" stroke-width="12" stroke-linecap="round"/>
<path d="M2841.02 482.332C2864.18 482.332 2886.78 483.269 2909.87 485.453C2919.16 486.332 2928.62 485.45 2937.87 486.896C2944.95 488.002 2952.51 489.353 2959.68 489.353" stroke="black" stroke-width="12" stroke-linecap="round"/>
<path d="M2895.08 187.446C2899.11 175.533 2907.89 167.887 2917.47 160.298C2928.25 151.759 2937.74 144.982 2950.86 140.561C2962.54 136.624 2974.1 136.154 2986.2 134.944C2995.3 134.034 3006.07 140.845 3013.97 144.618C3023.19 149.021 3032.97 156.544 3039.91 163.926C3051.54 176.29 3057.87 189.975 3060.39 206.715C3064.11 231.408 3063.85 257.435 3062.77 282.348C3062.25 294.284 3059.43 305.888 3056.18 317.336C3053.48 326.813 3050.91 336.631 3046.03 345.265C3042.32 351.839 3038.29 359.243 3031.29 362.817C3023.16 366.97 3012.45 369.375 3003.52 370.54C2994.68 371.693 2985.59 372.101 2976.68 372.101C2969.56 372.101 2961.76 373.176 2954.99 370.658C2947.88 368.01 2941.66 366.34 2935.1 362.271C2927.74 357.703 2920.26 353.359 2912.91 348.814C2906.98 345.149 2901.32 340.943 2895.51 337.073C2893.56 335.772 2891.86 332.925 2890.17 332.081" stroke="black" stroke-width="12" stroke-linecap="round"/>
<path d="M3246.14 141.809C3227.69 142.895 3213.46 161.916 3203.39 175.471C3193.91 188.215 3187.12 203.585 3181.46 218.339C3178.25 226.722 3174.7 235.953 3174.52 245.019C3174.17 262.455 3173.81 279.702 3179.12 296.507C3183.56 310.533 3191.2 324.811 3200.65 336.137C3209.71 346.983 3219.8 358.791 3233.07 364.534C3239.45 367.294 3246.89 368.488 3253.55 370.541C3261.78 373.077 3270.45 374.687 3278.98 375.845C3293.05 377.758 3307.59 373.698 3320.48 368.2C3339.8 359.961 3354.97 339.003 3363.23 320.496C3369.12 307.304 3371.11 292.598 3373.06 278.408C3375 264.299 3375.97 250.213 3376.03 235.97C3376.1 217.987 3375.71 199.978 3370.02 182.687C3364.91 167.17 3353.48 160.394 3340.06 152.497C3327.78 145.27 3314.42 138.457 3300.51 135.1C3287.84 132.042 3275.66 134.03 3262.91 134.827C3256.79 135.209 3249.97 136.793 3244.03 138.299C3242.28 138.742 3235.72 140.183 3234.9 141.809" stroke="black" stroke-width="12" stroke-linecap="round"/>
<path d="M3584.55 39.302C3595.49 39.302 3606.38 38.2888 3617.32 39.068C3640.68 40.7323 3663.73 44.8447 3687.14 46.3231C3699.4 47.0973 3711.3 47.7273 3723.57 47.7273" stroke="black" stroke-width="12" stroke-linecap="round"/>
<path d="M3663.19 47.0234C3664.76 67.0146 3675.52 86.8287 3684.09 104.518C3696.38 129.876 3707.89 154.969 3717.76 181.399C3728.74 210.828 3741.98 239.13 3751.73 269.046C3757.63 287.161 3764 305.113 3769.87 323.225C3775.8 341.55 3781.88 359.826 3789.45 377.483C3789.72 378.111 3790.39 373.951 3790.43 373.816C3792.26 366.867 3794.65 360.064 3796.59 353.143C3801.36 336.141 3805.18 318.749 3809.5 301.616C3812.55 289.502 3815.74 277.251 3818.31 265.028C3820.58 254.274 3822.46 243.625 3825.92 233.16C3828.41 225.64 3831.22 218.231 3833.88 210.771C3840.53 192.083 3852.02 175.933 3861.49 158.659C3864.95 152.363 3867.9 145.829 3871.79 139.78C3876.34 132.722 3881.76 126.176 3885.6 118.678C3888.02 113.95 3889.63 108.866 3891.76 104.011C3894.14 98.5943 3897.13 93.5603 3898.94 87.9018C3901.14 81.0174 3904.1 74.5452 3905.77 67.5016C3906.66 63.7093 3907.1 59.8893 3908.22 56.1508" stroke="black" stroke-width="12" stroke-linecap="round"/>
<path d="M3847.14 50.536C3855.57 48.2895 3865.83 50.4227 3874.09 52.0182C3887.61 54.6276 3900.24 57.5571 3914.07 57.5571C3930.72 57.5571 3947.62 55.2609 3962.99 48.4297" stroke="black" stroke-width="12" stroke-linecap="round"/>
<path d="M3905.42 54.0466C3904.29 54.749 3904.78 57.55 3904.87 58.4932C3905.82 68.6671 3909.66 78.6463 3914.11 87.7478C3920.11 99.9926 3927.89 111.331 3934.75 123.087C3944.62 139.995 3954.08 157.296 3962.36 175.043C3972.12 195.932 3981.47 218.071 3987.8 240.3C3992.48 256.745 3995.87 274.153 3999.11 290.93C4001.91 305.469 4006.79 319.309 4009.87 333.72C4011.5 341.322 4014.26 348.588 4015.92 356.148C4016.68 359.601 4018.17 360.875 4020.25 363.91C4020.86 364.799 4021.65 366.27 4022.71 366.797C4024.25 367.571 4029.37 357.607 4029.69 357.045C4048.48 324.293 4052.64 286.436 4064.25 251.027C4074.96 218.349 4088.14 186.424 4099.16 153.824C4108.03 127.572 4117.39 101.251 4127.63 75.4999C4130.64 67.9378 4133.69 60.4631 4136.8 52.9544C4137.42 51.4573 4139.69 48.4297 4137.11 48.4297" stroke="black" stroke-width="12" stroke-linecap="round"/>
<path d="M4076.73 46.3225C4084.82 45.5519 4092.74 44.4591 4100.91 44.6843C4112.05 44.9912 4122.41 48.5075 4133.37 49.443C4147.93 50.6864 4162.76 49.7872 4177.37 50.1841C4183.11 50.3402 4188.36 50.6988 4193.98 49.8331" stroke="black" stroke-width="12" stroke-linecap="round"/>
<path d="M4371.61 131.279C4355.09 131.279 4339.76 138.725 4326.06 147.583C4317.05 153.402 4308.63 159.132 4302.03 167.594C4295.48 175.992 4290.53 185.765 4286.82 195.717C4279.58 215.074 4279.06 236.152 4278.94 256.644C4278.83 274.844 4280.64 292.574 4284.01 310.473C4289.21 338.151 4301.4 365.148 4323.87 383.024C4357.4 409.695 4404.12 398.748 4435.35 374.208C4442.96 368.232 4448.86 361.898 4455.13 354.588C4461.06 347.667 4462.45 339.385 4465 330.834C4468.41 319.349 4467.04 306.963 4467.45 295.104C4467.98 279.865 4468.02 264.84 4465.39 249.779C4460.93 224.271 4454.99 198.074 4444.79 174.186C4439.06 160.771 4429.87 150.152 4419.51 140.25C4412.85 133.877 4404.13 134.224 4395.64 132.527C4384.7 130.339 4372.92 131.279 4361.79 131.279" stroke="black" stroke-width="12" stroke-linecap="round"/>
<path d="M4552.76 134.086C4570.3 141.307 4590.4 144.845 4607.88 135.139C4609.07 134.473 4609.48 134.922 4609.63 136.27C4610.89 147.893 4611.66 159.609 4611.74 171.298C4611.94 203.775 4611.61 236.257 4611.74 268.735C4611.8 284.122 4613.14 299.402 4613.14 314.801C4613.14 326.711 4613.14 338.621 4613.14 350.53C4613.14 356.03 4613.14 361.53 4613.14 367.03C4613.14 371.112 4613.3 375.164 4613.41 379.239C4613.51 382.67 4611.09 379.682 4610.33 378.42" stroke="black" stroke-width="12" stroke-linecap="round"/>
<path d="M4547.14 373.506C4555.05 373.506 4562.95 373.448 4570.86 373.506C4582.29 373.59 4593.5 375.613 4604.91 375.613C4617.25 375.613 4629.92 374.157 4642.2 374.95C4648.45 375.352 4654.6 375.613 4660.88 375.613" stroke="black" stroke-width="12" stroke-linecap="round"/>
<path d="M4615.95 176.212C4616.62 170.996 4620.87 166.67 4623.91 162.638C4627.53 157.832 4630.64 152.88 4635.76 149.532C4648.56 141.173 4665.4 131.532 4681.32 134.826C4688.39 136.287 4694.81 137.407 4700.51 142.198C4704.91 145.891 4709.27 151.913 4710.42 157.567C4712.01 165.334 4712.3 174.98 4710.81 182.765C4709.53 189.482 4707.9 199.326 4702.66 204.569C4700.6 206.628 4697 204.019 4696.03 202.346C4692.32 195.921 4691.95 185.657 4694.59 178.786C4695.35 176.793 4700.67 170.608 4701.92 173.559C4704.27 179.116 4708.68 193.487 4702.15 197.977C4701.34 198.536 4696.29 202.152 4696.03 201.02C4694.85 195.894 4694.76 189.993 4694.62 184.754C4694.52 180.714 4694.59 177.113 4696.07 173.325C4696.46 172.33 4698.42 166.497 4700.2 166.694C4702.32 166.929 4702.51 175.133 4702.54 176.056C4702.71 180.893 4703.12 189.758 4699.03 193.452C4690.67 201.016 4686.36 192.975 4685.22 184.988C4683.79 174.933 4684.74 167.491 4694.47 162.95C4696.9 161.817 4700.36 161.799 4703.01 161.467" stroke="black" stroke-width="12" stroke-linecap="round"/>
<path d="M4754.27 9.11133C4761.41 12.2502 4768.19 16.6595 4776.19 16.8345C4783.65 16.9979 4791.68 17.5724 4799.08 16.4835C4802.92 15.919 4805.96 13.6536 4809.58 12.3488C4813.7 10.858 4813.75 11.4878 4814.8 15.8984C4821.66 44.4889 4824.39 73.452 4827.28 102.648C4828.43 114.258 4827.51 125.764 4827.32 137.402C4827.11 151.374 4827.28 165.36 4827.28 179.334C4827.28 236.855 4827.28 294.375 4827.28 351.896C4827.28 356.523 4825.36 360.437 4825.18 364.924C4825.12 366.496 4816.84 368.39 4815.51 368.825C4808.96 370.958 4802.2 371.326 4795.42 372.101C4783.68 373.443 4771.64 373.506 4759.8 373.506C4740.56 373.506 4798.28 372.101 4817.53 372.101C4821.08 372.101 4824.48 371.464 4827.99 371.399C4830.67 371.35 4832.74 370.332 4835.13 370.034C4845.07 368.791 4854.5 370.408 4863.79 373.506" stroke="black" stroke-width="12" stroke-linecap="round"/>
<path d="M4830.79 250.636C4842.27 250.326 4853.77 248.226 4865.2 247.282C4873.72 246.578 4882.34 248.183 4890.63 245.722C4895.52 244.271 4901.66 242.73 4905.92 239.793C4913.64 234.471 4919.44 225.84 4924.57 218.183C4935.43 201.945 4946.6 186.368 4954.37 168.334C4957.84 160.264 4957.54 150.201 4961.39 142.512" stroke="black" stroke-width="12" stroke-linecap="round"/>
<path d="M4904.52 138.299C4916.68 136.824 4930.54 136.388 4942.82 137.753C4949.2 138.461 4954.97 140.279 4961.39 140.405C4972.62 140.625 4986.03 145.529 4997.19 141.809" stroke="black" stroke-width="12" stroke-linecap="round"/>
<path d="M4911.54 236.594C4921.89 243.785 4928.72 253.753 4936.58 263.391C4943.49 271.869 4949.34 280.584 4954.44 290.266C4959.67 300.186 4963.69 311.617 4966.46 322.485C4969.16 333.117 4971.91 343.715 4974.41 354.392C4975.3 358.154 4976.83 361.891 4976.83 365.782" stroke="black" stroke-width="12" stroke-linecap="round"/>
<path d="M4923.47 369.293C4955.03 371.768 4987.31 372.101 5018.96 372.101" stroke="black" stroke-width="12" stroke-linecap="round"/>
<path d="M5069.51 305.4C5069.51 330.288 5069.62 355.202 5073.72 379.824" stroke="black" stroke-width="12" stroke-linecap="round"/>
<path d="M5069.51 353.145C5086.76 362.85 5103.85 374.464 5123.57 378.109C5141.9 381.495 5160.05 378.412 5176.97 371.361C5182.6 369.018 5189.65 365.843 5193.94 361.414C5200.12 355.042 5201.67 345.771 5202.37 337.387C5203.26 326.606 5203.21 317.939 5200.45 307.274C5198.16 298.389 5196.2 288.934 5189.46 282.193C5184.19 276.932 5178.5 274.857 5172.02 271.7C5162.11 266.871 5152.08 262.559 5142.3 257.424C5135.75 253.986 5128.57 251.565 5122.21 247.751C5119.15 245.915 5113.71 242.365 5111.91 239.325C5109.77 235.697 5106.3 233.224 5104.62 229.262C5101.79 222.604 5099.4 216.119 5097.44 209.213C5095.91 203.822 5094.79 198.195 5094.79 192.557C5094.79 183.47 5100.79 174.058 5106.72 167.476C5112.64 160.917 5117.3 154.193 5124.98 149.534C5131.68 145.466 5138.25 142.307 5146.2 141.81C5161.86 140.832 5175.99 136.991 5190.27 145.477C5200.62 151.622 5203.4 161.929 5209.23 171.26C5210.04 172.546 5210.78 177.1 5210.64 175.59C5210.02 169.078 5207.46 162.684 5206.03 156.321C5204.92 151.353 5205.02 146.587 5205.02 141.537C5205.02 140.983 5205.3 137.373 5205.56 137.91C5206.53 139.835 5206.36 142.848 5206.58 144.931C5207.17 150.516 5207.68 156.152 5208.53 161.703C5209.07 165.211 5210.09 168.186 5211.65 171.299C5213.07 174.133 5212.74 178.631 5212.74 181.674C5212.74 189.533 5214.15 197.265 5214.15 205" stroke="black" stroke-width="12" stroke-linecap="round"/>
<path d="M5268.21 7.00391C5272.87 10.8338 5278.17 12.1803 5284.05 13.4789C5294.52 15.7957 5305.2 17.3219 5315.8 18.9398C5323.5 20.1155 5331.36 20.9512 5339.12 19.7979C5342.05 19.3629 5345.45 17.9985 5348.09 16.6774C5348.79 16.3277 5348.27 18.2362 5348.25 19.0178C5348 27.6335 5345.96 36.1213 5344.43 44.5667C5338.61 76.6568 5339.12 109.123 5339.12 141.614C5339.12 170.719 5337.87 199.779 5337.72 228.87C5337.47 277.095 5335.61 325.262 5335.61 373.505" stroke="black" stroke-width="12" stroke-linecap="round"/>
<path d="M5271.72 373.505C5304.93 373.505 5338.18 372.803 5371.42 372.803" stroke="black" stroke-width="12" stroke-linecap="round"/>
<path d="M5339.82 202.894C5340.21 200.034 5342.05 197.566 5343.64 195.249C5348.79 187.757 5354.67 181.209 5361.12 174.848C5369.02 167.052 5376.5 159.887 5385.38 153.122C5396.79 144.433 5408.35 137.598 5422.94 137.598C5431.67 137.598 5442.58 137.855 5450.83 140.835C5466.48 146.486 5470.93 164.144 5474.78 178.32C5478.98 193.765 5483.55 209.125 5483.75 225.283C5483.97 242.25 5484.08 259.428 5485.51 276.342C5488 305.722 5494.29 334.784 5494.29 364.379" stroke="black" stroke-width="12" stroke-linecap="round"/>
<path d="M5440.93 370.698C5443.62 368.005 5452.21 368.818 5455.87 368.241C5460.65 367.485 5465.44 367.117 5470.26 366.641C5474.32 366.24 5477.92 367.463 5481.88 368.163C5484.99 368.711 5488.05 368.425 5491.09 369.294C5502.94 372.681 5515.03 372.102 5527.29 372.102" stroke="black" stroke-width="12" stroke-linecap="round"/>
<path d="M5728.79 128.469C5718.35 128.706 5709.46 132.193 5699.81 135.763C5691.75 138.743 5683.83 141.674 5676.21 145.709C5659.11 154.768 5648 172.788 5642.2 190.8C5635.68 211.029 5631.9 232.767 5631.9 253.99C5631.9 271.521 5637.26 288.149 5643.56 304.386C5649.91 320.721 5659.23 335.263 5667.71 350.491C5672.47 359.045 5678.84 365.249 5686.9 370.618C5699.57 379.066 5715.29 378.649 5729.88 378.419C5744.72 378.186 5758.1 364.504 5765.61 352.753C5774.13 339.436 5780.21 322.6 5783.2 307.155C5786.27 291.346 5790.35 275.863 5792.68 259.919C5794.46 247.787 5794.09 235.293 5794.09 223.058C5794.09 214.989 5794.51 207.125 5792.68 199.226C5790.72 190.752 5788.5 182.339 5786.21 173.95C5783.08 162.481 5776.88 152.036 5769.9 142.55C5765.59 136.68 5762.25 131.846 5754.77 130.029C5745.37 127.747 5735.52 129.068 5726.69 131.277" stroke="black" stroke-width="12" stroke-linecap="round"/>
<path d="M5887.47 128.469C5892.02 132.623 5896.87 134.978 5902.53 137.518C5912.22 141.871 5922.22 146.824 5932.64 149.22C5939.13 150.713 5947.27 151.221 5953.39 148.206C5957.27 146.292 5960.85 143.76 5964.31 141.185C5965.85 140.04 5966.06 139.513 5966.26 141.653C5967.81 157.801 5966.9 174.419 5966.46 190.605C5965.55 223.847 5971.34 256.234 5973.52 289.33C5974.57 305.401 5973.55 321.568 5972.74 337.619C5972.1 350.121 5972.86 362.468 5973.09 374.948C5973.53 399.058 5977.34 422.929 5977.34 447.07C5977.34 453.766 5979.04 460.132 5979.41 466.807C5979.55 469.47 5983.04 480.225 5980.15 480.225" stroke="black" stroke-width="12" stroke-linecap="round"/>
<path d="M5898.7 480.225C5916.52 480.225 5934.2 478.119 5952.02 478.119C5972.64 478.119 5993.04 479.463 6013.38 483.346C6019.48 484.512 6024.9 484.691 6031.01 485.179C6033.27 485.36 6035.61 485.841 6037.72 486.544" stroke="black" stroke-width="12" stroke-linecap="round"/>
<path d="M5965.4 202.19C5969.43 179.374 5992.12 163.894 6010.88 153.745C6028.81 144.051 6050.64 125.361 6070.99 138.845C6084.5 147.796 6099.54 156.303 6111.13 167.787C6121.94 178.499 6126.47 191.606 6132.04 205.389C6134.58 211.677 6135.09 218.968 6136.4 225.594C6137.83 232.824 6138.59 240.346 6138.78 247.711C6139.22 263.737 6134.55 278.392 6126.85 292.372C6120.52 303.87 6113.71 315.431 6108.94 327.712C6106.45 334.146 6103.05 340.982 6099.43 346.903C6088.73 364.407 6073.14 377.389 6051.76 377.718C6031.44 378.03 6011.2 380.559 5992.75 369.721C5985.92 365.713 5980.86 358.935 5975.93 352.91C5972.36 348.538 5970.32 345.731 5970.32 339.804" stroke="black" stroke-width="12" stroke-linecap="round"/>
<path d="M6375.43 245.02C6397.77 247.051 6420.56 248.53 6443.07 248.53C6453 248.53 6462.94 248.53 6472.87 248.53C6478.84 248.53 6484.66 247.126 6490.58 247.126" stroke="black" stroke-width="12" stroke-linecap="round"/>
<path d="M6649.26 46.3225C6653.83 46.165 6658.36 45.321 6662.91 44.9573C6675.81 43.9248 6688.87 44.8447 6701.84 43.8262C6714.46 42.8347 6727.16 41.64 6739.83 41.8759C6749.42 42.0545 6758.94 43.4354 6768.54 43.5141C6774.43 43.5624 6780.28 44.2162 6786.17 44.2162" stroke="black" stroke-width="12" stroke-linecap="round"/>
<path d="M6720.17 43.5156C6722.01 45.6782 6723.16 48.7726 6724.26 51.2778C6728.4 60.6272 6731.63 70.2281 6734.64 79.9863C6739.81 96.7283 6745.22 113.329 6749.42 130.343C6755.22 153.832 6765.66 175.199 6777.04 196.419C6784.7 210.711 6793.13 224.567 6800.05 239.248C6808.16 256.436 6817.46 273.405 6824.47 291.048C6827.84 299.532 6832.16 307.598 6835.7 316.012C6838.47 322.589 6839.05 329.599 6840.97 336.412C6842.84 343.056 6845.68 350.16 6848.3 356.578C6850.05 360.846 6852.28 364.919 6853.61 369.333C6855.17 374.545 6858.41 368.483 6860.2 366.33C6866.14 359.167 6872.23 352.48 6876.04 343.862C6879.19 336.717 6882.31 329.83 6886.18 323.033C6890.71 315.067 6893.78 306.924 6897.26 298.459C6901.13 289.032 6905.82 280.33 6908.61 270.453C6910.73 262.92 6914.47 256.621 6917.15 249.389C6921.09 238.758 6924.25 227.834 6929.4 217.639C6935.98 204.583 6943.77 192.837 6947.92 178.554C6951.38 166.682 6953.29 154.286 6956.23 142.279C6958.43 133.316 6961.85 124.505 6965.2 115.911C6969.8 104.146 6973.84 92.0186 6977.84 80.0253C6981.75 68.3111 6988.75 57.8285 6992.59 46.3241" stroke="black" stroke-width="12" stroke-linecap="round"/>
<path d="M6938.52 42.1104C6951.29 38.8159 6964.87 44.0882 6977.41 46.5961C6986.03 48.3203 6994.61 50.5357 7003.47 50.5357C7013.46 50.5357 7023.35 51.2378 7033.31 51.2378" stroke="black" stroke-width="12" stroke-linecap="round"/>
<path d="M7114.75 226.062C7123.97 229.476 7134.34 229.468 7144.09 229.572C7156.35 229.703 7168.7 229.144 7180.95 228.48C7203.16 227.275 7225.42 224.657 7247.69 224.657C7256.6 224.657 7266.03 225.401 7274.13 221.459C7277.66 219.745 7277.52 217.719 7277.95 213.58C7278.37 209.627 7278.58 205.488 7278.19 201.527C7277.68 196.411 7275.06 192.357 7273.04 187.758C7270.34 181.617 7268.73 175.095 7266.1 168.957C7263.61 163.166 7259.15 158.423 7254.75 154.017C7239.7 138.967 7217.82 135.323 7197.76 132.057C7187.17 130.333 7177.93 133.528 7168.43 137.986C7158.53 142.626 7148.6 147.425 7141.12 155.617C7128.8 169.114 7119.45 183.636 7116.16 201.878C7113.69 215.544 7113.93 231.15 7114.83 245.057C7115.3 252.295 7117.69 258.947 7119.36 265.926C7121.63 275.477 7124.41 284.496 7127.39 293.854C7131.87 307.915 7137.34 321.726 7143.54 335.122C7147.64 343.987 7155.62 351.842 7162.81 358.214C7182.96 376.072 7214.2 380.252 7240.04 374.557C7257.59 370.691 7268.64 360.47 7279.59 346.98C7284.79 340.575 7290.28 329.502 7290.28 320.846" stroke="black" stroke-width="12" stroke-linecap="round"/>
<path d="M7343.64 139C7347.08 139.287 7350.47 140.324 7353.82 141.106C7359.78 142.5 7365.69 143.07 7371.72 143.954C7380.99 145.31 7393.07 148.104 7401.68 143.408C7403.43 142.452 7402.5 149.695 7402.46 150.39C7401.83 162.677 7401.25 174.899 7401.21 187.211C7401.15 209.783 7400.72 232.162 7401.76 254.692C7402.62 273.378 7402.09 292.191 7402.58 310.9C7402.88 322.467 7402.69 334.133 7401.56 345.654C7400.87 352.779 7401.21 360.024 7401.21 367.185" stroke="black" stroke-width="12" stroke-linecap="round"/>
<path d="M7355.58 371.399C7366.24 371.05 7376.73 369.293 7387.44 369.293C7397.28 369.293 7407.1 368.591 7416.93 368.591C7424.33 368.591 7431.83 367.889 7439.13 367.889" stroke="black" stroke-width="12" stroke-linecap="round"/>
<path d="M7402.62 177.617C7398.94 172.555 7415.41 160.982 7418.3 158.582C7425.17 152.866 7432.76 147.9 7440.18 142.941C7447.21 138.242 7454.42 133.046 7462.14 129.483C7471.3 125.258 7482.27 124.251 7492.1 126.675C7497.43 127.99 7504.37 129.905 7507.78 134.515C7516.05 145.69 7518.78 160.402 7517.45 174.028C7517.01 178.611 7515.62 188.093 7511.09 190.879C7508.96 192.194 7504.41 192.299 7502.63 190.372C7498.28 185.672 7496 179.337 7497.17 173.014C7498.24 167.191 7501.29 159.166 7506.61 155.891C7509.32 154.222 7512.87 152.551 7514.1 156.32C7516.69 164.31 7515.03 171.671 7509.77 178.085C7508.31 179.866 7503.13 185.236 7502.32 180.893C7501.37 175.865 7500.59 170.793 7505.4 167.865C7509.78 165.196 7505.96 176.328 7505.44 177.539C7503.39 182.26 7503.41 169.118 7503.72 167.085" stroke="black" stroke-width="12" stroke-linecap="round"/>
<path d="M7709.44 140.406C7709.44 137.239 7708.59 140.52 7707.96 142.162C7704.34 151.511 7704.23 161.912 7703.82 171.806C7703.53 178.909 7702.99 185.732 7703.82 192.831C7704.17 195.749 7703.87 199.231 7705.23 195.171" stroke="black" stroke-width="12" stroke-linecap="round"/>
<path d="M7708.03 170.597C7707.15 165.949 7701.4 161.719 7698.32 158.466C7694.88 154.829 7691.23 151.444 7687.6 148.013C7678.18 139.12 7667.04 134.745 7654.4 131.981C7641.9 129.246 7628.64 128.233 7616.21 131.981C7601.79 136.334 7590.75 146.829 7581.66 158.271C7572.98 169.189 7570.12 186.625 7572.96 200.164C7574.57 207.872 7578.53 215.455 7583.76 221.344C7588.85 227.074 7597.1 230.456 7603.58 234.255C7609.87 237.947 7616.02 241.545 7623 243.812C7630.53 246.254 7638.36 247.635 7645.94 249.897C7653.38 252.116 7661.35 253.743 7668.09 257.737C7678.23 263.745 7686.56 269.784 7693.29 279.502C7695.45 282.615 7696.65 286.763 7697.5 290.424C7698.79 295.977 7700.77 301.509 7701.72 307.118C7703.17 315.789 7705.91 326.998 7702.11 335.437C7694.2 352.961 7680.97 364.556 7661.34 365.823C7657.2 366.09 7653.16 367.423 7648.98 367.734C7643.68 368.128 7638.36 367.618 7633.07 368.046C7623.5 368.819 7614.89 367.224 7605.53 365.393C7598.4 364.001 7591.47 361.359 7584.46 360.011C7579.31 359.02 7577.09 353.105 7574.63 348.933" stroke="black" stroke-width="12" stroke-linecap="round"/>
<path d="M7576.04 324.357C7573.93 331.437 7571.46 338.16 7570.27 345.499C7569.19 352.073 7568.82 358.707 7568 365.314C7567.54 369.091 7566.55 374.89 7568.32 378.42" stroke="black" stroke-width="12" stroke-linecap="round"/>
<path d="M7767.01 132.682C7768.4 132.934 7769.53 133.93 7770.76 134.554C7778.76 138.622 7788.04 140.708 7796.93 141.575C7805.39 142.401 7817.99 142.985 7824.62 136.777C7827.19 134.373 7826.01 140.713 7825.99 142.121C7825.81 152.289 7824.18 162.392 7823.26 172.507C7821.12 196.002 7821.6 219.492 7820.72 243.03C7819.59 273.289 7820.17 303.605 7816.16 333.719C7815.6 337.906 7814.41 341.916 7812.65 345.733C7809.67 352.196 7810.75 362.244 7811.4 369.136C7811.64 371.681 7813.15 373.981 7810.11 374.246C7808.06 374.425 7806.52 375.506 7804.61 376.157C7800.83 377.452 7796.64 377.464 7792.72 378.108C7785.73 379.255 7779.24 382.852 7772.32 383.958C7766.77 384.845 7772.15 382.95 7774.46 382.281C7791.47 377.369 7809.53 378.776 7827.08 377.561C7839.91 376.673 7852.39 374.207 7865.31 374.207" stroke="black" stroke-width="12" stroke-linecap="round"/>
<path d="M7815.46 21.0471C7808.67 24.569 7802.49 44.18 7810.7 49.1315C7818.7 53.9599 7830.56 55.204 7838.86 50.4577C7847.56 45.4895 7841.14 32.9167 7835.78 27.5611C7832.36 24.1392 7827.14 25.327 7823.18 27.1321C7814.74 30.9866 7811.38 38.9139 7810.15 47.6492C7807.86 63.9645 7824.36 59.847 7832.39 51.3938C7840.12 43.2533 7839.14 28.1988 7827.78 23.9726C7814.76 19.1282 7809.3 37.4076 7809.3 47.1032C7809.3 61.8587 7836.35 49.5999 7838.86 40.8622C7840.83 34.0091 7833.03 14.9433 7823.57 20.9691C7816.47 25.4958 7812.54 34.7083 7811.75 42.7735C7811.31 47.3102 7811.12 58.2527 7817.1 59.8971C7832.29 64.0743 7845.95 40.0791 7839.21 27.6392C7836.62 22.8452 7833.16 25.138 7830.59 28.6143C7824.91 36.3132 7819.77 47.1059 7820.53 56.9327C7820.92 62.0226 7824.12 56.8587 7825.25 54.8654C7827.23 51.372 7829.03 42.7562 7823.18 41.5643C7819.6 40.8354 7816.87 47.8363 7815.97 50.2236C7814.95 52.9156 7812.94 63.5993 7819.28 58.844C7823.14 55.9479 7825.52 51.2362 7827.08 46.7911C7827.75 44.8993 7828.01 38.8754 7827.39 40.7842C7826.98 42.0572 7824.9 51.4784 7826.77 51.7449C7829.47 52.1303 7837.18 37.1956 7831.61 37.1956" stroke="black" stroke-width="12" stroke-linecap="round"/>
<path d="M8055.58 127.066C8046.7 127.179 8038.73 128.905 8030.19 131.201C8024.86 132.632 8019.26 133.945 8014.7 137.208C8005.88 143.521 7999.31 151.989 7992.23 160.066C7981.41 172.407 7972.55 184.716 7966.26 200.086C7956.54 223.827 7952.72 251.105 7954.79 276.694C7956.8 301.594 7964.52 323.551 7975.85 345.734C7982.92 359.57 7992.86 374.302 8007.29 381.074C8025.37 389.56 8046.3 388.953 8065.8 388.953C8073.91 388.953 8082.23 389.489 8090.3 388.563C8099.17 387.544 8105.16 383.311 8111.98 377.719C8127.12 365.308 8136.17 347.106 8142.41 329.04C8146.14 318.24 8149.62 307.642 8150.75 296.197C8151.72 286.485 8151.77 276.356 8151.77 266.591C8151.77 247.42 8151.6 229.075 8145.88 210.656C8143.48 202.929 8141.76 195.248 8138.97 187.604C8137 182.2 8133.26 177.318 8129.96 172.664C8117.94 155.689 8100.68 141.378 8082.65 131.279C8077.46 128.372 8068.84 127.066 8062.95 127.066C8056.33 127.066 8050.04 129.875 8043.64 129.875" stroke="black" stroke-width="12" stroke-linecap="round"/>
<path d="M8231.81 134.789C8249.98 143.44 8269.79 144.459 8289.5 142.98C8292.11 142.785 8289.87 153.311 8289.77 154.916C8289.04 166.897 8289.38 178.961 8289.38 190.958C8289.38 210.668 8291.12 230.137 8291.53 249.818C8291.8 263.078 8292.13 276.296 8292.19 289.565C8292.26 303.453 8294.81 317.13 8295 330.989C8295.15 341.844 8297.1 352.504 8297.1 363.364C8297.1 364.878 8297.78 367.902 8296.4 368.591" stroke="black" stroke-width="12" stroke-linecap="round"/>
<path d="M8224.09 375.61C8250.26 372.836 8276.44 374.055 8302.53 376.663C8307.57 377.168 8312.64 377.014 8317.7 377.014C8319.6 377.014 8321.49 377.374 8323.08 376.312" stroke="black" stroke-width="12" stroke-linecap="round"/>
<path d="M8286.57 207.808C8289.28 203.241 8290.28 198.087 8293.75 193.766C8299.77 186.265 8305.69 178.678 8313.1 172.468C8325.72 161.881 8336.65 148.325 8352.02 141.264C8359.28 137.93 8367.54 136.829 8375.27 135.101C8380.48 133.936 8386.29 133.568 8391.34 135.647C8404.04 140.874 8412.2 148.595 8416.54 161.625C8422.21 178.642 8424.71 197.214 8427.74 214.868C8430.96 233.655 8430.91 252.454 8430.47 271.505C8429.97 292.633 8428.24 314.177 8431.56 335.163C8433.36 346.59 8435.63 357.909 8437.53 369.293" stroke="black" stroke-width="12" stroke-linecap="round"/>
<path d="M8396.1 369.995C8396.57 365.756 8417.94 368.023 8421.26 368.279C8433.7 369.235 8445.54 367.889 8457.93 367.889C8466.26 367.889 8474.47 369.178 8482.85 369.293C8486.01 369.336 8495.45 369.995 8492.29 369.995" stroke="black" stroke-width="12" stroke-linecap="round"/>
<path d="M8820.88 126.363C8811.2 127.9 8800.07 129.323 8791.39 134.242C8782.7 139.162 8773.85 145.654 8767.2 153.121C8754.19 167.729 8751.22 187.583 8744.35 205.194C8740.33 215.5 8738.56 226.669 8735.88 237.374C8732.6 250.502 8731.68 264.048 8731.16 277.551C8730.49 295.24 8735.41 309.741 8744.58 324.592C8750.79 334.647 8757.57 343.672 8766.23 351.818C8773.47 358.633 8782.52 365.971 8791.74 369.956C8796.56 372.04 8802.04 372.176 8807.15 373.154C8813.04 374.282 8818.76 374.504 8824.7 373.505C8838.15 371.242 8851.51 363.845 8860.04 353.144C8864.97 346.955 8869.86 340.128 8873.22 332.939C8877.22 324.389 8881.94 315.491 8885.08 306.61C8892.73 284.994 8893.67 259.721 8892.1 237.062C8890.8 218.27 8887.7 199.248 8883.91 180.816C8880.99 166.634 8874.88 152.938 8867.53 140.561C8864.88 136.094 8860.05 130.985 8855.24 128.821C8850.21 126.556 8842.68 127.065 8837.1 127.065C8829.48 127.065 8821.47 125.161 8813.86 127.065" stroke="black" stroke-width="12" stroke-linecap="round"/>
<path d="M9033.62 338.399C9030 338.399 9025.31 337.8 9023.24 341.52C9020.79 345.938 9020.04 352.556 9020.43 357.512C9020.95 363.957 9024.8 369.514 9029.09 374.129C9034.45 379.892 9042.39 379.383 9049.61 377.483C9068.83 372.424 9061.66 352.364 9048.75 344.328C9038.01 337.645 9020.91 338.694 9015.98 351.583C9011.3 363.845 9021.57 375.387 9034.47 374.441C9044.89 373.677 9055.23 358.441 9051.4 348.385C9046.7 336.021 9031.02 332.137 9023.86 344.484C9017.86 354.843 9021.82 377.404 9036.58 377.951C9042.95 378.187 9048.57 372.051 9049.84 366.171C9051.4 358.966 9046.91 351.858 9041.88 347.136C9038.9 344.332 9033.07 340.126 9028.86 343.236C9023.93 346.873 9024.09 357.272 9025.11 362.505C9027.39 374.151 9045.39 378.436 9046.1 363.909C9046.4 357.622 9044.12 350.847 9038.61 347.292C9034.45 344.61 9027.92 343.43 9025.5 348.853C9022.43 355.738 9026.79 371.08 9034.86 361.023C9037.59 357.622 9037.79 349.215 9032.37 355.016C9030.38 357.142 9029.2 361.626 9030.57 364.377C9031.25 365.737 9034.81 368.915 9036.42 367.264C9038.94 364.681 9041.22 356.885 9037.13 355.25" stroke="black" stroke-width="12" stroke-linecap="round"/>
<path d="M9203.53 145.321C9217.36 145.321 9231.5 147.15 9243.51 139.431C9247.11 137.113 9251.31 136.038 9255.09 134.048C9258.83 132.081 9262.09 129.568 9265.55 127.183C9266.99 126.187 9269.53 124.354 9269.53 126.442C9269.53 137.619 9268.34 148.737 9268.04 159.909C9267.39 184.627 9267.43 209.373 9266.87 234.098C9266.3 259.268 9264.93 284.565 9265.66 309.731C9265.91 318.321 9265.65 326.975 9266.09 335.553C9266.36 340.82 9267.8 345.932 9268.08 351.194C9268.18 352.935 9269.53 374.208 9266.72 374.208" stroke="black" stroke-width="12" stroke-linecap="round"/>
<path d="M9214.76 377.016C9236.42 377.016 9258.06 378.42 9279.74 378.42C9287.57 378.42 9295.4 378.42 9303.23 378.42" stroke="black" stroke-width="12" stroke-linecap="round"/>
<path d="M9471.73 339.102C9467.93 341.456 9463.1 343.374 9463.07 348.541C9463.04 354.358 9465.01 360.272 9468.77 364.69C9473.71 370.498 9483.59 377.644 9491.47 373.037C9498.34 369.02 9499.19 355.229 9496.38 348.736C9492.9 340.692 9480.27 336.474 9473.1 341.91C9466.81 346.675 9460.73 360.708 9467.05 367.732C9474.4 375.897 9488.37 372.047 9490.22 361.413C9492.09 350.687 9483.48 343.469 9474.07 340.701C9469.82 339.45 9467.26 340.211 9465.57 344.562C9463.75 349.223 9461.87 357.067 9465.3 361.452C9474.39 373.09 9494.03 361.443 9489.75 347.995C9488.64 344.492 9485.23 342.095 9481.72 341.52C9476.57 340.676 9473.1 344.398 9470.83 348.58C9468.98 352.003 9462.39 372.46 9472.2 371.633C9477.52 371.184 9491.47 359.783 9484.6 354.314C9480.23 350.826 9476.15 354.421 9474.97 358.605C9473.35 364.374 9483.49 355.983 9484.84 354.743C9488.68 351.199 9480.61 356.244 9479.61 357.356C9477.15 360.097 9475.86 363.38 9474.27 366.64C9473.42 368.378 9472.73 369.244 9474.54 367.888" stroke="black" stroke-width="12" stroke-linecap="round"/>
<path d="M9701.32 129.172C9695.33 129.172 9689.82 130.883 9684.47 133.541C9672.13 139.667 9659.83 146.762 9649.79 156.281C9635.11 170.209 9624.51 190.566 9618.08 209.524C9605.93 245.33 9614.23 285.245 9624.13 320.535C9626.46 328.859 9628.64 337.308 9631.54 345.46C9633.7 351.551 9635.77 358.548 9638.76 364.3C9646.33 378.924 9663.7 381.768 9678.74 383.647C9684.83 384.409 9690.99 383.861 9697.11 384.388C9703.38 384.929 9709.94 385.075 9716.22 384.583C9730.58 383.46 9744.56 374.1 9752.42 362.272C9762.65 346.87 9771.42 331.482 9775.78 313.358C9778.04 303.993 9780.19 294.684 9781.67 285.157C9783.57 272.996 9782.77 260.413 9782.77 248.14C9782.77 216.248 9775.67 180.952 9754.37 156.242C9745.21 145.623 9736.31 135.451 9722.73 130.927C9715.13 128.393 9705.81 129.874 9697.81 129.874" stroke="black" stroke-width="12" stroke-linecap="round"/>
<path d="M10035.5 242.914C10053.3 243.28 10070.9 246.425 10088.7 246.425C10104.4 246.425 10120.4 247.178 10136 248.18C10143.8 248.681 10151.9 247.813 10159.6 248.687C10164.2 249.204 10168.5 249.935 10173.1 249.935" stroke="black" stroke-width="12" stroke-linecap="round"/>
<path d="M10478.3 8.90234C10484.2 8.90234 10489.9 12.4617 10495.2 14.6138C10503 17.8002 10510.7 19.0943 10519.1 18.2924C10525 17.7285 10531.4 17.9935 10537 15.6787C10537.9 15.3099 10541.3 12.8127 10542.4 13.4522C10543.8 14.2351 10542.8 25.0403 10542.9 25.7463C10543.2 51.4594 10544 77.1558 10544.9 102.851C10546 130.215 10544.6 157.447 10543.9 184.796C10543.1 217.101 10545.5 249.331 10546.2 281.6C10546.7 299.799 10549.2 317.734 10549.7 335.908C10550 346.941 10552.4 357.497 10552.4 368.531C10552.4 370.401 10551.3 376.155 10552.4 377.727C10553.3 379.037 10554.5 375.365 10555.7 374.339C10556.9 373.275 10558.2 372.209 10559.9 372.209C10565.5 372.209 10571.2 372.209 10576.8 372.209C10580.1 372.209 10583.6 372.439 10586.9 372.161C10589.1 371.98 10588.1 367.517 10588.1 366.111" stroke="black" stroke-width="12" stroke-linecap="round"/>
<path d="M10537.6 184.021C10537.6 178.184 10533.8 174.548 10530.1 170.275C10523.1 162.11 10513.7 156.916 10504.4 151.737C10489 143.177 10471.7 138.052 10453.8 138.765C10442.6 139.214 10430.7 145.791 10420.5 150.043C10409.6 154.573 10401.6 163.049 10393 170.759C10382.1 180.456 10370.2 193.113 10365.6 207.157C10362.5 216.698 10362.5 226.507 10362.5 236.441C10362.5 247.698 10362.7 258.07 10365.8 269.015C10370.6 286.417 10377 302.125 10385.1 318.192C10388.1 324.032 10391.3 329.317 10395.1 334.649C10399.6 341.031 10403.6 348.717 10410 353.429C10419.8 360.555 10433.2 364.806 10444.7 368.046C10458.5 371.925 10472.5 368.476 10485.5 363.4C10498.2 358.394 10508.6 348.147 10517.4 337.892C10523.1 331.203 10529.3 325.075 10534.8 318.192C10539.1 312.725 10540.3 305.298 10543.7 299.315C10546.1 295.022 10547.2 289.941 10547.2 285.085" stroke="black" stroke-width="12" stroke-linecap="round"/>
<path d="M10642.1 132.617C10657.5 135.611 10672.6 139.314 10688.4 138.667C10690.9 138.568 10700.5 135.429 10700.4 135.763C10697.7 154.929 10694.3 173.855 10692.9 193.217C10690.7 222.03 10692.1 251.016 10692.9 279.857C10693.6 305.891 10695.3 331.791 10695.3 357.833C10695.3 362.189 10695.3 366.545 10695.3 370.901C10695.3 373.071 10692 372.208 10690.4 372.208C10678.7 372.208 10667.4 372.289 10655.9 374.338C10651.5 375.118 10646.7 376.564 10642.2 376.564C10632.9 376.564 10660.8 374.929 10670.2 374.773C10689.2 374.456 10708.2 373.951 10727.2 373.951C10733 373.951 10738.8 373.951 10744.5 373.951C10748.9 373.951 10749.3 374.123 10749.3 369.594" stroke="black" stroke-width="12" stroke-linecap="round"/>
<path d="M10689.2 184.021C10692.7 181.241 10694.6 175.803 10697.3 172.211C10699.7 169.054 10702.4 166.014 10705.1 163.111C10710.8 156.806 10720 151.082 10727.6 147.235C10745.7 138.059 10777.8 118.757 10796.8 136.151C10811.3 149.485 10815.7 182.029 10803.3 197.767C10799.4 202.787 10791.8 200.376 10788.3 195.928C10784 190.411 10781.6 174.893 10785.8 168.629C10788.2 164.97 10796.1 156.083 10801.6 159.336C10805.2 161.495 10805.3 168.255 10805.9 171.824C10806.8 177.637 10807.7 184.361 10805.7 190.071C10804.9 192.38 10802.8 197.055 10800 197.767C10796.6 198.647 10795 185.923 10794.8 184.505C10794.6 182.977 10792.5 173.995 10795.5 173.615C10798.9 173.192 10798.8 177.341 10798.9 179.713C10799 182.161 10799.6 186.354 10796.5 187.313C10795.4 187.68 10793.6 187.743 10792.8 186.635C10790.2 182.9 10790.3 176.944 10790.2 172.598C10790.2 168.758 10790.4 168.283 10794.1 168.339C10800.2 168.431 10800 173.751 10794.6 174.873C10790.1 175.806 10792 168.89 10792 165.725" stroke="black" stroke-width="12" stroke-linecap="round"/>
<path d="M10900 27.1985C10890.3 28.2787 10885.4 34.7246 10885.4 44.4297C10885.4 55.4539 10899.3 58.8378 10908.1 58.3695C10914.5 58.0245 10920.3 56.432 10925 51.69C10930.4 46.2063 10937.5 36.0285 10930.2 29.2798C10922.3 21.9496 10905.6 23.0393 10897.5 29.183C10890.7 34.2755 10884.2 46.4746 10889.3 54.8846C10895 64.4722 10914.7 60.3334 10918 50.722C10920.2 44.2421 10919 33.4227 10910.5 32.6195C10902.6 31.8712 10894.7 42.631 10896.4 50.0443C10899.2 62.2171 10920.2 57.8356 10925.3 49.8991C10930.8 41.2231 10924 38.623 10916.4 38.9118C10911.7 39.0904 10900.6 42.3459 10902.7 49.3183C10904.8 56.0894 10921.8 43.4253 10923.5 40.9931C10924.7 39.1441 10923.2 38.3262 10921.4 38.2826C10916.6 38.1613 10911.2 40.6345 10908.1 44.3329C10903 50.3305 10903.7 57.9457 10912.8 55.2234C10917 53.9618 10933.3 38.5246 10922.7 38.5246" stroke="black" stroke-width="12" stroke-linecap="round"/>
<path d="M10859.9 134.36C10871.1 138.775 10887.7 141.895 10897.6 133.199C10897.7 133.111 10901.2 129.496 10901.6 130.198C10903.4 133.581 10901.3 141.906 10900.9 145.444C10899.3 159.312 10900 173.374 10899.1 187.312C10897.9 207.863 10898.2 228.491 10898.3 249.073C10898.3 261.56 10899.4 273.958 10900.5 286.392C10901.3 296.478 10900.3 306.624 10901.3 316.691C10902.6 329.698 10902.6 343.43 10902.6 356.526C10902.6 359.623 10903.9 361.783 10904.3 364.755C10904.9 369.312 10899 368.434 10895.6 369.159C10884.5 371.532 10850.5 372.358 10861.8 372.209C10872.2 372.072 10882.5 370.466 10893 370.466C10903.6 370.466 10912.8 370.948 10923.1 373.467C10930.2 375.19 10937.2 375.694 10944.5 375.694C10946.4 375.694 10952.2 376.747 10953.2 374.822" stroke="black" stroke-width="12" stroke-linecap="round"/>
<path d="M11024.6 225.841C11011.1 225.841 11051.5 228.753 11065 229.906C11083.7 231.506 11102.7 233.202 11121.4 233.633C11138.2 234.02 11154 233.015 11170.5 229.858C11177.4 228.534 11189.3 228.433 11194.8 223.711C11196.3 222.452 11197.2 221.918 11197.1 219.742C11196.6 209.934 11192.5 198.703 11189.1 189.587C11183.1 173.484 11173.5 155.888 11158.7 146.267C11151.6 141.699 11142.9 141.366 11134.8 140.653C11124.8 139.774 11112.7 140.875 11102.8 143.073C11080.5 148.054 11059 157.988 11047 178.406C11037.6 194.376 11028.1 211.13 11025.1 229.664C11022.4 246.808 11019.9 266.463 11023 283.73C11026.2 301.677 11035 321.501 11046 336.052C11053.7 346.333 11059.7 357.077 11072.1 362.577C11098.7 374.418 11131.8 381.635 11160.3 373.274C11184.8 366.107 11198.7 346.442 11210.2 325.162" stroke="black" stroke-width="12" stroke-linecap="round"/>
<path d="M11265.9 9.77344C11269 10.3187 11271.9 11.6275 11274.8 12.7744C11286 17.1899 11297.3 21.0537 11309.1 23.5197C11320.2 25.8423 11332.1 27.411 11340.3 18.5342C11346.6 11.8102 11343 17.4425 11341.3 22.4548C11334.8 40.6063 11332.1 61.3474 11330.6 80.4407C11328.7 105.19 11329.5 130.176 11329.5 154.98C11329.5 175.265 11331.4 195.639 11331.1 215.87C11330.6 251.44 11327.5 286.818 11324.7 322.258C11323.7 335.512 11324.3 348.99 11324.3 362.287C11324.3 369.675 11327.1 372.323 11317.5 373.274C11310.4 373.984 11303.8 377.323 11296.6 377.437C11286.9 377.59 11303.3 376.349 11305.4 376.13C11315.4 375.08 11326.1 373.422 11336.2 374C11342.1 374.34 11347.9 375.694 11353.9 375.694" stroke="black" stroke-width="12" stroke-linecap="round"/>
<path d="M11338.2 245.007C11356.4 245.007 11374.1 242.765 11392.1 239.973C11398.5 238.971 11404.8 238.339 11410.9 235.908C11419.6 232.419 11424.2 226.054 11430 219.015C11434.4 213.685 11437.1 207.778 11440.1 201.591C11443.1 195.468 11446.9 189.736 11449.7 183.537C11452.8 176.55 11453.6 169.14 11455.5 161.804C11457.2 155.457 11459.4 149.693 11459.4 143.072" stroke="black" stroke-width="12" stroke-linecap="round"/>
<path d="M11412.3 137.844C11422.8 136.498 11432.9 135.626 11443.4 137.456C11451.5 138.867 11459.5 139.669 11467.7 140.264C11469.9 140.422 11482.9 138.916 11482.9 142.2" stroke="black" stroke-width="12" stroke-linecap="round"/>
<path d="M11412.3 232.811C11416.4 234.983 11418.4 239.563 11420.1 243.653C11422.8 250.098 11425.7 256.462 11428.4 262.917C11434.2 276.732 11438.5 291.564 11442.4 305.995C11445.6 317.957 11448.4 329.926 11451.9 341.812C11454.4 350.277 11457.5 359.074 11459.3 367.707C11460.2 372.281 11455.1 373.951 11451.7 373.951C11447.2 373.951 11433.6 374.054 11438.2 373.951C11453.2 373.61 11468 371.338 11483.1 371.338C11493.2 371.338 11503.3 371.338 11513.4 371.338" stroke="black" stroke-width="12" stroke-linecap="round"/>
<path d="M11556.9 137.844C11578.9 138.711 11599.1 149.299 11621.4 149.993C11631.2 150.301 11641.1 150.041 11651 150.041" stroke="black" stroke-width="12" stroke-linecap="round"/>
<path d="M11604.9 144.815C11604.6 158.41 11604.4 171.693 11607.2 185.085C11609.5 196.334 11613.2 207.255 11616 218.386C11621.3 239.564 11624.2 261.003 11630.5 281.938C11636.2 301.001 11640.8 320.454 11646.7 339.44C11648.6 345.584 11651 352.066 11654.1 357.688C11654.6 358.462 11657.8 363.627 11658.1 361.221C11660.1 347.22 11666.2 334.159 11671.6 321.192C11678.3 304.69 11684.4 287.745 11690.2 270.902C11697.9 248.746 11701 224.849 11709.4 202.897C11712.5 194.921 11714.7 186.658 11718.9 179.229C11722.4 173.208 11724.7 166.595 11727 160.11C11728.7 155.431 11730.4 150.687 11731.6 145.831C11732.8 140.43 11732.9 145.657 11733.3 148.203C11737.9 176.575 11746.1 204.268 11751 232.616C11753.6 247.565 11755.3 262.666 11759.5 277.292C11762.9 288.947 11767.3 300.097 11770.8 311.609C11774.4 323.202 11779 334.187 11783.4 345.587C11785.3 350.626 11785 356.478 11788.9 360.689C11793 365.098 11793 361.082 11794.9 356.236C11798.7 346.062 11803.4 336.183 11806.2 325.645C11809.5 313.255 11813.4 301.121 11817.6 289.053C11821.9 277.109 11824.8 265.553 11827 253.042C11829 241.033 11832.5 229.66 11835.1 217.805C11838.9 199.611 11846.7 182.793 11851.4 164.853C11853.3 157.803 11855.8 151.273 11855.8 143.943" stroke="black" stroke-width="12" stroke-linecap="round"/>
<path d="M11808.7 131.747C11813.4 129.967 11819.4 131.578 11824.1 132.328C11833.1 133.776 11841.3 136.668 11850 139.491C11857.3 141.897 11863.9 142.202 11871.5 142.202C11879.9 142.202 11888.3 142.202 11896.7 142.202" stroke="black" stroke-width="12" stroke-linecap="round"/>
<path d="M11968.2 185.763C11967.5 189.766 11964.8 195.609 11968.5 198.832C11972.5 202.283 11977.4 201.398 11981 197.67C11982.9 195.72 11991.5 184.156 11987.8 180.923C11983.7 177.313 11975 182.909 11973.6 186.828C11972.4 190.141 11970.7 198.761 11975.3 200.381C11983.1 203.144 11990.7 192.747 11991.1 186.151C11991.6 179.177 11985.5 176.499 11979.5 178.503C11972.7 180.755 11970.2 190.409 11972.2 196.702C11975.2 206.065 11996.1 203.017 11994 193.314C11992.8 187.434 11980.5 189.436 11977.4 192.249C11974.3 195.159 11969.5 204.751 11975.4 207.399C11983.3 210.91 11991.2 203.749 11991.4 195.976C11991.8 186.917 11980.4 190.219 11974.8 191.862C11972.4 192.573 11969 196.231 11970.7 193.701C11976.1 185.661 11980.1 177.663 11984.2 168.823C11989.4 157.616 11994.8 148.093 12006.7 143.266C12016 139.474 12025.9 135.662 12035.6 132.714C12062.1 124.633 12086.5 142.433 12096.7 166.16C12100 173.886 12103.9 181.522 12106.7 189.442C12109.6 197.669 12110.7 206.059 12112.4 214.563C12115.2 228.689 12117 243.865 12117.1 258.27C12117.3 276.298 12117.3 294.275 12118.2 312.287C12119.1 330.668 12119 351.51 12126.7 368.627C12128.3 372.116 12129.5 377.039 12132.4 379.614C12136.4 383.046 12142.8 382.663 12147.7 382.663C12159.3 382.663 12167.1 369.295 12163.3 359.14" stroke="black" stroke-width="12" stroke-linecap="round"/>
<path d="M12100.6 185.764C12099.4 195.397 12092 204.844 12086.8 212.772C12082.7 219.045 12077.9 225.075 12072 229.81C12063 237.102 12052 241.154 12041.5 245.879C12033.9 249.322 12026.2 252.489 12018.5 255.656C12009.2 259.435 12001 265.883 11992.6 271.145C11985.3 275.638 11978.6 282.794 11973 289.151C11968.2 294.568 11963.2 302.926 11962.9 310.351C11962.2 327.907 11971.3 340.41 11981.4 353.526C11996.2 372.738 12022.6 374.198 12044.5 371.338C12066.8 368.435 12087 353.025 12099.3 334.746C12104.5 327.096 12108.5 318.232 12111.2 309.48C12112.4 305.741 12115.4 302.112 12115.4 298.154" stroke="black" stroke-width="12" stroke-linecap="round"/>
<path d="M12192.1 127.391C12198.1 132.955 12208.1 139.646 12216.6 139.83C12225.2 140.017 12233.4 133.712 12241.1 130.585C12242.5 130.031 12245.7 129.209 12246.5 131.021C12248.6 135.863 12247.7 145.521 12247.8 150.478C12249.1 218.089 12242.9 285.936 12246.8 353.526C12247.1 360.158 12247.1 366.662 12247.8 373.274C12248.1 376.377 12235.6 374.823 12233.4 374.823C12226.1 374.823 12218.9 375.694 12211.7 375.694C12196.1 375.694 12242.8 377.436 12258.4 377.436C12265.8 377.436 12273.3 377.436 12280.7 377.436C12282.9 377.436 12289.5 376.284 12290.5 378.308" stroke="black" stroke-width="12" stroke-linecap="round"/>
<path d="M12247.8 184.891C12248.3 178.998 12253.7 174.748 12257.6 170.854C12268.3 160.178 12280.5 150.862 12294.3 144.62C12306.5 139.13 12320.2 136.479 12333.5 136.15C12342.5 135.927 12358.2 135.542 12364 144.039C12370.9 154.212 12366.2 173.321 12357.5 180.97C12354.2 183.841 12348.9 189.934 12344.7 185.569C12334.5 174.824 12347.8 155.252 12361.4 157.06C12365.1 157.55 12366.4 164.97 12366.1 167.66C12365.4 174.235 12359.4 177.319 12353.3 177.873C12344 178.719 12345.4 156.14 12352.9 156.14C12362.7 156.14 12352 178.201 12346.8 175.21C12343.2 173.152 12349.9 164.685 12352.3 164.078C12354.1 163.602 12352.9 167.47 12352.6 167.999C12351.1 170.578 12348.6 171.994 12346.3 173.565" stroke="black" stroke-width="12" stroke-linecap="round"/>
<path d="M12444.7 59.4336C12441.2 79.0498 12438 98.9843 12436.6 118.871C12435.3 136.623 12436.9 154.67 12439 172.308C12442.5 202.29 12443.9 232.54 12443.9 262.723C12443.9 272.425 12444.1 281.964 12445.2 291.619C12446.2 301.398 12445.8 311.256 12446.9 320.999C12447.8 329.521 12449.8 337.899 12450.8 346.41C12451.4 351.983 12452.1 357.784 12455.2 362.625C12468.1 382.86 12497 383.641 12515.5 370.95C12529.8 361.101 12533.6 341.586 12533.6 325.162" stroke="black" stroke-width="12" stroke-linecap="round"/>
<path d="M12399.4 133.49C12432.9 133.49 12467.7 130.53 12500.5 138.717" stroke="black" stroke-width="12" stroke-linecap="round"/>
<path d="M12707.8 138.715C12703.5 156.069 12707.4 174.407 12708.5 191.86C12708.8 196.592 12708.7 201.352 12708.7 206.091C12708.7 209.382 12708.7 199.508 12708.7 196.217" stroke="black" stroke-width="12" stroke-linecap="round"/>
<path d="M12706.1 172.694C12704.9 163.362 12699.6 155.104 12693.9 147.864C12685.2 136.684 12676.6 129.33 12661.6 128.261C12645.2 127.09 12627.2 123.872 12610.9 127.487C12597.6 130.43 12587.2 141.759 12582.1 153.963C12577.2 165.537 12575.5 181.904 12580.4 193.749C12589.6 215.751 12617.5 225.976 12638.7 231.455C12663 237.725 12680.2 250.492 12696.3 269.257C12704.3 278.604 12706.9 289.371 12708.9 301.251C12712 319.939 12712.2 340.851 12700.5 356.719C12684.7 378.112 12658.5 387.78 12632.7 387.89C12617 387.958 12604.3 383.97 12597.2 368.917C12594.3 362.726 12592.9 356.548 12591 350.04C12589.3 344.245 12586.3 338.764 12583.9 333.196C12580.7 325.424 12578.2 317.033 12574.5 309.479C12574.1 308.476 12572.8 304.204 12572.8 305.849C12572.8 318.351 12572.7 330.861 12573 343.36C12573.3 354.069 12573.7 364.738 12573.7 375.451C12573.7 377.019 12572.6 382.853 12574.5 380.921" stroke="black" stroke-width="12" stroke-linecap="round"/>
<path d="M12764.5 11.5156C12775.3 17.2452 12786.3 22.2914 12798.1 25.9395C12805 28.1027 12814.4 31.7055 12821.3 27.4884C12822.2 26.9794 12827.5 20.7578 12827.9 22.5029C12828.5 24.9206 12828.1 28.0467 12828.1 30.4893C12828.1 40.7873 12828 51.0757 12827.7 61.3699C12827 82.0904 12826.2 102.846 12824.6 123.518C12822.9 145.425 12820 167.246 12819 189.2C12817.9 213.065 12817.4 236.922 12816.1 260.787C12814.5 287.766 12814.1 314.701 12814.1 341.715C12814.1 352.554 12805.9 363.869 12801.6 373.419C12799.5 377.991 12798.1 385.428 12794.6 389.246C12793.1 390.92 12795.1 384.748 12795.6 382.567C12797.5 375.528 12799.7 368.66 12801.9 361.754" stroke="black" stroke-width="12" stroke-linecap="round"/>
<path d="M12820.2 190.12C12831.6 174.796 12844.2 162.643 12861.5 154.351C12873.5 148.598 12885.6 143.459 12897.3 136.974C12915 127.1 12945.6 116.832 12961.3 135.135C12965.6 140.135 12970.5 145.075 12973.8 150.817C12978.2 158.582 12980.8 167.42 12984 175.744C12989.8 190.848 12991.9 206.681 12992.9 222.743C12995 256.152 12997.9 288.798 12987.1 321.29C12979.3 344.588 12965.6 366.711 12940.6 374.29C12927.8 378.178 12907.5 380.417 12895.2 373.274C12885.2 367.553 12875.9 360.94 12865.6 355.801C12858.4 352.169 12851.4 348.863 12845 343.652C12839.9 339.46 12833.9 336.628 12829 332.229C12826 329.524 12822.8 327.246 12820.2 324.097C12818.7 322.204 12816 321.151 12815 319.063" stroke="black" stroke-width="12" stroke-linecap="round"/>
<path d="M13079 134.359C13090.5 141.152 13103.4 142.201 13116.5 142.201C13119.5 142.201 13122.5 142.25 13125.4 141.136C13126 140.884 13128.6 138.967 13129.3 139.296C13132.2 140.64 13131.3 153.289 13131.3 155.947C13131.3 198.937 13130.5 241.91 13130.4 284.89C13130.3 307.931 13132.1 330.853 13132.1 353.863C13132.1 356.944 13134 372.593 13130.7 374.337C13127 376.358 13119.3 374.822 13115.2 374.822C13107.9 374.822 13100.6 374.822 13093.3 374.822C13088.1 374.822 13100.3 372.297 13100.7 372.208C13115.5 368.435 13130.7 368.723 13145.9 368.723C13157.6 368.723 13170.4 368.965 13181.8 372.208" stroke="black" stroke-width="12" stroke-linecap="round"/>
<path d="M13127.8 192.734C13136.5 184.308 13145.8 176.019 13155.3 168.436C13161.8 163.218 13167.8 159.273 13175.7 156.626C13185.1 153.444 13194.5 149.688 13204.2 147.623C13212.5 145.892 13225.5 142.884 13233.2 147.913C13237.1 150.508 13241.7 152.576 13243.6 157.158C13245.6 161.898 13247.6 170.353 13245.6 175.357C13243.7 180.03 13237.9 185.052 13232.9 185.667C13226.6 186.424 13223.7 177.491 13221.8 172.598C13219.4 166.698 13221.6 160.294 13226.5 156.626C13232.7 152.032 13237.2 150.677 13238.9 159.626C13240.2 166.387 13238.2 177.56 13232.3 181.891C13227.4 185.541 13225.8 171.251 13227.3 168.532C13232.8 158.367 13239 172.816 13232.4 177.342C13228.8 179.806 13226.8 173.126 13229.7 170.953" stroke="black" stroke-width="12" stroke-linecap="round"/>
<path d="M13421.4 126.52C13406 128.983 13392.7 134.481 13380 142.976C13374.5 146.64 13372.2 151.041 13368.8 156.916C13363.9 165.478 13359.4 174.441 13355.2 183.344C13348.3 197.71 13338.5 210.58 13333.9 225.986C13327.7 246.699 13334.1 265.341 13339.5 285.376C13344.6 304.276 13351.9 322.814 13358.7 341.183C13363 353.08 13372.6 364.181 13382.9 371.628C13389.4 376.383 13400.1 377.007 13407.8 377.34C13418.1 377.783 13429.6 378.554 13439.8 376.42C13457 372.784 13473.7 364.023 13488.9 355.268C13505.1 345.902 13518.6 333.161 13523.3 314.61C13529.7 289.519 13532.3 265.006 13532 239.103C13531.7 206.961 13521.5 167.838 13488.9 154.593C13465.6 145.163 13442.7 128.262 13417 128.262" stroke="black" stroke-width="12" stroke-linecap="round"/>
<path d="M13639.2 223.227C13666.7 225.723 13693.7 229.326 13721.3 229.326C13745.5 229.326 13771.3 231.202 13795 225.163C13798.1 224.348 13800.8 221.321 13801.4 218.096C13805.5 196.192 13798.8 174.604 13788.9 155.077C13784.4 146.303 13779.6 135.875 13768.9 134.022C13757.9 132.128 13744.2 132.421 13733.1 134.022C13722.1 135.619 13711.4 138.399 13701.3 143.121C13682.9 151.812 13669.4 168.739 13658.7 185.667C13650.3 198.855 13640.4 213.377 13635.7 228.454C13631.6 241.707 13630.3 253.326 13632.4 267.273C13634.9 283.356 13645.3 297.814 13652.3 312.287C13660 328.424 13668 344.515 13680.2 357.833C13691.4 369.981 13703.9 377.735 13720.3 380.776C13737.8 384.032 13754.9 381.908 13771 374.919C13784.1 369.275 13794.2 361.843 13803.8 351.251C13808 346.641 13810.7 341.004 13814.2 335.859C13815.4 333.963 13816.4 330.92 13817.8 329.518" stroke="black" stroke-width="12" stroke-linecap="round"/>
<path d="M13870.9 7.16016C13888.2 14.7477 13914.6 20.3858 13933.6 13.7429C13940.5 11.3539 13939 16.3197 13938.5 22.2616C13935.5 58.7099 13935.4 95.672 13936.5 132.231C13937.1 154.437 13937.5 175.919 13936.2 198.107C13935.2 215.986 13933.8 234.223 13931.4 251.979C13927.6 281.588 13924.7 311.24 13927.6 341.135C13928.2 347.469 13928.4 353.709 13928.4 360.061C13928.4 363.599 13927.5 363.341 13925 365.627C13923.4 367.087 13922.3 369.051 13920.6 370.467C13912.7 376.997 13896.1 374.823 13886.9 374.823C13882.6 374.823 13884.2 374.678 13887.4 373.371C13892.9 371.1 13898.2 368.868 13904 367.418C13912.3 365.34 13919.6 364.368 13928.2 364.368C13936.8 364.368 13943.8 366.571 13952 368.725C13957 370.044 13963.3 374.024 13964.2 366.982" stroke="black" stroke-width="12" stroke-linecap="round"/>
<path d="M13928.4 260.689C13945.3 250.429 13967.5 254.302 13986.2 252.8C13990.1 252.487 13994.8 248.721 13998 246.749C14006.1 241.672 14013.7 234.789 14019.7 227.388C14033 211.16 14038.2 189.548 14047.8 171.242C14050.8 165.525 14052.7 159.555 14056.3 154.204C14058.9 150.437 14061.4 146.282 14063.4 142.2C14064.3 140.452 14066.9 137.177 14067 135.231C14067.1 133.401 14057.1 134.352 14056.1 134.359C14048.2 134.415 14040.3 135.231 14032.3 135.231C14031 135.231 14027.4 135.18 14028.5 134.65C14034.4 131.973 14042.5 132.061 14048.7 131.988C14063.7 131.81 14078.3 134.99 14093.2 135.231C14097.7 135.303 14099.2 134.106 14099.2 138.716" stroke="black" stroke-width="12" stroke-linecap="round"/>
<path d="M14019.9 228.453C14021.7 234.793 14028.3 241.179 14031.8 246.556C14039.3 258.059 14046.9 269.841 14052.8 282.276C14063.4 304.647 14067.2 331.228 14071.5 355.461C14072.7 362.011 14074.1 368.843 14076.2 375.112C14077.7 379.598 14093.4 375.503 14096.6 375.015C14100.8 374.36 14105.4 374.821 14109.6 374.821C14110.6 374.821 14120 374.513 14115.1 374.87C14103.7 375.717 14092.5 380.714 14080.9 380.92C14070.8 381.101 14059.6 379.723 14049.9 376.903C14043.3 375.005 14038.9 373.95 14032.1 373.95" stroke="black" stroke-width="12" stroke-linecap="round"/>
</svg>
