<svg width="276" height="51" viewBox="0 0 276 51" fill="none" xmlns="http://www.w3.org/2000/svg">
<g filter="url(#filter0_d_28_454)">
<path d="M0 12C0 5.37258 5.37258 0 12 0H263C269.627 0 275 5.37258 275 12V38C275 44.6274 269.627 50 263 50H12C5.37259 50 0 44.6274 0 38V12Z" fill="#FF8A8C"/>
<path d="M12 0.5H263C269.351 0.5 274.5 5.64873 274.5 12V38C274.5 44.3513 269.351 49.5 263 49.5H12C5.64873 49.5 0.5 44.3513 0.5 38V12C0.5 5.64873 5.64873 0.5 12 0.5Z" stroke="black"/>
<path d="M21.5742 13.9463C21.6267 16.3884 22.1341 18.7829 22.3275 21.2106C22.508 23.477 22.3785 25.7933 22.3785 28.0664C22.3785 29.4265 22.3444 30.7784 22.2062 32.1327C22.1406 32.7753 22.3243 33.3224 21.5742 33.1349M18.2422 30.0325C19.6606 30.0325 20.3101 31.2713 21.2296 32.1645C21.9411 32.8557 22.6481 31.8696 23.2723 31.4368C24.5127 30.577 25.6872 29.541 26.9747 28.7686M11.3474 31.2958C11.0884 31.236 10.4379 30.653 10.658 30.8873C10.9855 31.2359 11.2375 31.8917 11.3219 32.3555L11.3255 32.3753C11.4624 33.1282 11.6012 33.8917 11.8964 34.6024C12.0619 35.0009 12.2666 35.3121 12.2666 35.7514C12.2666 36.0678 12.2849 36.1447 12.6241 36.2621C14.0033 36.7396 15.4001 36.9174 16.8499 37.0409C19.557 37.2716 22.2028 37.3856 24.9186 37.3856C27.7722 37.3856 30.3907 36.7906 33.1787 36.326C34.4911 36.1072 34.7584 35.8988 35.0172 34.4109C35.2827 32.884 35.5616 31.4162 35.9364 29.917" stroke="black" stroke-linecap="round"/>
<path d="M21.8496 12.6152C21.9021 15.0573 22.4095 17.4519 22.6029 19.8796C22.7834 22.146 22.6539 24.4622 22.6539 26.7354C22.6539 28.0954 22.6198 29.4474 22.4816 30.8016C22.416 31.4443 22.5997 31.9913 21.8496 31.8038M18.5176 28.7014C19.936 28.7014 20.5855 29.9402 21.505 30.8335C22.2165 31.5246 22.9235 30.5385 23.5477 30.1058C24.7881 29.2459 25.9626 28.21 27.2501 27.4375M11.6228 29.9648C11.3638 29.905 10.7133 29.3219 10.9334 29.5562C11.2609 29.9048 11.5129 30.5606 11.5973 31.0244L11.6009 31.0442C11.7377 31.7972 11.8766 32.5607 12.1718 33.2714C12.3373 33.6699 12.542 33.981 12.542 34.4204C12.542 34.7368 12.5603 34.8136 12.8995 34.9311C14.2787 35.4085 15.6755 35.5863 17.1253 35.7098C19.8324 35.9405 22.4782 36.0546 25.194 36.0546C28.0476 36.0546 30.6661 35.4596 33.4541 34.9949C34.7665 34.7762 35.0338 34.5677 35.2926 33.0799C35.5581 31.5529 35.837 30.0852 36.2118 28.5859" stroke="white" stroke-linecap="round"/>
<path d="M60.2488 17.0968C61.5228 17.0478 62.8023 16.9641 64.0783 16.9982C65.5398 17.0371 67.0023 17.1892 68.4657 17.1982C69.7306 17.206 70.9832 17.376 72.2304 17.5786C73.2895 17.7507 74.3578 17.959 75.316 18.4663C76.1436 18.9044 76.9232 19.6916 77.545 20.3824C78.0816 20.9787 78.6842 21.6183 78.9652 22.3831C79.3875 23.5329 79.4714 24.6819 79.3146 25.9027C79.1202 27.4158 78.5487 28.6921 77.8014 29.9999C77.4103 30.6843 76.748 31.3308 76.074 31.7441C75.6634 31.996 75.2032 32.1645 74.7665 32.3641C74.3235 32.5665 73.9066 32.7844 73.4308 32.8995C72.1615 33.2066 70.9351 33.5328 69.6323 33.6828C68.7155 33.7884 67.7723 33.8259 66.8652 33.9872C65.5194 34.2264 64.1356 34.3012 62.7821 34.4437C62.0673 34.5189 61.3337 34.5451 60.6151 34.5451C59.5395 34.5451 58.4998 34.4875 57.4366 34.3225C57.1919 34.2845 57.1178 34.31 57.3577 34.19" stroke="black" stroke-linecap="round"/>
<path d="M63.5974 16.9951C63.9144 17.3121 63.8868 17.8433 63.913 18.2632C63.9834 19.3896 64.0482 20.5046 64.0539 21.6333C64.0654 23.8903 64.1835 26.1285 63.9271 28.3794C63.8164 29.3513 63.6707 30.3177 63.5495 31.2874C63.4884 31.7761 63.3945 32.2179 63.3945 32.7133C63.3945 33.1716 63.3945 33.63 63.3945 34.0884" stroke="black" stroke-linecap="round"/>
<path d="M88.147 21.864C86.9177 22.4967 86.0309 23.73 85.47 24.9693C85.306 25.3317 85.2627 25.7203 85.1544 26.0993C85.0157 26.5849 84.9062 27.079 84.8022 27.573C84.6937 28.0883 84.6192 28.6724 84.5993 29.1989C84.5805 29.6961 84.495 30.1869 84.495 30.684C84.495 31.3374 84.4275 32.1447 84.7994 32.7185C84.9581 32.9634 85.1155 33.2098 85.3376 33.4032C85.6361 33.6632 85.9962 34.0398 86.352 34.2119C87.1677 34.6066 87.9441 34.9652 88.8571 35.0911C89.7574 35.2153 90.4698 34.9581 91.1396 34.3585C91.9296 33.6511 92.4482 32.6424 92.8078 31.6618C93.1755 30.659 93.4126 29.6102 93.4221 28.5367C93.4326 27.3466 93.3854 26.1892 93.1093 25.0257C92.8686 24.0113 92.2706 23.1209 91.6271 22.3289C91.0861 21.6631 90.222 21.6611 89.4404 21.6611C89.0735 21.6611 88.7054 21.6524 88.3386 21.6611C88.0765 21.6673 87.8747 21.8364 87.6398 21.9147" stroke="black" stroke-linecap="round"/>
<path d="M97.3281 22.0159C97.5295 21.8548 98.0884 21.9634 98.3257 21.9652C99.1913 21.9716 100.041 22.0899 100.901 22.1681C101.634 22.2347 102.373 22.1808 103.099 22.3089C103.235 22.3328 103.379 22.3202 103.516 22.3202" stroke="black" stroke-linecap="round"/>
<path d="M99.7617 22.5747C100.049 23.3502 100.323 24.1218 100.63 24.891C100.953 25.7002 101.26 26.5335 101.464 27.382C101.662 28.2089 101.8 29.0444 102.022 29.8673C102.144 30.3229 102.26 30.7815 102.349 31.2453C102.429 31.6695 102.518 32.0905 102.602 32.5133C102.627 32.6355 103.059 33.526 103.025 33.57C102.977 33.6315 102.919 33.453 102.918 33.446C102.884 33.2265 102.902 32.9768 102.929 32.7585C103.039 31.8667 103.548 31.0772 103.91 30.2731C104.334 29.3296 104.67 28.3537 105.065 27.3989C105.3 26.8312 105.598 26.2994 105.846 25.7391C106.171 25.0021 106.436 24.2514 106.682 23.4905C106.734 23.3302 106.777 23.1627 106.837 23.0058C106.976 22.6455 107.076 23.3527 107.116 23.4877C107.683 25.3679 108.094 27.2627 108.537 29.1741C108.732 30.0186 109.005 30.8855 109.292 31.7046C109.435 32.1148 109.516 32.6158 109.729 32.998C109.768 33.0693 109.726 32.6788 109.762 32.5387C109.837 32.256 109.965 31.9895 110.058 31.713C110.239 31.1772 110.357 30.6215 110.503 30.0759C110.788 29.0161 111.073 27.9686 111.253 26.886C111.362 26.2327 111.476 25.613 111.681 24.9811C111.878 24.3772 112.073 23.7876 112.338 23.2087C112.499 22.8569 112.755 22.4898 112.848 22.1182" stroke="black" stroke-linecap="round"/>
<path d="M110.818 21.9658C111.166 21.9658 111.599 21.8953 111.937 21.994C112.288 22.0962 112.639 22.1976 112.999 22.2588C113.365 22.3209 113.725 22.4142 114.093 22.473C114.406 22.5231 114.722 22.498 115.028 22.5744" stroke="black" stroke-linecap="round"/>
<path d="M117.109 21.915C117.852 21.9614 118.569 22.1961 119.316 22.2166C119.912 22.2329 120.443 22.1086 121.015 21.9658" stroke="black" stroke-linecap="round"/>
<path d="M120.761 21.9658C120.609 22.0115 120.545 22.2666 120.502 22.3941C120.308 22.9752 120.093 23.6108 120.057 24.2258C120.03 24.689 120.069 25.1543 120.04 25.6178C120 26.2566 119.95 26.8809 119.95 27.5227C119.95 29.003 120.001 30.4785 120.001 31.958C120.001 32.262 120.051 32.5612 120.051 32.8682C120.051 32.9495 120.094 33.1651 119.978 33.1753C119.75 33.1955 119.52 33.1937 119.29 33.2148C119.028 33.239 118.767 33.2446 118.504 33.2796C118.225 33.3168 117.978 33.429 117.693 33.429C117.525 33.429 117.199 33.4018 117.109 33.5811" stroke="black" stroke-linecap="round"/>
<path d="M119.037 33.1748C119.484 33.1748 119.841 33.1988 120.271 33.3101C120.66 33.4105 121.071 33.5366 121.435 33.7074C121.645 33.8059 121.796 33.8849 122.03 33.8849" stroke="black" stroke-linecap="round"/>
<path d="M120.406 24.6541C120.426 24.5753 120.686 24.4256 120.75 24.3498C120.999 24.0557 121.28 23.8521 121.612 23.651C122.061 23.3793 122.522 23.1298 122.982 22.8789C123.335 22.6861 123.702 22.4104 124.1 22.3266C124.507 22.2409 124.926 22.0166 125.346 22.0166C126.147 22.0166 126.539 22.8942 126.887 23.5044C128.078 25.5879 128.025 28.0977 128.291 30.4139C128.328 30.7404 128.452 33.429 128.116 33.429" stroke="black" stroke-linecap="round"/>
<path d="M125.225 33.5303C124.242 33.6285 127.196 33.6824 128.184 33.6824C128.775 33.6824 129.351 33.8346 129.942 33.8346" stroke="black" stroke-linecap="round"/>
<path d="M132.326 15.9805C133.104 16.0427 133.87 16.3531 134.648 16.4651C134.919 16.5042 135.198 16.4877 135.471 16.4877" stroke="black" stroke-linecap="round"/>
<path d="M134.81 16.2852C134.738 17.1458 134.642 17.9719 134.661 18.8438C134.688 20.0691 134.806 21.2842 134.81 22.5127C134.814 23.5661 134.912 24.6159 134.912 25.6687C134.912 26.6634 134.912 27.6581 134.912 28.6528C134.912 29.9677 134.672 31.2568 134.61 32.5641C134.602 32.7314 134.692 33.8856 134.455 33.8856" stroke="black" stroke-linecap="round"/>
<path d="M132.072 33.7839C132.56 33.5401 133.424 33.6609 133.96 33.6937C134.645 33.7357 135.346 33.7352 136.029 33.7952C136.623 33.8474 137.206 33.9361 137.804 33.9361" stroke="black" stroke-linecap="round"/>
<path d="M144.449 21.6612C144.124 21.8237 143.779 21.9086 143.482 22.1289C142.962 22.5148 142.44 23.0409 142.053 23.5604C141.682 24.0602 141.438 24.6741 141.177 25.2371C140.932 25.7665 140.752 26.1569 140.746 26.7446C140.739 27.4237 140.674 28.085 140.729 28.7679C140.802 29.6715 141.049 30.541 141.405 31.3716C141.747 32.1678 142.182 32.9885 142.876 33.5301C143.799 34.2501 144.95 34.3032 146.072 34.2909C146.835 34.2825 147.602 34.1122 148.292 33.8062C149.149 33.4268 149.636 32.6139 149.893 31.7379C150.087 31.0763 150.191 30.3686 150.256 29.6837C150.327 28.9418 150.429 28.1891 150.434 27.4435C150.439 26.6718 150.486 25.8759 150.372 25.1103C150.287 24.5419 150.031 23.985 149.763 23.4872C149.35 22.7193 148.455 22.4174 147.706 22.1177C147.036 21.8495 146.321 21.6104 145.593 21.6104C145.045 21.6104 144.364 21.5932 143.941 22.0162" stroke="black" stroke-linecap="round"/>
<path d="M157.788 24.9578C157.502 25.2153 157.003 25.3129 156.633 25.3129C156.395 25.3129 156.118 24.6673 156.238 24.4506C156.328 24.2885 156.588 24.2175 156.74 24.1266C156.874 24.0457 157.008 24.3072 157.055 24.3999C157.191 24.6668 157.331 25.2446 156.906 25.3101C156.66 25.348 156.591 24.7157 156.627 24.5521C156.663 24.391 156.977 24.1747 157.154 24.2534C157.42 24.3718 157.434 25.1414 157.126 25.203C156.559 25.3163 156.582 24.0259 156.757 23.7011C157.153 22.9621 158.125 22.6373 158.791 22.2189C159.344 21.8718 159.792 21.5902 160.414 21.4186C161.063 21.2396 161.755 22.1032 162.046 22.5542C162.382 23.0754 162.62 23.7451 162.733 24.352C162.819 24.8115 162.996 25.2889 163.012 25.7581C163.027 26.1617 162.7 26.4536 162.392 26.6711C162.169 26.8294 161.902 26.9177 161.671 27.0656C161.392 27.2443 161.142 27.4861 160.851 27.6433C159.815 28.2035 158.824 28.8558 157.763 29.3735C156.764 29.8605 155.956 31.2108 156.571 32.2731C156.843 32.7445 157.295 33.1958 157.85 33.3044C158.325 33.3975 159.033 33.4013 159.512 33.3157C160.04 33.2214 160.67 32.69 161.034 32.3125C161.356 31.9791 161.55 31.5148 161.741 31.1008C161.95 30.6499 162.17 30.2237 162.302 29.7426C162.524 28.9337 162.631 28.0762 162.66 27.2403C162.671 26.9288 162.759 25.9987 162.759 26.3104C162.759 27.5121 162.803 28.723 162.733 29.923C162.683 30.7965 162.825 31.5216 163.012 32.3632C163.143 32.95 163.504 33.7851 164.106 34.0342C165.141 34.4626 165.727 33.3318 166.258 32.6676" stroke="black" stroke-linecap="round"/>
<path d="M178.583 24.248C178.159 22.9087 176.787 22.6977 175.59 22.484C174.742 22.3326 173.892 22.2148 173.054 22.484C171.819 22.881 170.866 24.07 170.445 25.2681C170.004 26.52 170.203 28.0632 170.419 29.3427C170.529 29.9917 170.717 30.6735 170.924 31.2983C171.108 31.8569 171.339 32.471 171.673 32.9609C171.965 33.3888 172.351 33.5104 172.826 33.6795C173.263 33.8349 173.894 33.9839 174.35 33.9133C175.47 33.7403 176.685 32.7733 177.385 31.9155C178.079 31.0649 178.16 30.1138 178.301 29.0469C178.374 28.4974 178.284 27.9406 178.38 27.3928C178.459 26.9436 178.431 26.4836 178.431 26.0289C178.431 24.3955 178.481 22.7625 178.481 21.1258C178.481 20.2222 178.481 19.3186 178.481 18.415C178.481 17.7829 178.422 17.0824 178.535 16.4594C178.605 16.0748 178.339 16.202 177.997 16.2734C177.558 16.3647 177.234 16.4027 176.791 16.31C176.36 16.2199 175.878 16.0736 175.489 15.8789" stroke="black" stroke-linecap="round"/>
<path d="M178.584 27.3926C178.584 28.0294 178.584 28.6663 178.584 29.3031C178.584 29.9818 178.681 30.6495 178.685 31.3263C178.69 32.0194 178.787 32.7074 178.787 33.3947C178.787 33.6938 178.834 33.6106 179.102 33.4905C179.389 33.3624 179.735 33.1749 180.055 33.1749C180.309 33.1749 180.671 33.2061 180.878 33.3665C180.956 33.427 181.123 33.5299 181.222 33.5299" stroke="black" stroke-linecap="round"/>
<path d="M189.387 34.037C189.278 34.037 189.037 33.7603 189.037 34.006C189.037 34.0829 189.426 34.0313 189.234 33.9356" stroke="black" stroke-linecap="round"/>
<path d="M192.48 33.9867C193.85 33.9867 195.25 33.857 196.606 33.657C197.105 33.5834 197.659 33.4795 198.161 33.4795" stroke="black" stroke-linecap="round"/>
<path d="M196.337 33.5301C196.184 33.4537 196.152 33.1208 196.123 32.9778C196.024 32.5026 196.019 32.0173 195.982 31.535C195.906 30.5651 195.88 29.5937 195.88 28.6213C195.88 26.825 195.982 25.0337 195.982 23.2392C195.982 21.9653 195.777 20.7038 195.638 19.4407C195.567 18.7928 195.634 18.1397 195.475 17.502" stroke="black" stroke-linecap="round"/>
<path d="M191.721 17.5022C192.128 17.3567 192.597 17.3635 193.023 17.3585C193.632 17.3513 194.244 17.381 194.849 17.4515C195.474 17.5243 196.1 17.4906 196.728 17.5275C197.332 17.5631 197.938 17.5529 198.543 17.5529C199.209 17.5529 199.874 17.6854 200.535 17.7558C201.169 17.8233 201.828 17.85 202.434 18.0601C202.925 18.2303 203.523 18.3477 203.967 18.6237C204.837 19.1633 205.22 20.0093 205.283 21.0189C205.369 22.3934 204.916 23.8456 203.922 24.8061C203.179 25.525 202.033 25.875 201.056 26.1193C200.055 26.3697 199.045 26.3682 198.021 26.3785C197.258 26.3862 196.494 26.4292 195.728 26.4292" stroke="black" stroke-linecap="round"/>
<path d="M209.119 34.0378C209.774 34.0378 210.394 34.1072 211.047 34.0097C211.577 33.9304 212.132 34.0066 212.667 33.9843C213.296 33.9581 213.915 33.835 214.546 33.835" stroke="black" stroke-linecap="round"/>
<path d="M212.516 33.8856C212.168 32.8417 212.025 31.7316 211.908 30.6422C211.786 29.508 211.617 28.3891 211.541 27.2523C211.449 25.8656 211.451 24.485 211.451 23.0931C211.451 21.8108 211.502 20.5293 211.502 19.2495C211.502 18.8277 211.52 18.3236 211.603 17.9082" stroke="black" stroke-linecap="round"/>
<path d="M209.068 17.4004C210.217 17.4004 211.309 17.6173 212.427 17.8456C212.849 17.9316 213.421 17.8676 213.785 18.1105" stroke="black" stroke-linecap="round"/>
<path d="M212.871 18.1104C213.135 18.1714 213.359 18.4239 213.561 18.5951C213.815 18.8095 214.016 19.0464 214.246 19.277C214.611 19.642 214.822 20.0997 215.131 20.5056C215.563 21.0736 215.836 21.7557 216.168 22.3823C217.251 24.4263 219.022 26.0025 220.508 27.7504C221.673 29.1215 222.874 30.4747 223.979 31.8871C224.257 32.2425 224.457 32.6948 224.678 33.0903C224.801 33.3105 224.933 33.5014 225.073 33.7102C225.102 33.7548 225.192 33.9882 225.197 33.8004C225.251 31.3892 225.197 28.9755 225.25 26.5641C225.292 24.6719 225.309 22.8019 225.067 20.9227C224.915 19.7492 224.943 18.5329 224.943 17.3496" stroke="black" stroke-linecap="round"/>
<path d="M222.459 17.35C222.698 16.9585 223.362 17.0852 223.738 17.1076C224.463 17.1508 225.183 17.2552 225.905 17.3246C226.428 17.3748 226.955 17.4007 227.48 17.4007" stroke="black" stroke-linecap="round"/>
<path d="M248.428 16.8936C248.575 17.2295 248.64 17.5912 248.707 17.9503C248.83 18.6113 248.98 19.2854 249.031 19.9566C249.072 20.5017 249.189 21.0652 249.189 21.6107" stroke="black" stroke-linecap="round"/>
<path d="M248.934 19.5821C248.724 19.5353 248.438 19.2985 248.263 19.1764C247.869 18.9 247.465 18.6475 247.029 18.4409C246.377 18.1317 245.707 17.879 245.045 17.5927C244.199 17.2264 243.155 17.1324 242.236 17.0996C241.375 17.0688 240.499 17.0764 239.649 17.2236C238.867 17.359 237.945 17.5446 237.279 17.9985C236.475 18.5466 235.857 19.3319 235.315 20.1344C233.934 22.181 233.646 24.5679 233.779 26.9875C233.843 28.1314 234.089 29.4016 234.554 30.4535C234.718 30.8229 234.893 31.2636 235.118 31.5976C235.37 31.9711 235.742 32.2602 236.039 32.5951C236.479 33.0895 236.995 33.6319 237.612 33.8941C238.384 34.2229 239.156 34.606 239.984 34.7761C240.77 34.9374 241.607 34.9584 242.405 35.0241C244.323 35.1821 246.014 33.6308 246.984 32.102C248.083 30.3705 248.224 28.4252 248.224 26.4296" stroke="black" stroke-linecap="round"/>
<path d="M244.979 27.0881C246.191 26.8608 247.41 26.8437 248.633 26.9613C249.095 27.0058 249.537 27.0881 250 27.0881" stroke="black" stroke-linecap="round"/>
<path d="M59.2488 16.0968C60.5228 16.0478 61.8023 15.9641 63.0783 15.9982C64.5398 16.0371 66.0023 16.1892 67.4657 16.1982C68.7306 16.206 69.9832 16.376 71.2304 16.5786C72.2895 16.7507 73.3578 16.959 74.316 17.4663C75.1436 17.9044 75.9232 18.6916 76.545 19.3824C77.0816 19.9787 77.6842 20.6183 77.9652 21.3831C78.3875 22.5329 78.4714 23.6819 78.3146 24.9027C78.1202 26.4158 77.5487 27.6921 76.8014 28.9999C76.4103 29.6843 75.748 30.3308 75.074 30.7441C74.6634 30.996 74.2032 31.1645 73.7665 31.3641C73.3235 31.5665 72.9066 31.7844 72.4308 31.8995C71.1615 32.2066 69.9351 32.5328 68.6323 32.6828C67.7155 32.7884 66.7723 32.8259 65.8652 32.9872C64.5194 33.2264 63.1356 33.3012 61.7821 33.4437C61.0673 33.5189 60.3337 33.5451 59.6151 33.5451C58.5395 33.5451 57.4998 33.4875 56.4366 33.3225C56.1919 33.2845 56.1178 33.31 56.3577 33.19" stroke="white" stroke-linecap="round"/>
<path d="M62.5974 15.9951C62.9144 16.3121 62.8868 16.8433 62.913 17.2632C62.9834 18.3896 63.0482 19.5046 63.0539 20.6333C63.0654 22.8903 63.1835 25.1285 62.9271 27.3794C62.8164 28.3513 62.6707 29.3177 62.5495 30.2874C62.4884 30.7761 62.3945 31.2179 62.3945 31.7133C62.3945 32.1716 62.3945 32.63 62.3945 33.0884" stroke="white" stroke-linecap="round"/>
<path d="M87.147 20.864C85.9177 21.4967 85.0309 22.73 84.47 23.9693C84.306 24.3317 84.2627 24.7203 84.1544 25.0993C84.0157 25.5849 83.9062 26.079 83.8022 26.573C83.6937 27.0883 83.6192 27.6724 83.5993 28.1989C83.5805 28.6961 83.495 29.1869 83.495 29.684C83.495 30.3374 83.4275 31.1447 83.7994 31.7185C83.9581 31.9634 84.1155 32.2098 84.3376 32.4032C84.6361 32.6632 84.9962 33.0398 85.352 33.2119C86.1677 33.6066 86.9441 33.9652 87.8571 34.0911C88.7574 34.2153 89.4698 33.9581 90.1396 33.3585C90.9296 32.6511 91.4482 31.6424 91.8078 30.6618C92.1755 29.659 92.4126 28.6102 92.4221 27.5367C92.4326 26.3466 92.3854 25.1892 92.1093 24.0257C91.8686 23.0113 91.2706 22.1209 90.6271 21.3289C90.0861 20.6631 89.222 20.6611 88.4404 20.6611C88.0735 20.6611 87.7054 20.6524 87.3386 20.6611C87.0765 20.6673 86.8747 20.8364 86.6398 20.9147" stroke="white" stroke-linecap="round"/>
<path d="M96.3281 21.0159C96.5295 20.8548 97.0884 20.9634 97.3257 20.9652C98.1913 20.9716 99.0414 21.0899 99.9012 21.1681C100.634 21.2347 101.373 21.1808 102.099 21.3089C102.235 21.3328 102.379 21.3202 102.516 21.3202" stroke="white" stroke-linecap="round"/>
<path d="M98.7617 21.5747C99.0489 22.3502 99.3225 23.1218 99.6296 23.891C99.9527 24.7002 100.26 25.5335 100.464 26.382C100.662 27.2089 100.8 28.0444 101.022 28.8673C101.144 29.3229 101.26 29.7815 101.349 30.2453C101.429 30.6695 101.518 31.0905 101.602 31.5133C101.627 31.6355 102.059 32.526 102.025 32.57C101.977 32.6315 101.919 32.453 101.918 32.446C101.884 32.2265 101.902 31.9768 101.929 31.7585C102.039 30.8667 102.548 30.0772 102.91 29.2731C103.334 28.3296 103.67 27.3537 104.065 26.3989C104.3 25.8312 104.598 25.2994 104.846 24.7391C105.171 24.0021 105.436 23.2514 105.682 22.4905C105.734 22.3302 105.777 22.1627 105.837 22.0058C105.976 21.6455 106.076 22.3527 106.116 22.4877C106.683 24.3679 107.094 26.2627 107.537 28.1741C107.732 29.0186 108.005 29.8855 108.292 30.7046C108.435 31.1148 108.516 31.6158 108.729 31.998C108.768 32.0693 108.726 31.6788 108.762 31.5387C108.837 31.256 108.965 30.9895 109.058 30.713C109.239 30.1772 109.357 29.6215 109.503 29.0759C109.788 28.0161 110.073 26.9686 110.253 25.886C110.362 25.2327 110.476 24.613 110.681 23.9811C110.878 23.3772 111.073 22.7876 111.338 22.2087C111.499 21.8569 111.755 21.4898 111.848 21.1182" stroke="white" stroke-linecap="round"/>
<path d="M109.818 20.9658C110.166 20.9658 110.599 20.8953 110.937 20.994C111.288 21.0962 111.639 21.1976 111.999 21.2588C112.365 21.3209 112.725 21.4142 113.093 21.473C113.406 21.5231 113.722 21.498 114.028 21.5744" stroke="white" stroke-linecap="round"/>
<path d="M116.109 20.915C116.852 20.9614 117.569 21.1961 118.316 21.2166C118.912 21.2329 119.443 21.1086 120.015 20.9658" stroke="white" stroke-linecap="round"/>
<path d="M119.761 20.9658C119.609 21.0115 119.545 21.2666 119.502 21.3941C119.308 21.9752 119.093 22.6108 119.057 23.2258C119.03 23.689 119.069 24.1543 119.04 24.6178C119 25.2566 118.95 25.8809 118.95 26.5227C118.95 28.003 119.001 29.4785 119.001 30.958C119.001 31.262 119.051 31.5612 119.051 31.8682C119.051 31.9495 119.094 32.1651 118.978 32.1753C118.75 32.1955 118.52 32.1937 118.29 32.2148C118.028 32.239 117.767 32.2446 117.504 32.2796C117.225 32.3168 116.978 32.429 116.693 32.429C116.525 32.429 116.199 32.4018 116.109 32.5811" stroke="white" stroke-linecap="round"/>
<path d="M118.037 32.1748C118.484 32.1748 118.841 32.1988 119.271 32.3101C119.66 32.4105 120.071 32.5366 120.435 32.7074C120.645 32.8059 120.796 32.8849 121.03 32.8849" stroke="white" stroke-linecap="round"/>
<path d="M119.406 23.6541C119.426 23.5753 119.686 23.4256 119.75 23.3498C119.999 23.0557 120.28 22.8521 120.612 22.651C121.061 22.3793 121.522 22.1298 121.982 21.8789C122.335 21.6861 122.702 21.4104 123.1 21.3266C123.507 21.2409 123.926 21.0166 124.346 21.0166C125.147 21.0166 125.539 21.8942 125.887 22.5044C127.078 24.5879 127.025 27.0977 127.291 29.4139C127.328 29.7404 127.452 32.429 127.116 32.429" stroke="white" stroke-linecap="round"/>
<path d="M124.225 32.5303C123.242 32.6285 126.196 32.6824 127.184 32.6824C127.775 32.6824 128.351 32.8346 128.942 32.8346" stroke="white" stroke-linecap="round"/>
<path d="M131.326 14.9805C132.104 15.0427 132.87 15.3531 133.648 15.4651C133.919 15.5042 134.198 15.4877 134.471 15.4877" stroke="white" stroke-linecap="round"/>
<path d="M133.81 15.2852C133.738 16.1458 133.642 16.9719 133.661 17.8438C133.688 19.0691 133.806 20.2842 133.81 21.5127C133.814 22.5661 133.912 23.6159 133.912 24.6687C133.912 25.6634 133.912 26.6581 133.912 27.6528C133.912 28.9677 133.672 30.2568 133.61 31.5641C133.602 31.7314 133.692 32.8856 133.455 32.8856" stroke="white" stroke-linecap="round"/>
<path d="M131.072 32.7839C131.56 32.5401 132.424 32.6609 132.96 32.6937C133.645 32.7357 134.346 32.7352 135.029 32.7952C135.623 32.8474 136.206 32.9361 136.804 32.9361" stroke="white" stroke-linecap="round"/>
<path d="M143.449 20.6612C143.124 20.8237 142.779 20.9086 142.482 21.1289C141.962 21.5148 141.44 22.0409 141.053 22.5604C140.682 23.0602 140.438 23.6741 140.177 24.2371C139.932 24.7665 139.752 25.1569 139.746 25.7446C139.739 26.4237 139.674 27.085 139.729 27.7679C139.802 28.6715 140.049 29.541 140.405 30.3716C140.747 31.1678 141.182 31.9885 141.876 32.5301C142.799 33.2501 143.95 33.3032 145.072 33.2909C145.835 33.2825 146.602 33.1122 147.292 32.8062C148.149 32.4268 148.636 31.6139 148.893 30.7379C149.087 30.0763 149.191 29.3686 149.256 28.6837C149.327 27.9418 149.429 27.1891 149.434 26.4435C149.439 25.6718 149.486 24.8759 149.372 24.1103C149.287 23.5419 149.031 22.985 148.763 22.4872C148.35 21.7193 147.455 21.4174 146.706 21.1177C146.036 20.8495 145.321 20.6104 144.593 20.6104C144.045 20.6104 143.364 20.5932 142.941 21.0162" stroke="white" stroke-linecap="round"/>
<path d="M156.788 23.9578C156.502 24.2153 156.003 24.3129 155.633 24.3129C155.395 24.3129 155.118 23.6673 155.238 23.4506C155.328 23.2885 155.588 23.2175 155.74 23.1266C155.874 23.0457 156.008 23.3072 156.055 23.3999C156.191 23.6668 156.331 24.2446 155.906 24.3101C155.66 24.348 155.591 23.7157 155.627 23.5521C155.663 23.391 155.977 23.1747 156.154 23.2534C156.42 23.3718 156.434 24.1414 156.126 24.203C155.559 24.3163 155.582 23.0259 155.757 22.7011C156.153 21.9621 157.125 21.6373 157.791 21.2189C158.344 20.8718 158.792 20.5902 159.414 20.4186C160.063 20.2396 160.755 21.1032 161.046 21.5542C161.382 22.0754 161.62 22.7451 161.733 23.352C161.819 23.8115 161.996 24.2889 162.012 24.7581C162.027 25.1617 161.7 25.4536 161.392 25.6711C161.169 25.8294 160.902 25.9177 160.671 26.0656C160.392 26.2443 160.142 26.4861 159.851 26.6433C158.815 27.2035 157.824 27.8558 156.763 28.3735C155.764 28.8605 154.956 30.2108 155.571 31.2731C155.843 31.7445 156.295 32.1958 156.85 32.3044C157.325 32.3975 158.033 32.4013 158.512 32.3157C159.04 32.2214 159.67 31.69 160.034 31.3125C160.356 30.9791 160.55 30.5148 160.741 30.1008C160.95 29.6499 161.17 29.2237 161.302 28.7426C161.524 27.9337 161.631 27.0762 161.66 26.2403C161.671 25.9288 161.759 24.9987 161.759 25.3104C161.759 26.5121 161.803 27.723 161.733 28.923C161.683 29.7965 161.825 30.5216 162.012 31.3632C162.143 31.95 162.504 32.7851 163.106 33.0342C164.141 33.4626 164.727 32.3318 165.258 31.6676" stroke="white" stroke-linecap="round"/>
<path d="M177.583 23.248C177.159 21.9087 175.787 21.6977 174.59 21.484C173.742 21.3326 172.892 21.2148 172.054 21.484C170.819 21.881 169.866 23.07 169.445 24.2681C169.004 25.52 169.203 27.0632 169.419 28.3427C169.529 28.9917 169.717 29.6735 169.924 30.2983C170.108 30.8569 170.339 31.471 170.673 31.9609C170.965 32.3888 171.351 32.5104 171.826 32.6795C172.263 32.8349 172.894 32.9839 173.35 32.9133C174.47 32.7403 175.685 31.7733 176.385 30.9155C177.079 30.0649 177.16 29.1138 177.301 28.0469C177.374 27.4974 177.284 26.9406 177.38 26.3928C177.459 25.9436 177.431 25.4836 177.431 25.0289C177.431 23.3955 177.481 21.7625 177.481 20.1258C177.481 19.2222 177.481 18.3186 177.481 17.415C177.481 16.7829 177.422 16.0824 177.535 15.4594C177.605 15.0748 177.339 15.202 176.997 15.2734C176.558 15.3647 176.234 15.4027 175.791 15.31C175.36 15.2199 174.878 15.0736 174.489 14.8789" stroke="white" stroke-linecap="round"/>
<path d="M177.584 26.3926C177.584 27.0294 177.584 27.6663 177.584 28.3031C177.584 28.9818 177.681 29.6495 177.685 30.3263C177.69 31.0194 177.787 31.7074 177.787 32.3947C177.787 32.6938 177.834 32.6106 178.102 32.4905C178.389 32.3624 178.735 32.1749 179.055 32.1749C179.309 32.1749 179.671 32.2061 179.878 32.3665C179.956 32.427 180.123 32.5299 180.222 32.5299" stroke="white" stroke-linecap="round"/>
<path d="M188.387 33.037C188.278 33.037 188.037 32.7603 188.037 33.006C188.037 33.0829 188.426 33.0313 188.234 32.9356" stroke="white" stroke-linecap="round"/>
<path d="M191.48 32.9867C192.85 32.9867 194.25 32.857 195.606 32.657C196.105 32.5834 196.659 32.4795 197.161 32.4795" stroke="white" stroke-linecap="round"/>
<path d="M195.337 32.5301C195.184 32.4537 195.152 32.1208 195.123 31.9778C195.024 31.5026 195.019 31.0173 194.982 30.535C194.906 29.5651 194.88 28.5937 194.88 27.6213C194.88 25.825 194.982 24.0337 194.982 22.2392C194.982 20.9653 194.777 19.7038 194.638 18.4407C194.567 17.7928 194.634 17.1397 194.475 16.502" stroke="white" stroke-linecap="round"/>
<path d="M190.721 16.5022C191.128 16.3567 191.597 16.3635 192.023 16.3585C192.632 16.3513 193.244 16.381 193.849 16.4515C194.474 16.5243 195.1 16.4906 195.728 16.5275C196.332 16.5631 196.938 16.5529 197.543 16.5529C198.209 16.5529 198.874 16.6854 199.535 16.7558C200.169 16.8233 200.828 16.85 201.434 17.0601C201.925 17.2303 202.523 17.3477 202.967 17.6237C203.837 18.1633 204.22 19.0093 204.283 20.0189C204.369 21.3934 203.916 22.8456 202.922 23.8061C202.179 24.525 201.033 24.875 200.056 25.1193C199.055 25.3697 198.045 25.3682 197.021 25.3785C196.258 25.3862 195.494 25.4292 194.728 25.4292" stroke="white" stroke-linecap="round"/>
<path d="M208.119 33.0378C208.774 33.0378 209.394 33.1072 210.047 33.0097C210.577 32.9304 211.132 33.0066 211.667 32.9843C212.296 32.9581 212.915 32.835 213.546 32.835" stroke="white" stroke-linecap="round"/>
<path d="M211.516 32.8856C211.168 31.8417 211.025 30.7316 210.908 29.6422C210.786 28.508 210.617 27.3891 210.541 26.2523C210.449 24.8656 210.451 23.485 210.451 22.0931C210.451 20.8108 210.502 19.5293 210.502 18.2495C210.502 17.8277 210.52 17.3236 210.603 16.9082" stroke="white" stroke-linecap="round"/>
<path d="M208.068 16.4004C209.217 16.4004 210.309 16.6173 211.427 16.8456C211.849 16.9316 212.421 16.8676 212.785 17.1105" stroke="white" stroke-linecap="round"/>
<path d="M211.871 17.1104C212.135 17.1714 212.359 17.4239 212.561 17.5951C212.815 17.8095 213.016 18.0464 213.246 18.277C213.611 18.642 213.822 19.0997 214.131 19.5056C214.563 20.0736 214.836 20.7557 215.168 21.3823C216.251 23.4263 218.022 25.0025 219.508 26.7504C220.673 28.1215 221.874 29.4747 222.979 30.8871C223.257 31.2425 223.457 31.6948 223.678 32.0903C223.801 32.3105 223.933 32.5014 224.073 32.7102C224.102 32.7548 224.192 32.9882 224.197 32.8004C224.251 30.3892 224.197 27.9755 224.25 25.5641C224.292 23.6719 224.309 21.8019 224.067 19.9227C223.915 18.7492 223.943 17.5329 223.943 16.3496" stroke="white" stroke-linecap="round"/>
<path d="M221.459 16.35C221.698 15.9585 222.362 16.0852 222.738 16.1076C223.463 16.1508 224.183 16.2552 224.905 16.3246C225.428 16.3748 225.955 16.4007 226.48 16.4007" stroke="white" stroke-linecap="round"/>
<path d="M247.428 15.8936C247.575 16.2295 247.64 16.5912 247.707 16.9503C247.83 17.6113 247.98 18.2854 248.031 18.9566C248.072 19.5017 248.189 20.0652 248.189 20.6107" stroke="white" stroke-linecap="round"/>
<path d="M247.934 18.5821C247.724 18.5353 247.438 18.2985 247.263 18.1764C246.869 17.9 246.465 17.6475 246.029 17.4409C245.377 17.1317 244.707 16.879 244.045 16.5927C243.199 16.2264 242.155 16.1324 241.236 16.0996C240.375 16.0688 239.499 16.0764 238.649 16.2236C237.867 16.359 236.945 16.5446 236.279 16.9985C235.475 17.5466 234.857 18.3319 234.315 19.1344C232.934 21.181 232.646 23.5679 232.779 25.9875C232.843 27.1314 233.089 28.4016 233.554 29.4535C233.718 29.8229 233.893 30.2636 234.118 30.5976C234.37 30.9711 234.742 31.2602 235.039 31.5951C235.479 32.0895 235.995 32.6319 236.612 32.8941C237.384 33.2229 238.156 33.606 238.984 33.7761C239.77 33.9374 240.607 33.9584 241.405 34.0241C243.323 34.1821 245.014 32.6308 245.984 31.102C247.083 29.3705 247.224 27.4252 247.224 25.4296" stroke="white" stroke-linecap="round"/>
<path d="M243.979 26.0881C245.191 25.8608 246.41 25.8437 247.633 25.9613C248.095 26.0058 248.537 26.0881 249 26.0881" stroke="white" stroke-linecap="round"/>
</g>
<defs>
<filter id="filter0_d_28_454" x="0" y="0" width="276" height="51" filterUnits="userSpaceOnUse" color-interpolation-filters="sRGB">
<feFlood flood-opacity="0" result="BackgroundImageFix"/>
<feColorMatrix in="SourceAlpha" type="matrix" values="0 0 0 0 0 0 0 0 0 0 0 0 0 0 0 0 0 0 127 0" result="hardAlpha"/>
<feOffset dx="1" dy="1"/>
<feComposite in2="hardAlpha" operator="out"/>
<feColorMatrix type="matrix" values="0 0 0 0 1 0 0 0 0 1 0 0 0 0 1 0 0 0 1 0"/>
<feBlend mode="normal" in2="BackgroundImageFix" result="effect1_dropShadow_28_454"/>
<feBlend mode="normal" in="SourceGraphic" in2="effect1_dropShadow_28_454" result="shape"/>
</filter>
</defs>
</svg>
