<svg width="1876" height="875" viewBox="0 0 1876 875" fill="none" xmlns="http://www.w3.org/2000/svg">
<path d="M299.395 72.5698C323.2 75.0757 346.313 83.3563 370.346 83.3563C373.595 83.3563 399.224 80.0062 388.923 78.9219C379.878 77.9698 375.366 72.7141 374.421 84.7945C372.62 107.801 374.9 130.308 374.9 153.349C374.9 204.125 377.057 254.914 377.057 305.798C377.057 326.093 377.057 346.388 377.057 366.682C377.057 371.824 380.775 378.442 381.492 384.54C381.89 387.919 389.72 419.208 383.529 419.896C362.724 422.207 299.794 419.896 320.728 419.896C348.023 419.896 375.439 415.581 402.466 415.581C410.536 415.581 419.161 414.399 426.675 417.738C434.119 421.047 445.079 425.693 433.147 417.738" stroke="black" stroke-width="30" stroke-linecap="round"/>
<path d="M374.898 107.087C376.591 98.625 389.657 91.9757 395.992 87.6711C405.858 80.9675 414.935 73.6739 425.955 68.9745C442.315 61.9972 457.568 59.3145 475.333 59.6262C486.648 59.8247 492.283 70.1447 498.943 77.9633C516.24 98.2676 524.535 115.082 529.146 141.724C535.183 176.607 537.171 222.394 524.232 255.941C511.419 289.159 490.048 312.031 452.681 312.031C446.244 312.031 439.56 312.494 433.146 311.911C418.771 310.604 407.598 293.998 397.071 285.664C389.968 280.041 383.833 271.245 377.056 266.727" stroke="black" stroke-width="30" stroke-linecap="round"/>
<path d="M614.359 161.019C663.25 161.019 712.006 163.178 760.577 161.019C788.973 159.757 777.642 128.273 768.726 110.442C752.713 78.4153 706.907 45.7394 670.689 66.5772C655.433 75.3547 645.865 79.478 636.891 94.8618C628.604 109.069 623.262 127.054 619.753 143.042C610.606 184.711 626.702 231.277 642.524 269.843C649.671 287.262 657.383 314.021 678.479 317.424C728.421 325.479 766.062 285.451 797.73 253.783" stroke="black" stroke-width="30" stroke-linecap="round"/>
<path d="M858.136 161.019C890.113 159.74 920.965 152.39 953.057 152.39C965.202 152.39 977.347 152.39 989.492 152.39C994.914 152.39 1007.5 154.873 1012.26 152.15C1020.91 147.209 1003.84 119.969 1001.72 115.716C991.784 95.8497 972.415 77.6879 952.099 68.2552C929.986 57.9886 883.999 48.0209 864.608 70.8919C853.557 83.9259 848.466 99.26 845.672 115.716C842.913 131.962 845.121 152.059 847.829 167.971C853.872 203.476 855.309 260.584 889.537 281.828C911.149 295.243 930.743 294.772 955.454 294.772C970.96 294.772 980.843 290.298 994.046 281.828C1005.64 274.39 1012.08 263.451 1022.09 255.941" stroke="black" stroke-width="30" stroke-linecap="round"/>
<path d="M1045.82 413.424C1073.37 412.535 1100 406.952 1127.68 406.952C1132.69 406.952 1149.23 404.513 1151.53 409.109" stroke="black" stroke-width="30" stroke-linecap="round"/>
<path d="M1095.44 413.424C1092.66 366.127 1101.91 319.753 1101.91 272.48C1101.91 234.62 1104.16 196.397 1106.1 158.502C1106.51 150.64 1109.89 88.7439 1106.94 87.6709C1083.47 79.1359 1060.71 86.8087 1039.35 72.5698" stroke="black" stroke-width="30" stroke-linecap="round"/>
<path d="M1110.54 91.9853C1125.93 84.6946 1138.13 76.4688 1155.12 72.0902C1178.45 66.0797 1200.83 66.0977 1224.64 66.0977C1245.64 66.0977 1257.63 71.1026 1268.74 91.0265C1283.75 117.944 1283.12 145.287 1283.12 175.161C1283.12 203.719 1284.94 237.08 1267.9 261.573C1249.34 288.261 1231.15 290.429 1198.51 293.094C1180.67 294.551 1152.45 300.632 1136.55 289.498C1126.39 282.392 1122.45 274.02 1114.37 265.049C1108.49 258.509 1106.3 253.892 1101.91 247.311" stroke="black" stroke-width="30" stroke-linecap="round"/>
<path d="M1390.99 91.9856C1359.63 123.347 1339.21 165.645 1339.21 210.398C1339.21 226.416 1337.32 240.393 1347.36 253.783C1357 266.634 1365.51 276.973 1377.56 287.821C1398.48 306.642 1448.37 313.298 1475.12 300.285C1492.98 291.6 1503.6 274.241 1513.95 258.098C1518.76 250.605 1521.31 240.258 1523.78 231.731C1526.04 223.935 1530.21 214.037 1531.09 206.083C1533.07 188.262 1531.21 169.24 1531.21 151.311C1531.21 135.621 1530.64 113.412 1521.26 100.375C1501.88 73.4069 1463.26 72.5698 1433.05 72.5698C1415.23 72.5698 1402.75 79.5585 1389.91 89.8283C1384.99 93.7597 1382.27 98.8325 1379 103.971C1376.73 107.548 1372.28 118.599 1369.41 120.031" stroke="black" stroke-width="30" stroke-linecap="round"/>
<path d="M3.84339 506.188C-15.2527 506.188 42.0357 506.188 61.1318 506.188C65.5525 506.188 81.4079 503.833 83.6636 508.345" stroke="black" stroke-width="14" stroke-linecap="round"/>
<path d="M42.6758 512.66C44.6213 536.006 56.1266 559.608 64.129 581.214C72.3055 603.291 83.7703 624.266 93.9717 645.454C103.423 665.084 106.392 687.693 109.432 708.974C109.877 712.085 109.552 715.426 109.552 718.562C109.552 724.505 116.139 706.711 116.504 705.858C122.908 690.867 130.643 676.764 135.919 661.274C144.809 635.179 149.553 609.158 156.054 582.533C161.196 561.474 171.663 541.466 180.743 522.008C181.291 520.834 187.042 508.066 187.335 510.263C189.476 526.317 188.915 542.316 189.852 558.443C191.708 590.407 195.637 622.294 200.039 653.843C202.155 669.007 208.027 679.982 213.103 693.873C216.097 702.068 218.752 710.367 221.732 718.562C224.999 727.546 226.406 733.792 232.519 722.877C249.464 692.617 264.553 662.47 275.185 629.394C281.172 610.768 285.511 591.774 290.646 572.944C294.82 557.639 296.509 540.994 302.032 526.083C303.2 522.93 306.312 511.358 308.024 510.503" stroke="black" stroke-width="30" stroke-linecap="round"/>
<path d="M308.023 510.503C298.025 510.503 288.921 508.345 279.139 508.345C271.549 508.345 258.684 509.382 275.184 507.267C298.657 504.257 323.165 506.188 346.854 506.188" stroke="black" stroke-width="30" stroke-linecap="round"/>
<path d="M387.842 532.075C351.347 566.177 347.416 636.484 359.917 684.405C365.176 704.565 390.787 740.187 413.729 741.334C420.727 741.684 427.009 743.491 434.344 743.491C453.941 743.491 467.129 740.45 484.92 732.825C514.458 720.166 524.927 687.124 534.538 659.356C544.746 629.867 553.088 590.651 547.362 559.162C542.81 534.123 529.215 521.735 509.13 508.345C483.71 491.398 446.402 490.918 420.441 508.225C404.435 518.896 390.729 532.308 374.898 542.862" stroke="black" stroke-width="30" stroke-linecap="round"/>
<path d="M569.055 495.401C569.055 510.947 591.287 508.345 601.414 508.345C615.896 508.345 629.692 504.031 644.56 504.031" stroke="black" stroke-width="30" stroke-linecap="round"/>
<path d="M629.462 501.873C617.224 536.363 617.368 573.034 611.245 608.899C608.204 626.708 610.046 646.053 610.046 664.15C610.046 686.616 613.107 708.454 612.204 731.027C611.837 740.197 578.811 739.176 571.215 739.176C554.036 739.176 605.58 739.585 622.75 739.057C639.606 738.538 656.333 737.019 673.207 737.019C676.977 737.019 681.675 738.301 683.395 734.862" stroke="black" stroke-width="30" stroke-linecap="round"/>
<path d="M620.832 562.278C622.239 543.287 639.388 509.781 657.506 499.716C672.772 491.235 686.724 488.929 704.008 488.929C718.48 488.929 722.986 493.468 730.855 505.708C737.71 516.372 739.985 537.911 737.207 550.412C735.116 559.821 724.535 559.849 719.109 553.648C716.054 550.156 715.753 537.806 715.753 533.154C715.753 528.388 726.404 507.126 731.813 519.491C734.349 525.288 734.198 537.813 731.933 543.701C731.122 545.81 725.448 550.114 724.502 545.858C723.275 540.334 724.303 533.872 726.54 528.839C728.407 524.639 717.802 534.587 713.596 536.39" stroke="black" stroke-width="30" stroke-linecap="round"/>
<path d="M713.598 372.435C724.165 377.576 734.195 383.222 746.077 383.222C750.723 383.222 766.408 380.809 767.53 385.858C775.656 422.426 766.546 462.123 770.167 499.237C776.627 565.452 767.53 631.508 767.53 697.709C767.53 705.048 771.455 729.014 763.096 731.626C753.604 734.592 744.603 734.453 735.171 738.697C723.913 743.763 741.929 732.041 744.998 730.547C757.4 724.514 781.18 727.23 794.616 728.51C801.584 729.174 807.697 732.922 814.512 734.383C818.038 735.138 825.935 741.649 823.62 737.019" stroke="black" stroke-width="30" stroke-linecap="round"/>
<path d="M771.844 609.739C788.426 609.739 804.323 609.545 820.383 612.016C829.455 613.411 838.409 615.028 847.829 614.053C872.193 611.533 880.053 563.243 887.14 545.02C890.387 536.669 890.734 527.523 894.331 519.132C895.518 516.361 902.208 503.393 899.844 502.353C888.037 497.158 871.89 495.314 859.215 493.364C848.947 491.784 860.195 491.087 864.608 491.087C874.19 491.087 882.416 491.62 890.495 497.079C905.736 507.377 936.827 514.817 955.215 514.817" stroke="black" stroke-width="30" stroke-linecap="round"/>
<path d="M866.766 598.952C882.214 605.389 886.509 630.227 896.848 641.859C907.671 654.035 910.453 671.917 917.342 686.323C920.63 693.196 934.712 737.563 927.17 741.334" stroke="black" stroke-width="30" stroke-linecap="round"/>
<path d="M922.854 741.334C910.67 741.334 898.485 741.334 886.3 741.334C871.658 741.334 904.359 734.052 908.233 732.705C934.917 723.423 962.624 735.175 987.573 743.491" stroke="black" stroke-width="30" stroke-linecap="round"/>
<path d="M961.688 670.143C962.974 688.158 974.106 709.875 980.624 726.712C984 735.435 989.848 747.811 999.32 750.442C1014.94 754.782 1047.41 775.228 1062 757.394C1070.56 746.932 1077.95 737.844 1083.34 725.274C1086.23 718.52 1084.53 709.815 1085.73 702.622C1088.03 688.82 1089.15 675.588 1088.97 661.514C1088.72 642.066 1082.5 627.723 1067.4 615.731C1054.96 605.855 1040.21 602.606 1027.49 593.798C1006.04 578.951 989.732 566.045 989.732 538.547C989.732 522.856 994.188 518.126 1008.07 513.499C1021.16 509.136 1035.35 501.873 1049.42 501.873C1081.8 501.873 1087.82 530.117 1101.67 554.368C1106.12 562.152 1098.99 536.637 1097.72 527.761C1096.44 518.788 1097.6 508.79 1097.6 499.716" stroke="black" stroke-width="30" stroke-linecap="round"/>
<path d="M1127.8 370.278C1131.48 371.095 1137.51 378.546 1140.74 381.064C1147.47 386.297 1154.14 389.723 1162.08 392.81C1177.5 398.807 1166.63 433.026 1166.63 445.783C1166.63 527.747 1153.69 609.551 1153.69 691.476C1153.69 700.046 1157.51 720.637 1153.21 728.39C1151.15 732.097 1141.69 737.71 1137.63 738.697C1135.08 739.317 1116.97 740.943 1126.12 737.019C1141.62 730.376 1153.5 721.918 1170.95 721.918C1181.57 721.918 1200.34 724.611 1205.46 734.862" stroke="black" stroke-width="30" stroke-linecap="round"/>
<path d="M1158 562.278C1181.37 546.1 1208.12 535.574 1232.43 521.169C1240.3 516.505 1247.32 516.31 1255.08 512.66C1272.41 504.504 1285.79 516.075 1295.59 529.439C1313.99 554.526 1323.92 578.784 1330.58 608.78C1337.82 641.328 1334.9 675.841 1334.9 708.974C1334.9 714.165 1338.02 738.417 1331.3 739.057C1319.19 740.21 1306.57 739.177 1294.39 739.177C1282.51 739.177 1270.89 739.693 1289.84 733.903C1306.88 728.695 1338.84 722.732 1356.47 729.589C1362.24 731.83 1367.61 738.497 1373.73 739.177C1379.26 739.791 1386.41 742.594 1390.99 745.649" stroke="black" stroke-width="30" stroke-linecap="round"/>
<path d="M1442.76 512.66C1423.44 512.66 1409.46 551.132 1403.81 566.952C1395.54 590.115 1390.99 608.798 1390.99 633.469C1390.99 673.208 1408.99 716.602 1448.76 732.225C1454.32 734.413 1459.64 738.298 1464.82 741.334C1470.08 744.421 1477.69 744.164 1483.63 745.649C1493.97 748.234 1504.61 749.071 1514.91 746.128C1527.32 742.582 1541.89 731.61 1550.51 721.918C1560.43 710.755 1572.54 702.084 1578.67 687.881C1592.26 656.423 1584.27 617.273 1578.19 585.049C1572.67 555.76 1552.21 521.224 1527.38 504.031C1514.35 495.012 1480.49 481.966 1464.82 493.723C1455.12 500.993 1444.86 509.456 1434.13 514.817" stroke="black" stroke-width="30" stroke-linecap="round"/>
<path d="M1619.66 491.087C1635.74 498.041 1672.54 504.006 1689.54 494.563C1690.95 493.78 1688.1 532.076 1687.74 535.312C1685 560 1682.44 586.586 1682.23 611.417C1681.94 644.656 1686.54 677.19 1686.54 710.293C1686.54 737.539 1686.54 764.785 1686.54 792.031C1686.54 797.13 1689.1 848.703 1684.38 849.199C1674.35 850.256 1666.63 849.236 1656.82 853.035C1646.98 856.841 1636.99 854.099 1627.09 856.87C1606.11 862.745 1647.88 854.875 1652.74 853.634C1666.48 850.127 1680.83 851.131 1694.69 848.72C1704.26 847.055 1713.32 847.042 1723.09 847.042C1735.07 847.042 1737.03 849.163 1738.32 836.255" stroke="black" stroke-width="30" stroke-linecap="round"/>
<path d="M1686.54 590.323C1693.18 573.515 1702.23 541.662 1717.82 530.997C1735 519.241 1749.35 499.716 1772.35 499.716C1807.26 499.716 1824.58 529.994 1839.71 557.004C1853.98 582.487 1854.81 614.079 1854.81 642.577C1854.81 665.407 1853.24 691.198 1836.47 708.854C1822.55 723.51 1801.43 738.572 1780.26 739.177C1760.83 739.732 1745.18 740.331 1727.77 731.626C1706.9 721.193 1699.76 692.933 1680.07 683.087" stroke="black" stroke-width="30" stroke-linecap="round"/>
<path d="M305.395 44.5698C329.2 47.0757 352.313 55.3563 376.346 55.3563C379.595 55.3563 405.224 52.0062 394.923 50.9219C385.878 49.9698 381.366 44.7141 380.421 56.7945C378.62 79.8013 380.9 102.308 380.9 125.349C380.9 176.125 383.057 226.914 383.057 277.798C383.057 298.093 383.057 318.388 383.057 338.682C383.057 343.824 386.775 350.442 387.492 356.54C387.89 359.919 395.72 391.208 389.529 391.896C368.724 394.207 305.794 391.896 326.728 391.896C354.023 391.896 381.439 387.581 408.466 387.581C416.536 387.581 425.161 386.399 432.675 389.738C440.119 393.047 451.079 397.693 439.147 389.738" stroke="#5C8E3C" stroke-width="30" stroke-linecap="round"/>
<path d="M380.898 79.0869C382.591 70.625 395.657 63.9757 401.992 59.6711C411.858 52.9675 420.935 45.6739 431.955 40.9745C448.315 33.9972 463.568 31.3145 481.333 31.6262C492.648 31.8247 498.283 42.1447 504.943 49.9633C522.24 70.2676 530.535 87.0816 535.146 113.724C541.183 148.607 543.171 194.394 530.232 227.941C517.419 261.159 496.048 284.031 458.681 284.031C452.244 284.031 445.56 284.494 439.146 283.911C424.771 282.604 413.598 265.998 403.071 257.664C395.968 252.041 389.833 243.245 383.056 238.727" stroke="#5C8E3C" stroke-width="30" stroke-linecap="round"/>
<path d="M620.359 133.019C669.25 133.019 718.006 135.178 766.577 133.019C794.973 131.757 783.642 100.273 774.726 82.4424C758.713 50.4153 712.907 17.7394 676.689 38.5772C661.433 47.3547 651.865 51.478 642.891 66.8618C634.604 81.0691 629.262 99.0544 625.753 115.042C616.606 156.711 632.702 203.277 648.524 241.843C655.671 259.262 663.383 286.021 684.479 289.424C734.421 297.479 772.062 257.451 803.73 225.783" stroke="#5C8E3C" stroke-width="30" stroke-linecap="round"/>
<path d="M864.136 133.019C896.113 131.74 926.965 124.39 959.057 124.39C971.202 124.39 983.347 124.39 995.492 124.39C1000.91 124.39 1013.5 126.873 1018.26 124.15C1026.91 119.209 1009.84 91.9685 1007.72 87.7159C997.784 67.8497 978.415 49.6879 958.099 40.2552C935.986 29.9886 889.999 20.0209 870.608 42.8919C859.557 55.9259 854.466 71.26 851.672 87.7159C848.913 103.962 851.121 124.059 853.829 139.971C859.872 175.476 861.309 232.584 895.537 253.828C917.149 267.243 936.743 266.772 961.454 266.772C976.96 266.772 986.843 262.298 1000.05 253.828C1011.64 246.39 1018.08 235.451 1028.09 227.941" stroke="#5C8E3C" stroke-width="30" stroke-linecap="round"/>
<path d="M1051.82 385.424C1079.37 384.535 1106 378.952 1133.68 378.952C1138.69 378.952 1155.23 376.513 1157.53 381.109" stroke="#5C8E3C" stroke-width="30" stroke-linecap="round"/>
<path d="M1101.44 385.424C1098.66 338.127 1107.91 291.753 1107.91 244.48C1107.91 206.62 1110.16 168.397 1112.1 130.502C1112.51 122.64 1115.89 60.7439 1112.94 59.6709C1089.47 51.1359 1066.71 58.8087 1045.35 44.5698" stroke="#5C8E3C" stroke-width="30" stroke-linecap="round"/>
<path d="M1116.54 63.9853C1131.93 56.6946 1144.13 48.4688 1161.12 44.0902C1184.45 38.0797 1206.83 38.0977 1230.64 38.0977C1251.64 38.0977 1263.63 43.1026 1274.74 63.0265C1289.75 89.9444 1289.12 117.287 1289.12 147.161C1289.12 175.719 1290.94 209.08 1273.9 233.573C1255.34 260.261 1237.15 262.429 1204.51 265.094C1186.67 266.551 1158.45 272.632 1142.55 261.498C1132.39 254.392 1128.45 246.02 1120.37 237.049C1114.49 230.509 1112.3 225.892 1107.91 219.311" stroke="#5C8E3C" stroke-width="30" stroke-linecap="round"/>
<path d="M1396.99 63.9856C1365.63 95.3472 1345.21 137.645 1345.21 182.398C1345.21 198.416 1343.32 212.393 1353.36 225.783C1363 238.634 1371.51 248.973 1383.56 259.821C1404.48 278.642 1454.37 285.298 1481.12 272.285C1498.98 263.6 1509.6 246.241 1519.95 230.098C1524.76 222.605 1527.31 212.258 1529.78 203.731C1532.04 195.935 1536.21 186.037 1537.09 178.083C1539.07 160.262 1537.21 141.24 1537.21 123.311C1537.21 107.621 1536.64 85.4122 1527.26 72.3751C1507.88 45.4069 1469.26 44.5698 1439.05 44.5698C1421.23 44.5698 1408.75 51.5585 1395.91 61.8283C1390.99 65.7597 1388.27 70.8325 1385 75.9706C1382.73 79.548 1378.28 90.5988 1375.41 92.0305" stroke="#5C8E3C" stroke-width="30" stroke-linecap="round"/>
<path d="M9.84339 478.188C-9.25274 478.188 48.0357 478.188 67.1318 478.188C71.5525 478.188 87.4079 475.833 89.6636 480.345" stroke="#5C8E3C" stroke-width="14" stroke-linecap="round"/>
<path d="M48.6758 484.66C50.6213 508.006 62.1266 531.608 70.129 553.214C78.3055 575.291 89.7703 596.266 99.9717 617.454C109.423 637.084 112.392 659.693 115.432 680.974C115.877 684.085 115.552 687.426 115.552 690.562C115.552 696.505 122.139 678.711 122.504 677.858C128.908 662.867 136.643 648.764 141.919 633.274C150.809 607.179 155.553 581.158 162.054 554.533C167.196 533.474 177.663 513.466 186.743 494.008C187.291 492.834 193.042 480.066 193.335 482.263C195.476 498.317 194.915 514.316 195.852 530.443C197.708 562.407 201.637 594.294 206.039 625.843C208.155 641.007 214.027 651.982 219.103 665.873C222.097 674.068 224.752 682.367 227.732 690.562C230.999 699.546 232.406 705.792 238.519 694.877C255.464 664.617 270.553 634.47 281.185 601.394C287.172 582.768 291.511 563.774 296.646 544.944C300.82 529.639 302.509 512.994 308.032 498.083C309.2 494.93 312.312 483.358 314.024 482.503" stroke="#5C8E3C" stroke-width="30" stroke-linecap="round"/>
<path d="M314.023 482.503C304.025 482.503 294.921 480.345 285.139 480.345C277.549 480.345 264.684 481.382 281.184 479.267C304.657 476.257 329.165 478.188 352.854 478.188" stroke="#5C8E3C" stroke-width="30" stroke-linecap="round"/>
<path d="M393.842 504.075C357.347 538.177 353.416 608.484 365.917 656.405C371.176 676.565 396.787 712.187 419.729 713.334C426.727 713.684 433.009 715.491 440.344 715.491C459.941 715.491 473.129 712.45 490.92 704.825C520.458 692.166 530.927 659.124 540.538 631.356C550.746 601.867 559.088 562.651 553.362 531.162C548.81 506.123 535.215 493.735 515.13 480.345C489.71 463.398 452.402 462.918 426.441 480.225C410.435 490.896 396.729 504.308 380.898 514.862" stroke="#5C8E3C" stroke-width="30" stroke-linecap="round"/>
<path d="M575.055 467.401C575.055 482.947 597.287 480.345 607.414 480.345C621.896 480.345 635.692 476.031 650.56 476.031" stroke="#5C8E3C" stroke-width="30" stroke-linecap="round"/>
<path d="M635.462 473.873C623.224 508.363 623.368 545.034 617.245 580.899C614.204 598.708 616.046 618.053 616.046 636.15C616.046 658.616 619.107 680.454 618.204 703.027C617.837 712.197 584.811 711.176 577.215 711.176C560.036 711.176 611.58 711.585 628.75 711.057C645.606 710.538 662.333 709.019 679.207 709.019C682.977 709.019 687.675 710.301 689.395 706.862" stroke="#5C8E3C" stroke-width="30" stroke-linecap="round"/>
<path d="M626.832 534.278C628.239 515.287 645.388 481.781 663.506 471.716C678.772 463.235 692.724 460.929 710.008 460.929C724.48 460.929 728.986 465.468 736.855 477.708C743.71 488.372 745.985 509.911 743.207 522.412C741.116 531.821 730.535 531.849 725.109 525.648C722.054 522.156 721.753 509.806 721.753 505.154C721.753 500.388 732.404 479.126 737.813 491.491C740.349 497.288 740.198 509.813 737.933 515.701C737.122 517.81 731.448 522.114 730.502 517.858C729.275 512.334 730.303 505.872 732.54 500.839C734.407 496.639 723.802 506.587 719.596 508.39" stroke="#5C8E3C" stroke-width="30" stroke-linecap="round"/>
<path d="M719.598 344.435C730.165 349.576 740.195 355.222 752.077 355.222C756.723 355.222 772.408 352.809 773.53 357.858C781.656 394.426 772.546 434.123 776.167 471.237C782.627 537.452 773.53 603.508 773.53 669.709C773.53 677.048 777.455 701.014 769.096 703.626C759.604 706.592 750.603 706.453 741.171 710.697C729.913 715.763 747.929 704.041 750.998 702.547C763.4 696.514 787.18 699.23 800.616 700.51C807.584 701.174 813.697 704.922 820.512 706.383C824.038 707.138 831.935 713.649 829.62 709.019" stroke="#5C8E3C" stroke-width="30" stroke-linecap="round"/>
<path d="M777.844 581.739C794.426 581.739 810.323 581.545 826.383 584.016C835.455 585.411 844.409 587.028 853.829 586.053C878.193 583.533 886.053 535.243 893.14 517.02C896.387 508.669 896.734 499.523 900.331 491.132C901.518 488.361 908.208 475.393 905.844 474.353C894.037 469.158 877.89 467.314 865.215 465.364C854.947 463.784 866.195 463.087 870.608 463.087C880.19 463.087 888.416 463.62 896.495 469.079C911.736 479.377 942.827 486.817 961.215 486.817" stroke="#5C8E3C" stroke-width="30" stroke-linecap="round"/>
<path d="M872.766 570.952C888.214 577.389 892.509 602.227 902.848 613.859C913.671 626.035 916.453 643.917 923.342 658.323C926.63 665.196 940.712 709.563 933.17 713.334" stroke="#5C8E3C" stroke-width="30" stroke-linecap="round"/>
<path d="M928.854 713.334C916.67 713.334 904.485 713.334 892.3 713.334C877.658 713.334 910.359 706.052 914.233 704.705C940.917 695.423 968.624 707.175 993.573 715.491" stroke="#5C8E3C" stroke-width="30" stroke-linecap="round"/>
<path d="M967.688 642.143C968.974 660.158 980.106 681.875 986.624 698.712C990 707.435 995.848 719.811 1005.32 722.442C1020.94 726.782 1053.41 747.228 1068 729.394C1076.56 718.932 1083.95 709.844 1089.34 697.274C1092.23 690.52 1090.53 681.815 1091.73 674.622C1094.03 660.82 1095.15 647.588 1094.97 633.514C1094.72 614.066 1088.5 599.723 1073.4 587.731C1060.96 577.855 1046.21 574.606 1033.49 565.798C1012.04 550.951 995.732 538.045 995.732 510.547C995.732 494.856 1000.19 490.126 1014.07 485.499C1027.16 481.136 1041.35 473.873 1055.42 473.873C1087.8 473.873 1093.82 502.117 1107.67 526.368C1112.12 534.152 1104.99 508.637 1103.72 499.761C1102.44 490.788 1103.6 480.79 1103.6 471.716" stroke="#5C8E3C" stroke-width="30" stroke-linecap="round"/>
<path d="M1133.8 342.278C1137.48 343.095 1143.51 350.546 1146.74 353.064C1153.47 358.297 1160.14 361.723 1168.08 364.81C1183.5 370.807 1172.63 405.026 1172.63 417.783C1172.63 499.747 1159.69 581.551 1159.69 663.476C1159.69 672.046 1163.51 692.637 1159.21 700.39C1157.15 704.097 1147.69 709.71 1143.63 710.697C1141.08 711.317 1122.97 712.943 1132.12 709.019C1147.62 702.376 1159.5 693.918 1176.95 693.918C1187.57 693.918 1206.34 696.611 1211.46 706.862" stroke="#5C8E3C" stroke-width="30" stroke-linecap="round"/>
<path d="M1164 534.278C1187.37 518.1 1214.12 507.574 1238.43 493.169C1246.3 488.505 1253.32 488.31 1261.08 484.66C1278.41 476.504 1291.79 488.075 1301.59 501.439C1319.99 526.526 1329.92 550.784 1336.58 580.78C1343.82 613.328 1340.9 647.841 1340.9 680.974C1340.9 686.165 1344.02 710.417 1337.3 711.057C1325.19 712.21 1312.57 711.177 1300.39 711.177C1288.51 711.177 1276.89 711.693 1295.84 705.903C1312.88 700.695 1344.84 694.732 1362.47 701.589C1368.24 703.83 1373.61 710.497 1379.73 711.177C1385.26 711.791 1392.41 714.594 1396.99 717.649" stroke="#5C8E3C" stroke-width="30" stroke-linecap="round"/>
<path d="M1448.76 484.66C1429.44 484.66 1415.46 523.132 1409.81 538.952C1401.54 562.115 1396.99 580.798 1396.99 605.469C1396.99 645.208 1414.99 688.602 1454.76 704.225C1460.32 706.413 1465.64 710.298 1470.82 713.334C1476.08 716.421 1483.69 716.164 1489.63 717.649C1499.97 720.234 1510.61 721.071 1520.91 718.128C1533.32 714.582 1547.89 703.61 1556.51 693.918C1566.43 682.755 1578.54 674.084 1584.67 659.881C1598.26 628.423 1590.27 589.273 1584.19 557.049C1578.67 527.76 1558.21 493.224 1533.38 476.031C1520.35 467.012 1486.49 453.966 1470.82 465.723C1461.12 472.993 1450.86 481.456 1440.13 486.817" stroke="#5C8E3C" stroke-width="30" stroke-linecap="round"/>
<path d="M1625.66 463.087C1641.74 470.041 1678.54 476.006 1695.54 466.563C1696.95 465.78 1694.1 504.076 1693.74 507.312C1691 532 1688.44 558.586 1688.23 583.417C1687.94 616.656 1692.54 649.19 1692.54 682.293C1692.54 709.539 1692.54 736.785 1692.54 764.031C1692.54 769.13 1695.1 820.703 1690.38 821.199C1680.35 822.256 1672.63 821.236 1662.82 825.035C1652.98 828.841 1642.99 826.099 1633.09 828.87C1612.11 834.745 1653.88 826.875 1658.74 825.634C1672.48 822.127 1686.83 823.131 1700.69 820.72C1710.26 819.055 1719.32 819.042 1729.09 819.042C1741.07 819.042 1743.03 821.163 1744.32 808.255" stroke="#5C8E3C" stroke-width="30" stroke-linecap="round"/>
<path d="M1692.54 562.323C1699.18 545.515 1708.23 513.662 1723.82 502.997C1741 491.241 1755.35 471.716 1778.35 471.716C1813.26 471.716 1830.58 501.994 1845.71 529.004C1859.98 554.487 1860.81 586.079 1860.81 614.577C1860.81 637.407 1859.24 663.198 1842.47 680.854C1828.55 695.51 1807.43 710.572 1786.26 711.177C1766.83 711.732 1751.18 712.331 1733.77 703.626C1712.9 693.193 1705.76 664.933 1686.07 655.087" stroke="#5C8E3C" stroke-width="30" stroke-linecap="round"/>
<path d="M299.395 30.5698C323.2 33.0757 346.313 41.3563 370.346 41.3563C373.595 41.3563 399.224 38.0062 388.923 36.9219C379.878 35.9698 375.366 30.7141 374.421 42.7945C372.62 65.8013 374.9 88.3076 374.9 111.349C374.9 162.125 377.057 212.914 377.057 263.798C377.057 284.093 377.057 304.388 377.057 324.682C377.057 329.824 380.775 336.442 381.492 342.54C381.89 345.919 389.72 377.208 383.529 377.896C362.724 380.207 299.794 377.896 320.728 377.896C348.023 377.896 375.439 373.581 402.466 373.581C410.536 373.581 419.161 372.399 426.675 375.738C434.119 379.047 445.079 383.693 433.147 375.738" stroke="#7DB05D" stroke-width="30" stroke-linecap="round"/>
<path d="M374.898 65.0869C376.591 56.625 389.657 49.9757 395.992 45.6711C405.858 38.9675 414.935 31.6739 425.955 26.9745C442.315 19.9972 457.568 17.3145 475.333 17.6262C486.648 17.8247 492.283 28.1447 498.943 35.9633C516.24 56.2676 524.535 73.0816 529.146 99.7236C535.183 134.607 537.171 180.394 524.232 213.941C511.419 247.159 490.048 270.031 452.681 270.031C446.244 270.031 439.56 270.494 433.146 269.911C418.771 268.604 407.598 251.998 397.071 243.664C389.968 238.041 383.833 229.245 377.056 224.727" stroke="#7DB05D" stroke-width="30" stroke-linecap="round"/>
<path d="M614.359 119.019C663.25 119.019 712.006 121.178 760.577 119.019C788.973 117.757 777.642 86.2735 768.726 68.4424C752.713 36.4153 706.907 3.73942 670.689 24.5772C655.433 33.3547 645.865 37.478 636.891 52.8618C628.604 67.0691 623.262 85.0544 619.753 101.042C610.606 142.711 626.702 189.277 642.524 227.843C649.671 245.262 657.383 272.021 678.479 275.424C728.421 283.479 766.062 243.451 797.73 211.783" stroke="#7DB05D" stroke-width="30" stroke-linecap="round"/>
<path d="M858.136 119.019C890.113 117.74 920.965 110.39 953.057 110.39C965.202 110.39 977.347 110.39 989.492 110.39C994.914 110.39 1007.5 112.873 1012.26 110.15C1020.91 105.209 1003.84 77.9685 1001.72 73.7159C991.784 53.8497 972.415 35.6879 952.099 26.2552C929.986 15.9886 883.999 6.02085 864.608 28.8919C853.557 41.9259 848.466 57.26 845.672 73.7159C842.913 89.9618 845.121 110.059 847.829 125.971C853.872 161.476 855.309 218.584 889.537 239.828C911.149 253.243 930.743 252.772 955.454 252.772C970.96 252.772 980.843 248.298 994.046 239.828C1005.64 232.39 1012.08 221.451 1022.09 213.941" stroke="#7DB05D" stroke-width="30" stroke-linecap="round"/>
<path d="M1045.82 371.424C1073.37 370.535 1100 364.952 1127.68 364.952C1132.69 364.952 1149.23 362.513 1151.53 367.109" stroke="#7DB05D" stroke-width="30" stroke-linecap="round"/>
<path d="M1095.44 371.424C1092.66 324.127 1101.91 277.753 1101.91 230.48C1101.91 192.62 1104.16 154.397 1106.1 116.502C1106.51 108.64 1109.89 46.7439 1106.94 45.6709C1083.47 37.1359 1060.71 44.8087 1039.35 30.5698" stroke="#7DB05D" stroke-width="30" stroke-linecap="round"/>
<path d="M1110.54 49.9853C1125.93 42.6946 1138.13 34.4688 1155.12 30.0902C1178.45 24.0797 1200.83 24.0977 1224.64 24.0977C1245.64 24.0977 1257.63 29.1026 1268.74 49.0265C1283.75 75.9444 1283.12 103.287 1283.12 133.161C1283.12 161.719 1284.94 195.08 1267.9 219.573C1249.34 246.261 1231.15 248.429 1198.51 251.094C1180.67 252.551 1152.45 258.632 1136.55 247.498C1126.39 240.392 1122.45 232.02 1114.37 223.049C1108.49 216.509 1106.3 211.892 1101.91 205.311" stroke="#7DB05D" stroke-width="30" stroke-linecap="round"/>
<path d="M1390.99 49.9856C1359.63 81.3472 1339.21 123.645 1339.21 168.398C1339.21 184.416 1337.32 198.393 1347.36 211.783C1357 224.634 1365.51 234.973 1377.56 245.821C1398.48 264.642 1448.37 271.298 1475.12 258.285C1492.98 249.6 1503.6 232.241 1513.95 216.098C1518.76 208.605 1521.31 198.258 1523.78 189.731C1526.04 181.935 1530.21 172.037 1531.09 164.083C1533.07 146.262 1531.21 127.24 1531.21 109.311C1531.21 93.6213 1530.64 71.4122 1521.26 58.3751C1501.88 31.4069 1463.26 30.5698 1433.05 30.5698C1415.23 30.5698 1402.75 37.5585 1389.91 47.8283C1384.99 51.7597 1382.27 56.8325 1379 61.9706C1376.73 65.548 1372.28 76.5988 1369.41 78.0305" stroke="#7DB05D" stroke-width="30" stroke-linecap="round"/>
<path d="M3.84339 464.188C-15.2527 464.188 42.0357 464.188 61.1318 464.188C65.5525 464.188 81.4079 461.833 83.6636 466.345" stroke="#7DB05D" stroke-width="14" stroke-linecap="round"/>
<path d="M42.6758 470.66C44.6213 494.006 56.1266 517.608 64.129 539.214C72.3055 561.291 83.7703 582.266 93.9717 603.454C103.423 623.084 106.392 645.693 109.432 666.974C109.877 670.085 109.552 673.426 109.552 676.562C109.552 682.505 116.139 664.711 116.504 663.858C122.908 648.867 130.643 634.764 135.919 619.274C144.809 593.179 149.553 567.158 156.054 540.533C161.196 519.474 171.663 499.466 180.743 480.008C181.291 478.834 187.042 466.066 187.335 468.263C189.476 484.317 188.915 500.316 189.852 516.443C191.708 548.407 195.637 580.294 200.039 611.843C202.155 627.007 208.027 637.982 213.103 651.873C216.097 660.068 218.752 668.367 221.732 676.562C224.999 685.546 226.406 691.792 232.519 680.877C249.464 650.617 264.553 620.47 275.185 587.394C281.172 568.768 285.511 549.774 290.646 530.944C294.82 515.639 296.509 498.994 302.032 484.083C303.2 480.93 306.312 469.358 308.024 468.503" stroke="#7DB05D" stroke-width="30" stroke-linecap="round"/>
<path d="M308.023 468.503C298.025 468.503 288.921 466.345 279.139 466.345C271.549 466.345 258.684 467.382 275.184 465.267C298.657 462.257 323.165 464.188 346.854 464.188" stroke="#7DB05D" stroke-width="30" stroke-linecap="round"/>
<path d="M387.842 490.075C351.347 524.177 347.416 594.484 359.917 642.405C365.176 662.565 390.787 698.187 413.729 699.334C420.727 699.684 427.009 701.491 434.344 701.491C453.941 701.491 467.129 698.45 484.92 690.825C514.458 678.166 524.927 645.124 534.538 617.356C544.746 587.867 553.088 548.651 547.362 517.162C542.81 492.123 529.215 479.735 509.13 466.345C483.71 449.398 446.402 448.918 420.441 466.225C404.435 476.896 390.729 490.308 374.898 500.862" stroke="#7DB05D" stroke-width="30" stroke-linecap="round"/>
<path d="M569.055 453.401C569.055 468.947 591.287 466.345 601.414 466.345C615.896 466.345 629.692 462.031 644.56 462.031" stroke="#7DB05D" stroke-width="30" stroke-linecap="round"/>
<path d="M629.462 459.873C617.224 494.363 617.368 531.034 611.245 566.899C608.204 584.708 610.046 604.053 610.046 622.15C610.046 644.616 613.107 666.454 612.204 689.027C611.837 698.197 578.811 697.176 571.215 697.176C554.036 697.176 605.58 697.585 622.75 697.057C639.606 696.538 656.333 695.019 673.207 695.019C676.977 695.019 681.675 696.301 683.395 692.862" stroke="#7DB05D" stroke-width="30" stroke-linecap="round"/>
<path d="M620.832 520.278C622.239 501.287 639.388 467.781 657.506 457.716C672.772 449.235 686.724 446.929 704.008 446.929C718.48 446.929 722.986 451.468 730.855 463.708C737.71 474.372 739.985 495.911 737.207 508.412C735.116 517.821 724.535 517.849 719.109 511.648C716.054 508.156 715.753 495.806 715.753 491.154C715.753 486.388 726.404 465.126 731.813 477.491C734.349 483.288 734.198 495.813 731.933 501.701C731.122 503.81 725.448 508.114 724.502 503.858C723.275 498.334 724.303 491.872 726.54 486.839C728.407 482.639 717.802 492.587 713.596 494.39" stroke="#7DB05D" stroke-width="30" stroke-linecap="round"/>
<path d="M713.598 330.435C724.165 335.576 734.195 341.222 746.077 341.222C750.723 341.222 766.408 338.809 767.53 343.858C775.656 380.426 766.546 420.123 770.167 457.237C776.627 523.452 767.53 589.508 767.53 655.709C767.53 663.048 771.455 687.014 763.096 689.626C753.604 692.592 744.603 692.453 735.171 696.697C723.913 701.763 741.929 690.041 744.998 688.547C757.4 682.514 781.18 685.23 794.616 686.51C801.584 687.174 807.697 690.922 814.512 692.383C818.038 693.138 825.935 699.649 823.62 695.019" stroke="#7DB05D" stroke-width="30" stroke-linecap="round"/>
<path d="M771.844 567.739C788.426 567.739 804.323 567.545 820.383 570.016C829.455 571.411 838.409 573.028 847.829 572.053C872.193 569.533 880.053 521.243 887.14 503.02C890.387 494.669 890.734 485.523 894.331 477.132C895.518 474.361 902.208 461.393 899.844 460.353C888.037 455.158 871.89 453.314 859.215 451.364C848.947 449.784 860.195 449.087 864.608 449.087C874.19 449.087 882.416 449.62 890.495 455.079C905.736 465.377 936.827 472.817 955.215 472.817" stroke="#7DB05D" stroke-width="30" stroke-linecap="round"/>
<path d="M866.766 556.952C882.214 563.389 886.509 588.227 896.848 599.859C907.671 612.035 910.453 629.917 917.342 644.323C920.63 651.196 934.712 695.563 927.17 699.334" stroke="#7DB05D" stroke-width="30" stroke-linecap="round"/>
<path d="M922.854 699.334C910.67 699.334 898.485 699.334 886.3 699.334C871.658 699.334 904.359 692.052 908.233 690.705C934.917 681.423 962.624 693.175 987.573 701.491" stroke="#7DB05D" stroke-width="30" stroke-linecap="round"/>
<path d="M961.688 628.143C962.974 646.158 974.106 667.875 980.624 684.712C984 693.435 989.848 705.811 999.32 708.442C1014.94 712.782 1047.41 733.228 1062 715.394C1070.56 704.932 1077.95 695.844 1083.34 683.274C1086.23 676.52 1084.53 667.815 1085.73 660.622C1088.03 646.82 1089.15 633.588 1088.97 619.514C1088.72 600.066 1082.5 585.723 1067.4 573.731C1054.96 563.855 1040.21 560.606 1027.49 551.798C1006.04 536.951 989.732 524.045 989.732 496.547C989.732 480.856 994.188 476.126 1008.07 471.499C1021.16 467.136 1035.35 459.873 1049.42 459.873C1081.8 459.873 1087.82 488.117 1101.67 512.368C1106.12 520.152 1098.99 494.637 1097.72 485.761C1096.44 476.788 1097.6 466.79 1097.6 457.716" stroke="#7DB05D" stroke-width="30" stroke-linecap="round"/>
<path d="M1127.8 328.278C1131.48 329.095 1137.51 336.546 1140.74 339.064C1147.47 344.297 1154.14 347.723 1162.08 350.81C1177.5 356.807 1166.63 391.026 1166.63 403.783C1166.63 485.747 1153.69 567.551 1153.69 649.476C1153.69 658.046 1157.51 678.637 1153.21 686.39C1151.15 690.097 1141.69 695.71 1137.63 696.697C1135.08 697.317 1116.97 698.943 1126.12 695.019C1141.62 688.376 1153.5 679.918 1170.95 679.918C1181.57 679.918 1200.34 682.611 1205.46 692.862" stroke="#7DB05D" stroke-width="30" stroke-linecap="round"/>
<path d="M1158 520.278C1181.37 504.1 1208.12 493.574 1232.43 479.169C1240.3 474.505 1247.32 474.31 1255.08 470.66C1272.41 462.504 1285.79 474.075 1295.59 487.439C1313.99 512.526 1323.92 536.784 1330.58 566.78C1337.82 599.328 1334.9 633.841 1334.9 666.974C1334.9 672.165 1338.02 696.417 1331.3 697.057C1319.19 698.21 1306.57 697.177 1294.39 697.177C1282.51 697.177 1270.89 697.693 1289.84 691.903C1306.88 686.695 1338.84 680.732 1356.47 687.589C1362.24 689.83 1367.61 696.497 1373.73 697.177C1379.26 697.791 1386.41 700.594 1390.99 703.649" stroke="#7DB05D" stroke-width="30" stroke-linecap="round"/>
<path d="M1442.76 470.66C1423.44 470.66 1409.46 509.132 1403.81 524.952C1395.54 548.115 1390.99 566.798 1390.99 591.469C1390.99 631.208 1408.99 674.602 1448.76 690.225C1454.32 692.413 1459.64 696.298 1464.82 699.334C1470.08 702.421 1477.69 702.164 1483.63 703.649C1493.97 706.234 1504.61 707.071 1514.91 704.128C1527.32 700.582 1541.89 689.61 1550.51 679.918C1560.43 668.755 1572.54 660.084 1578.67 645.881C1592.26 614.423 1584.27 575.273 1578.19 543.049C1572.67 513.76 1552.21 479.224 1527.38 462.031C1514.35 453.012 1480.49 439.966 1464.82 451.723C1455.12 458.993 1444.86 467.456 1434.13 472.817" stroke="#7DB05D" stroke-width="30" stroke-linecap="round"/>
<path d="M1619.66 449.087C1635.74 456.041 1672.54 462.006 1689.54 452.563C1690.95 451.78 1688.1 490.076 1687.74 493.312C1685 518 1682.44 544.586 1682.23 569.417C1681.94 602.656 1686.54 635.19 1686.54 668.293C1686.54 695.539 1686.54 722.785 1686.54 750.031C1686.54 755.13 1689.1 806.703 1684.38 807.199C1674.35 808.256 1666.63 807.236 1656.82 811.035C1646.98 814.841 1636.99 812.099 1627.09 814.87C1606.11 820.745 1647.88 812.875 1652.74 811.634C1666.48 808.127 1680.83 809.131 1694.69 806.72C1704.26 805.055 1713.32 805.042 1723.09 805.042C1735.07 805.042 1737.03 807.163 1738.32 794.255" stroke="#7DB05D" stroke-width="30" stroke-linecap="round"/>
<path d="M1686.54 548.323C1693.18 531.515 1702.23 499.662 1717.82 488.997C1735 477.241 1749.35 457.716 1772.35 457.716C1807.26 457.716 1824.58 487.994 1839.71 515.004C1853.98 540.487 1854.81 572.079 1854.81 600.577C1854.81 623.407 1853.24 649.198 1836.47 666.854C1822.55 681.51 1801.43 696.572 1780.26 697.177C1760.83 697.732 1745.18 698.331 1727.77 689.626C1706.9 679.193 1699.76 650.933 1680.07 641.087" stroke="#7DB05D" stroke-width="30" stroke-linecap="round"/>
</svg>
