<svg width="4739" height="3482" viewBox="0 0 4739 3482" fill="none" xmlns="http://www.w3.org/2000/svg">
<mask id="path-1-inside-1_24_144" fill="white">
<path fill-rule="evenodd" clip-rule="evenodd" d="M4398.37 1746.5C4398.37 1732.23 4393.11 1718.6 4385.19 1706.73C4359.68 1668.53 4344.37 1619.64 4344.37 1566.35C4344.37 1444.1 4424.96 1345 4524.37 1345C4623.78 1345 4704.37 1444.1 4704.37 1566.35C4704.37 1620.71 4688.43 1670.49 4662 1709.01C4654.37 1720.13 4649.37 1733.02 4649.37 1746.5V1746.5C4649.37 1815.81 4593.18 1872 4523.87 1872C4454.56 1872 4398.37 1815.81 4398.37 1746.5V1746.5Z"/>
</mask>
<path fill-rule="evenodd" clip-rule="evenodd" d="M4398.37 1746.5C4398.37 1732.23 4393.11 1718.6 4385.19 1706.73C4359.68 1668.53 4344.37 1619.64 4344.37 1566.35C4344.37 1444.1 4424.96 1345 4524.37 1345C4623.78 1345 4704.37 1444.1 4704.37 1566.35C4704.37 1620.71 4688.43 1670.49 4662 1709.01C4654.37 1720.13 4649.37 1733.02 4649.37 1746.5V1746.5C4649.37 1815.81 4593.18 1872 4523.87 1872C4454.56 1872 4398.37 1815.81 4398.37 1746.5V1746.5Z" fill="#D9D9D9"/>
<path d="M4662 1709.01L4605.1 1669.98L4662 1709.01ZM4413.37 1566.35C4413.37 1606.59 4424.96 1642.04 4442.57 1668.41L4327.81 1745.05C4294.4 1695.03 4275.37 1632.69 4275.37 1566.35H4413.37ZM4524.37 1414C4475.71 1414 4413.37 1468.19 4413.37 1566.35H4275.37C4275.37 1420.01 4374.2 1276 4524.37 1276V1414ZM4635.37 1566.35C4635.37 1468.19 4573.02 1414 4524.37 1414V1276C4674.54 1276 4773.37 1420.01 4773.37 1566.35H4635.37ZM4605.1 1669.98C4623.3 1643.45 4635.37 1607.41 4635.37 1566.35H4773.37C4773.37 1634.01 4753.57 1697.52 4718.89 1748.05L4605.1 1669.98ZM4523.87 1803C4555.07 1803 4580.37 1777.7 4580.37 1746.5H4718.37C4718.37 1853.92 4631.29 1941 4523.87 1941V1803ZM4467.37 1746.5C4467.37 1777.7 4492.66 1803 4523.87 1803V1941C4416.45 1941 4329.37 1853.92 4329.37 1746.5H4467.37ZM4718.89 1748.05C4718.51 1748.61 4718.25 1749.06 4718.1 1749.35C4717.95 1749.65 4717.91 1749.76 4717.95 1749.67C4718.02 1749.47 4718.37 1748.36 4718.37 1746.5H4580.37C4580.37 1715.81 4591.67 1689.55 4605.1 1669.98L4718.89 1748.05ZM4442.57 1668.41C4455.92 1688.4 4467.37 1715.18 4467.37 1746.5H4329.37C4329.37 1747.9 4329.63 1748.53 4329.52 1748.22C4329.4 1747.86 4328.95 1746.75 4327.81 1745.05L4442.57 1668.41Z" fill="black" fill-opacity="0.05" mask="url(#path-1-inside-1_24_144)"/>
<rect x="3071.04" y="2359" width="726" height="98" rx="49" transform="rotate(47 3071.04 2359)" fill="#D9D9D9"/>
<path d="M3077.59 2334H2090.35C2073.39 2334 2057.1 2340.48 2044.91 2352.26C1936.74 2456.71 1723.64 2672.39 1602.43 2830.5C1441.43 3040.5 1301.43 3362 1602.43 3467C1843.23 3551 2276.43 3255 2462.93 3096.5L3123.85 2447.08C3165.99 2405.67 3136.67 2334 3077.59 2334Z" fill="#B02A69"/>
<path d="M2090.35 2394.5H3077.59C3079.69 2394.5 3080.41 2395.01 3080.7 2395.21C3081.27 2395.62 3082.1 2396.49 3082.68 2397.92C3083.27 2399.35 3083.29 2400.55 3083.16 2401.24C3083.1 2401.59 3082.94 2402.45 3081.45 2403.92L2422.1 3051.8C2331.27 3128.78 2181.04 3238.68 2025.33 3318.91C1947.02 3359.25 1869.23 3391.09 1798.24 3407.98C1726.55 3425.04 1667.29 3425.55 1622.36 3409.88C1557.93 3387.4 1523.71 3355.95 1505.73 3323.47C1487.32 3290.23 1481.57 3248.03 1489.04 3196.87C1504.33 3092.29 1572.24 2969.31 1650.44 2867.31C1768.7 2713.06 1978.95 2500.06 2086.93 2395.78L2044.91 2352.26L2086.93 2395.78C2087.68 2395.06 2088.82 2394.5 2090.35 2394.5Z" stroke="black" stroke-opacity="0.05" stroke-width="121"/>
<path d="M341.247 2080.68L1209.25 2299.32C1250.93 2309.81 1291.45 2278.03 1288.47 2235.14C1243.97 1594.49 697.587 1345.11 363.386 1287.81C324.94 1281.21 291.367 1311.81 291.367 1350.82V2016.68C291.367 2046.93 311.921 2073.3 341.247 2080.68Z" fill="#EE348B"/>
<path d="M1217.67 2265.86L349.673 2047.23C335.677 2043.7 325.867 2031.12 325.867 2016.68V1350.82C325.867 1331.4 341.914 1319.13 357.556 1321.81C685.713 1378.08 1211.21 1620.76 1254.05 2237.53C1255.29 2255.37 1238.22 2271.03 1217.67 2265.86Z" stroke="black" stroke-opacity="0.05" stroke-width="69"/>
<path d="M1276.42 2583.5C1038.28 2481.52 676.774 2325.3 440.45 2219.3C387.067 2195.36 360.631 2156.27 356.17 2121.35C351.907 2087.97 366.533 2049.65 414.599 2021.39C775.476 1809.2 1425.38 1646.12 2108.53 1528.63C2769.25 1414.99 3454.73 1344.98 3925.37 1313.25V2531.55L1358.56 2599.15C1330.24 2599.9 1302.36 2594.61 1276.42 2583.5Z" fill="#FFA9D1" stroke="#F984BA" stroke-width="81"/>
<path d="M3552.32 1310.23C3535.79 1265.51 3481.02 1222.42 3436.41 1194.62C3410.57 1178.51 3380.07 1172.48 3349.64 1173.55C3101.64 1166.73 2594.66 1152.72 2550.77 1151.16C2511.49 1149.76 2129.92 1110.2 1885.22 1084.4C1832.29 1078.82 1778.93 1081.04 1726.64 1091.01L1657.07 1104.28C1546.39 1125.39 1440.93 1189.89 1403.84 1296.29C1384.5 1351.76 1365.73 1534.21 1464.12 1564.3C1562.52 1594.38 1799.52 1624.79 1862.62 1622.58C1925.72 1620.38 2690.17 1635.59 2715.28 1634.71C2740.39 1633.83 3217.31 1630.07 3292.83 1614.54C3368.36 1599.01 3439.4 1584.28 3498.06 1565.47C3556.71 1546.66 3559.96 1529.14 3587.09 1456.64C3614.21 1384.13 3580.08 1385.33 3552.32 1310.23Z" fill="#3C59A7" stroke="black" stroke-width="63.6741"/>
<path d="M1691.93 1265.06C1685.9 1214.21 1783.09 1146.36 1845.19 1111.34C1849.41 1108.96 1847.71 1102.33 1842.86 1102.33C1792.55 1109.02 1677.55 1125.45 1620.01 1137.71C1548.08 1153.04 1499.73 1164.83 1482.04 1173.08C1464.36 1181.34 1431.34 1265.06 1431.34 1296.89C1431.34 1316.67 1419.02 1373.73 1408.73 1417.21C1403.61 1438.85 1403.9 1461.45 1410.01 1482.83C1423.09 1528.61 1460.83 1563.14 1507.6 1572.11L1840.19 1635.89C1853.55 1638.46 1867.28 1633.81 1876.33 1623.66C1889.98 1608.36 1889.31 1585.07 1874.82 1570.57L1861.73 1557.49C1838.54 1534.3 1787.68 1480.37 1769.76 1450.18C1747.35 1412.45 1700.19 1334.63 1691.93 1265.06Z" fill="#304A9F"/>
<path d="M3552.32 1310.23C3535.79 1265.51 3481.02 1222.42 3436.41 1194.62C3410.57 1178.51 3380.07 1172.48 3349.64 1173.55C3101.64 1166.73 2594.66 1152.72 2550.77 1151.16C2511.49 1149.76 2129.92 1110.2 1885.22 1084.4C1832.29 1078.82 1778.93 1081.04 1726.64 1091.01L1657.07 1104.28C1546.39 1125.39 1440.93 1189.89 1403.84 1296.29C1384.5 1351.76 1365.73 1534.21 1464.12 1564.3C1562.52 1594.38 1799.52 1624.79 1862.62 1622.58C1925.72 1620.38 2690.17 1635.59 2715.28 1634.71C2740.39 1633.83 3217.31 1630.07 3292.83 1614.54C3368.36 1599.01 3439.4 1584.28 3498.06 1565.47C3556.71 1546.66 3559.96 1529.14 3587.09 1456.64C3614.21 1384.13 3580.08 1385.33 3552.32 1310.23Z" stroke="black" stroke-width="63.6741"/>
<path d="M854.388 2303.22L985.755 2001.39C1006.32 1954.15 966.982 1902.9 916.274 1912.02C373.666 2009.59 148.626 2220.57 80.2543 2365.75C62.0862 2404.33 97.1133 2439.82 139.354 2433.98L802.908 2342.26C825.7 2339.11 845.206 2324.32 854.388 2303.22Z" fill="#EE348B"/>
<path d="M954.121 1987.62L822.754 2289.45C818.372 2299.52 809.062 2306.58 798.184 2308.09L134.63 2399.81C124.088 2401.26 116.339 2397.35 112.699 2393.34C110.953 2391.41 110.196 2389.59 109.949 2388.05C109.723 2386.64 109.705 2384.19 111.466 2380.45C173.186 2249.39 385.508 2042.52 922.38 1945.98C944.955 1941.92 964.093 1964.71 954.121 1987.62Z" stroke="black" stroke-opacity="0.05" stroke-width="69"/>
<path d="M4411.37 2240C4404.44 2457.95 4174.89 2541.8 4015.24 2563.58C3978.28 2568.63 3947.37 2538.59 3947.37 2501.28V1333.74C3947.37 1300.9 3971.56 1273.16 4004.35 1271.34C4052.27 1268.68 4119.32 1268.34 4189.87 1276.5C4295.5 1288.72 4346.37 1561.84 4359.32 1702.81C4359.7 1706.99 4360.44 1710.98 4361.54 1715.03C4382.41 1792.2 4419.15 1995.08 4411.37 2240Z" fill="#FFFEFE"/>
<rect x="4344.37" y="1776" width="360" height="160" rx="80" fill="#D9D9D9" stroke="black" stroke-opacity="0.05" stroke-width="69"/>
<mask id="path-16-inside-2_24_144" fill="white">
<path fill-rule="evenodd" clip-rule="evenodd" d="M4650.37 1987.5C4650.37 1997.58 4654.14 2007.22 4660.14 2015.33C4687.69 2052.51 4704.37 2101.12 4704.37 2154.31C4704.37 2271.22 4623.78 2366 4524.37 2366C4424.96 2366 4344.37 2271.22 4344.37 2154.31C4344.37 2100.1 4361.69 2050.65 4390.19 2013.2C4395.84 2005.77 4399.37 1996.84 4399.37 1987.5V1987.5C4399.37 1918.19 4455.56 1862 4524.87 1862C4594.18 1862 4650.37 1918.19 4650.37 1987.5V1987.5Z"/>
</mask>
<path fill-rule="evenodd" clip-rule="evenodd" d="M4650.37 1987.5C4650.37 1997.58 4654.14 2007.22 4660.14 2015.33C4687.69 2052.51 4704.37 2101.12 4704.37 2154.31C4704.37 2271.22 4623.78 2366 4524.37 2366C4424.96 2366 4344.37 2271.22 4344.37 2154.31C4344.37 2100.1 4361.69 2050.65 4390.19 2013.2C4395.84 2005.77 4399.37 1996.84 4399.37 1987.5V1987.5C4399.37 1918.19 4455.56 1862 4524.87 1862C4594.18 1862 4650.37 1918.19 4650.37 1987.5V1987.5Z" fill="#D9D9D9"/>
<path d="M4390.19 2013.2L4445.1 2054.98L4390.19 2013.2ZM4660.14 2015.33L4715.59 1974.26L4660.14 2015.33ZM4635.37 2154.31C4635.37 2115.44 4623.16 2081.32 4604.7 2056.4L4715.59 1974.26C4752.21 2023.7 4773.37 2086.8 4773.37 2154.31H4635.37ZM4524.37 2297C4575.6 2297 4635.37 2244.03 4635.37 2154.31H4773.37C4773.37 2298.41 4671.95 2435 4524.37 2435V2297ZM4413.37 2154.31C4413.37 2244.03 4473.13 2297 4524.37 2297V2435C4376.78 2435 4275.37 2298.41 4275.37 2154.31H4413.37ZM4445.1 2054.98C4426.05 2080.02 4413.37 2114.68 4413.37 2154.31H4275.37C4275.37 2085.52 4297.34 2021.28 4335.28 1971.41L4445.1 2054.98ZM4524.87 1931C4493.66 1931 4468.37 1956.3 4468.37 1987.5H4330.37C4330.37 1880.08 4417.45 1793 4524.87 1793V1931ZM4581.37 1987.5C4581.37 1956.3 4556.07 1931 4524.87 1931V1793C4632.29 1793 4719.37 1880.08 4719.37 1987.5H4581.37ZM4335.28 1971.41C4333.4 1973.88 4330.37 1979.29 4330.37 1987.5H4468.37C4468.37 2014.39 4458.29 2037.65 4445.1 2054.98L4335.28 1971.41ZM4604.7 2056.4C4591.59 2038.7 4581.37 2014.99 4581.37 1987.5H4719.37C4719.37 1980.18 4716.69 1975.75 4715.59 1974.26L4604.7 2056.4Z" fill="black" fill-opacity="0.05" mask="url(#path-16-inside-2_24_144)"/>
<circle cx="3638.37" cy="2967" r="226" fill="#AD4575" stroke="#EE348B" stroke-width="74"/>
<circle cx="3638.37" cy="2967" r="144" fill="#FFA9D1"/>
<path d="M2613.06 1422.47C3169.74 1406.1 3391.29 1183.7 3396.75 1210.99V1010.5C3396.75 941.822 3417.57 871.025 3483.12 850.527C3489.27 848.602 3495.29 846.802 3501.01 845.018C3551.8 829.179 3540.86 764.419 3540.86 711.219C3540.86 612.688 3579.63 501.61 3556.65 405.796C3537.47 325.841 3491.49 242.328 3437.17 227.239C3338.93 199.95 3235.23 139.916 3126.08 68.966C3016.92 -1.9839 2864.11 47.1352 2825.91 68.966C2787.7 90.7967 2656.72 189.035 2553.02 194.493C2449.33 199.95 2372.92 90.7967 2094.58 107.17C1892.73 119.043 1606.88 568.289 1454.9 854.124C1426.21 908.092 1412.37 968.543 1412.37 1029.67C1412.37 1131.19 1454.25 1228.08 1548.38 1266.09C1765.84 1353.92 2184.6 1435.07 2613.06 1422.47Z" fill="#5C8E3C"/>
<path d="M3257.21 338.638C2941.2 411.23 3025.66 544.523 2779.07 670.96C2880.94 689.152 3125.08 722.262 3286.63 709.164C3417.34 698.565 3516.38 582.442 3568.69 493.205C3590.04 456.796 3593.6 412.051 3559.08 387.778C3501.17 347.068 3384.95 309.294 3257.21 338.638Z" fill="white"/>
<mask id="mask0_24_144" style="mask-type:alpha" maskUnits="userSpaceOnUse" x="2773" y="294" width="828" height="421">
<path d="M2778.34 670.034L2776.27 671.66L2778.86 672.122C2880.75 690.316 3125.02 723.451 3286.73 710.34C3367.9 703.758 3436.83 656.69 3489.97 600.686C3543.11 544.675 3580.56 479.605 3598.8 436.742L3599.16 435.904L3598.44 435.347C3558.26 404.296 3432.19 333.64 3248.65 298.68C3202.44 289.879 3158.34 302.173 3116.14 327.111C3073.96 352.041 3033.6 389.646 2994.82 431.597C2966.65 462.065 2939.27 494.874 2912.6 526.827C2902.55 538.865 2892.61 550.782 2882.76 562.407C2846.74 604.919 2812.03 643.513 2778.34 670.034Z" fill="white" stroke="#48733B" stroke-width="2.3583"/>
</mask>
<g mask="url(#mask0_24_144)">
<circle cx="3259.71" cy="578.943" r="200.253" fill="#000F00"/>
</g>
<path d="M2592.61 460.666C2349.17 460.666 2328.52 630.255 2113.25 725.376C2215.13 743.568 2461.97 825.02 2623.51 811.922C2688.08 806.686 2744.92 775.7 2792.22 734.925C2901.1 641.054 2846.84 482.857 2703.99 466.712C2670.25 462.899 2633.11 460.666 2592.61 460.666Z" fill="white"/>
<mask id="mask1_24_144" style="mask-type:alpha" maskUnits="userSpaceOnUse" x="2082" y="397" width="856" height="419">
<path d="M2089.57 724.326L2086.44 725.921L2089.89 726.537C2115.32 731.078 2151.26 739.571 2193.44 749.564L2195.4 750.029C2237.1 759.908 2284.74 771.197 2334.19 781.538C2434.62 802.538 2542.65 819.662 2623.61 813.098C2704.79 806.516 2773.72 759.449 2826.86 703.444C2880 647.433 2917.45 582.363 2935.69 539.501L2936.05 538.663L2935.33 538.106C2895.14 507.054 2769.08 436.399 2585.54 401.439C2539.35 392.641 2494.63 403.736 2451.24 426.426C2407.86 449.109 2365.73 483.416 2324.7 521.156C2304.18 540.03 2283.91 559.776 2263.89 579.369C2262.24 580.983 2260.59 582.596 2258.95 584.208C2240.61 602.162 2222.47 619.915 2204.51 636.696C2165.35 673.284 2127.11 705.163 2089.57 724.326Z" fill="white" stroke="#48733B" stroke-width="2.3583"/>
</mask>
<g mask="url(#mask1_24_144)">
<circle cx="2598.25" cy="667.179" r="195.873" fill="#000F00"/>
</g>
<circle cx="2662.43" cy="606.589" r="62.9427" fill="#FEFEFE"/>
<circle cx="2498.79" cy="568.011" r="24.3641" fill="#FEFEFE"/>
<circle cx="2538.45" cy="694.359" r="24.3641" transform="rotate(-4 2538.45 694.359)" fill="#FEFEFE"/>
<circle cx="2621.66" cy="759.013" r="34.2783" transform="rotate(-4 2621.66 759.013)" fill="#FEFEFE"/>
<circle cx="3321.88" cy="519.711" r="39.9841" transform="rotate(-4 3321.88 519.711)" fill="#FEFEFE"/>
<circle cx="3193.09" cy="478.535" r="24.3641" transform="rotate(-4 3193.09 478.535)" fill="#FEFEFE"/>
<circle cx="3189.29" cy="584.218" r="24.3641" transform="rotate(-4 3189.29 584.218)" fill="#FEFEFE"/>
<path d="M2053.35 517.503C2194.01 333.441 2369.92 313.533 2563.34 333.441C2615.66 338.827 2730.71 353.157 2806.33 373.297C2840.01 382.267 2899.75 368.1 2920.4 340.021C3010.45 217.574 3083.18 211.84 3179.62 198.062C3268.81 185.321 3476.93 283.006 3569.83 333.441C3457.45 267.922 3204.04 135.93 3089.54 132.113C2946.41 127.342 2823.15 194.136 2753.58 237.075C2684 280.014 2607.67 237.075 2507.48 237.075C2407.29 237.075 2074.99 122.814 1981.12 313.533" stroke="#48733B" stroke-width="30.6579" stroke-linecap="round"/>
<path d="M2764.08 1235.4L2625.78 1161.55C2647.05 1134.64 2696.37 1076.82 2723.4 1060.8C2750.43 1044.78 2820.19 1015.74 2851.69 1003.23C2889.86 996.553 2973.59 981.826 3003.13 976.319C3040.05 969.435 3120.78 963.177 3174.6 956.294C3228.41 949.41 3302.88 932.514 3346.06 932.514H3433.67V1003.23C3433.67 1020.12 3416.78 1080.83 3403.64 1100.85C3393.12 1116.87 3360.87 1147.99 3346.06 1161.55C3306.85 1177.2 3224.41 1209.86 3208.39 1215.37C3188.36 1222.26 3110.77 1252.29 3076.97 1252.29C3043.18 1252.29 2935.54 1256.05 2901.75 1252.29C2874.72 1249.29 2798.7 1239.78 2764.08 1235.4Z" fill="#D2A5BA"/>
<path d="M2903.31 1238.23C2877.06 1235.31 2804.17 1226.2 2768.44 1221.69L2647.55 1157.14C2657.46 1145.13 2669.97 1130.57 2682.81 1116.71C2701.31 1096.74 2719.11 1079.79 2730.61 1072.97C2756.13 1057.85 2823.2 1029.81 2855.56 1016.91C2894.33 1010.13 2976.46 995.686 3005.72 990.229C3023.51 986.913 3052.31 983.682 3083.99 980.38C3090.36 979.716 3096.84 979.05 3103.34 978.382C3128.85 975.759 3154.78 973.094 3176.39 970.329C3196.06 967.814 3218.55 963.964 3240.94 960.131C3249.57 958.653 3258.19 957.178 3266.63 955.782C3297.51 950.674 3325.81 946.663 3346.06 946.663H3419.52V1003.23C3419.52 1005.83 3418.77 1011.53 3416.99 1019.84C3415.29 1027.8 3412.86 1037.24 3410.02 1046.84C3404.14 1066.67 3397.11 1085.01 3391.81 1093.09C3387.4 1099.8 3377.64 1110.68 3366.35 1122.23C3356.24 1132.56 3345.67 1142.65 3338.4 1149.38C3298.1 1165.44 3219.07 1196.74 3203.79 1201.99C3200.64 1203.07 3196.38 1204.61 3191.28 1206.45C3179.03 1210.87 3161.91 1217.05 3143.53 1222.94C3117.03 1231.43 3091.29 1238.14 3076.97 1238.14C3067.52 1238.14 3052.2 1238.44 3034.44 1238.78C3020.32 1239.05 3004.66 1239.35 2989.17 1239.55C2953.49 1240.03 2919.14 1239.99 2903.31 1238.23Z" stroke="black" stroke-opacity="0.05" stroke-width="28.2996"/>
<path d="M2942.43 1161.55C2922.4 1161.55 2827.91 1141.53 2790.99 1141.53C2736.01 1141.53 2677.65 1173.04 2631.01 1143.94L2580.19 1112.23C2568.08 1104.67 2556.95 1095.63 2547.08 1085.32L2504.63 1040.99C2496.03 1032.02 2491.23 1020.07 2491.23 1007.64C2491.23 981.011 2512.82 959.422 2539.45 959.422H2545.05L3020.8 1021.4C3046.94 1024.81 3068.57 1043.37 3075.91 1068.69C3087.07 1107.24 3061.69 1146.82 3021.93 1152.27C2985.82 1157.23 2951.55 1161.55 2942.43 1161.55Z" fill="#D41C58"/>
<path d="M2942.43 1147.4C2938.73 1147.4 2930.23 1146.36 2917.65 1144.44C2909.2 1143.14 2899.54 1141.55 2889.23 1139.85C2884.7 1139.11 2880.05 1138.34 2875.32 1137.57C2845.03 1132.64 2810.86 1127.38 2790.99 1127.38C2775.98 1127.38 2761.05 1129.52 2746.86 1132.07C2741.06 1133.11 2735.55 1134.18 2730.19 1135.22C2721.9 1136.84 2713.93 1138.39 2705.7 1139.67C2679.16 1143.79 2657.3 1143.67 2638.5 1131.94L2587.68 1100.23C2576.57 1093.29 2566.36 1085 2557.3 1075.53L2514.85 1031.21C2508.77 1024.87 2505.38 1016.42 2505.38 1007.64C2505.38 988.826 2520.64 973.572 2539.45 973.572H2544.13L3018.97 1035.43C3039.53 1038.11 3056.55 1052.71 3062.31 1072.63C3071.11 1102.99 3051.1 1133.99 3020.01 1138.25C3001.99 1140.73 2984.48 1143.04 2970.38 1144.72C2955.85 1146.46 2945.95 1147.4 2942.43 1147.4Z" stroke="black" stroke-opacity="0.05" stroke-width="28.2996" stroke-linecap="round"/>
<path d="M2113.88 727.881V727.881C2062.25 727.881 1953.53 714.004 1989.63 677.099C1991.29 675.406 1993.47 673.763 1996.23 672.185C2035.65 649.657 2060.68 694.714 2113.88 624.625C2167.07 554.537 2286.59 339.89 2546.92 370.554C2755.19 395.085 2848.14 393.708 2868.58 389.953" stroke="#48733B" stroke-width="30.6579" stroke-linecap="round"/>
<path d="M3576.98 510.73V510.73C3537.06 601.266 3485.66 699.805 3392.54 733.256C3391.62 733.588 3390.72 733.883 3389.87 734.138C3361.33 742.649 3293.29 768.556 3262.83 780.446" stroke="#48733B" stroke-width="30.6579" stroke-linecap="round"/>
<path d="M1799.73 373.682L1910.5 217.234L1799.73 324.245C1743.41 400.383 1628.51 555.662 1619.5 567.677C1608.24 582.696 1486.84 777.318 1471.82 788.582C1456.8 799.846 1412.99 932.514 1412.99 954.416V1053.92L1471.82 1231.02L1822.26 1334.27C1822.26 1316.12 1673.95 1184.71 1666.44 1122.13C1658.93 1059.55 1637.55 842.466 1648.92 788.582C1687.71 604.599 1769.07 416.653 1799.73 373.682Z" fill="#48733B"/>
<path d="M3379.85 1162.18V1162.18C3401.15 1176.13 3398.73 1213.02 3376.3 1225.06C3269.38 1282.45 3019.94 1410.5 2613.06 1422.47C2184.6 1435.07 1765.84 1353.92 1548.38 1266.09C1454.25 1228.08 1412.37 1131.19 1412.37 1029.67V1029.67C1412.37 968.543 1426.21 908.092 1454.9 854.124C1606.88 568.289 1892.73 119.043 2094.58 107.17C2372.92 90.7967 2449.33 199.95 2553.02 194.493C2656.72 189.035 2787.7 90.7967 2825.91 68.966C2864.11 47.1352 3016.92 -1.9839 3126.08 68.966C3235.23 139.916 3338.93 199.95 3437.17 227.239C3468.5 235.942 3500.47 260.896 3527.37 292.443C3619.47 400.469 3563.44 569.765 3543.81 710.358V710.358" stroke="black" stroke-width="63.6741" stroke-linecap="round"/>
<path d="M2446.18 926.884C2478.91 926.884 2659.85 996.346 2872.97 996.346C3218.64 996.346 3435.55 926.884 3546.94 753.539M2443.05 951.289L2523.81 1055.48C2625.24 1186.35 2781.5 1262.93 2947.07 1262.93C3014.3 1262.93 3080.92 1250.28 3143.46 1225.62L3330.32 1151.96C3343.67 1146.7 3356.17 1139.53 3367.44 1130.65C3436.7 1076.13 3442.93 973.4 3380.76 910.907L3377.35 907.484" stroke="#B0643E" stroke-width="66.0324" stroke-linecap="round"/>
<rect x="2538.37" y="2162" width="120" height="645" rx="60" fill="#57052B"/>
<rect x="2553.37" y="2177" width="90" height="615" rx="45" stroke="black" stroke-opacity="0.05" stroke-width="30"/>
<rect x="2113.37" y="2410" width="120" height="854" rx="60" fill="#57052B"/>
<rect x="2128.37" y="2425" width="90" height="824" rx="45" stroke="black" stroke-opacity="0.05" stroke-width="30"/>
<rect x="2113.8" y="2548" width="32" height="854" rx="16" transform="rotate(42 2113.8 2548)" fill="#57052B"/>
<rect x="2114.4" y="2559.3" width="16" height="838" rx="8" transform="rotate(42 2114.4 2559.3)" stroke="black" stroke-opacity="0.05" stroke-width="16"/>
<rect width="32" height="854" rx="16" transform="matrix(-0.743145 0.669131 0.669131 0.743145 1586.15 2569)" fill="#57052B"/>
<rect x="-0.592114" y="11.2982" width="16" height="838" rx="8" transform="matrix(-0.743145 0.669131 0.669131 0.743145 1577.56 2572.3)" stroke="black" stroke-opacity="0.05" stroke-width="16"/>
<rect x="2541.8" y="2098" width="32" height="854" rx="16" transform="rotate(42 2541.8 2098)" fill="#57052B"/>
<rect x="2542.4" y="2109.3" width="16" height="838" rx="8" transform="rotate(42 2542.4 2109.3)" stroke="black" stroke-opacity="0.05" stroke-width="16"/>
<rect width="32" height="854" rx="16" transform="matrix(-0.743145 0.669131 0.669131 0.743145 2014.15 2119)" fill="#57052B"/>
<rect x="-0.592114" y="11.2982" width="16" height="838" rx="8" transform="matrix(-0.743145 0.669131 0.669131 0.743145 2005.56 2122.3)" stroke="black" stroke-opacity="0.05" stroke-width="16"/>
<rect x="1471.37" y="2586" width="120" height="645" rx="60" fill="#57052B"/>
<rect x="1486.37" y="2601" width="90" height="615" rx="45" stroke="black" stroke-opacity="0.05" stroke-width="30"/>
<path d="M2944.03 1760H1956.79C1939.83 1760 1923.54 1766.48 1911.34 1778.26C1803.17 1882.71 1590.08 2098.39 1468.87 2256.5C1307.87 2466.5 1167.87 2788 1468.87 2893C1709.67 2977 2142.87 2681 2329.37 2522.5L2990.29 1873.08C3032.43 1831.67 3003.11 1760 2944.03 1760Z" fill="#EE348B"/>
<path d="M1956.79 1794.5H2944.03C2972.23 1794.5 2986.22 1828.71 2966.11 1848.47L2306.08 2497.01C2214.21 2574.97 2061.96 2686.47 1903.68 2768.02C1824.27 2808.93 1744.44 2841.73 1670.69 2859.27C1596.56 2876.91 1531.72 2878.39 1480.23 2860.43C1411.15 2836.33 1371.15 2801.29 1349.42 2762.07C1327.45 2722.4 1321.73 2674.02 1329.75 2619.11C1345.99 2508.01 1417.06 2380.78 1496.25 2277.49C1615.77 2121.59 1827.24 1907.43 1935.31 1803.08C1940.98 1797.6 1948.63 1794.5 1956.79 1794.5Z" stroke="black" stroke-opacity="0.05" stroke-width="69"/>
</svg>
